<mxfile host="app.diagrams.net" modified="2021-04-19T06:20:05.453Z" agent="5.0 (Windows NT 10.0; Win64; x64) AppleWebKit/537.36 (KHTML, like Gecko) Chrome/89.0.4389.128 Safari/537.36" etag="cw0o76C1Ea3jdgA4l-QC" version="14.6.1" type="github">
  <diagram id="zx2tIlp7ZkbmtfwbzRPO" name="Page-1">
    <mxGraphModel dx="868" dy="482" grid="0" gridSize="10" guides="1" tooltips="1" connect="1" arrows="1" fold="1" page="0" pageScale="1" pageWidth="850" pageHeight="1100" background="#FFFFFF" math="0" shadow="0">
      <root>
        <mxCell id="0" />
        <mxCell id="1" parent="0" />
        <mxCell id="hEISInPQRgZ5dUjzCxsK-1" value="" style="shape=image;imageAspect=0;aspect=fixed;verticalLabelPosition=bottom;verticalAlign=top;image=data:image/png,iVBORw0KGgoAAAANSUhEUgAAA1wAAAOKCAYAAACPglH2AAB/mUlEQVR42uzdB5QlVbn28csMYYhDzkmCopIRzAJXgoqoqCQzYkAUBcwo5oyi4hUxYgAUxYAoKCjTOec83dPd0zmnit3ndPd7ax8cnZFJ3X3C3rv+71q/te76vrXuHfqcU1VPVe1n/08YhgIAAAAASL//4Y8AAAAAAAQuAAAAACBwAQAAAAAIXAAAAABA4AIAAAAAAhcAAAAAgMAFAAAAAAQuAAAAACBwAQAAAAAIXAAAAABA4AIAAAAAAhcAAAAAgMAFAAAAAAQuAAAAACBwAQAAAAAIXAAAAABA4AIAAAAAAhcAAAAAgMAFAAAAAAQuAAAAACBwAQAAAAAIXAAAAABA4AIAAAAAAhcAAAAAgMAFAAAAAAQuAAAAACBwAQAAAAAIXAAAAABA4AIAAAAAAhcAAAAAgMAFAAAAAAQuAAAAACBwAQAAAAAIXAAAAABA4AIAAAAAAhcAAAAAgMAFAAAAAAQuAAAAACBwAQAAAAAIXAAAi6wbDeSkEle+2unz9wAAELgAAEincytc+Z8nnZS7ewhdAAACFwAAadEwGfw7bCl75jlSG/2/8bcBABC4AABYAS8I5aVV7haBSzm1zJUxj9AFACBwAQCwbLe2eU8LW5u8ts6VgL8RAIDABQDA0t3fH8gu2whbm9zewXouAACBCwCAJameCGSffHe7YUtRgezBAV4tBAAQuAAA2CnDXignluw4bG2ybxTMqiYIXQAAAhcAANulSjIuqfF2OmxtogLaoMvfDwBA4AIAYJtublt62NrkgmpXnIC/IQCAwAUAwNP8rM9fdtja5N0tHn9LAACBCwCAzRWOBbImz1lx4FK+001zIQCAwAUAQErXTChHFqUnbCm7rnPk0WFKNAAABC4AQMxN+aGcW+GmLWxtckCBI41ThC4AAIELABBjb2700h62NnlWqSvDLqELAEDgAgDE0Fc7/YyFrU1UxbxHcyEAgMAFAIiTh4d8Wb3OyXjgUm5qpbkQAEDgAgDERP1kIGvzsxO2Nrm7h+ZCAACBCwBguWEvTK2tymbYUnbPc+Sfo6znAgAQuAAAllJrqS6t9bIetjY5uMCRtmlCFwCAwAUAsNDNbbkLW5ucWubKmEfoAgAQuAAAFvlZn5/zsLXJq+s88flMAAAELgCADQrGAlmT52gTuJSPrqe5EABA4AIAGG7DTCCHF+oVtpRdIuqpG58RAIDABQAw0qQfylnlrnZhaxP11C1/jPVcAAACFwDAMEHkjfX6hq1NDit0pJ3mQgAAgQsAYJLbO3ztw9Ymp5c5Mk5zIQCAwAUAMMGvB4LUGqn/Mchr6lzxAz47AACBCwCgsbKJUPbOd40KW5t8jOZCAACBCwCgq41OKEcXOUaGrU3NhffSXAgAIHABAHQz5YdyXoVrbNiiuRAAQOACAGjrTY2e8WFr8+bCjmk+UwAAgQsAoIEvd/rWhK1NzqC5EABA4AIA5NpDA76sWudYF7hoLgQAELgAADlVNRHIvvmulWFrk4/TXAgAIHABALKt3w3l+GK7wxbNhQAAAhcAIOtm/FBeUmV/2Nq8ubCA5kIAAIELAJAN1zV5sQlbWzQXzvDZAwAIXACADLqjy49d2KK5EABA4AIAZNwjQ76sXufENnApr6W5EABA4AIApFv9ZCBr8+MdtmguBAAQuAAAaTfkhXJSiUvY2qy58Oc0FwIACFwAgJVyg1AurCZs0VwIACBwAQDS7n2tPgFre82F04QuAACBCwCwDHd1E7Z25MxyVyZoLgQAELgAAEvx2HAgu60jUO2MK+pcCfjOAAAIXACAndE0FcgBBQSppfhkO82FAAACFwBgB4a9UJ5VSknGcpoLf9lPcyEAgMAFANgG1Uh4cY1HgFqmPfMcKaK5EABA4AIAbM2NNBKu2BFFjnTO8F0CABC4AACb+d5Gwla6nEVzIQCAwAUA2IRGQpoLAQAELgBABtBImDm30VwIAAQu/ggAEF80EmajuZBXCwGAwAUAiB0aCWkuBAAQuAAAGUIjIc2FAAACFwAgA2gkpLkQAEDgAgBkAI2EufP6epoLAYDABQCwFo2EufcpmgsBgMAFALAPjYT6NBf+iuZCACBwAQDsQSOhfs2FxeOELgAgcAEArEAjIc2FAAACFwAgA2gk1NfZNBcCAIELAGAuGglpLgQAELgAABlAIyHNhQAAAhcAIANoJKS5EABA4AIAZACNhDQXAgAIXACADHk/jYQ0FwIACFwAgPSjkdCW5kK+ywBA4AIAaOVvNBJa4w00FwIAgQsAoA8aCe3z6Q6f7zYAELgAALlGI6G9zYX30VwIAAQuAEDu0Ehof3NhCc2FAEDgAgDkBo2E8Wgu7KK5EAAIXACA7KKRMD7OqXBl0uc7DwAELgBAVjxGIyHNhQAAAhcAIP0aaSSkuRAAQOACAKTfkBfKM2kkjHVz4a9oLgQAAhcAIP1UI+GF1YQtmgsdKaa5EAAIXACA9HpPC/Xv+E9zYSfNhQBA4AIApMedXYQtbOmsclcmPJ50AQCBCwCwIn8Z8mVXGgmxFVfU0VwIAAQuAMCy1U8GsjafYIFtu63d47cCAAQuAMBSDbihnFhCSQZ23Fz4iz7q4gGAwAUA2GlOEMrLqghb2Dlr8hwpGGM9FwAQuAAAO+WdzZRkYGkOK3Skg+ZCACBwAQC27xtdPgECy3JGmSPjNBcCAIELALB1fxr0ZTWNhFiB19S54gf8lgCAwAUA2ELNRCD7FbBuCyv3sfU0FwIAgQsA8G99bijPoJEQaWwu/BnNhQBA4AIAhDLjh/KiSsIW0t9cmE9zIQAQuAAg7t7aSCMhMuPQQkfapwldAEDgAoCY+konjYTIrNPLHBmjuRAACFwAEDcPDfiyikZCZMHldR7NhQBA4AKA+KicCGSffNZtIXs+3EZzIQAQuAAgBnqcUI4tJmwh+37cS3MhABC4AMBiU34oz6eREDmyR54jT46yngsACFwAYKEgcm0DjYTIrUMKHWmjuRAACFwAYJvPb6CREHo4tcyVUZoLAYDABQC2eHAgoJEQWrmM5kIAIHABgA3KJkLZm0ZCaOgWmgsBgMAFACbrdkI5uogLe+jrhz00FwIAgQsADDTph3JOBU+2oLfd8xz5J82FAEDgAgCTqEbCK+sJWzDDwQWOtEwRugCAwAUAhvh0B42EMMtzylwZcQldAEDgAgDN3d8fyC5cwMNAl9Z64tFcCAAELgDQVfF4IHvRSAiD3dRKcyEAELgAQEOdM6EcSSMhLHA3zYUAQOACAJ1MeIGcWc6TLdjTXPj4COu5AIDABQCaNBK+ro6wBbscVOBIM82FAEDgAoBc+/h6jwt0WOnZZa4M01wIAAQuAMiVn/f5NBLCapfU0FwIAAQuAMiBdaOBrMnjghz2+0ArJRoAQOACgCxaPx3IoYVciCM+/m8joQsACFwAkAWjXiCn0UiImNltnSN/G2Y9FwAQuAAgg9RalsvqKMlAPB1Q4EgjzYUAQOACgEz5UCthC/H2zFJXhj2OBQBA4AKANLunx+eCG4i8vMYTl+ZCACBwAUC6PD4SyO40EgL/9j6aCwGAwAUA6dA0FciBBVxgA//tu92ELgAgcAHACqi1KqeU0kgIbM2u6xx5lOZCACBwAcByqDUqF9VQkgFsz/75jjRMEroAgMAFAEt0QwthC9gZJ5e6MkRzIQAQuABgZ327m0ZCYCn+t9oVh+ZCACBwAcCO/GXIT61N4SIaWJp3t3gcQwCAwAUA21Y3GcjafC6cgeW6s4vQBQAELgDYigE3lBNKaCQEVtpc+MgQdfEAQOACgM3M+KG8tIqwBaSDekpcR3MhABC4AGCT65poJATS6cQSVwZdji0AQOACEHtf66KREMiE82kuBAACF4B4+/2gL6tpJAQy5vpmSjQAELj4QwCIpcrxQPbNZ90WkGnfpLkQAIELAOKl1wnluGLCFpAN6inywzQXAiBwAUA8TPmhPL+SsAVktbmwwJWaCZoLARC4AMBqQeTaBhoJgVx4Rokr/TQXAiBwAYC9PreBRkIgl9R+d2rfO45HAAhcAGCZXw8EsopGQiDn3tFEiQYAAhcAWKVkPJC9aCQEtPH1Lko0ABC4AMAKXTOhHFnEBS6gW3PhHwYJXQAIXABgtAkvlLPLebIF6Gi/AleqaC4EQOACAHMbCa+oI2wBOju+2JU+mgsBELgAwDyfaKf+HTDBi2kuBEDgAgCz/LzPl124kAWM8TaaCwEQuADADPljgazJ4wIWMM1XOynRAEDgAgCtrZ8O5NBCLlwBE6l98n43QOgCQOACAC2NeoGcTiMhYLR9812pGKe5EACBCwC04gehvLqOkgzABscWu9LrcFwDQOACAG3c3EbYAmzywkpXpmkuBEDgAoDcu6fH5wIVsNCbG2kuBEDgAoCcenwkkN1pJASs9SWaCwEQuAAgN5qmAjmogAtSwPbmwt/SXAiAwAUA2TXshXJKKY2EQBzsk+9KOc2FAAhcAJAdbhDKRTWUZABxcnSRIxtpLgRA4AKAzHtvC2ELiKPzKlyZorkQAIELADLnzi7CFhBnVzd4EnAsBEDgAoD0e3jIl13XccEJxN1nOyjRAEDgAoC0qpkIZG0BJRkAHNkl8sAAJRoACFwAkBb9bijPKCFsAfiPvfJdKaG5EACBCwBWZtoP5UWVhC0AT3dEkSOdMxwnARC4AGDZ3tpISQaAbTu73JUJjyddAAhcALBkX9zgc0EJYIdeX+/SXAiAwAUAS/HgQCCraCQEsJNua/c4dgIgcAHAziibCGXvfNZtAVhac+Ev+qiLB0DgAoDt6poJ5agiLh4BLN2aPEcKxljPBYDABQBbNemHqQXwXDgCWK7DCh3pmOZ4CoDABQBbUAve31BP2AKwcmeUOTJOcyEAAhcA/Mcn2ql/B5A+l9e64gccWwEQuABAft7npxa8c5EIIJ0+up7mQgAELgAxt240SC105+IQQCb8uJfmQgAELgAxtX46kEMLuSAEkDl75Dny5CjruQAQuADEzIgbyGk0EgLIgkMKHWmbJnQBIHABiAkvCOWVtZRkAMieU8tcGaW5EACBC0Ac3NRK2AKQfa+q9VI3fDgOAyBwAbDW9zf6XPgByJkPtdJcCIDABcBSjw0Hsts6Lviw8/YrcOWEUk/OqfTlolpfrmgM5E3NoVzfGsr714fygfZQbumY/bcPrH/q/++qpkAurgvkzApPDi9y2XYAW7i7h+ZCAAQuAJZpmAzkgAIu9PB0KhC9IgpHt0aB6Qf9CXlicl7W+wvizi9KumZ2QaQt+t/557GkfL1nLhXaTinzCGIxtXueI4+PsJ4LAIELgCWGvFBOLqWREE4q4JxR4clN7bPy0GhSBufSF6qWM1PJRXl0PCmf6JyVsyvZgDtODixwpHmK0AWAwAXAcE4QygXVhK04W73OkZfX+nLPQEL6ZnMbsHY0Q1EA/HH073xlPa+/xsGzy1wZdgldAAhcAAx2fTONhHF1Yqkn3+iZkwHNQ9a2ZjyxKHf3J+TcSopebHZJjScuzYUACFwATPSNLi5U4+iCGl/+Op6UBbFnat0FeVdrKHvm8fna6MZWSjQAELgAGOaPg37qVTIu5uJDtQgWTc+LzTOaWJTbu2blwAJek7XNd7sJXQAIXAAMUTkRyL75XJDGxekVXqp4Ik7jzC/KlzbOyVqClzXUmr1Hh1nPBYDABUBzvU4oxxVzERoHKmx8t29O5hcltjORWJQPtc9SsGGJ/fOd1BYWHMsBELgAaGnKD+UFlYStOHh9Y5Bq9GOemhZvQS6uY82iDdQWFoMux3MABC4Amgki1zTQSGi7gwtd+c1IkoS1jblvOJH6G/FdMduF1W5qSwuO7QAIXAC08bkN3N233cV1gbEV79mckblFuaIx4DtjuHc1exzbARC4AOjhgYFAduECzeoyAbWf1gJZaknz08GE7E15jNG+1UXoAkDgApBjxeOB7MVFpbWOKnal0PKq90yv7XpuOa/ammrXdY78eYi6eAAELgA5smEmkCOKuCizeQPjEYoxVjze/KK8sYlXDI1t48x3pJbmQgAELgDZNu4FckYZF2O2uqEtlARZK22j/pSf757j1VtDnVDiSj/NhQAIXACyxQ9CeW0drxHaaPU6R77XN0dCymCL4e55fM9M9NIqV2Z8jv8ACFwAsuAj61mTYqM1URB4aJTK90zP3yeSsg/rHo309iZKNAAQuABk2E96qX+30b5RAMibohwjW1M0PS9rCwhdJvp6FyUaAAhcADLkHyOB7MHrUPaVAkQX/kU0EWZ9ymcIXaa+dvuHQUIXAAIXgDRrmQrk4AIutmyjXm0rmyFs5WqKo6DL64Xm2S8KypUTNBcCIHABSJNhN5Bnl3FRaOOarScnCVs6rOmiSMM8xxa70utwfgBA4AKwQm4QysU1lGTY+FrUw2MUZOjUXkhlvHleWOnKNM2FAAhcAFbifa2UZNjoe/0JUo5mo/bp4rtpnjc30lwIgMAFYJnu7OLJlo0+1D5LutF0c+SrmgK+owb64gZKNAAQuAAs0Z+HfNl1HRdStrmw1pfkIuFG1/HmF+XUcm50mGZVdKz87SAlGgAIXAB2Us1EQF21hY4udmVkjrSl+7T5CzQXGmjv6DMrn+D8AYDABWAH+txQnlHCxZ6NJRn5bGxszPxiKMH31sSbGkWOdNNcCIDABWBbVNvWiyoJWza6vYt1W6bN1aznMtK5Fa5M0lwIgMAFYGtU2xYXTPZ5XiXrtkyc8cSiHFHEDRATXdXgScA5BQCBC8DmPr+B+ncbqQ11690F0ouh89Boku+xoT7TQXMhAAIXgH/59UCQatniIolXCRn95rUNvFpoIrWR9X39NBcCIHABsVc8HsheNKJZ6YRSTwIebhk/3eECv1FD7ZnnpI6xnGsAAhd/CCCmOmdCObKIiyJbPTyWJK1YMp/tmuU7bagjomOsOtZyzgEIXABiZtwL5Mxy7prbvMExY9eGyEcV83s11dnRsXbC40kXQOACEBt+5LV1XLzZvHakYoY9t2ybHw6wN5fJroiOuTQXAgQuADHx4Tbq3232+saAdGLhqGr/k0r57ZrsE+0e5yCAwAXAdj/ppf7d9qdb1Q5Pt2ydnw7ylMv03+e9fdTFAwQuANZ6YiRI7cvEhY+9Lqvn6ZbNk1gUOaaYp1wmWxMdg/PHWM8FELgAWKdlKpCDCrjYsd0/J3m6Zft8s3eO77rhDit0pH2a0AUQuABYY9gL5ZRSSjJsd1q5J4vkEetnOrko+7Avl/FOL3NkjOZCgMAFwHxuEMpFNbyCFAd39ydIIzGZG9aHfOctcHmdJ37AeQogcAEw2ntbCFtxsFeek3rywcRjapwFvveWuLWN5kKAwAXAWN/qImzFxVuaQ1JIzOasChpHbfGjXpoLAQIXAOM8PBTI6nVcyMTFX8eTJJCYzbcoz7DGHnmOPDnKei6AwAXAGDUTgexXwKL6uDgg+qzneJswdtM/uyir+P5b4+ACR9poLgQIXAD01+eGcnwxYStO3t7C64RxnRdV81qhTZ5b5soozYUAgQuAvqb9UF5YSdiKmwdHeJ0wrvP1Hl4rtM0raj3xaC4ECFwA9BNErm2gJCNudl3nyCTthLGdJo+2Qhvd1EpzIUDgAqCdz23g1aI4en6VT+qI+RzNK8R27qvXQ3MhQOACoI0HBgJZRSNhLH1kwyyJI+bzthY2QbbRbtEx/fER1nMBBC4AOVc8Hshe+dzhjquHx1i/Fff5yWCC34KlDixwpHmK0AUQuADkzIaZQI4o4qIkzgbpg4/9tPis47LZKaWuDLuELoDABSDrxr1AzijjYiTOjix2SRuMLET24ym31V5e44lLcyFA4AKQPX504r28lgusuHtVfUDaYFJzfg2lObZ7XyslGgCBC0DW3NpG/TscubWDwgzmqfnAeooz4uC73YQugMAFION+2MOdbDzlnoEESYNJzd39FGfEZd+9R4dZzwUQuABkzBMjgeyex0UHnvLE5DxJg0mN+i7wm4iH/fMdqZ8kdAEELgBp1zQVyEEFXGzgP1r9BZIGk5qugKbCODmpxJVBl/MiQOACkDbDXijPKqUkA1ty56mEZ56auSh778JvIlYuqHbFobkQIHABWDlVBawqgbnAwOb2zHNIGcwWc0ghN2Xi5l3NHudJgMAFYKXe00LYAntwMTue55RzrIijb3YRugACF4Blu6OLCyhsnbq4ZpjN56XVNJjG0ep1jjw8RF08QOACsGR/GvRTJ1IuKLA1Z1f6JAxmi3llfcBvI6bWFrhSPUFzIUDgArDTqqIT534FrMfAtr2gisDFbDlvbCRwxdkzSlzpp7kQIHAB2LFeJ5Tjiglb2D71+hjDbD7XNof8NmLuJVWuzPicRwECF4BtmopOlC+oJGxhx17IEy7mv+YtBC5E3t5EiQZA4AKwVUHkmgZKMrBznscaLua/5hoCF/7la12UaAAELgBP89kOGsaw855LSyHzX/MG1nBhs+bChwYIXQCBC8C/3d8fyC5cJGAJjmYfLua/5hV1BC78x775rlSM01wIELgASOFYIHvls24LS7+YYpjN5yXsw4X/cmyxmypi4lwLELiA2NowE8jhhVwUYHmCBUIG8585pYw1oNjKFhKVrkzTXAgQuIA4GvcCOb2MiwEsXyeJi9lsDirkSTm27k2NNBcCBC4gZvwglMvruBuNlSmYmidlMKkJo+zNOlBszxc2UKIBELiAGLmljbCFlfvFUIKkwaSmI1jgN4HtWrXOkd8MUKIBELiAGLinh4XtSI9Pd82SNJjUPDaR5DeBHdo735WyCc7DAIELsNjjI4HsnsdJH+lxVVNA0mBSc1ffHL8J7JSjihzpprkQIHABNmqaCuTAAk72SJ9nl7H5MfPUvLct5DeBnfa8ClcmaS4ECFyATYa8UJ5VSoMY0mv1Okf8+UXSBiMvZA8uLNGV9a4EnJ8BAhdgAycI5cJqwhYyo2SapsK4TzLK3HvyqjKWsw60g+ZCgMAFWODdLTQSInO+2TtH4oj51Lo0FGJ51FYCv+qnuRAgcAEGu6OL13yQWVc0UpwR9/kehRlYAfV0tHic0AUQuAAD/WnQT62x4YSOTDqk0JUFMkes58qmgN8CVuSIIkc6ZzhvAwQuwCCVE4Hsm8+6LWRHtcM6rriO6kw5sJBjDVburHJXJjyedAEELsAAvU4oxxVzAYTs+epG1nHFdcpm5vkNIG1eV+eKH3AeBwhcgMam/FCeX0nYQna9pNonecR0buuc5TeAtPr4eo/zOUDgAvSk9jO5poFGQmTfqnWODM2xH1cc5znlHHOQ/ubCe/uoiwcIXICGbu+gkRC5c89AgvQRs2n0qINHZqzJcyR/jPVcAIEL0Mj9/UHqriAnauTKBTW8VsjrhED6HFroSPs0oQsgcAEaKBwLUvuYcIJGTl8rjPSEvFYYp3bCYyjnQYadXu7KGM2FAIELyKWOmUAOL+SkDD18mbbC2MzfJpJ855EVr67zxOd8DxC4gFxQd/1OL+NkDH08o8STBR5yxWKuZrNjZNGtbTQXAgQuIMvUPiWX19EOBv38dTxJGrF8xhOLsgevMSPLftRLcyFA4AKy6OY2whb0dFl9QCKxfL7bN8d3HVmnQv4/R1nPBRC4gCy4p4f6d+i9h06zt0AqsXjOrOCGD3Lj4AJHWqYIXQCBC8igv48Esjuv8kBz17WGpBJLp5m9t5Bjzy5zZYTmQoDABWRC01QgBxRwsoUZr/70z9KeYeN8ir23oIFLaz3xAq4LAAIXkEZDXijPLGXPG5jjlo5Z0omFc2IprxNCDze10lwIELiANHGCUC6sJmzBLHvnuzKW4CmXTdPq8zoh9PL9jTQXAgQuIA2ub+aOMsykXj9j7JkfDST4XkMru61zUmubuVYACFzAst3RRSMhzLV/gSszSZ5y2TIf7mD9FvRzYIEjjTQXAgQuYDn+MOjL6nWcTGG2r26cI6lYMjeuD/lOQ0tqjfOwx3UDQOAClqByIpB981m3BfMdVuRKwLZcVsw3e9nwGPp6eY0nLs2FAIEL2Bk9TijHFRO2YI/v9fGUy4Zp8xdSG1vznYaubmihuRAgcAE7MOWHcl4FYQt2ObbEEwoL7ZhX1Ad8p6G173TTXAgQuIBtCCJXN9BICDv9bDBBWrFgqpx5WcX3GRrbdZ0jjwwRugACF7AVt3fQSAh7PavMk3meclkx17dSngHNG1LzHambpLkQIHABm/lVf8DaCFjvwZEkacWCGZlbTFX+852Gzk4scWXQ5foCIHABkYKxQPbM4+QI+51Z4QkPueyYe9gEGQa4oNoVh+ZCgMCFeOuYDuTwQk6KiI8ah454G0YF51dRoAEDXN9McyFA4EJsjXqBnF7OazmIj6/3UA9v04wmFuUotrCAAe7oInSBwMUfArHjB6G8uo5GQsSDWp/4vX5aCm2coul52W0d33HobXX0Hf3jIM2FIHABsfKhVsIW4nOhQyW83fPN3jm+69De2gJXqidoLgSBC4iFH/RQ/454UE8+aCaMx3quKxpZzwX9PaPElX6aC0HgAuz2t+GA128QC2vyHPnzGGErLjOTXJRTynhyD/29pMqVGZ/rERC4ACs1TgZyQAEnO9hv73xXnpicJ4XEbJq9BdknnxIN6O9tTZRogMAFWGfIC+XkUi5EYD+1IW7hNGErrvO70SSbuMMIX+mkRAMELsAaatNFtfkiJzjY7uBCV6ocwlbc56MbZvk9QHur1jnyuwFCFwhcgBXe2cy6BtjviCJXmjw2NWZEkosiL6+lHAj62zfflYpxmgtB4AKM9o0uLjpgv+NKPGkPCFvMf2Y8sSjHl3CzCfo7ttiVXofrFRC4ACP9ftBP7UHECQ02O6nUk55wkYTBPG1q3YVUgQq/E+juhZWuTNNcCAIXYJbKiSD1qgInMtjsueWeDM0RtphtzwPDSX4rMMKbGmkuBIELMEaPE6ZeUeAEBpudU+mnXhtjmB3NRyjRgCG+RHMhCFyA/qb8UM6rIGzBbi+u9mU6Sdhidm7mo6/KRZRowJDmwt/SXAgCF6CvIHJVA4vEYTfVPufNE7aYpc1EYlFOLOX4CP2pzbvLaS4EgQvQ06c7uIMLu13eEF2EUEbILHMavIXUxSy/Jeju6CJHNtJcCAIXoJdf9geyCycpWOzqpkBYssWsdP4wmuRYCSOo5QFTNBeCwAXooWAskD3zODnBXu9sDYW3CJl0zWe7KNGAITeaGrzUcgGudUDgAnKofTqQwwo5KcFeN7XPClmLSeeo79MVjQG/Lxjhcxso0QCBC8iZUS+Q08tZjwB7fbJz1ogLeH9+MfWqWpynJ1yQmztm5aBCV17TEEhnoPdiOyf6zE4tp0QD+lOvwP56gBINELiArPOCUC6r42IB9vryxjkjgsaGKFic9q8L9+/1z8UuaKmNp9+3PpTd857etHb/cEL7z+7AQm5aQX97R7+nsgmufUDgArLqg62ELVi6D03krj4zgsvjE8ktLtjVHjp/HIvHky71VO9z3bOy7w5a/27r1PuV0Ccm52XXdfzuoL+jihzpprkQBC4gO+7uof4ddlIXvj8fShgRONTTrK1dqKsnO/Wuvd31Kjw9OJKUY0p2/smQapic1fhP8u0o4PP7gwmeV+HKJM2FIHABmfXYcCC7cTcWFtojz5HfG7AOKhkljvevD7f733JciSejc/ZVfbT5C3Jh7fJu+Fxcp/eG1e9oCfkdwghX0VwIAheQOQ2TgRxQwMkG9tkr35W/T+gftmaitHVJ3c61272sxrdm3zC12fQnOmdl9xXe7HlxtS+TyUVt/xtfUMXbAzDD7R00F4LABaTdkBfKyaUs7oZ99i9wpWh63ogWvtOW2Gp3a8es8WFLrXE6sTR9a0bPqdQ3dA3MLsqRxRxnYUZz4X39NBeCwAWkjROEcn41FwGwz6FFrtQasN6p2plf1oW4uih6yNC6+KkoFL0tQ6/ZqdA1oenjv7KZeVnDRvIwwJ7R97R4nNAFAheQFu9sppEQ9jk6CjBqTZDu88h4MlXJvNz/zv0KXFnvm1Wi8ccoJB5elNmbPDqHLlXcwm8UJjiiyJHOGa6TQOACVuTrXawpgH1OLvVkY6h/CFFNhKvTUFJzRoUnBvznyngUgK5qCrL2PTi3yk+ti9NxbumY5bcKI5xd7sqEx5MuELiAZfn9oJ+Wiz1AJ6dH4WNI8wY/VaZ3a5ovuD/Qrvd6LtUQeVhR9l9dfkm1nu2F6p90aV3AbxZGeH29S3MhCFzAUlWMB6n9fDiRwCbPr9K3MGHTBAsir2tI/4W2Ws/1sIabIqunWtc05TZYXFTra/kEUH1Xn1nGK90ww23tHtdPIHABO2ujE8oxNGXBMi+PLqrdeb3D1mgUPjJZDX5woSv9s4uxf6q1NZfVB1rW6Kt1hqpJk98wTGgu/CXNhSBwATs25YdybgUnd9jltQ2B9muYOoKF1NqyTP8t1MbBuc6d6qnWtc36vS53bXMoCxqGLrVHHK93w5TmwqIxQhcIXMA2qfevr6wnbMEub44uojV/i1BKZ+blkMLs/fa+tHGOp1rbcOP6UMvvyJ29c/yeYYTDCx3ZMEPoAoEL2KpPtbNWAHZ5f3TxrHs53x/Hkqm7wtn8u+y6zpHiLG/2rJ5qXd1kRgnE7V16Foxc1xryu4YRzix3ZZzmQhC4gC39os9PvX/NiQK2+EzXrOg+3+tL5OxVseNKvNTmwtmY32n+VGtrvtM3p933ZXZB5EXVbNUBM7ymzhU/4PoKBC4gJX8syPoddiCTC7e/reHF8uajYs5HNuR+nyW155VN+2ql+3t033BCu+/O8NyiHFPC2wgww8fX01wIAhcg66cDOayQkwLsoF6V+/lQQuuwpZ5S6PRq3UAG9yQzfR+p3aLv02MT+lXpVzvzsjfbdsCQGxf39vlcb4HAhfga9QI5rZyTNuywR56TWg+l86h9lV5Wo9crYZmsiVdV/KZ/r1SwKZ+Z1+679NuRJK+BwwhromNzPs2FIHAhjrwglFfV8loK7KA26f7n5LzWYas3XJDnluv3m8tk4Lqo1o71Rmr/slZfv/oVVe7B7x8mUG/StE8TukDgQszc1ErYgmPNxbCOTyA2n3p3QY7WdDPxTAauiw1/pfC/S0YGZvXaX0D9a17fGHAcgBFOL3NkjOZCELgQF9/fSMsV7HBUFGKaPb2L35+cnJf9C/R9dTeTgevSOrvCwGnlnkxrtqmbO78oZ1RwAw1muLzWFZ/rMBC4YLvHhoPUQnAO/DDdSaWedId6h61fjyRSa8t0/jtmMnC9os6+py8X1vqp4hOdZmP0Ozi0iPW4MMNHaS4EgQs2q58M5IACDvYwn7qjPzS3qHXY+lbvnKwy4G+ZycD1yno7X3e7plm/DbULpuZld7b3gCF+3EtzIQhcsNCgG8rJpdwBhfnUxq9TSX3D1kL0T/tQuzllBpkMXJfV27u+6MMd+m2s/ePBBMcIGNMq++Qo67lA4IJFnCCUl1URtmA+9cTEm9c3bKlXza40bKPfTAauV9fbXeig4wbbH2ynuRBmOKTQkTaaC0Hggi2ua2JBNSx4jasplITGbxGqPbbOrzGvkCaTgevyBrsD16p1jjw4otfeb+rh7yV1NBfCDKeWuTQXgsAF832ti0ZCmO+G9WHqVT322DIrcL22wf4Lf7Wpa+G0XtsSqFduTynjRhvMcFmdJ37A9RoIXDDUQwN+6g4sB3SY7LbOWdF5GryFVD29qX/fTAau1zXE40nLQYWutGm2MXJ7sCAHFPAqOcxwSxvNhSBwwUAV44Hsk8/JFubaJfLN3jmtw1belN57bOU6cMVpU94TSj0Z0aw584nJpOzKTTcY4kc0F4LABZNsdEI5ppiwBXOpi8R7hxJah63fjSZTr5OZ/rfOZOB6Q2O81hI9v8oXzR50yf/1z3FMgRHUtgb/pLkQBC6YYMoP5bwKwhbMXhPzp7Gk1mFLXcTa8rpuJgPXGxvjV96gXqPUrUjzfetDji0wwsEFjrTSXAgCF3QWRK5uYKE0zLVvvpt6TU/XUdfRak2ZTX/zTAYu0yry0+Wmdr3WHap2z/+tpUAJZnhumSujNBeCwAVd3d7BCRXmOrTIlRp3QduwpS5a39Fi35OCTAauq5viW09+p2brDyeSi3JyKTfkYIZX1Xri0VwIAhd0c39/kCoZ4EANEx1X4sl6X9+wpTZbfqWlm/hmMnBdE+PApV45fWhUr1djW6Pf2FqaC2GIm2kuBIELOikcC2QvGglh6usj5V5GL/pXOqp57rwqe58eZ/Jvf21zvNcO7ZnnSMmMXq/IPjaRlNU0F8IQP+yhuRAELmhgw0wghxdyUIaZXhAFmYmEvmFrQ7Bg/WtYmQxcb26mrOHgQlc6Ar2e3n67j+ZC0FwIAhewU8a9QM4o44AMM11SF6Re1dN1qp15OazI/ifHmQxcbyFwpajQPqbZjYV3tfHZgOZCELiA7fKDUF5Tx2uEMNPVTaHM6btkS/4+kUw1Jsbhs8hk4HprCxf1m7yo2pdQo++82qP5ZTUULYHmQhC4gG36cBttUzDTDetDWdD3wZY8MJyQ3WO0xiWTgevtBK4tqI2gdbrPoJ66nUBzIQzxSpoLQeBCNv24l7uSMNOnu2ZF51FV3qti9plkMnC9o5XA9d8+3KHXb6DJW4jN01yY74OtNBeCwIUs+MdIkFpEyoEXJlFbFqiF+jpvaPyxDbOx/GwyGbjeSeDaqrv7E1p9/x8ZT6Zq7PlsYIIf0FwIAhcyqWUqSC0e5YALk+wWXcj9ajihbdhSXQZxfvUtk4HregLXVu0a/SZUPbtO840emgthTnPhEyOs5wKBCxkw7AbynDJe+4B5+xCpu+c6b2j8qvog1p9RJgMXTXjbtl+BK/WuXs0x72DNHQxxUIGTugnN9SEIXEgbNwjl4hoWNsMs+0cXlEXT89qGLVUY8Pwq1kNmMnC9h8C1XceWeDKg0abfs1H+e3E1vwmY4dllroy4hC4QuJAmN7ZyAoRZjizW7+795rMxXJBTyriJkenA9V4C1w6dU+lrtR/daGJRji/htwEzvILmQhC4kA7f7SZswSwnlXrSGeobtlQQVIGQzyrzgUttAcDfeMde2xBotVVCA82FoLkQBC7ExV+G/NTiag6oMMVZFZ4Mz+m7yVbh9HzqVUc+q+wErhsJXDvtFs3q4tXay9Wcf2BK8yfNhSBwYTnqJwNZm89BFOa4sNaX6aS+YesPo0lZw5YKWQ1c7ydwLcn/aVYX/61emgtBcyEIXLDUgBvKiSXchYc5rmiMTnT6vkUoPxxIcLc+B4HrA+2z/I2XWBf/V81aPd9FtT9oLgSBC7aZ8UN5aRVhC+ZQF2Tz+j7Yks93c5c+V4HrgwSupdfF57tSp1HhjHpD+Pwa1hLDoOZCj9AFAhd24Lom2qFgjk92zoquWUuFQEobchu4PkTgWpaji/Wqix9PLMqJpZybYIZLaS4EgQvb89VO7iLCDLtEvt07p+1TLfV64xsaAz6rHAeumzsIXCupi3c1enTc7C3IWgpnQHMhCFww2UMDvqxijQkMsFv0Pb1vOKFt2FLFHbwCpUfgupXAtSKvaQi0el33sYkkzbmguRAELpipYjyQfdjzBAbYK/qePjqR1DZsDc4tyhkVvPqkS+D6MIFrxW5u16su/q4+1kSC5kIQuGCYHieUY9iEFQY4sNCV4ul5bcNWm78gx5cQtnQKXB/ZQOCysS7+fayNBM2FIHDBFFN+KOdVELZgwiJ+V5o8fXvfK2bm5ZBCfku6Ba6PEbisrItPRF+Z/63ltV0Y1FzoEroIXPwRYimIXN3A3Xjo71llnmzUeJMt9Yrj3rySq2Xg+jiBK232jb7j9RrVxU8mF+WZNBeC5kIQuKCz2zu4Owj9Pa/Sl9GEvpts/XIokSrx4LPSM3B9opPAlU7HFHupdYo6vcZ7AM2FMMRNNBcSuBAv9/cHqVptDoDQ2UW1vjga72j8jZ45fkeaB67bCFxpd26lL75GD5yfmKS5EDQXgsAFzRSOBammNw580NlVTYHMafoW4SJ148YErk8RuDLijY2B6PTz/EF/gs8FNBeCwAU9bJgJ5PBCDnjQ/LWL9llZ0PTBlnqb6s3NNKSZErhu7yJwZconO/Wqi/9AO581zGkubKa5kMAFO417gZxRxoEOevti95y2rxB684vyirqAz8mgwPUZAldG3TukT118MvoaXcrvEzQXgsCFXPGDUF5Tx2uE0NfqdY78eCChbdgaTyzK86somjEtcH2WwJXx16PypvTZG28qSl3PLqO5EDQXgsCFHPhwGycg6GvP6KLtj2NJbcNWb7ggzy7nN2Ri4Ppc9xx/40y/HlXoSnugz4quzujfcjB74oHmQhC4kE0/6eWuPPS1f4Er+RrdIf/vafUX5JhiLt5MDVxfIHBlxTPLPJnQaPuGguiYskcenwtoLgSBC1nwj5Eg9coHBzTo6KgoyDR4+m5oXDYzn7p7z2dlbuD6IoEray6s9bVqFv3FEM2FMOfV3MdpLiRwwUwtU4EcXMCBDHp6Vpkn3aG+YeuxiaTszfYJxgeuL20kcGXTda2hVr/jT7ItAGguBIELmTLsBvKcMi4WoafnVfoymtB3Q+MHhhOyGxupWhG4vkLgyrqv9ejTNKq+WW9opLkQBjUXeoQuAheM4AahXFzDAn/o6ZK6QNx5fcPWd/vmZBWfkzWB66sErqxbtc6R34/qU4LjL0jqJg+fDWguBIELaXNjKycW6EltGKzrgy31z/oUrx9ZF7i+3kPgygX1Om6lo08ZzkD0HTua8hvQXAgCF9Lhu92ELejp5o5Z0XXFlnrg9u62kM/JwsD1DQJXzhwZBZzeWX1+9TVRAGRdJmguBIELK/KXIV92Zd0JNLNLRL3Wpeuo68ErWONhbeC6o5fAlUtnVvhavUKs9vvjlWGY0lz4BM2FBC7opX4ykLX5HKCgF3UD4N7BhLZhaya5KBfU8FTY5sD1LQJXzl3eEIhOyzZ5zRQmNRe20FxI4IIeBtxQTirhNQnoZa98Vx4ZT2obtobmFuWsCsplbA9cdxK4tHBLx6xWv39VX8/nAmOaC11CF4ELOTXjh/KyKsIWNLsrV+hK8fS8tmGrM1iQE0sJW3EIXN/uI3Dp4p4BfZ52z0VfufN5ug1DvILmQgIXcuu6Ji4aoZfjSzxp9fXd0LjWXZDDi7hJEZfA9V0ClzbU3nZPTOpzI2Y8sSgnceMFhvggzYUELuTG17q4Owe9nF7hpeqXdZ28qXlZW0DYilPguovApZX9o99fi0Y3ZNqif8sBHBNgiB/SXEjgQnY9NOCnNpfkAARdqNdzppL6hi3VTrYmj88pboHre/0J/saaOaHUkzGNNuT7x+R86ukbnw1MaC785yjruQhcyIrKiUD2YS8RaOTKpkBm9X2LUH4ymJDVXFDFMnB9n8ClpZfV+DKn0TFDrS/jc4EJDi5wpG2a0EXgQkb1OKEcW0zYgj5uap+VBX0fbKX2ANuFzym2getuApe23t4SanWsUE2KfC4wwallrox6hC4CFzJiyg/lvArCFvSgQsxXNN7QWF3C38wFVOwD1w94cqG1r/XocwxRe4WpPcP4XGCCy+o88bk2JnAhvYLINQ20KUGftrGfD+m7obFaHvLmZvbZIXCJ/JDApTW1FvkPo/rs1+dGqevMCgqpYIZb2mguJHAhrW7v4AQAPaj1g49N6LuhsR9dML2ijrvUBK6n5kcELu3tHR1Tahx96uL7ou/jUby6D0P8qJfmQgIX0uL+/oA1KNDCIUWulM/ou6HxRGJRXljNzQkC13/mx4MELhOogNOv0ZYS1VEApJwKJtgjz5EnaS4kcGFlisYC2YuDPjSpcm4P9K0iVHeln1POa7cEri3npwQuYzyv0k89odZlHh5Lsv0KzLgZWkhzIYELy7ZhJpDDCzmQIPfOii6Ehub0rSJc7y/I8SWELQLX0+dnBC6jvLExEJ1u69zZy8bZMMNp5a6M0VxI4MLSjEc/mjPKOIAg9y6tC8SZ1zdsqVd/DinkKTCBa+tz7xCByzSf6pzV6hhzw3oKeGCGV9NcSODCzvODUF5TxwUkcu8dLWGq8U/XeXJyXtYW8FshcG17fkHgMnLLiV8N69OCmoy+nhTxwBQfXU9zIYELO+XDbbwahdz7TNesaJy15I9jSVmTx+dE4Nr+/JLAZWwRQNG0PgU901HqOpU1ojDEz/poLiRwYbt+0kvDGnJL7bH1k8GE6DyqCGE1i9kJXDsx9w0TuMwtAnClK9RnRdfG6N9yeBFP1KE/dTMyf4z1XAQubNU/RoLUXT0OFsgVVYP86HhS67B1R88c2yQQuHZ67idwGU01j84k9XnWXjYzL3tynoYBDit0pJ3mQgIXttQa/SgOLuAAgdxRd26rHH332FKXXB/bMMtnReBa0jxA4DKeWj+lU2/P70aTsorPBQY4vcxJlbBxnU3gQmTYDeQ5ZbymgNx5dpkn3aG+e2ypi63rW2kKI3AtfX4zkuRvbIEPtuvVXPjVjdTFwwyqhE2VsXG9TeCKNTf6EVxSw0Jc5M5La3yZTOpbjzEb5cArGmkII3Atbx4kcFnj7n691pZex00gGOJjNBcSuOLuxlZKMpA7VzUFovGDrdTajQtr+Y0QuJY/vyVwWWPXdY48PqHPGlO1FzzHJ5iy1cK9NBcSuOLqrm4O1MjhHa8Ns6Jx1pLRxKKcU8lvhMC1snlolMBlk/0LXGn19TlyqbcDnlXGWyowo7mwgOZCAlfc/GXIT92t4yCAXNS+/2hA79r3vugC/BQuYghcaZjfE7isc1KpJ2Ma7ciu1r8eWcw6bJjRXNhBcyGBKy7qJwNZm88PH7m5O/yPyXmtw1abvyDHlhC2CFzpmT8QuKx0fo0vcxo9oq93F2RtgWvVjTm237DTmeUuzYUELvsNuKGcVMKdMBsezT+zzJMLopP+lU2BvKctlFs7ZuW2zlm5vWtWPh1Rr+x9YH0ob20J5VX1gZxd6cuhOdw0U/17dXoVZ2tT7czLoYX8Pghc6Zs/jRG4bPXO1lCr41fh9Lzsna/v8UsFwhdW+am/2xe65+TnQwn55+R8Kiz2Rr9Bb35RNn9wqP5HtcZ3KrmY2oC6Ijo+/3U8KT8YSMjHo/ObOvepfdJ4W8c8V9S5EnBNTuCylROE8rIqLiZNW2iq3s9XoenbvXPyRHRyUheHK7k8dKOTWm10grtvOJEKZS+v9TN+Z1QFvimNmwjV5E3Ny34F/D4IXOmdhwlcVvtGz5xWx7EnJ/XYGFk9oXpJtS8fic4xat+wnnBl563tjQpllVEYu6tvTq6JQthRvF5phNvaaS4kcFnquiZekzLBMdHJQj2xUu1mo1laJ6D2maqJQtidUahTm3ym64S9Ojrpfr57Thb0zlryyHhSi4sU2Be4/kzgstqq6BinnmLqNI9PzMteOXjS9YwSTz7UPpt6CuXmcKdo9X+5ITqfqTCsth1hk2h9byj/sp9XCwlclvlaF21rOjs+OlGpVySqnHnRIZuoVzvU2pO3NIfLfvp1RJGbutuq+/xqOJG6G8v3kMCVifnLOIHLdvtE4abW1etYV5ClJ/YnlHqp19jVWxO6jvp9f6dvLvVaPd9XvagbnUU0FxK4bPHQgJ960sCPWy97RAeaN0eB5skpPULW9jb+VReN72gN5aCdXN/0xsYga0/nVjLfi07C3P1EJgPXXwlcMXkzwZPBOb2Oeeo1u0ys21XlR9dH54N8zc9d21qne8P6UOu1bnFzRJEjnTNcqxO4DFc5Hsi+HFi0ckgUWtRrdsNzpp2qnnr1sGh6Xj7ZOSvnVflbPBlSweVlNb78bSJpxH+L+gz4PiLTgetRAldsnBsdEwPNHvR0Rv+gdOzTpYqa3tAYpLY5mF0Q42cisShf3jgnhxdxfaSDs8tdmfC4ZidwGarXCeU4Fo9qdBfHle/2zYk/L9aMyowd0QldtUxNJs0IkOpfqdYZ8J1ENgKXugHB3zg+rmoKtHvqo8KFWpu7nJB1WX0gPx1MyHRyUWwcVZz7zd45OYTglXOvr6e5kMBloGk/lBdUcgDRZe8ptXg3WBAmx6OuGd7REvK9RNYC198JXLGj1jTpNqq46LPdszusUFdrdq9tfqq0yZlfjM25QZV8qM+N8qTc+nSHzzU8gcssb2qkkTDX1Lo59a74WGKRpKPJWrTXNwZ8N5HVwPU4gSuW7Wtq2w0dp2JmfovyCBUw1CbOn4nChtrHKxnz09XGcCG1Bpnvce5+Ow8MUKJB4DLEFzbQxJNrZ1X4qcZBRpPXRuYX5ZI6TqLIfuD6x+Q8f+MYUq/jlUzreQ5Y/FehRrO3EPuAta1R++cdw5KMnFBbGpSOE7oIXJp7cCBI7QvCjzZ3zYNf7ZnjJKbRqA2XX1TNTQjkJnD9k8AVW6ohsDvkXXJTR61beyuvoOfEUUWOdDtc0xO4NFU2QdVpLp1W7kmdy8lVpxmZW5QzK3i9FrkLXGrbB/7G8T4vxGktlI3z65Fkai023+fsOq/ClSmfa3sCl2Y2OqEcXcQPNFfe3Ram2o4YfaYnXExLHTIIXCuZPAJX7L2qPhAyl9mzIVhIhWe+z9l1bYPHNT6BSx/qDsC5Fdx9yQW14PjnQwnORppNe5R+jyvh5IjcB658AhciN7fPcmA2fLwoNV/TxFrgbPviBpoLCVwaUHsWXFlP2MrJO8bFbmrhMaPXqNc6D2NPFWgSuAqmCVx4yj0D3JwzfdSR4rZO9nHMJtVL8NsBQheBK8du76AMIBfUuqC+Wd4R0W3KZublAN61h0aBq4jAhX/ZLbpwVK2VjPnzoyg8r6agLGv2zXelguZCAleu3N8fpPYs4MeYXRfW+qn2IkavUWtl9iNsQbPAVUzgwmbUDaFWFvxaMQ+OJFMhmu91dhxb7EofzYUErmwrjpL+XjQSZt3rGoLUBrqMXvO3iaTslcf3E/oFrtIZAhe2dHKpJ+MJbtrZMH8aS8runHuy5sVVrszQXEjgypaumVCOpJEw665sCoRzpJ4nvD044UHTwFVG4MJWnF/jyxznEyvm96NJXi/Morc30VxI4MqCCS+Qs8p5spVtb2gM2MxYw3lgOMErHdA6cJUTuLAN17eGHMQtmXsHEyzxyKJvdFGiQeDKcCPh6+oIW9n26vqAO5Eazk8HWbQM/QNXhUPgwrbd0TPHwdyS+crGOb7TWaLO/X8aJHQRuDLkE+3sK5RtF9T4rNnScP6vf467iTAicFURuLCDyuuHx5Ic1C2Zd7SGfK+zZG2BK7WTNBcSuNLs530+F5hZdnqFRxuhhvPtXsIWzAlc1QQu7MA++W5q/0DG/FFvw7ykmu16suXEElcGXTICgStN8scCWUMpQFYdXezJAPtsaTfq9Ru+nzApcNVGF9L8jbEjx0TnnCHeXbdi1LXDYUUs/8jam0jVrjgBWYHAtUId04EcVsgPKptU3b56DYjRa75B2IKBgauOwIWddF6VLwEPuqyYJyfnWWOcRe9pobmQwLUCY14gp9NImHW/GeF9eh1fI+S7CRMDVz2BC0twdVMgPOeyYz7ROct3Oou+002JBoFrGfwglMvrKMnItvevp6ZXt6FuFyYHrkaPwIWl+UzXLAd+G9ZzLYicVcl6rmzZdZ0jjw5TokHgWqIPtxG2su3sShoJdZwXVHHCgrmBq4nAhSVSN5jUHoOM+aNuuOzOq4VZc0CBI41ThC4C1076SS8XmNmmSklafNKWjvNl9jaBwYGrmcCFZZ6TSmdYS2zDfIpXC7PqWaWuDLuELgLXDjw5GsgeNBJm3dfZfFLbafO5YIW5gauV7y+WSTXdbQy5EWj6qI/wpFLeWsqmS2o88WguJHBtS9t0IIfQSJh1Z1T4Ms8qZa3nueWcrGBm4OKGAVbitOjY53CCMn4eGU/yfc6yD7TSXEjg2ooRN5DnltFImIt35fOneG1D9/l8N68VwszAtZ7AhRV6dX3ATUEL5qJalotk2909NBcSuDajHnu+spY7+LlwZVPAWcCA4aIVpgaujoDvLlbulg6aC00ftUXEKgo0smr3PEeeGGE9F4HrXz7YStjKBXXgUwvaGTPmHOp1YWDg2kDgQprcR3Oh8XNNU8B3OcsOLnBSS3YIXDEPXD/o4SIyV65t5umWSXMHmx/DwMDVSeBCmnyyk6dcpk+LtyCrecqVdaeWuTLqEbpiG7geHwlSjzv5MeRGlcPaLZOmL7oo5nUMmBa4ukMCF9LjC9206fKUC8t1WZ0nfkDgit1/dNNUIAcW8APIlRdV+xz1DZyXs+gYhgWujQQupIl6ys+YP+pmL9/n3PjIeo/AFSfDXiinlNJImEu/GOJdeBNHfW58f2FS4OohcCFNvt/PecuWOb+Gm4e5aqa+t88ncMWBG4RycQ0lGbm0V77DviaGjht9bnvnc7MC5gQu9Sosf2Okw08HCVy2zB9H2ZcrV9bkOVI4FhC4bHdjK3c1cu2appCjvcHzluaQ7zGMCVz9BC6kya9pKbRmktEh54gibh7myhFFjnTOELisdVc3YUsHD3DSMnoem+DOINJrIIOBa3COwIX0+NNYkhOARfPxDbN8r3PonApXJn0Cl3UeHQ5kNxrWck7VsY4neJ3Q5FEf30GF3BmEGYFrmMCFNPn7BIHLpqlxWd+Za1c1eBIQuOxRPxnI/vl8sXVwXhXthDbMu1p5rRBmBK7RBIEL6VEwxVYmts1Jpazpz7XPb/AJXDYY8kI5mUZCbdzcwcaRNsxfxnmtEOmjXvvL1IwRuJAmlewdad18sJ3XCnNN7e/52wGfwGUyJwjlwmrClk5+O8IrGTaMP7+YahriOw3dA9cEgQtp0uQtcPC3bP7KzUMt7JvvSsV4QOAy1XtaeFSsm86AE5Ytc2ldwHca2geuqSSBC5y/mK3PTHR8WM36fi0cX+xKn0vgMs63ughbulH7N3G6sme+2TvH9xraB64ZAhcM+J4yuZszK7he1MVLq1yZ8Qlcxnh4yJdduWOhnedVUphh06j1DHyvkQ5DGbyQVZus8zdGOkwnCVw2zjspgdLK9c0egcsENROBrC1g3ZaOrmlmw2ObRl177MdvDZoHLo/AhTSZ4xUNK+euPt7W0M2dXR6BS2cDbignlHABqKtPdNJQaNtcwjouaB641LIb/sZYKbXOh7FzHp+gOEM36i01tX8ugUtD6p1P9e4nX1R9/aA/wZHdsvlUJ5W60DtwzRK4kAb75Lsc8C2d7pANkHV0QIEjjVMBgUs31zWx6FF3fxyjEt62+dMYdwaxcsMZDFzqfzV/Y6zUwYUELptfj1/Fun8tnVLqyogbELh08fUuny+mAQqn2TTStumbZX0M9A5cSQIX0uDoYgKXzXNYEW9I6erSWk+8gMCVc78f9NlDwRBtPiuObZz9Kc6AxoFrgcCFNDix1ONgb/GcWs5bUjq7pc0jcOVS5USQ2p2aLyPrNJjczYurecIMfQOXGv7GWKnnlhO4OI8hl37c6xO4cqHXCeW4YsKWSdR+OIx98y72MMEKjWQ4cK3ib4wVYh9Ju+dSGne1tybPkfyxgMCVTdN+KC+qJGyZZJfIAnnLyvnyRvYwgd6Bi9fOsVIX1BC4bJ7L6glcJjis0JGO6YDAlS1vo5HQOHvksYeJrXP/cILvOLQOXLsRuLBC6oKcsXde00DgMsVZ5a5MeAGBK9O+RiOhkfZmDxNrR7VP8h2HzoFL3fDh74yVuKqJwGXzvJInXEZ5Q70rAYErc/5II6Gx1hYQuGwd1T7JdxwrMZrIbODak8CFFXpPW8jB3uJ5eS03803zuQ0+gSsTaiYC2Y/6aWMdyKaR1s5Ygr24oHfg2os2W6zQxzbMcrC3eM6tJHCZRm1W/dCAT+BKp343lBNKOGGabH+ecFk7swvUbkPvwLUPgQsr9JWNcxzsLZ6Ty+gGMJF6EKMeyBC40sAJQnlpFSdL0+3LGi5rZ46NZaF54OLtCKzUD/oTHOwtnrUcI4x1YokrQx6Ba8Xe2cxdBxvsSUuhtZMkcGGFxjIcuPbnYgor9OsRApet48/zWrzpLqrxxAsIXMt2Rxdhyxa7riNwcbICchO41BpS/s5YiccmkhzsLZ1Wip+s8MFWj8C1HI8M+amLdL5E9ggXOLDbOJNJAhf0DlwHEbiwQuUz8xzsLZ2/jCf5jlviJ70+gWsp6icDWZvPF4eLKsaEGZwjcGFlxjN8bDiEwIUV6uaOobVzZ+8c33FLrMlzpHAsIHDtjEE3lJNoJOSExRgz6nPl+w2dA9dhRZxTsDLq1WnGzrmuNeQ7bpEjihzpmiFwbZcbhHJhNSdGW1U6vJJh47Tz/js0D1xHELiwAmvZ1sTqOYc9uKxzXoUr0z6Ba5ve20JJhs3+Os6iYxunxSNwQe/AdWQxgQvL95xyjwO9paNevNmdvgArvaXRI3BtzV3d3GGw3c8GqdW1cRoIXNA8cB1N4MIKXFIXcKC3dEpn5vmOW+yOLp/AtbnHRwLZjTsM1vtC9xxHdwunxiVwYWUmMhy4ji3h7Qks3w1tIQd6S+frPRRm2L4l0V+HAwKX0jYdyMEFfCni4O0tnLRsnCqHO4TQO3AdT+DCCnyrl5uFts4r6wO+45Y7IMoYLVNBvAPXhBfIaeW86hEXL6n2ObpbOJUELqyQ2sstk3NCKYELy1c8TeGTjaPWb+2dzzVoHJweZY1xL4hv4HpzIyfBODm4kKYnG6ecd+CxQlMZDlwnEriwTG9q5s0MW+fvE2x4HCdXN3jxDVzf3+jLKtZuxUrvLHuZ2DZlBC6s0HSGA9fJBC4sw2X1gcyyfaS1c+N69t+KX4mGF981XL/sD2SPPL4EcfHwGNXwtg0tT1ipmQwHrlPKCFxYmmuaQ8KWxbOwyP58caQK+taNBvFtKXx0OEhtLMiXwX6f6JzlSM8rhcAWnPnMBi61jxJ/Z+yMXSKfis5TvIth96yb4rwVV29r8uK9D1f5RChHFPFFsN3zqyjOsO5OYeQVdTQ9YfncDAeu0whc2An75rvy2xHewojDvLOV1wnjSHVHzPgx3/hY6ZgJ5dQynnTZvidCptdrMNkf9YTixdVsXo7l8TIcuM6sIHBh+9RT0BafdwjjMOp4sx9vVcXuyfVnO3wJ4r7x8ebGvEAuqeHkaLNfjyQ44lt6EuNJF5bDz3DgOqeSmwHYtne0hhl/ysroMz8eSPC9j5G98l25vz9g4+OtcYNQ3tVM6LLVGxsDjviWjnp4eUMbr2pgaYIMP1g4t4rAhadTTznuG+YGYNzmbG7AxMaRRY4UjQXa5BvtAtcmX+mkNt5GaqNBh7uJVs/d/QnZnfZR7KQww4HrBQQu/Jfzou/EhoBXCOM2eZRlxMbzKlzpmtEr12gbuJQHB4LU40C+PHa5Z4C7iraPai88ppgn1dixTNdvs74Qm68j/mzXrLCUOJ5zeQOvvcfBVQ2eTPr6ZRqtA5dSMh7QYGiZsyo8jvwxmNHEory8lotdbN9chgPXS2v4DsJJbYCtNmpn4jl17kKqPIHfAuUYBK7t6JwJ5cxynnTZRO2Dwdg/6u3RL3bPpe4s873H1iQy/LThAgJX7C/C3tsWZrwNk9F71Ppxfg92L1f5zUCgdZYxInAp414gr67jFSVbXFTLnlxxmuLpeTm+hN8vni7Tr3fxlDW+ji525bEJ9taK+1Q58zzdstgx0e9c7eere44xJnApfhDKzW1ctNmiaJqnXHEatQfblU3cZcSWMv3g4RK2K4ilt7aEMpHgqRYjcnEdN11s9fxKV3ocMzKMUYFrk+9v9GlBs+GHUuULp8P4zc8GE7KWjSfxLwsZPgiwP1y8HFrkyp/GeKrFPDWPjCf5XVjqLY2eTPvmZBcjA5fy+EggBxbwhTPdr9gHJZbTHS7I+aytQSTTN10uqydwxaadrClIlfUwjBpVyPPMMt6Kso3aMurLnb5xucXYwKU0TQVySil3yk12eJHLax8xHfVk45u9c7IHT6tjLdPzGqqgrXdYdB55aJSnWsyW8/nuOX4fltk335U/DPpGZhajA5cy7AZycQ13MEx/156J7zR6C3JGBb/huDbIZXquoJ3Mam9q5qkW8/Rp8xdkDTfzrHJCiSs1E4GxecX4wKW4QSjvb+X1JJPxzj2vfny6a1Z2oz4+dq+GZHreQOCy0hGs1WK2MaqI54VVXBPa5MJqVwZds7OKFYFrk7u6fS7YDHVgoSsbwwXOFDEfVd97Gk+7YmN1FgLXVTRjWudtqoEwyVMtZuvz1Y28SmiTG1q81IMV0zOKVYFLeWw4kAMo0zCSuiPFmyHMpqddbJZsv12zELiubQ75W1uz344nfx3nqRaz7SmfmefGuyXU56hayW3JJ9YFLqVhMpCTKdMw0rvbWM/F/Odp16nlPO2y/YSa6XkzgcuKtX43ROeGaZ5qMduZqej7cUIp5wwbHFzgyBMjgVXZxMrApQx5ofxvNaHLRN/pm+PMwaRmdkHks11zsjt3LK2k9lPM9KjXz/hbm+vE6AJ63dQ8B0Nmu6Oi+OU0klrhtHJX2qYD63KJtYFrU5nGe1u422Hiuo6HWQzNbDYN7oKcW8kiaNusyULguq6VwGXqeeDWjlnxWdrL7MTc3jXL78YCr61zZcwLrMwkVgeuTe7s8lgPYpg9owuxwmnuajL/mfl/7du1J1W/Vv3OMz3vInAZR71KXMLxn9nJuW84kXrtlN+O2a8Nf7LdEz+wN4vEInApjwz5sjafL7VJDihwpd7l9iaz5bQHC3JhDU+7bLBXFgLXe9oIXKZQm6CrzWrnOOwzOzn/nJxPfW/4/Rh8Hsh35f7+wPocEpvApdRNBnJiCeu6THJIkStNHmdf5unv6/9gICH7FfB7Ntne0Yk20/O+9QQuE7y42pcWjvXMEkYVK+2XzznA7OZRV0rHg1hkkFgFLmXADeV8yjSMclgUujgRM1ub/tlFuYKNbY21XxYC1wcIXFrbN/oO3NU3JwsUEDJLGPX2y8GFXMuZ7AWVrvQ48ckfsQtcihOE8s5myjRMcngUuhoJXcw25vejSTmymJOvafYvyHzg+lA7i+l19er6QHpnOa4zS5u6KGwdQtgy2tubPJnx45U9Yhm4Nrmjy081IfHlN8NB0QG2YoaF1MzWR+3Rc+P6UFbxWzHqN53puaWDwKWbQ4tceWCYJlpm6VP6/+3dCZRdWVkv8NVNd9PQQEMzjy0zzdhMig+wRVqQoQUZVFQEBARBaB4g8gAFGWQGBeEBjYKggA0yy6BIkspUlTnpJJV5roxVSeqec8+tMd+7+wqPKUknlbq37jn3t9f6reViLXul7j33nP0/e+/va84BbmMreWmlAnbv35H3ZObo6cCVfEMxjVK5tHmj7VO9alZGPnUivjU8Ge/aNd46qL64Ip/roubf8UANk8txRrMDgev12wSubpL6og1PVG//YOrJnEJkut5SifLPHZiITWraz+r41pHJ1rlPv6OS7mhozrVTAbtezRs9H7h+XEzjPopplKqU9FcPezs607G8NtXqTXSyB9fT1haxrgJbN1OVsxQiVa/q/vOZ7R5v3C5wdYN7Lsnj+yPVvG9/rRkE7rP05C95Lm/+3Wlba3pR6JjazMfH903YkVRi91+axQ3Hip7OGgLXj+zPGvEbimmUqilmOmhtnPkYGJ2Kp6wtzuizTYFsz1j5pwfpDbMS8t0rnbtr93izwDXn9+q0rTOtqFdtbMin4zfXnPn9JYWytKPgwLjodaYjXTa2BZfbk1fncTArej5nCFw/JSsa8WeDJmdl8rJNjZjw7Drt2NWYjudtKM66MWRaSXzDtrE4OlnuDzj96z97YEJFqy50tw4ErrfuMFmbKw9dlrde9FRxO/brmyHgwhmuuKSV9xdsbMQqfSZPO441nz1PXqMKbZldO5hHXsgXAtcpfGRnfcY3UjrvcSvrMTQmdZ1sW907do23gtO5fL6XNYPKB/aMR6Pkc4N0biSt3J3nN9M10nardo937Bz3WXfYxc17zjub954qvgxL517TdTtrb/+bgcK55F8cq5th9FTbNCnHPeDTe+oyhcB14753sIjL+vxoylT16j9HnOv68Zh3bCqu6M9nfXKcDoKXvV/O/DZ8Nsz8XE+7x7t3CVyd9PiV9RisYLGI1PPvWW3s+XfVqnrr3mREXDc0cc4vCpnDs7kLazH/sC2EAtdZ2HCsaE7MbEMqi1QOPO317uW2LulswB9taO8qzsOW5fHdkofbtPr39p3jrbdwfjtzJ73Bbvd4/26BqyNNrPuy+L/7JqJqt9/096SCDbfqUCnytOK1stabwSvtQni2Rval9vCBLLaNClsC1wwcyor4rdXehpfJgwbyVq+OXts+mLb9XdrB/iRPXF2PFSWfGGwp0qF3D/i5cr/+9geuD+8RuNrtd5qT5H0V3Nadiu6kFbtOf57phdlz1xc9VVb+G0c0ry+7567N4mhdbhC4zkE68JcO/vlBlWi1a14tXrWl0Tp0W+WR/rrrD03Gfedor3uaGPxec2KwvSj3xODfmp/hXRZ52HfaFR0IXB/dK3C1y12bE+SvVLBFRzp7lqoJzvUKeKrw+CcVqRh7qrF3zKpWFeZbf7OtHoW8IHDNlk/tqevrU8KzXZ/ePxFVq0ic/px0ePvhy7rjRcBFzd/Fq7eMxeESn5IfbYbz9Dfo9dLZ1eh2j7TNzWc9+9u3X7G5Eccr+EIr9Sl82LLuesGagl/aLl+lcvKp0mOqIKqRcbndsvn9XT+kOIbA1QY/PFzE7Rf6kZXNA5sTu9ScsuyPq1SwIq1oPXxZd664pnMOqTpZvcQJN52f+OUV2kN0qmx4u8d1+wWu2Q7JiytYVS9VYU1Nsi/o4hcuqZDEq7aMlXrFKz0bPrhnPO5sR0Hp3WtJFitGnNcSuNpoy/EiHjrgZlFGVzYneGn7WNnyQHqT/KHmQ+peJSmTm/bif2poIsr6AjwF23RQ/jZ9fuft/j22e3xG4Jq1VZZUYn+8gseKljQD5ANKVLk07Sh4yaZGq/FyWUY64/dXO8biDvohVsJVK7MYyuQBgasDhvMirlntxlHmctSpetlIF2+BS/+yhc2JQGqQecmCcn7OaRLztRKf8TiYqj5u1LurXR6xvN727/DzBwSu2ShZXsUCDmm1JW3VK+s24nRfunp1EV9u3mO7cbdhumT+7dBEPGNd0dUrh5ydl23Mo6aZscDVSemA4Bu35CZjJZbO5KVqUOk8VDeUkz/xoy1taWvLPZdUp1DL/1pZb4XHso7U1yxtS/WbmV2PXtH+wPWlQ5M+6xlKK7xpS2YVSzaknldVaqx724VZvGxTI743Mjmnq5Bbi+n4xND/hKxbOJ9VKRc2Q/NHdjqvJXDNoc/tKzTpq4BUUv0PNjTiXw5OdLT4Q1pl+/fDk/Fnmxtx94qXxf3t5kO4TNtgfnqkS+J9u8dNImbRr3QgcKXfls/67KXqowfHqxe1sqkT8crN1V61Tveo1M8rbQFNPRPTma8Tbfgcb2jey69v/r7+esdYK2Dd0bmsyrpdXy2+f9B5LYGrCyweLuLOi/woq1SF6yEDeeuN4WcOTMSy2lTrUPW5b2GJVu+q9Nb4pc3/dioacH6PbbVI23deXOJSx6mM8e+uV8Z4tlY+2z2+eUTgOhuXL8nj28PVK/X+45Xqey3tzZXqVA3wiuYz7erV9fj95v0rveB7w7ax1rmq1AT+b3eNt14opa3272lKYS0FqdduHYs/bT6r0v9P6r2Ynlm3cw6rpzy4P4vB48KWwNVFdow24lHL3IiqHBTSNr/0wHrhxkb8ZfNhlR5QqbjC55qhLK2MJf/UDFMf3TvReoC9pvmwSqtmj2tOLFPPGttPf7biVto6ebSklTW+PzLZatzru5y5x3UgcKU3/D7rM7u/XbtlrLVyUbWR2gT+efNvc/+Fs5NqFRzOhS2BqwulLtvPWSt0wdmcE/nAnvFZWUHs9Ejn/tKb4JvbZjjjYgztHv99dMpnfQbl+ftHpyq5qrWgYme1oFMFWf5ycx51xTEErm4vpvG2bfWe2yoG5+IeS7LW9s0yvmDf2UyLv3ODbYZnK21RavfoOyZwnW6V+d27xmOiglUx0qrWa7aMtbaH+67hzKUXiJ/fZ1VL4CqRLw2p0gMzedv+HyU9Q5LOC93b2/Qzlg72t3ssHRW4ThV2txXTlVzVShVR/Q7h7N1tUS2WDAtbAlcJDTQv3HssFrpgJtvNlpZwm1PDNsMz9rS17Q9cqc2Cz/pny4enleQqlnpPv73XbxuzuwRm4DHLs9hdM28XuEpsb9aIx64w+YKZ7CNPfdI2l7Dpatpm+Mx1thmeTiol3e6xLp/2Wf9IauJ9uIr7B5tjeTNYX6FXHszIC9bncbxuvi5wVcBo80J+0XoPA5iJ1HAxlTE+UMK+QN8Znoz72t50Us+5of2Ba7AucKXtdamqZhVHyo9v2TEWF1jVgrOWfjfv35Gbpwtc1fOB5oXtwQAzk85Ept4woyUrJZ+qGb5z13irF47v8SdSb592j+3FdE+/qEi9lip6VCvWZtNx5TIvM2BmFYJr8a0DdXNzgau6vt28wNOF7gcPM5Mab/7DvonSVVfb1ZiOZ6lm+JMtbhsabf/M942d6M3zGCvqsSarZtJK71tSn8Obzvcbgpm4oj+L9ccUxxC4esC6o0Xcf6m33XCuW6W+eGiydAUAvqdpcssLB9sfuI5M9FbgulVfFh/ZOx7T1Tyq1doi+ivNMOn+BzMsVrQmj0OZsCVw9ZCDzQv+SatMuuBcPXJ5vdXgtkwjHUd77+7xuGUPbzN86ab2B65sqncCV+oFl1b0qjjSWt2H94y3eoe558HMilD9RWpmbP4tcPWivGjEtYNCF8yG31xTj1VZuYJXmiA/f2Oj9TDste/rlZvbH7jSttOqf453W5zF145UsyjGj8/hpTYR7nEwM6lNyT/vdV5L4CKu21O3Hx1mQerBk84G7ShZpYAFx6biymW9Nal8zdaxjny251f087tJ81p/1ZaxqE1Vc1Ur/VWfGJpoFctxb4MZvpDRzFjg4mfNP1zEHRa6OcBsuGj+/0zoj5SoskaaN39s30RctrA3Jpipgl4nRhW3oT1sWR79JWwMfqZj79iJ+K01CszAORXP0cxY4OLkto424soBb/Ngtlzal7VKsmclWgVIzWlftqnRWq2r8neT+id1Yty6rzr31BQe09m/yROVzVrxLwcnWr9b9y84h6JE6/NWD1hza4GLUxjJi3jWWg8bmE13XZzFp4Ymoky7r1bUplrlvav6nbx953hHPsc7LqrG/fTJa4rSbZU924qSz9E2Ac6JZsYCF2ehaPrrrfXKv+GGjvcfGcjj6yUqMJDy4T/tn4g7LareS5j37O5M4Lp8SbkLE92h+d1/8WB1i2Kk8a3hyUpe49BJqcfrfxx0Xkvg4qx9aahwYBja4LEr67HoeHnOwByfPBGv2zoWF1boJcyH9nQmcF1R0p5nqXLlSwYbcbTC+wfTVt/UHsA9Cc7NA/uz2KCZscDFzA0MF3GPxUIXtMM164rYWC/PNq3NzX/rkytSTCAVCOnESH3aSrcS2wyJqXJllcfC41Nxn6XaosC5evqaPA7nwpbAxTnbU2vEY1cIXdCu8tp/MtiIoRI1jU1bsO5b8snqP+7vTOB63MryBK7UHuSvd4zFWHWPasV482/7P9vHWr879x84t1XwVjPjwjxZ4GLWpGozL1rvbSC0y82bk900ETxeki1caVL+7l3jccuSbjv+wsHOBK4nlWRF8NdW1WOwPl3pVa11+XTP9ZuDtjyvmvf9z++zqiVw0TYf2JG3qtC44UB73G5hFh/eM16aVYZ9Yyfi+RsbrbedZfqcv3q4M4UgnrmuuwNX6ruWKmhWuNJ7TDf/uPfvHm+t4LnHwLlJzYyXamYscNF+3z5Qb1WjceOB9rnX0jz+9WB5JsKpCMgjSnRe6TvDnQlcz9vQvUUZnrehiIPjJyq9qrWzMR1XrbKqBbPhV5dnrWMm5sICFx2y7mgR91/qXBe0Wyq68MOjU6VZSUirJWmVrts/13kdKgqRKv11Y5j/3ki1S72ncd3+idJueYVuo5mxwMUcOZgV8aRVznVBJzxlbRFrsnLsM0ylxK/d0t1l5PtHOxO4XrN1rGv+5rQd/A3bxqLiR7Xi0PiJVgVQ9w2YnfvGBzUzFriYW3nRiGsHhS7ohNSM/I82NmJPSSoaDnZxGfkb8s6kjr/a0R2B61dW1GN1Nl35Va2vHZmM2y+0qgWzcsazrxbf0cxY4KJ7fGpP3YFk6JCLm7+11Ih4ZKIcwasby8insz2dGKlYw1z+nWlL3Uf2jre2e1Z5pCbGLx7UxBhmy4P6s9iombHARff54eEi7rjQTQo6WWHuvc0JfVGChYtUdfF9zX/rpX3dsfpwuENh9RNDE3P2N6YKifvGTlR+VWvp6FTrXJp7AsyOazQzFrjobltHi3j4gO0c0EmXL8njswcmSrGKcWD8RLxosBHnz/Fn1qlzTKnSZKf/tns0r4dvDle/KEZqWZe2bGpiDLMjtff4S82MBS7KYSRvxHPWCl3QaQ9dVp7qc8trU/GYFXNTrjtN0DuVTb95ZLKjh9tfu3Wstb2u6mNLMzHP1fUDVZSaGf+rZsYCF+VSNL1tW711yN+NDDrrCavrsaLW/aXkT7RWgCbjros7+4ImbcXsZH+yTvxNj1peju98NkZqPXAL5d5h1ty9eQ/uHzF3FbgorS8P1fVBgTnaGvIHGxqxvQQHvNKKzFt2jMXNOlR4J5336dTYWJ9ue1GMD+8djx5Y1IojEyda59L8vmH2aGYscFERK0aKuOcSoQtUNDz9SJUDf3d9+yfUj1he72hPqHb9Hb/dDB97e6AoRhrfHZmMOy3yHIHZ9CcbNDMWuKiUoawRV630sIS5ctuFWXxoz3iMl6Ci4fxjU3Hlsvadz/mN1Z0LXKmww3ltKIrx9SOTPRG0UnGTV2xuzPpnCL0snff8kGbGAhfVVCsa8fKNSvfCXErb6b50aDK6fV0kbZH75NBE3KENqxppFa2T49azVAr/wuYk6S+2jUU+1RurWitrU3FFv2cGzOoZ1r5afFczY4GL6vvornpcpEkyzKlHL6/HgmPdX2Sh1gwXb94+u+e7Xr1lrKN/w2yEhsetrMe6bLonglbKk+/ZPR4XKboEs0ozY4GLHvNfh4q4bZ+bH8x5g8t1RWzIu38in84qtfp3zcIk/F27xjv6b3/i6plvj7z9wiz+cf9E9MaaVsSuxnT8+irl3mHW7/WrM82MBS560abjRTxEk2Toiv38f7a5EQfHu39avyqbiqtXn9uE/J+aAaaT4483Ns7635gaQ790U6MUxU5ma6Qm0Zf2eSbAbFesfeMWzYwFLnracF7EM9Z4wEI3SL2N3rFzPOolOCP0w6Mzb5w8r8NbKd+0feys/n0PW5a3+nf1yhidPBEvmEEoBU7vEs2MEbj46SbJb9qSq0IFXSI1Iv70/olS9Hb69vBkq8z72fx9uxud3UL5mQMTZ9xT64N7xluVDXtl9I9OtQq5+N3B7NLMGIGLk0pvYS7RJBm6xkMG8viP4e4vP57yyVcOT8ajziB4pS1rnT6xtrQZKm5sy0/adnhgvHeSVgrzaTX1AoUxYNY9doVmxghcnMbASKP1VsYNE7pHOjO1OpsqRfD6z5HJ+K01xSlXzJ/YwR5cPx7HJk+c8t/zyGZIXNxD2wfTSCuMj1cYA9riJZoZI3BxJtJbmfR2xo0TukeqDpiqBA6NlWMVZlsx3To7de+f2672gT3jc/LvecDPlYa/3cKs1Wds+kRPZa24/tDkrPUlA362T9+Hd9bNIxG4OHPp7cyL1tvXD914CPttO8dL1Xx3SzN8pYn+Fw9ORjFHFfCv3TL2/ytCvnJzb1UfTCMVYklVF/2GoD3NjL+nmTECFzP1gR25Pf7QpYU1PrO/91ZoZjpuyKfjWTcUMVif7rm/fV3zb3/ggBdo0J6ztlkMHhe2ELg4R985WMRtNEmGrvTwZfVWiXbDONn42L6JuHi+3wm0Q2qro5kxAhezZv2xIq7ot+8futVvrytiUw+u3hgnH2nL5DOb14TfBrSnmfGbNDNG4KId0lucp6y2LQW6+dD2q7aMxeEJ+wx7eaTeWvdY4l4N7TpH+4Uhq1oIXLRRepvzuk2aJEM3S72uUjXAMQtePTVSzH5/83u/0LlbaIvLF2et9jnmgwhcdMRn99bjZs4FQFe719I8vnx4UhLpgXFk4kQ8ba0thNAuj9PMGIGLubB4uIi7LHIThm7366vqsTZTWKOqIzVutoUQNDNG4KKidow24tHLFNOAbneTebV42aZGayXEqM74+722EEI7z8X+nWbGCFx0g2P1RvzhDd6uQhncdmEW1w1NhNhV7pFNnYjnbbCFENrldpoZI3DRjd69vd56i+5GDd3vSWuKGLbaVcqxuT4dD9LIGNrbzPiYsIXARZf62v56q0KaGzZ0v3svzWOvUoalGv91dCpu4x4LbfPMNVkc0cwYgYtut/ZoEfddakIAZfDCjQ0ppiTjU0MTcYFdBNC2ZsZv3pJHYR6HwEVZHMwb8ZurbHmBbnfNukKSKcH4qx1jrldoYzPjf9PMGIGLMsqLRlw7KHRBN3trcyJvdHcz42u3CFvQLr+0OIvlI8IWAhcl9+k99bipJsnQlVbU9Ofq5vEaYQva5qqVWQxl5mkIXFRE35Ei7rTQzR26Sap0Z3TveN/ucdcptMkrBuuRFeZnCFxUsEnyozRJhq7x0b3jUk2XjnlHp7TZgDZIO24+vlszYwQuKt4k+XnrnOuCuXbrvixqU/pwdeNIlfrvs9R9EmbbHRfW4oeHnddC4KJH/K0myTCn3rhdsYxuHZ8YmnCNwiy7ciCLbaPCFgIXPebrmiTDnG2pGRqzutWt47Er665TmEW/ty6Po3XzLgQuNEkGOuTFg5odd+uYaObgi6z+w6w4v/lbeuf2umbGCFygSTJ0TtrKu6WYlmy6dOwbO+E6hVlwq74svrpfcQwELtAkGTrs99cXUo3ABZV2v6VZrDnqvBYCF2iSDB12XtPazOpWN4/x5tdzvi2FMGNPWpW3ds6YUyFwgSbJ0HHXrLO6VYZx/36r/TATr9mUt3bMmEshcIEmyTAn+o5PSTMlGC/Y2HC9wlm4eH4tPrPXeS0ELtAkGebQo1fUJZmSjH85qA8XnKm7LKrFoiPOayFwgSbJMMf++cCEJFOSMTJ5Qml4OAO/vCyLnTXzJAQu0CQZ5thtmr+dhloZpRpPXVu4duE0XrA+j+OaGSNwgSbJ0A1evlmj47KNLx2adO3CSVwwrxbv35GbFyFwQduaJGeFJslwlpaMKpZRtpFWJC+zqg8/t1pfi/846LwWAhdokgzd1AC0P48T8kspx//eOuYahh95YH8WG44JWwhc0PEmyRdrkgyn9ZYdY5JLScfm+nSrWbXrmJ7vIbgmj8O5sIXABZokQxdaXrOdsMzjCavrrmN6Vnrh8MYtedQ1M0bgAk2SoRvdfXFmO2HJRyrn71qmF12yIIsvDFnVQuACTZKhi71SdcLSj3zqRNxigRdK9JbLF2cxMCxsIXCBJsnQ5b5+ZFJiqcB49g16ctE7Hrcii32Z+QwCF2iSDF3u/Hm1ODppQ2EVxmdtK6RHvHRjHjXntRC4QJNkKINHLq9LKhUZh8ZPqFZIpV04rxb/sKtu/oLABWVskvwkTZLpUa/bqhx8lcYVA+5lVNPtF9biB4ec10LgAk2SoWS+dMj5rSqNl25quK6pnIf212LzcWELgQs0SYYS2lZMSykVGv+03zkuquU5a7MYyc1PELigUhYeKeLOizzkqL7LFuq/VbWxsjbl2qYyBX3+Zls9CvMSBC6obpPkR2uSTMX9xmoFM6o2GtMRF2h5QcndckEWXxlSHAOBC3qiSfIf3uBcF9X1Cg2PKznu1+++RXnde0kWq486r4XABT3lvTs0Saaa/n7vuHRSwfHkNRogU05Xr8pjv2bGCFzQm751oB636fMwpFq+O6JCYRXHy1UqpIReNZi3KgabcyBwQQ+74VgRD9AkmQrZUlehsIrjXbvGXd+URqoMfN0e57VA4IIfOZwX8ZTVzkdQDfmUGoVVHJ8aUhqeckgVgfuOOK8FAhf8nHrRiL/YnMd5HpaU2KV9mWRS0fG1I5Oucbreo5ZlsaNmTgECF5zG5/YVcTNNkimpKwZyyaSiY8ExvbjobqkCcKoEbC4BAhfcqKXDRdxNk2RK6PEr9eCq6liu+TFdKlX8TZV/zR9A4IKzsrvWiF9drpgG5fLUtYVkUtGxPp92jdN1br2g1qr4a94AAhfMyGi9ES9ar5gG5fF76wWuqo6thcBFl21h7s9alX7NF0DggnP2oR15XKBJMiXwksGGZFLRsUXgoos8bU0ehzJhCwQumEXfO1jEZZok0+VevlngqurYVBe4mHupkm+q6Fs3LwCBC9ph8FgRD+p3rguBy+j82OAMF3Ps5guy+Pw+q1ogcEGbDedFXLNa6KI7/ZnAVdmxbFSVQubO3Rdn0T9iDgACF3RI0fTmLZok04UrXJsErqqO/z4qcDE3Hrsiiz2aGYPABXPhi0NFXLLAahfd4/kbBa6qjq8dmXSN0/lCPBvyVsVez3wQuGDOLBsu4vLFQhfd4ZnrlIWv6vjk0IRrnI65cF4tPrxTfy0QuKBL7M0acdVKoYu598TVdcmkouNvdo67xumI2/XV4vuHFMcAgQu6TK1oxMs3apLM3HrEcoGrqiMVRHGN024PGchi03FhCwQu6GIf3VWPi+Z7aDM37ro4k0wqOp6ytnCN01a/syZrVeL1LAeBC7reDw4VcfuFHt503gXzajF5Qjip4rhvvxV02uP85n3jr7fWWxV4PcNB4ILS2HK8iIf1e5DTebsa09JJxUYK0amIgeub2XaLBVlcv9+qFghcUFIjeRHPXquYBp2V+jUZ1Rob8mnXNrPuXkuyWDEibIHABRVokvy2bfXWlg0PeDrh4/smJJSKjX89qCQ8s+sJK7PYn3lGg8AFFfLloXrcUpNkOiBVszOqNd6wbcy1zax55cZ6ZIXnMghcUEGrRoq49xKhi/b61ZVKw1dtPH5V3bXNObvp/Fp8YrdmxiBwQcWlLRxXr1JtjPa5WXNSNaFSYWXG2HTExVpNcI7uuLAW8w87rwUCF/SItJXjzweFLtpnYFThjKqMvmNTrmnOrSH6QBbbRz17QeCCHvTJ3fXWFg8TAmbb+3aPSyoVGW/e7vwWM/e8dXkcrXvegsAFPSxt8biTJsnMst9cU0gqFRlXLrMaztm7ybxavHu781ogcAEtaavHI5cppsHsSWd+sikHuco+djem4zzXM2fp0gW1+OYBYQsELuBnHKs34vfXeZPN7PnyoUmJpeTjvbvHXcuclfsvzeKGY4pjgMAFnFLaAnITTZKZBc9db1th2cdDBryE4cw9dXUeBzNhCwQu4EZ9fX+9tSXEBIJzLQ9/fNK2wrKO5TXVCTkzadvp6zfnUff8BIELOHNrjxatrSEmE5yLj+2bkFxKOp6/seEa5kbdfEEWn99nVQsELmBG0taQ31ptSxEz96CBPKxxlW8cGD+hZQQ36u6Ls1g6LGyBwAWck7xoxGs35SqVMWPfHVE8o2zjddv03uL0Hrsiiz01z0gQuIBZ89m99daZHBMNznpitrIuwZRo7Bs7ETf3W+c0XrIhj1HNjEHgAmbfkuEi7rrIZIOz951hq1xlGS8adHaLk7twXi3+fqf+WiBwAW21q9aIxyxXTIOzP8ulYGH3j8XHp2wf5qRu11eL7x9yXgsELqAjjtcb8cL1imlwdv5BxcKuHlPNQHzlsrprlV/w0IEsNh8XtkDgAjrugzvyuECTZM7Qrfqy2Dtmmatbx3t2j7tO+QXPXpvFcC5sgcAFzJnvHCzisj6TEs7MNesKyaYLx9psWhl4fsb582rx1q31KDznQOAC5t6GY0U8qN+5Ls7Mp4ZsLeym0ZiOeOgyW4T5iVsuyOL6IcUxQOACusqRvIhrVgtd3LhLmpO5wfq0pNMl4083qUrIT9x7SRarRmwhBIEL6Epp68mbtmiSzI178EAe+ZTzXHM9/vnAhOuR/+/qVXnszzzLQOACut4Xh4rWKoYJDKfz3PVFiFxzN1bUpuLmfqf8yKsG88gLzy8QuIDSWDZcxOWLTeY4vXftGpd85mDsGZuOu/h90nTx/Fpct8d5LRC4gFLamzXi11aY1HFqafvpvx5URKOTY3TqRDxMkQya7ryoFn1HnNcCgQsotVrRiJdvNLnj1FI58nnHpiShDoxiOuLXV2luTC0evSyLnTXPKBC4gMr46K56XKTPD6dwiwVZ9I8KXe0cEycinr62cL0Rf3RDHsfrnksgcAGV84NDRdx+ockOJ3fZwqzVgNdoT9hKRUpcZ73tgnm1eN8O57VA4AIqbcvxIh7Wb+LDyd22GbpW1ax0zeYYb4at37lB2Op1t+mrxbcOCFsgcAE9YSQv4tlrFdPgVBPDLJbZXjgrI/WXfqpthD3vgf1ZbDimOAYIXEBPSU2S376tHufPMxni5Ge6/nNkUmI6hzE8cSL+10oFMnrd09fkcTgXtkDgAnrWV4bqcas+q138olRkRcn4mY0djel4QL/qoL3ecuGNW/Koa2YMAhfAqpEi7rNE6OLkk8a/2TkeJ2SoMx4Ljk3FHRb5PfWySxZk8YUhq1qAwAX8lP1ZI65e5Y08J/e8Dc3rRAHDGx0f3zcRF9mm29MuX5zFwLCwBQhcwElkRSNeNSh0cXIPX5bH9kLqOmlxjKkT8fyNDddJj3v8iiz2ZZ4lgMAF3Ijr9tTjppokcxK37sviW8OKafz0SL3LnNfiZRvzqDmvBQhcwJnqO1LEnTRJ5hTnul652RbDqRMR79897uWE4jLxsV36awECFzAD20cb8ahlDv9zcg8eyGNljzZJ3lyfVvKduMPCWvzgkPNagMAFnINj9Ub8wQ22S3FyF8yrxRu3j/XMalf6O9+6w6oWtbhyIIstx4UtQOACZsl7dtTjJqqvcQr368/jexVvlPzNI5Nxn6VePlCL567N4mjdcwEQuIBZ9o0D9bj1ApMtTu231xWt7XZVGstGp+KqVbYPUovz59XiHdvqUXgeAAIX0C7rjhZx/6XOdXFqFzYnpS/b1IihsXK3S17SDFpPX1u0ioT4XrlVXxZf3a84BiBwAR1wKCviKattreL00jmnlzaD15YS9e6abGbErx2ZjCeutqLFT22ZXZrFmqPOawECF9BB9aIRr9+ce/vPjUpn/562tohvNIPMZJcueqVtkG/bOR53W2z1lp/15NV5HMzd8wGBC5gjn9tXxM1UbOMM3WlRFtduGYv+0amYy+yVemilf8PbmyHrymVWazm5/70pj1wzY0DgAuba0uEi7rbI5Iyzk1aTXrG5Ed8enoxsqr3xa6L5n19Wm4oP7hlvFfa4dZ+VLE7t4vm1+Mxe57UAgQvoIrtrjfjV5SaxzMxFzQluaiT8F9vG4suHJ1tb/KZnmMGOTZ6IgdGp+PT+iXj1lrHWf9cqLGf8ImBRLRYdcV4LELiALjRab8SL1tuexewV3XhAfx5PXlPEH29sxGu3jsVbdozFO3eNt7YCvrX5f6f/7cWDjdaq1SOX1+P2C4V+Zu4xy7PYVXMvBwQuoMt9aEceF2iSDJTIC9fnrZdG7uGAwAWUwvcOFnFZn0kc0N3Sy6EP7sjdtwGBCyifweNFPLjfFi+gO6WXQt896LwWIHABJTacF3HNaqEL6C4PGchi4zFhCxC4gAoomt6yta5JMtAVnrEmiyO5sAUIXEDFfGmoiFsssNoFzI300ufNW/LWSyD3ZEDgAipp2XARv7RY6AI665IFWVy/36oWIHABPWBf1oirVgpdQGfca0kWK0aELUDgAnpIrWjEyzdqkgy01xNWZjGUuecCAhfQoz62qx4XzTcpBGbfKwbrkRXus4DABfS4Hx4u4vYLTQ6B2XHT+bX4xO66+ysgcAH82NbjjbhywLku4NzccWEt5h92XgsQuAB+wUjeiOesFbqAmXnEQBbbRoUtQOACOKXUH+cd2+px/jyTR+DMPW9dHkfr7qGAwAVwRr4yVI9L+6x2Aad3k3m1+NvtzmsBAhfAWVs1UsR9lghdwMlduqAW3zwgbAECF8CMHcgbcfUq/bqAn3X/pVnccMx5LUDgAjhnedGIVw8KXcD/eOrqPA5mwhYgcAHMqk/vqcfFmiRDzzqv6fWb86i7HwICF0B7LDxSxJ0XmXhCr7n5giw+t8+qFiBwAbTdjtFGPHqZYhrQK+6+OIv+Efc+QOAC6Jhj9Ub84Q3OdUHVPXZFFntq7nmAwAUwJ967o97qw2NiCtXzkg15jGpmDAhcAHPrGwfqcesFJqdQFRfOq8Xf7dRfCxC4ALrGuqNFqy+PySqU2+36avH9Q4pjAAIXQNc5lBXxlNXOdUFZPXQgi83HhS1A4ALoWvWiEa/blLf69ZjAQnk8a20Ww7mwBQhcAKXw2b31uJkmydD1zp9Xi7durUfhvgUIXADlsmS4iLtqkgxd65YLsrh+SHEMQOACKK1dtUY8ZrliGtBt7r0ki1UjthACAhdA6R2vN+IF6xXTgG7xxFV57M/cmwCBC6BSPrAjjws0SYY59arBPPLC/QgQuAAq6TsHi7hNn0kvdNrF82tx3R7ntQCBC6DyNhwr4oH9znVBp9x5US36jjivBQhcAD3jcF7ENWuc64J2e9SyLHbW3HMAgQug56QmyW/cokkytMsf3ZC3ita43wACF0AP+/y+Im6+wBZDmC2pOM37djivBSBwAfxI/0gj7r5Y6IJzlYrSfOuAsAUgcAH8nD21Rjx2hdAFM5WK0aw/pjgGgMAFcAqj9Ub8yQbFNOBsPX1N3ipG4z4CIHAB3Ki/21mPCzVJhhuVis6k4jN1zYwBBC6As/H9Q0XcVpNkOKVLFmTxhSGrWgACF8AMDR4v4sGaJMMvuHxxFgMj7hEAAhfAORrOi3jGGqELfuzxK7LYl7k3AAhcALOkaHrL1romyfS8l23Mo+a8FoDABdAOXxoq4haaJNODLppfi4/t0l8LQOACaLNlw0X8kibJ9JA7LKzFDw4pjgEgcAF0yN6sEVetFLqovisHsthyXNgCELgAOiydY3n5Rk2Sqa7nrs3iaN1vHUDgAphDH91Vb51vMUGnKs6fV4u3b6u3isX4jQMIXABzLp1vuf1CE3XK71Z9WXx1v+IYAAIXQJfZdLyIh/WbsFNe91uaxZqjzmsBCFwAXSo1SX7WWsU0KJ8nrcrjYO43DCBwAXS5dO7lrVvrrXMwJvKUwWs25ZFrZgwgcAGUyfVD9bilJsl0sYvn1+Ize53XAhC4AEpqxUgR91widNF97raoFouOOK8FIHABlNxQ1ognaJJMF3nM8ix21fw2AQQugIrIika8crBuss+ce8H6PI5rZgwgcAFU0f/drUkyc+OCebX44I7c7xBA4AKotnmHi7iDJsl00GV9tfjuQee1AAQugB6xdbQRDx9wrov2e0jzOtt4TNgCELgAesxI3ojfXZcLBbTNM9ZkcTgXtgAELoAelZokv2ObJsnMrvOa3rwlb11ffmcAAhdAz/v3/fW4tM8WQ87dJQuyuH6/VS0AgQuAn7FqpIj7aJLMOUhNtlOzbb8nAIELgJM4kDfi6lXOdXH2UnPt1GTb7whA4ALgNPKiEa8eFLo4c68YrLeaa/v9AAhcAJyh6/bU46aaJHMa6fr45O663wuAwAXATPQdKeJOmiRzEndsXhepibbfCYDABcA52DHaiEctU0yDn3jEQBbbRoUtAIELgFlxrN6I52mSTFO6Do7W/SYABC4AZt27t9fjJpok96T0vb9ru/NaAAIXAG319dQkeYEA0ktSU+yva2YMIHAB0BlrjxZxv6XOdfWC9D2vOypsAQhcAHTUwayIJ2mSXGlPXp23vmfXO4DABcAcSE2SX7NJ6Kqi1za/11wzYwCBC4C594976nGxJsmVcLPm9/jZvYpjAAhcAHSVhZokl97dFtVi0RFbCAEELgC6kibJ5fWY5VnsqrmGAQQuALqaJsnl88L1eYxqZgwgcAFQHn+rSXLXu6D5/XxwR+56BRC4ACijVpPkPlsMu9FlfbX4zkHntQAELgBKLTVJvq8myV3lwf1ZbDwmbAEIXABUwsG8EVdrktwVnrEmi8O5sAUgcAFQKamJ7rWDQtdcOa/pTVvyqGtmDCBwAVBd1+2px001Se6oSxZk8aUhq1oAAhcAPaFPk+SO+aXFWSwbFrYABC4Aesr20UY8UpPktvq1FVnsy1xrAAIXAD0pNUn+PU2S2+LlG/OoOa8FIHABgCbJs+ei+bX4+O666woAgQuAn/iqJsnn7A4La/GDQ85rASBwAXASa44WcZ8lQtdMXDmQxdbjriEABC4ATuOAJsln7blrszhad+0AIHABcAZSk+RXaZJ8o86fV4u3b6tH4ZoBQOAC4Gx9crcmyadyq76sde7NdQKAwAXAjC3QJPkX3Hdp1jrv5voAQOAC4JxpkvwTT1qVt865uS4AELgAmDVHNUmOawfz1vk21wMAAhcAbfHO7fVWsYheCloXz6/FP+5xXgsAgQuADvj3HmqSfJdFtVh4xHktAAQuADpo1Uj1myT/8rIsdtZ81wAIXADMgf1ZdZsk//H6PI5rZgyAwAXAXMqKRvx5hZokXzCvFu/f4bwWAAIXAF3kExVoknybvlp8+4CwBYDABUAXmne4iDuWtEnyFf1ZrD+mOAYAAhcAXWzraBEPHyhXMY2nrcnjUCZsASBwAVACI3kjfrcETZLPa3r95jzqvjMABC4AyqRoevu27m2SfPMFWfzzXue1ABC4ACixrwzV45YLumuL4d0W1WLJsC2EAAhcAFTAypEi7tklTZIfszyLXZoZAyBwAVAlQ1kjrlo5t6HrBZoZAyBwAVBVtaIRf7oxn6NmxrnvAACBC4Dq+8jOelw4r3PNjL+lmTEAAhcAveT7h4q4bZ9mxgAIXADQFoPHi3hQf6aZMQACFwC0w5G8iGvW5JoZAyBwAUA71ItGvKEZks7TzBgAgQsA2iOFpZvN18wYAIELANqi70gRd1p49s2Md2tmDIDABQA3butoEQ/tP7Ow9eINeYxqZgyAwAUAZ244FdNYfeoKhhfPr8XHdzuvBYDABQAzkioNXjuYn7S/1lLntQAQuADg3H1wRx63XlCLOy6sxV9trccxWwgBELgAAAAELgAAAAQuAAAAgQsAAEDgAgAAQOACAAAQuAAAAAQuHwIAAIDABQAAIHABAAAgcAEAAAhcAAAAAhcAAAACFwAAgMAFAAAgcAEAACBwAQAACFwAAAACFwAAAAIXAACAwAUAACBwAQAAIHABAAAIXAAAAAIXAAAAAhcAAIDABQAAIHABAAAgcAEAAAhcAAAAAhcAAAACFwAAgMAFAAAgcAEAACBwAQAACFwAAAACFwAAAAIXAACAwAUAACBwAQAAIHABAAAIXAAAAAIXAAAAAhcAAIDABQAAIHABAAAgcAEAAAhcAAAAAhcAAAACFwAAgMAFAAAgcAEAACBwAQAACFwAAAACFwAAAAIXAACAwAUAACBwAQAAIHABAAAIXAAAABX3/wBCu1D6Y3jr0wAAAABJRU5ErkJggg==;base64,iVBORw0KGgoAAAANSUhEUgAAC7gAAAfQCAMAAABlzOIIAAAABGdBTUEAALGPC/xhBQAAAAFzUkdCAK7OHOkAAAMAUExURUdwTERMtVJbwF9s1XuC61VdwWp4409YyVdfwVKD509YvkBHsnuC61RbwHB240xUvHqD6ltjznuC61lhw09ZyXuD63uC601VvU9ZyXB44kJJs3qC63uD63uD609YyXuD63qC6nqC63qD63yB63uC60pRu1BYxnuC6k9YxlBYyHuC63qD63qC63uC63qB6U9YyE9YyXmB6U9Zx1BZyU9ZyE9YyU5Yxltk0XqD609ZyE9ZyFBYxnmB6XqD63uD61BZxlBZyVBZyE9ZyFBZyFVdxnqD609ZyHqC7HqC62911HqD6VFayHqC7E9YyU9YyU9YyE9ZyUtPj1FayE9YyXqC609YyHqD6nuD609ZyVBZyXuD6kdPuFlhw3B31m921khPtEtSp252109YyG921UpPjWt02Flhw01SlUdPuEtQpllhw3N62nZ+43uD61BZyf///2921FFZv09XvkdLiE1VvVNbwFRcwFJav1BYvk5WvVVdwUxUvFZewUtTu1leqk5WvkZOt0dPuDk8bUVNtkpSumJpvEhQuURMtVdfwlhgwkNLtElRuUNKtElRukJJs0FIskBHsVBYv0RLtT9GsEJKs0dOt0pSu0ZNtkhPuEhQuEVMtklQuT5Fr1dfwUBIsktTvEpRuj9HsTxDrkFJsjtCrUVMtT1Er1lhw1lhwj1Erj5GsEtSuzpBrEFJsz5FsFJawFVdwD1Fr0dPt0ZNtzxDrUxTvFpiw0xUvTxErkBIsURLtEJKtD9GsXd/5DlAqztCrDtDrU1UvW114F9mtmtyzPT1+77B5zpCrLq+5ry/5jpAlzxCmt3f8291yTpBq09VrT5EnXN5zEBGn3F3y2txx7a54klPpnmB6EVLo0JIoURKonJ52khMij1AdlNYn3B31nV832VswkpOlFli0UlOjzo9cWRt2nZ+50BEfFRdzUdNpHF541ZbpF5n1G100Wly3URIgzk/oVthr05Tljk9gU1VtDk+j1FWm2FnulBYvEhOnk5UpqWq3l1jv4yR0lNbw2h4JywAAABtdFJOUwCqqguqqgWqqgKqqvuqEKn+FJSq+uHrqv7jqtRVie2AvaApG9qqMPFeiMX1d24imPRnITd330IZtZEoSD1NM2VVbU65q81/QzmwL+dc19HFocXKskdysKWmvmHR2Y596IHfwZviz5qx9Z73VvOceTKDAAAgAElEQVR42uzBAQEAAACAkP6v7ggKAAAAAAAAAAAAAAAAAAAAAAAAAAAAAAAAAAAAAAAAAAAAAAAAAAAAAAAAAAAAAAAAAAAAAAAAAAAAAAAAAAAAAAAAAAAAAAAAAAAAAAAAAAAAAAAAAAAAAAAAAAAAAAAAAAAAAAAAAAAAAAAAAAAAAAAAAAAAAAAAAAAAAAAAAAAAAAAAAAAAAAAAAAAAAAAAAAAAAAAAAAAAAAAAAAAAAAAAAAAAAAAAAAAAAAAAAAAAAAAAAAAAAAAAAAAAAAAAAAAAAAAAAAAAAAAAAAAAAAAAAAAAAAAAAAAAAAAAAAAAAAAAAAAAAAAAAAAAAAAAAAAAAAAAAAAAAAAAAAAAAAAAAAAAAAAAAAAAAAAAAAAAAAAAAAAAAAAAAAAAAAAAAAAAAAAAAAAAAAAAAAAAAAAAAAAAAAAAAAAAAAAAAAAAAAAAAAAAAAAAAAAAAAAAAAAAAAAAAAAAAAAAAAAAAAAAAAAAAAAAAAAAAAAAAAAAAAAAAAAAAAAAAAAAAAAAAAAAAAAAAAAAAAAAAAAAAAAAAAAAAAAAAAAAAAAAAAAAAAAAAAAAAAAAAAAAAAAAAAAAAAAAAAAAAAAAAAAAAAAAAAAAAAAAAAAAAAAAAAAAAAAAAAAAAAAAAAAAAAAAAAAAAAAAAAAAAAAAAAAAAAAAAAAAAAAAAAAAAAAAgNm1e9WEwTAMw4NBCBSpH8TFfNikhUJ+CtkyqJsoxVEq9Bxy/muhc0FoE7tc1/AewD29wwMAAAAAAAAAAAAAAAAAAAAAAAAAAAAAAAAAAAAAAAAAAAAAAAAAAAAAAAAAAAAAAAAAAAAAAAAAAAAAAAAAAAAAAAAAAAAAAAAAAAAAAAAAAAAAAAAAAAAAAAAAAAAAAAAAAAAAAAAAAAAAAAAAAAAAAAAAAAAAAAAAAAAAAAAAAAAAAAAAAAAAAAAAAAAAAAAAAAAAAAAAAAAAAAAAAAAAAAAAAAAAAAAAAAAAAAAAAAAAAAAAAAAAAAAAAAAAAAAAAAAAAAAAAAAAAAAAAAAAAAAAAAAAAAAAAAAAAAAAAAAAAAAAAAAAAAAAAAAAAAAAAAAAAAAAAAAAAAAAAAAAAAAAAAAAAAAAAAAAAAAAAAAAAAAAAAAAAAAAAAAAAAAAAAAAAAAAAAAAAAAAAAAAAAAAAAAAAAAAAAAAAAAAAAAAAAAAAAAAAAAAAAAAAAAAAAAAAAAAAAAAAAAAAAAAAAAAAAAAAAAAAAAAAAAAAAAAAAAAAAAAAAAAAAAAAAAAAAAAAAAAAAAAAAAAAAAAAAAAAAAAAAAAAAAAAAAAAAAAAAAAAAAAAAAAAAAAAAAAAAAAAAAAAAAAAAAAAAAAAAAAAAAAAAAAAPcwX5bb3WfXNE2MsQjXJClCiHHTNF2XH9+f5xIBAMB/mZW7NhZ99bIabqmzQ38NTX5aygYAAPeRvl26mFS33/UfX/h1H9p8P5MRAAAms9h2oaqHEaw+4rlMFQUAgFGl5Tn22TCWx+/7WoXuZAAPAACjmO/bZDVM5eEQctN3AAD4k8Vx81QPk8uKdm84AwAAvzG7hPVwP1/s3dtqYkkUBuAGRRBEjKA3Kp5CC54g3ZCRmSQ0A8EQchkS6Heo978dpqdnoAeTeNiH2u7vewTrF342VWt1q9+nfnQAADjI+qo6C5nrDbbuvAMAwH4q20Ev5GWxufLhHQAAPtLsvyxCzubLtYMAAIA31W7Hubf2n5dmhro7AADsbu2vsxCP1nzlzgwAAPyqvo2qtf/s7qPvFUcDAAD/mi4vQ5xm463jAQCAT39/bK82WiFevWXTciYAAMpuuuyE2C2qW9UdAIAye960QiH0rtx2BwCgpGr9+1Acs7YhMwAAlFBz1QmtUCSL14ljAwCgXNaDWSig+a3L7gAAlMdd3HNk3nPfV90BACiHSbWorf2fd6pPqjsAACWo7eNC1/Yf1d1XdwAAzty63QjF1+r1HSUAAOdc21vhTMxvHScAAOfpor0IZ2R050gBADg/tatuOC+t6tqxAgBwZra9cH4Ww5qTBQDgjEw24Tx1zIYEAOBsNAeLcLZGjw4YAIBzUF91wzlrjJsOGQCAwnuch3PXvXLMAAAUW23ZCCWwMV8GAIAie+iFclgsPVIFAKCoKoNGKI35xIEDAFBIz51QJo2Boe4AABRP8zWUTe/OsQMAUDAPl6F8GkM33QEAKJLasBFKaTR1+AAAFMZ6Hspq9uT4AQAoiKdFKLFxRQIAACiAEr5K/VXnQQgAAIjeTSeUXcM2JgAAYnfVCISXpiQAABCx2lhp/+HyURgAAIjWuqey/7ToiwMAAJF6nins/2m1axIBAECE6suWum4ZEwAAkWtuVPX/z4W8EwsAACLjevuuuZAuugMAEJeHrnsyuy66D0UDAICI3C6U9N3NfeyJKgAA0Vj53P6mjV1MAADEod5Wz9/RM1wGAIAYVF6U8/eHy9iiCgBA/qb3qvkHZlsxAQAg797ec7/9QwtjIQEAyNf6Ui3fZ6D7k6gAAJCjSUcp36+5fxcWAADy6+1dlXxfK3EBACAnd3r7ASxRBQAgHzczbfwQA5EBACAHzwtd/DBtoQEAIHMPevvBL1Q1dwAAMu/t7sm45w4AQPQevUs9ylJ0AADIkDmQR2pdCQ8AAJlZ27t0NJuYAADIylRvP+GFal+AAADIxEVP/T6lud+KEAAAGWjq7adZPAgRAACpq41U7xN1J2IEAEDa2or3yS4v5AgAgHQN1e4EzCuSBABAmvotrTsJ1bosAQCQnpuGzp2MgTABAJCatYWpibFCFQCAtFxc6tvGuQMAELvaXN1O0MxQSAAAUmEQZMJDIZsyBQBA8p4MlEnYi9EyAAAk7nGhaSdtKVYAACSs6WFq8lrPggUAQKLqGzU7Bd21aAEAkKShkp2K+4psAQCQnFsPU1MyFi4AABJjY2p6vosXAAAJqY/0a3uYAACIngvuqV5zr0kYAABJuGto12kaihgAAAmomOCe8jT3rZABAHC6sWqdsk5TygAAOFVfsU5dVcwAADjR1CTIDDwJGgAAJzEJMpuZkGtRAwDgFCulOhOjuqwBAHC86UyntkAVAIDovWjUGelOpQ0AgGOZKJOdV3EDAOBITRNlMnQrcAAAHMfqJWuYAACI37alTWepLXIAAByhcqlLZ6p1I3QAABxuoEpnrFeTOgAADjVpaNJZW4kdAACH2ujRmZsZ5g4AwIGe1WjvUwEAiF6tp0Xn8T71TvQAADjESonOxUj0AAA4gJ2peekLHwAA+2tr0HntTzUSEgCAvRkFmZ+l+AEAsK9RS4E2EhIAgNht1WcjIQEAiN/cB/ccNXxyBwBgL3Yv+eQOAEABzHXnfD+5r2UQAICP3arOOa9PHQshAAAfqt+rznl/cp+IIQAAH+krzrl7FUMAAD5Q7+nN+V+WeRREAADe96Q2R6AqiAAAvMsH9zg+ubvlDgDAu4yUMVgGAIACGCnN1qcCABC9O5U5EkNhBADgba8acyS6FWkEAOAt04bGHIuVOAIA8JaBvhyNTl0eAQDYrTnTl+MZLNMXSAAAdluqyxG5F0gAAHaqdbTlmDyIJAAAu1i+FBdLmCpffv/89fr6+tu3P6//+Pr565ffav6mAACfPm105ags/mLv3najOrIwAF901KglZNlWO9qScQPG8oEwuH2OG4JPwiA8blsYE8xlHqDe/3IyMDMkHMIkwbtq7f19z/Dvpb9bVasmWhnD3vr28vHqjV/GJ/30q6pKvzXcGh+92b3c35jywQIArWUXZGnWWpbAqe3L1autfvpj75t8lYbji5W9RX/BAwAtdFtTLsxse8I3Wl45Okl/Qf/0zeahf98BgFbpzUyqyoV50obgdRcvbwyq9Ldsne+N7L0HANrilZ5cnOnG/1rcXjkbvjv48vcNLg7WfcYAQBu81pPLu57aaXLipvbPB9W3qOwfzr5vre53fMoAQMO5mlqit43N2+LK+Nt19t+tnTnac+QdAGg0r6aW6H4zwzY6Pq2q6+nt7y6snh3o7gBAcy1oySWab17S1o/H6dr1j5admQEAmumJjlyk2w3LWXf/KNWkf2Pbdw0ANNCcjlykhUalbLQySLWpUjrddGQGAGia3oyObJX79erun32bvY9/6qrq+aKvGwBolOcacpkm5xqSsM7BVsrjbN/TTABAgzgpU6qZRrTOneNByuf00kVVAKApnJRxVuYajc77Ka+TTdUdAGgGJ2XKFf6szPpq7tr+bwPVHQBohGn92FmZa6rtu8NUhEp1BwAawEmZkj0PnKyd3X4qRZW29ro+dgAgtsfasbMy16B7MExlOT30tQMAodkp4w2ma3C4lcpzNPK9AwCBzWrHJXsYMlSjo1Sk/u6ELx4AiOrepHJcsrWAmZpY7adSDZZ98wBAUG9146K9jhepIk/JfLil+ovzMgBATN/pxkX7IdoulJ3zVLjhZs93DwDE013Sjcv2LFag9gepfONFXz4AEI5lkBZCfkM7RymE/rGl7gBANJZBlm42UJpC/N3+3st1Hz8AEMtTzdhCyG+ks5sCGe75+gGASCyDtBDyW9k4TbHcmDIAAIA4bunFxfs5RJJ6m/0UzdaGCQAAhDGtFxdvJkKQOjdSQP1NIwAAiMIR9wDulZ+j0WmK6U3HEAAAQujcVIvLd6v4HB0Ogvb2VI1tlwEAQnimFQcwXXiKuispsMEjcwAACOC2VhzA07JD1LlIofUPDAIAoHw/asUB3JwoOUM74yoFt9szCgCAwvWWtOIIXhWcocWt8L09VReuqAIAhXuhE4dwu9wIbQ9SE7zcMQ0AgKKt6cQh3Ck2QXv9RvT2VG2NjAMAoGR3deIQlko9g31QpaYYLJoHAEDBPL8UxMMy87OZGmSwYSAAAMXqen4piJ+KzM9xapThtpEAAJTK3VS3U/+63m5qmOGhmQAAFOqfGnEQ3xXY28+rpLkDANRjTiMOYqG83r7avN6eUl9zBwDK5N3UKG4W90DQSmok59wBgDLNaMRRPCksOsepoYZ2ywAABZqYVIijeFtWdC5TYw3tcwcAyvNYHw5juqjkHFTNLe7VwBuqAEBx/qEPh3GnpOAc9lODVVs7ZgMAUJhpfTiMmYJyszFMzfayYzgAAGWxVCaOyW4xsVk/SU130TMdAICizOrDcTwsJTWdcWq+XdMBACjKkjocx6tCQtO9Sm1wYDwAAAWZ0oYDWSskNeet6O2p/8iAAADK8UQbDmSujNDspZYYrJsQAEAxbmnDgfxcRGYav1Dmg7HVMgBAMR5ow4HcLyEyUyepPd4YEQBAKaxxj+T7AhLTvapaVNwrF1QBgFJY4x5qkXsBJzdWUqv0NwwJAKAM1riHMp89MI/a1dtTdTJlSgAARbDGPZRnufPSqgPu75v7DVMCAChBd1IZjuRW5rz0LlL7LJsTAEAB7unCXmD6Ew5a2NvTcGRQAAD5zevCodzOG5fRsI3FPb3smhQAQHaPdeFQprOmpTtO7XRsUgAA2Xk4NdY6yLxPpx63tLen/qJRAQDktqYMh/JjzrC09KDMu8MyPbMCAMjsgS4cytOMWemdpfa6NCsAgMzmdOFQFjJm5aDFvT0N1w0LACCvu7pwKEv5orI+bHNxT1cOywAAeb3WhWPdTs23mPCoanVx9wwTAJDZHV04lolcSdlvd21P1WDCuAAAcrqvCscylSko3dPU9ua+YlwAADk9VYVjuZcpKJup9foj8wIAUNz5fz3Mk5OdoeKeLswLACCjWVU4lvk8OTlX23/1yMAAAPJZUIVjeZElJotVpbandNo1MQCAbGZU4VieZ4nJldL+zp6JAQBk870qHMvjHCnZVtnf2/KXOwCQzZIqHMuzHCn5RWX/jwMjAwDI5QdVOJZXGULySGH/r5OOmQEAZHJTFY7lVoaQvFTY//cK06WZAQAo7hRa3A/19Q8G/nIHADJxVMZRma/ojdX139g0NACAPFxOdTn1K5xw//0pd4tlAIA8rIO0DvIrjpR1u9wBgAJ4gMkDTH9s0ZupHz2f2jM2AIAcFlThWF7UnZBzVf0jj4wNACCHWVU4lvmaA7LT19Q/cmVsAAA5PFWFY3lYc0BWFPVPLJobAIDiztfcqzcfnYGe/olzcwMAyOC+KhzLVL35WFbTPzWcMjgAgPrdUYVjmag3H2dq+mccGBwAQP1eq8KhTNb7/M/ILsjPGRscAED97urCoSzVG49dxf2zNkwOAKB2c7pwKAu1pqPraurnrZocAEDtHujCodyvNR37KvoXrqd2jA4AoG5runAoP9aajiMV/QuWjQ4AoG4/6cKh3K0zHFN9R9y/4MLoAADq9lgXDmWuznDsKehf0rfKHQCo27wuHMqDXo3hcFLGWRkAoBxTunAoa3Vmo6+ff9GR2QEA1Kw3qQxHcqvGbDgp46wMAFCS75XhSJ7VGI0r9fwP7JkdAEDNZpXhSObrS4aTMvbKwL/Yu5vfKqs8DuBk6pS5CUNoC6QJCAqmtuLwLkgr77GiDUjqoGjKJGSiC2dzsXEkE8ediS77B8x62OGqO1awd0OYBY3VpqsJYYEhvqXJFBgZGOQ+B3nueZ5z7udDwo7dye98Ofne3wNArbwoDCdkRcQP//j6km8wAQC10isNJ2R1xJNxXDhvacTwAADiel4aTshz8Q5GY0w2b6V/j+EBAMS1VhpOyFvxDsaAbN7aUcMDAIhrnzSckIgfTt0pmhfYbnoAAFH5ApPvL/2i1yVzCyEBgHp5VhxOxx+jHYsuyyCLLDU8AIC4LHJPyOZox2KXYF5kzPAAAOJ6UxxOZ417d7RjMSqYK7kDADVjkXs6VsU7Fofl8kKDpgcAENU2eTgZT0U7FY11cnmhLaYHABDVS/KwbZAPsMXdJncAoHaWrxCIU/FOtFNxUCwP+Hhqj/EBAES1SiBOxb5oh+K4WB5gxPQAAKJ6USBOxLKuaIfimFQeYKfpAQBE9aREnIg10c5Et88vhThpegAAUa2ViBPxRLQz4bepQY6ZHgBAVBsk4kSsj3YmBoXyECu7jQ8AIKbuTSJxGvZGOxNDQnmQAeMDAIjqZZE4DZujHQnfTfXtVACgjp4WiZPwbCPakRiTyYMMmR4AQFTbZOIkPBXtRHT1y+RBlpoeAEBUr8nEfpt6n2GR3FoZAKCOGquF4hS8Eu1EjIjkYdaZHgBAXL6dmoKI3009KJIHWm56AABRrZeKE/ByvANhG6R9kABAPb0iFSegN96BWCqRBzpgegAAUXXNNpMwu+jq1a8vXPhXJwb3tfEOxLhEHuiE6QEAxPVuMzGzi/G909L7xnjnwRr3UHsMDwAgrlOzzQRd/bqTsvuqeMehsVIiD3TS8AAAomr8pZmo2c7J7m/FOw89Anmow6YHABDXxma6rl7ojOC+Ld5x2C6Qhxo3PACAyN5NOLk3Z7/uhOC+Od5p2CGQh3rB7AAAIjvVbKYd3bNvzKyJeBoOCeShtpodAEBkLzWbqUf3zIP7kxFPw6BAHqzb8AAA4mqcnk0+uufddX8l4mk4IY8H2214AACRg/urzfRdzbgvsynmy+6oPB5s2PAAACLblkFwz/nR/c2Yh2FIHhfcAYDa2tjMQraP7ttiHgbBPdyA2QEAxPZuHsl9NtPkvjnmWdgjjwfbYXQAALGdamYiy/Uya6KehS3yeLBdRgcAENtLuQT35tUcl0E2Yp6F4/0CeagRowMAiK1xOpfgPpthcj8S9Swcl8eDHTI6AIDo/tzM5809t6L7qqgP7kuWyuPBDpgcAEB0+XRl8kvuT8Y9CiflcS/uAECN5dOVyW+5zL64R0FVRscdAKi1U82c3txzyu3PRD4JtsrYKgMA1NqRpuSuKXOLPe6PsMe9YXIAAPGdltzr6bXIB8GXU32ACQCot6y6Mhl9iSl2U0ZwfwQD5gYAUIF9eQX35oVMgvv62AdhVB4PNmxuAABVyKsrk81qmQ2xz8FOeTzYdmMDAKjCnzJ7cs+j5v5c9HOwXx4P1mVsAABV2J1ZcM+j5v5O9HNwSB4PtdLUAACq8WpuyT2Dssym+G+6uwTyQP1jhgYAUI29TWWZuumNvyh8WCIPdczQAACq0TidW3JPf7PMvvjHoEcgD/W2oQEAVCS3n6emv1lmTQWnoLtfIg+01MwAAKrR2JhbcE/+96nbqjgH6yTyQFsMDQCgKq/O+n1qrX6aurxRwSk4KpEHGjUyAIime3jX4Imh997re1y/S81va+j3ZfnNYxj/so1++umnr1q4du2TGxe/v3zd71P/5+lKBsMbEnmgQbcIADEsHxntmzg3vbD455f9M9y5lj4vzWe/zj8e9HFZ/laCL277a2k+fAz3/fPzt31UgjO3nL3119TU1M0rP87NTLYw/90n31/y5H7bkUqmwxaJPNCOhrsEgDbrGhmamH5oYi83tp+rOrZ/1sbY/nFmsX3RR/8X28+XFdvvN3WzILxPzl8rK7yn3HJ/rpoJsVMiD7TbdQJAWzVG+t5faJ3a6xjbPxfbI8T2D9vw3H7mYX64Mtcyuk/OfHfxeoc/ua+tZkgckMjDbPXgDkA7DQ+NTRfSkkm0JVPD2P7w3H7LzX/PF2T3rz7t5Cf3ZyrKhTtE8jBHXSkAtO+x/dD4wsJCtNh+TmxP9Lk9Umy/7cuCZ/fJ+RuP++w+m+4uyIqCuy8wBTrsVgGgXbH9wMT0wnTnxHYtmceK7eejxPZbv1a92fbonurnU1d3VTUsLHK3xh2ASmP7/kRje9bl9i86stz+YGOmKLrPfHK9EzdCrq9sXLwukwc56GYBoB0GxqenlduV22vVkrl3yUzrrvvM5PzFx+nKpPnz1GUbK5sX9kGG2eVqAaB8y/cUV9uV25XbK4rtt6P7lZmCV/fvLndaV6a3uolxUCYP0b/c5QJA6QbHpqe1ZJTb69iSuevsD23syyTZlVmxobqRYa1MkBdcLgCUrauv3Od2sV25vfTYflvho/vc5U7aK/NElUOjXyoP8IbrBYCSDUwot2vJ1Lklc9f5gqb75OTMxc7pyizbUOXYeEEqDzDkfgGgXPvfn7YCUkumXisgH/4x1R8Lkvvkteud8g2mpyudG29I5QEOuGAAKFN3n3K72J5AS+ZnHxXWZb691Bkl92of3JeMSuUBtrtiAChR1+GFjm7JfGwFZCItmXu+pFqU3Ocvd0TJvdoH9yW7pPJiY64YAErU87pyu3J7UrH9zJmp4uT+za9I7qltcl+2ueL/86+UywstdccAUJ7tEwvK7VoySZTb7/sYU1Fyn/k0/1+n9lY9Pcbl8kInXDIAlJjbldutgEyl3H5PcJ/6exuSe2K/Tt20serxsUcuL7TDLQNAWXomtGSU25NqydyJ7YuK39y/yfzXqZU/uC85IJcX2drtmgGgJF3jndKSUW7PLLYvKuy5zzziL1Rn0/p16rOVP7gv2S2YF3nbNQNASbpb75NRbrcCspYtmbvJvWif+/ylnNfKPF+DEXJUMi8w6p4BoByNvpJyu3K7cnv82D419cGVouQ+94hfYkoptz9Thw6GkruKOwCRHFRuV25PsyXzs8JvqH6V7z7IvY0azJARyby1dQ0XDQClGHhfuV25PaXY/kBun/phvii538g1uD9ViyHStVU2b+mkiwaAcq7cCSsgldtTbcnccfZsyatl0lnkvuy1eoyRw7J5S4NuGgBK0afcriWTdGxfzO1nzxbV3Gfmr2cZ3HtrMkYOyuat9O920wBQhkHldi2ZdMvt/43ti+aKyjLXcgzuq3tqMkeGhfNWxt00AJShZ8wKSC2ZFrG9/i2ZO4q/wzT5aYbB/Q+1mSQWQloGCUDbvbeg3C62J1xuv6t4s8xcfsF9TX0+xzkqnbcw7KoBoAQ7znVaS0a5Pb+WzB0flLhZJpHgvuJIfUbJgHT+cMdcNQCUoDG+oNyu3J5DbF9U+AHVmUuZBffeOg0TXRlNGQDaa79yu5ZM4uX2e57c50r7DFMawX1VV52Gia6MpgwA7X1wn1Burza2WwFZWmxfdLMouE9eziq4763VNLFXRlMGgLYa1JJRbs+iJVP2SsgkgvtbNRsnxyT0h9jprgGg/Af3fFoyyu3/Ye9edqu67jiOI53okC1Zru0Y1xLGXAXYxsH4inHAxhYkwoAdHJOLIjWKokatqki4E6giMeogw7xFZ2XEC7SPEGWEWjXKqMqoUaVmEKnEhGucHIP3OWf91/58BnmAOFr7q53fWTufbL+x7Wzfxiv3e1/kE+7JXOH+0KRC/5mvL4172ACwc4vG7cbtmaxktrty/yafcL+c2nky06vRt7TkWQNACZ66Usa43bg9eLaXeLFMgHA/UCR3oOzW6Fta8KwBYOeOGrcbt2cybn/odkl3uacf7sdeTe5AKeY0+lYG6x42AOzckJWMlUwm4/ZHGn4+9dtMwv1ygidKMaXStzBUeNgAsGP1ZVdAyvZ8VjKbPm98I+S/sgj3g0meKa5yd4k7AE0y933+K5lPrWQqs5LZ9o2Q/8wg3Pd0Jnmm+HnqFj70rAGgBK8Yt7sCMrdsv3nzy0bh/nUGb9w73kjzTCn8PNVPUwFoitrvjdutZB5mewYrmR9913Ar8+f44b4/1VNlQqc/a8pPUwEowZxxu2zPZ9z+WKN7Ze59Ez7cL6TbgitK/RnnPWsAKMHs91Yyxu1ZrWS2ea/MV9HDfeTVdI+VBaX+zF2QNc8aAErwfjYrGeN22f7EvTINv8H0x78HD/fLCR8rxRWt/vRdkB41AJSg87O/GLdbyeS1knkwcr/XKNz/Fjvce5I+WM5r9SeNzXjWAFCCOeP21mX7Hdneqmy/eXOj8YWQocN9OO0fO9YG1foTVj1qACjDxbvG7cbtea1kSvx4arrh3nc48e9wTqr1x3p9fAmAUrxs3G7cnt/r9h/euDe8yf1e4HDveC31k8Ur9yec9KQBoBTv3wjH/AwAACAASURBVDVuN27PMNs3Nv7b8NepX8QN99Ei+aNlXa8/euE+7kkDQBnqnxm3G7enm+076PaNjYbh/r+w4X49/W4v6suK3Qt3AEo1btxuJZPbuP1Btm9sNLxW5j9Rw31vZ4TDxcUyD1+4u1IGgHJMW8lUcSXz18xXMptul/Dt1DTD/dihGP87b0qzb5r1oAGgHMfvWskYt+eY7fc1vA/yHzHDveOtKKeLZt/8aGq3Bw0A5ZjMaSXzqSsgrWQeu1XCfZBJhvupKKdLcU2137fuOQNASYbuGrcbt+eY7fc1DPevQob7/iLM8TLRL9s/map7zgBQkt8atxu3Z7iS2V64fx0x3F8qAp0v7+j2TxY9ZgBobrgbtxu3h8v2n3T7xr93/gWm9MJ9ONT725mxynf7u54yAJTmFSsZ4/YMVzLZhvuRWD90LC5W/irIo54yADQz3BNfyRi3y/ZtZfvGxpcNv8AULtz7Xi1iHTC1ql8J6SpIAJoZ7sbtVjLhx+3ZhvvIG+FOmLmK/zK15iEDQNPC3bi9hGy/I9vbPG7PNdxH3gp4xKz6ZSoANCXcjduN2/NYyWQZ7h0DRcAjpnuwwt3+jkcMAM0Kd+N24/ZcVjI5hnvX5ZhnTIW/n+qbqQA0K9ytZIzbs8r23MK961TUQ2atsuF+3BMGgKaEu2w3bm9ftjen2zML9xNhD5nxql7mvuQBA0BTwt243Uomo3F7juG+P/ApU9GxzOCMBwwATQh3V0DmnO2VXMlkF+49oY+Zd9woAwDlhLuVjHF7PldAZhru+2IfM51V/AzTSY8XAMoPd9nuCsj8VjKZhfu+6OfMRG/luv2KTy8BULqXXQFp3J5ntucT7l0n4h80Q1Xr9t4JTxcAWhvuxu3G7SHH7XmFe9doBgdNfaVi4b7u4QJAS8PdSsYVkEHH7VmFe8d7WZw0M8uV6vbdhYcLAC0Md1dAGrcHXsnkE+4jA5kcNZWauV/p9GwBoIXhLtuN2yOvZLIJ946z2Zw169Xp9rEzHi0AtC7cjdtdARk+27MI977XMjpsVqvS7f0LniwAtCzcjduN22OP27MJ9z2Hcjps6lcrEu5DHiwAtCrcjduN26OP23MJ9wvdeZ0244OV6PY1zxUAWhXust24PYOVTBbhfj27T/hMjFWg26/58hIALQp3Kxnj9lyyPXy492R43iz0Z9/tUzMeKwC0JNxlu5VMJiuZ+OHeMZrlgZP91TJjRz1VAGhFuBu3W8nklO2xw33kbKYnzmze3d477aECQCvC3RWQobPdSiarcN9zLtcTp1jL+iLI454pALQg3K1kjNuzuAIyj3A/0J3vkVNfyjjc1z1SAGh+uFvJGLfntZIJHe5d++o5nzm1D7Pt9klPFACaH+6y3bg9v2wPG+7HBjI/dGrXfHgJAF4w3I3bjdszG7eHDvcjh3I/dIruPD+hOut5AkCzw924fTvZfse4PdK4PXK4X++swLEzcyXDbj9ZeJ4AECXcrWSM25N63R4z3EdGq3HuzFzV7QDQrnCX7ZUft99ILdsjhvvec1Wpv+5r9u0A0JZwN263kkkv2zduhwv3g7XqnDy1Fd0OAG0Id+N22Z7WuH0z229HC/e+s5UaW9Qyus+93/3tAAQJdysZ4/YUX7eHC/cDhyt29tSz+YZq77wnCQAhwt1KxhWQiWZ7rHDvOFG93zYWs3l0+9iiBwkAIcJdtlvJpJrtocJ976Uqnj7F+f4Mun35qOcIABHCPc9st5KJvZK5fTtcuHfsq1f0/FkcC9/tV8c9RgAIEO7G7ZW/AvLzhF+3Bwr34UPVPYAmloN3+1KnpwgA6Ye7cbtxe9rZHiXcj41W+ss947E/xXSy7iECQPrhLtuN25O8AjJcuJ8+XO0TqKivBv5ZqutkAAgQ7lYyxu0pj9vjhHvfZWfQrvneoN0+NeGPB0Dy4S7bjdtTX8nECPeOHgPpH166Bx26vzvjbwdA6uFu3G4lEyLb0w/3A5ccQA/KfWYl4NdShwp/OQBSD/ecs/2ObM9j3B4i3I8MOH4eqV+MNpdZnvNXAyD1cLeSMW4P8ro98XAf2e86kqdMTIXq9rVufzIAEg932V75cfuNONmecrh3HTzs7HlGLdDtMmPn/b0ASDzcjdutZCJle8Lhbty+pYXBKB9LPeqPBUDi4W7cLtsDXAEZINyHX3fubG18LcTr9otWTgAkHu5WMq6AjPW6PdVwHz7r1Pmll+79qXf7yhl/JgDSDncrmXZku5XMjrL99q0Ew33vgDsEf1H3yf7E1+3+gAAkHu6y3UomyhWQj7P9VnrhLtu3YS7l62XWfHMJgMTDPc9sdwVkxuP2zWxPLtyHZfu21CbHEs32Kwv+OgCkHe7G7cbt4VYyt24lF+5dp1+X7ds1k+ReZnDSj1IBSDvcjduN2wOO25ML946Dh5w1z2NiJbVs71/1ySUAEg93V0Aat0cctycW7n37fG7peRXH05q6L7m6HYDEw91Kxrg95rg9qXDfe6rmnHkB9fnldK6AnPb3ACDtcJftxu1Rx+3phPvIS6bt4dN9ZdHfAoC0w9243Uom7rg9lXDfe6LTEbMTtcnBtmf7tTl/BwASD3fjdtkeeNyeRLgf6znnfNn5W/fjV9r8tt3/MQEg8XC3kjFuD76SaXe4dxx4r6b4SlEsLrWr2ntX/SQVgNTDXbZXftx+I4dsb1+4dw2PukamTBO7e9txb/uQz6QCkHy4G7dbyUQft7cz3FV7M8xMtvp2yGvzLgMCIPlwzzPb/2TcXpUrINsb7qq9aYrpFr52X561kQEg/XC3knEFZB4rmXaEe99Lp1R7M3WvX21FtY+tLdT9ywYg+XB3BWQ7st1Kpjmv21sb7l0X9r2u9ppv/PxKk3+PunK+279mAAKEu2y3kol/BWQbwr2r7+3LYq9lzlxs2gWRvUvz/pAAhAh343ZXQGYzbv/Rb75tfrgfefvUIfc+tlSxa3x+91h/6bv21QWfywIgRrgbtxu3ZzRuf+C7XxevffDxR/eaFe4dF3oGvKBtk/r0bIkv3nvfXfdrVACihLtxu3F7VuP2H/1q166iXr80/7s3f67eXzTcjw33nHrDpr3NZhaHVsZ2/lvUpYvTbn4EIE6455ztroCs4rj9cbj/oLhf793TW757f/5w7zpyev+AcUwyatOTa1MvOpsZu7o6f8bfEoBI4W4lY9ye27j96XDfjPfNfx49/sHHb370YuF+bO/1ntGzl+o6L8F6n5if/XDweZK9f2ptaOFM/dF/GQAQI9xle9XH7TeyG7dvEe5P6Zye/+Dj+wX/UeNw/8OeC6cP9pwYOOd3i2m739/dRxfXZ9eu/p+9+3mx8rrjOL5Im+lASSO4sBRctFCcbibqxNZYCLEgSIm02hS70BLEVWha02s1I5KN2yzcuNW9C2cjWXUxgZYu3HRl9wGlleA/kEXnh20mmDjPvfc8z/P9nvN6LUZmKSLnzeFzz31hwO/95emzS28eecPMCYCGwt243Uom8rh9l3DfYc8Pf/7ewYPnz58/d+7chQsnT568cOHCuXMbvx88+N5vfvyjl3eGIQnqffPnnjcOHz+wsrK0dHR5eWHh7PLy0tLSylsHjh0+9JJ/TACaC3fjdtkefSXTNdx3Vt/i4tbP7bDb/o2kBb/4NUEPAA2Gu3G7cXv8lcyGyeR7/n8DAC2Hu5WMJyATrGQ2sl24AwBNh7tst5LJkO1b3S7cAYB2wz14tlvJeAJyR7YLdwCg2XD3BKRsTzJuF+4AQNPhbiVj3J5l3C7cAYCGw122G7dnWskIdwCg0XD3BKSVTLpsF+4AQHvhbtwu23ON24U7ANBmuFvJGLfneQJSuAMAzYZ7imxfM243bp8IdwCg5XA3breSSbmSEe4AQFvhbtxeT7Zfai7bhTsA0E64G7dbyeQctwt3AKCpcDdurznbb1Y9bhfuAEBD4W4lY9yeeSUj3AGAVsLdSsYTkBlWMpOJcAcAmg532W7cnnwlI9wBgBbCPXi2ewLSuL1Ttgt3AKDycDdul+3px+3CHQBoINytZIzbUz8BKdwBgDbCXbYbt9exkhHuAEDV4d7YSsa4ve5sF+4AQK3hbtwu22sZtwt3AKDmcLeSsZKpZtwu3AGAesM9RbavyXbj9olwBwBaDnfjdiuZylYywh0AqDHcjdvryfZLsl24AwDVhrtxu5VMbeN24Q4A1BjusbN91bjdE5AzZrtwBwAqD3crGeP2ClYywh0AqD3crWS6Z7uVzFDX7ZOJcAcA+I5sN26vcCUj3AGAmsO9gnH7F/9gLl9UlO3CHQCoNdxrGLc/+CNzeVDHuH3bunAHAGoM9zpWMsI9RLiHuG5f/+QT4Q4A1BfuAbN9pnW7cA8Q7jGyfaPbrwl3AKC6cK/mCUjhPnq4fxRjJbOR7deEOwBQW7hX9HK7cB873KNk+2a3C3cAoK5wr+oJSOE+brhHGbdvZbtwBwDq8u06xu3CPUC4R1rJCHcAQLhHXckI97HDPdRKRrgDAMI9cLYL9xHDPV62C3cAQLgHHLcL93HDPdi4XbgDAMI98nW7cB8r3MON24U7ACDcQ2e7cB8n3COuZIQ7ACDco65khPtI4V7sur10tgt3AEC4R8124T58uMcYt69/XbYLdwBAuIdcyQj3EcI96rhduAMAwj10tv/lsnAfNNzDjtuFOwAg3OOuZDay/bJwHzLcYz4BKdwBAOHeS7avlcx24T5guIcetwt3AEC4R13JXL4s3AcN9+grGeEOAAj3mON24T5ouKfIduEOADQe7oGzXbgPE+7xx+3CHQAQ7lHH7cJ9sHAP/gSkcAcAhHvwlYxwHybck6xkhDsA0HS4R8924d57uBe7bh8g24U7ANBquMfPduHec7inGbcLdwCg4XCP+wSkcB8o3BON24U7ANBsuK9muG4X7r2Ge6Zx+7b7wh0AaC7ck2S7cO8v3LOtZDa7XbgDAK2Fe5psF+59hXuMbF+fLtvv3xbuAEBT4Z5j3C7cewz3fOP2zWy/f1u4AwAthftqout24d5PuCcct29lu3AHAFoK91zZLtx7CPeU4/atbL99/fe/3s3J3Xwru9/+7CcXf/D9gt599+LF351ZYDdnl5eX3jlw5NDLThkABgn3Ytm+Nky2C/fi4Z503P7Mf/68mz/t5q9/SO7V//8o47sbNv988vTRZ+/zYvv2bfzY+/bCieN7HDUA9Bvuqcbtwr2XcM+7ktm6cRfuPXsi3jsG/L5Ty8dfctwA0Fe4r2ZbyQj34uGeL9t3Xrdfvy7cB/D4qXbv6LVfHHjFiQNAH+GeMtuFe8lwTzxu38524T5Uuz/6tyrv2O4LxxYdOgAUDveMKxnhXjTc0z4B+WW2C/fhfPq5KO/o9RXX7gCUDPfVpNftwr1cuCcftwv3oT18LN272n/0pw4eAEqFe95sF+6Fwr3YdftktJWMcB/+k6rSvfNiZskrMwAUCffM2S7ci4R7BeN24T5Ouvucaud0X/G8OwBzh3vacbtwLxXuucftX+l24T64p5K8q1OHnT4AzBXuq7mv24V7gXCvY9wu3Ed7YcZeprNf2csAMEe4p8924d5zuCdayQj30R6Y8TZk50+pHnMAATBjuBfL9rXRsl249xruA2X7eqlsF+4jXbpbune2ZOkOwCzhnn3cLtz7DvdU43bhPqpHiryr04ecQQBMG+6rFaxkhHuf4f5hmicghbvPqCayb/9xhxAA04V7Ldku3PsK92zjduE+9sOQhu5d7X3TKQTAFOFexbhduPcY7vnG7cJ99KG7cu8+dHcMAdA53OsYtwv33sI92ROQwl25Z7O86CACYKhwD7KSEe69hHvOcbtw97hMJgselwFgmHCPlO3CvXi4Jx23C/cAHir3zs64cwdgiHCPs5IR7uXDPeMTkMI9Trlby3R+XGbZUQRA7+Ee67pduJcN98TjduFu557MCWcRAP2Ge7hsF+4lwz3zuH3L3bvCfexXIQV5Z285jADoMdwDZrtwLxfuucftW9ku3Mf3qSDv/J77MacRAL2Fe7Bxu3AvGu7Zx+3b3S7cx/dIkXe1/5DjCIB+wj3kdbtwLxTu+cftW9l+95ZwH5+nZTo77VFIAPoI96jZfvmecC8Q7lWsZDay/ZZwj/ABVUHuK1QBGDHc12KuZDa7XbjPH+4DZft6b9l+/X/ZLtxDeCrIOz8KedyBBEDhcA+c7cJ9/nCvZSUj3MP4XJF3Dff9e5xIAJQM97grmXvCfchwnwRfyQh338Pke5gAaDvcw2b7s26/ItwHCvcM2S7cjWXSlfthRxIAhcJ9LfRKZiPbrwj3YcJ9yCcgZxq3C/dQXLl3dmrRmQRAkXAPvpLZyPYrkwd/G0vZfh7tr/GgjnH7M/8S7r6GKdmVuy9QBaBEuCfI9g0fXL0yu0tz+GfRbv/71Wc+KOajF3qW5Ou3b12rYty+5cYN4e7zqem+hsnnUwGYO9zDj9vnd+lSuHAfKtsrerl9Z7YL9zCeCPLOTjiUAJgz3OOP20fu9l7Cva5sn3rcPm2333qu24W7K/eEV+6vOJUAmCfcc6xkxsz2PsJ94JXMh1WN22/cEO6u3JNacSoBMHu4B8/2exGyvXy4W8nMn+3CPZDPBHnnK/eXHEsAzBjuxu2jhHtl2T7kE5A7ul24e1gm48My7ziWAJgt3I3bU4d7s+N24e4t97xe95Y7ALOEu3F77nBvd9wu3MN5JMg7O+JcAmDqcLeSyR3uLY/bhXs4j/V4ZwvOJQCmDPe1+lcy5bL95s1w4d72uF24+3hqYq95ERKA6cLduH2abI8X7s2vZIR7NE8FeWcHHEwATBHuxu1TdnuwcM+X7dd6yHbhbiuT1BkHEwCdw924fdpsjxXuxu3C3VYmtb2ecgegY7gbt0+f7ZHCPecTkIXH7cLduzKpHXMyAdAp3K1kZsj2QOFu3C7cfQdTekedTAB0CPfg2R70uj1OuBe7bp9kX8lsuiPcI3moxzs75WQCYNdwN26fMduDhLtx+1ey/Y5wN3JPat8eRxMAu4S7JyBnzfYQ4Z5z3D5tt9/q2O137gj3YF41cjdyB6BUuBu3z57tEcLduP25bhfuRu5ZnXA0AfCCcDdun6vbr44d7lYyz2e7cA/miR7vbMHRBMA3hrtx+3zZfnXkcI+R7TGegPwy2z/+WLj7dGpSbzuaAPimcDdunyfbN7t91HBvY9x+97/s3U9qX1UYx2FwIgruw5ngQHAXTlxIQiZBShMKmZQM0+SXDtqJowyESBfQNTjSHTgQt2CaINU2Se89556/7/PZxH04fHnvaraDe2/9CeSLf8H0hW+TJOleuBu3Z7O9KdzHG7fXWMmcgruzMiP3rW+TJOk+uFvJZK5k2sLduP1BtoN7b/3F44v7zrdJkvQQ3LE9j+3N4G7c/gjbwb233INc3te+TZKk++Fu3J61kmkIdycgH2M7uIP7uP3o2yRJug/uxu3Zz+2N4G7c/gm3g3tn/c3jDrlLkrL6ykomn+0t4G7c/im2gzu4j9v3vk2SpHJwD8b2D91eHe4xTkC+SF/JgLtfpw7dN75NkqRicI87bm8Dd+P2e9x+egru4D5LP/g2SZIKwX1jtg+2kqkP982e2w/mXcm86zm4g/uofe7bJEkqAvfY4/b6cDduX8b20+fgDu7gLkkCdycgm8HduH0x28Ed3MFdkgTuxu3N4G7cvnAl8xzcwR3cJUngbtzeDO5WMmvYDu7gDu6SJHA3bm8C9z7Y/rYY2zddyYA7uIO7JAncjdvbwD3GuP1qQ7aDO7iDuyQJ3I3b68N9vHF725UMuIM7uEuSwN1KpgHcjdvXP7eDO7iDuyQJ3LG9MtyN25PYDu7gDu6SpOhwN26vDHcnINPYDu7gDu6SpOBwn5ntic/tReFu3J4wbr/rJbiDO7hLkgLD3UqmLtyN25Of25+/BHdwB3dJUly4W8nUhXuME5AvSqxkbtgO7uAO7pKkuHDH9rpwN25PX8m8BHdwB3dJUly4b8z2aVYypeBuJZPJdnAHd3CXJMWEu3F7XbjPfgKy7Lgd3MEd3CVJYeFu3F4X7sbtG7D95Qm4gzu4S5LCwR3be4K7cfsytp+AO7iDuyQpGtyN27uCu3H7Era/czu4gzu4S5Jiwd24vSu4Dz9ur7SSOQF3cAd3SVIwuBu3L2q/EtyDrWTy2A7u4A7ukqRIcJ+Z7ds9t+/v14F7j2z/qctxO7iDO7hLkoLB3UpmIdvrwN24faXbwR3cwV2SFATu2L7c7RXg3ukJyD7H7eAO7uAuSYoEd+P25WwvD/egJyCz2A7u4A7ukqQQcDduX8P24nA3bl98AhLcwR3cJUmh4G4ls47theFu3J7y3A7u4A7ukqT54e4E5Gq3l4R7p+P2tW6vOm4Hd3AHd0lSCLhj+2q2F4R70HH76w3YDu7gDu6SpLnhvjHbA6xkisLdSiZp3A7u4A7ukqTp4W7cnub2QnCvxPapTkD+px24gzu4S5JmhbtxeyLby8DduD2P7TtwB3dwlyTNCndsT2V7Cbgbt+eyHdzBHdwlSZPC3Uomne0F4G7cnjNuv3M7uIM7uEuSZoQ7tme5fWu4G7fnP7eDO7iDuyRpRrgbt+exvR3cZ1jJlGI7uIM7uEuS5oP7zGzfq8H2VnA/sJJ5hO273R/gDu7gLkmaCu5WMtlsbwT3udme+9y+u7gAd3AHd0nSTH2G7Ru4vQXcW5yAHGXcfst2cAd3cJckgbtxe3u4z3QCsgDbb90O7uAO7pIkcH+A7TFXMi3gbtz+6ed2cAd3cJckgbtxe2u4G7cvYTu4gzu4S5LA3UqmKdxbjNtfjTVuB3dwB3dJErhje2u4zzRuf11q3A7u4A7ukiRwN25vDHfj9qXP7RcXx+AO7uAuSQJ3JyDbwD2H7W+Lsb3HlcwN24/BHdzBXZIE7lYyTeDe87j9qj3bdx+wHdzBHdwlSeDeLdv3GrG9Ctwjn4BMYju4gzu4S5LA3QnIBnA3bl+1kgF3cAd3SRK4G7e3gLtx+3q2gzu4g7skCdyN2yvDfYYTkFXH7eAO7uAuSQJ34/b6cD+wkkliO7iDO7hLkqLD3bi9LtznZnuplQy4gzu4S5LCw91Kpi7cez4B2e+4HdzBHdwlSeHhju114T7DuL3yCUhwB3dwlySB+79st5KpBXfj9uXP7cfH4A7u4C5JAncnINvAvc8TkEOM28Ed3MFdkhQZ7lYydeFu3J61kgF3cAd3SVJUuGN7Xbgbt+ezHdzBHdwlSQHhbtxeGe7G7bkrGXAHd3CXJIWEu3H7MHAvOG4f5AQkuIM7uEuS4sLdSmYcuJcet18NMm6/7foa3MEd3CVJkeDeIdv3umP7/v5vPcB99JXMpmy/cTu4gzu4S5Iiwd24fUlPn3YA9wHYXnElc8P26zNwB3dwlySFgbtx+zK2dwB34/aP2H4G7uAO7pKkKHA3bl/s9uZw7+UEZCfj9lu2gzu4g7skKQjcjduXs7013KOdgPzkuP3sDNzBHdwlSWHgbty+gu1t4W7cfu9zO7iDO7hLkkLA3UpmFdubwr30CcgRx+3gDu7gLkkKAndsX+v2dnDvZdzexQnI/7Md3MEd3CVJs8P9FyuZtWxvBvdo4/Z1bgd3cAd3SdLccHcCcj3bG8G94AnIq9FXMuAO7uAuSZod7lYyKWxvA/cA4/ZdDtuPjsAd3MFdkjQt3LE90e0N4G7cfv8JyPdsB3dwB3dJ0rRwN25PZXt9uBu3P/7cfnQE7uAO7pKkeeFu3J7M9tpwLzhufzLFuP0I3MEd3CVJ88LdSibH7XXh3stKpt9xO7iDO7hLkqaFe4ds3xuI7VXhPutKZstxO7iDO7hLkmaFu3F7Htsrwn0AtjddyRwdgTu4g7skaV64G7fnsr0e3FNPQAYbt4M7uIO7JGlGuBu3b+D2wzpw7+0EZLfjdnAHd3CXJE0LdyuZHLY/PawC92gnIDPG7eAO7uAuSZoU7tieyfYacDduX/ncDu7gDu6SpOngbiWTzfYKcE8dt78KOW4Hd3AHd0nSjHDH9qxx+2EVuPc2bn/d+bgd3MEd3CVJ4G4lc6/by8I92rg96wQkuIM7uEuSwN0JyAfZXhTub98WY/vEKxlwB3dwlySBu3H7x2wvCffS4/ar9mzflWE7uIM7uEuSwN24/QO2l4O7cfvaE5DgDu7gLkkCd+P2h91eCO7G7Ynj9rt+/R3cwR3cJUngbtxeHu7G7RkrmRu2/wru4A7ukiRwt5KpAPdeVjIjjtvv3A7u4A7ukiRwj7ySOTysAvdZVzJ1xu23bD8/B3dwB3dJUnS4G7eXhvsAbO98JXPDdnAHd3CXJEWH+54TkMXhnngC0rj9X7efn4M7uIO7JCk83I3ba8C9pxOQA47bz8Ed3MFdkhQe7lYyVeAe6ATk8cYnIN+zHdzBHdwlSYHh7gRkX3DPZfuLWcft4A7u4C5JCg534/au4J6wkokybgd3cAd3SVJouBu3dwX3N/2tZE56OAH5n56BO7iDuyQpItyN2/uC+/jj9ouC4/Zbtj8Dd3AHd0lSQLgbt/cF91VsfxJv3H7ndnAHd3CXJMWDu3F7V3AvuJJ5PewJyI/ZDu7gDu6SpHBwD7ySOTzsEO7G7QtWMuAO7uAuSYoHd+P2vuDehO2ng43bwR3cwV2SFA/uxu2LOqgFd+P2ReN2cAd3cJckhYO7E5CL2H5QCe7G7Sue28Ed3MFdkhQI7sbtC9leCe7jnIBsPW4Hd3AHd0lSKLgbty93ew249zJu73cl8+wZuIM7uEuSIsLdCcjlbK8A94SVzNzj9qPHxu3gDu7gLkmKA3fj9jVsLw73N5OfgLzefCUD7uAO7pKkGHC3klnH9tJwH2fcfpI6br/enu3gDu7gLkmaHu5OQK52e1G457L9RbxxO7iDO7hLkkLA3bh9NdtLwn3Mcfuu7bgd3MEd3CVJAeBu3J7Asj+1XwAAIABJREFU9nJwn33cflxm3A7u4A7ukqTp4W7cnub2UnAff9x+0WTcDu7gDu6SpMnhbtyeyPZCcF/F9icRx+2Puv3yEtzBHdwlSZPC3bg9le1F4F5wJTP9uP2W7eAO7uAuSZoU7oFXMtlsLwF34/aslcwluIM7uEuSJoW7cXuW2zeHexO2N13JbM92cAd3cJckTQh34/Y8tm8O9/duN25PW8mAO7iDuyRpSrg7AZnJ9u3hbtye/Nx+eQnu4A7ukqRJ4W4lk832zeE+9gnI9uP2u34Gd3AHd0nSTH2J7Ru4vQjcg4zbz0qx/WdwB3dwlySBuxOQFeBu3J4+br9zO7iDO7hLksDduL043Gc8AVlv3H7LdnAHd3CXJIG7lUxpuA86bu/hBOR7toP7P+zcz0pdWRbH8cfoF3UmNQglCv5JBbG9qRY0UGQkThJCETNy2IOGpukHar1Wd+yKeu85Z6999tnr832KD4sfC9zBXZIE7l5ABsP971YyBdh+cADu4A7ukiRwN26fFe5JXkCuJqxkHtwO7uAO7pIkcDdunxPuyxu313wB+Z3t4A7u4C5JAnfj9hnhbty+LdvBHdzBXZIE7sbt88E947h9NY7t4A7u4C5JAncrmbngnmTc/nnquB3cwR3cJUngvuCVTCDbK8F91pXMosbt4A7u4C5JAnfj9tngXorts65karId3MEd3CVJ4O4F5AxwTzBun/wC8uAA3MEd3CVJ4G7cPivcR53b847bwR3cwV2SBO6dr2R2dpqEe5MvIFset4M7uIO7JAncvYCsD/cuxu1/rc92cAd3cJckZYa7cXt9uBu3j1nJgDu4g7skKTXcjdtf6O73f0TBvcpKZn9BLyC3Zzu4gzu4S5LSwt0LyJfY/nsU3Jsct7f9AhLcwR3cJUnp4W7c/gLb792+uxsD9wQrmc9jVzKb2X5wCu7gDu6SpIRwN25/+dy+uxsD90Hn9g+LfQG5ClnJ3LP9FNzBHdwlSfngbtz+ykpmNwbuxu2Tzu2np+AO7uAuSUoId+P2DWwvD/fAF5AZxu2np+AO7uAuSUoId+P218btMXA3bp82bgd3cAd3SVJCuFvJbD63x8C9+3H757hxO7iDO7hLkvLBHdu3YXsA3Gd6AdnJuB3cwR3cJUnZ4G7cvh3bi8M9ZNze7komhu3gDu7gLklKA3cvIF9/AVkJ7r2xffILyINt3Q7u4A7ukqQccDdu3/rcHgn3xl9ANjpuB3dwB3dJUiK497ySKc72MLjXG7fvjx23f2px3A7u4A7ukqQ0cPcCcosXkPFwN24f/gLye7e34A7u4C5J6h3uxu3bj9sD4W7cPuncfnt7+C9wB3dwlyR1DXfj9mErmSC4Nz5uf9P0uP2B7beH4A7u4C5J6hvuXkAOZ3t5uM8/bn+/5HH7mu3gDu7gLknqGu7G7QPH7TFw737cvooct58+sh3cwR3cJUkdw924ffC4vS7cA9n+a0/j9kNwB3dwlyT1DXfj9jErmYpwL7ySaXHcXmolA+7gDu6SpI7hbtw+mu114D7o3J573A7u4A7ukqSO4W7cPnYlUwnuxu2DVjLgDu7gLknqFO5eQE45t1eA+3LH7bVfQII7uIO7JKlruPe8kqnB9nC4V3oB2c24HdzBHdwlSX3C3bh9KtuD4d7JSqY228Ed3MFdktQZ3L2AnDRuj4f7Mtk+2wtIcAd3cJck5YG7cfvQc/vuly9xcB+5ksk9bgd3cAd3SVICuBu3D2b7vdvD4N7KuP3Tssbt4A7u4C5J6h7uXkCu2X43kO1XVzFwN27f7PaX2X54DO7gDu6SpG7hju2Dx+1f1m4PgftyX0DOPm5fs/0Y3MEd3CVJvcLduH3EuH3N9hC4tzBuf7PQcfuj28Ed3MFdktQn3L2AHDVuv7qKgXulcfv7Psfta7aDO7iDuySpS7gbt48ctz/2U2G4dzJuX0WO2083sR3cwR3cJUk9wt1KZvxK5sHtMXA/8QJyzLn9+BjcwR3cJUm9wh3bp6xk7tkeA/dCK5kWx+3xKxlwB3dwlyR1CHfj9slsj4B7YyuZBbId3MEd3CVJncHduH3sC8jvbC8P92WN2ye/gCw9bgd3cAd3SRK4W8n8adweA3fj9unndnAHd3CXJIF7iyuZnflWMjXgXvQFZIJxO7iDO7hLksC9wxeQBdgeDfclvYBsh+3gDu7gLklKDnfj9mfcHgr3nsftH2PG7eAO7uAuSQJ34/bn2B4Jd+P2ked2cAd3cJckZYa7F5DPsz0O7kXH7SleQD7pG7iDO7hLkrLCvTO23xVjexjcc47bS6xk7tn+DdzBHdwlSUnhbtz+sttj4N74Sqbhcfua7Wdn4A7u4C5Jygj3zOP2Tef2GLjXY3tXLyD/6/azM3AHd3CXJGWEu3H7q2yPgLtx+xS2r90O7uAO7pKkfHA3bn+d7eXhvqRx+6q9cfvZGbiDO7hLkjLC3QvIjW4vDXcvIDee2zezHdzBHdwlScngbty+me3hcN+8kjFufzpuB3dwB3dJUj64G7dvw/ZouBu3jzi3gzu4g7skKRXcvYDciu2xcG9l3D75BWS9cTu4gzu4S5KSwd24fVu3X8fB3bh9S7f/wHZwB3dwlyRlgXuDK5mdFlcy92y/DoP7+BeQqcft4A7u4C5JygR34/bt2R4G92ZfQDY+bgd3cAd3SVIeuBu3D3L7eQjcuxm3f6w9bl/39i24gzu4S5K6h7tx+yC2X59HwD1o3P6mu3H78QtsB3dwB3dJUvdw9wJyKNsD4H7hBeRUtoM7uIO7JKl3uHfG9rswtv/0P7aXh3uz4/ZVMbbHrmTAHdzBXZLUPdyN24ef28vDvaEXkIsct4M7uIO7JKl7uGcet++OZ3sU3Jc0bm9sJQPu4A7ukqSu4W7cPpLtQXA3bp9ybgd3cAd3SVK/cE++khk3bo+Du3H7RLaDO7iDuySpU7h7ATn63H5+vlcc7vOP25t4ATmF7eAO7uAuSeoS7sbtU9i+Vxzuxu2Txu3gDu7gLknqFe7G7dPYXhzuba1kljduB3dwB3dJUqdw9wJykNvPf3R7FbjXYfvSX0CCO7iDuySpX7gbt089t1eBe7Jx++F0toM7uIO7JKkzuLd3bt9Z1kqmDtzHjts/pRy3gzu4g7skCdwbH7dXfQH5xO3RcF/8uL36SgbcwR3cJUngbtz+I9uD4W7cPortNzfgDu7gLkkCd+P2vb1acG/xBeTfml/J3LMd3MEd3CVJ4O4F5N5eNbgXOrfnGrc/uh3cwR3cJUngbtxeC+4zjdtXCx+339yAO7iDuyQJ3K1k9vZqwb3eC8jOxu2P/Qbu4A7ukiRwXy7bdyPYHgP3FsftPy9j3L5m+2/gDu7gLkkCd+P2CnA3bp92bgd3cAd3SRK4L/oFZOlxexTcjdsnsx3cwR3cJUngbtz+5z4Uhnu9cXvTLyCnsR3cwR3cJUngXvLcvrP4lcyD2+Pgbtw+8AXkE7eDO7iDuyQJ3I3b/5/tYXCvuZLpadwO7uAO7pIkcF/uuH2o28+3Xcl8CIP7ey8gp7D9l1/AHdzBXZKUG+7G7T+6PQTuicftx9PZfu92cAd3cJckpYa7lcwzbP9wUh7uuV9AThy3r9kO7uAO7pKkzHBvg+2NvID8zvaT4nBf5ri9oZUMuIM7uEuSUsM9x7j9ejjbi8PduH3qSgbcwR3cJUmZ4W7c/qLb4+A+5wvI5Y7bwR3cwV2SlBnuxu0vsz0O7sbto8bt4A7u4C5Jygt34/bX2B4F9+Bx+6rbcTu4gzu4S5LSwt1K5lW2x8C90xeQNcbt4A7u4C5JSgr35bG95komCO5zjtt/Xvq4HdzBHdwlSSnhbty+ke0BcE83bi+8kgF3cAd3SVI6uC/7BWT8uD0G7o29gFzcuB3cwR3cJUn54G7c/ozbT05mhPun7l5AfotYyYA7uIO7JCkX3Iud23c6Xsncd/RrNbinH7dvfW4Hd3AHd0lSHrgbt2/H9pOjo6NKcJ/+AjLHuB3cwR3cJUmZ4L7scftVrXH7mu2VLu71x+0fFzpuB3dwB3dJUiK4G7dvuZJ5rALc+xu3H4eN2x+7BHdwB3dJUv9wt5IZxPYaF/ceX0CGjdvXbL8Ed3AHd0lS93Bvg+13YWwvupKpc3GfPm5fFWP7IlYyD24Hd3AHd0lS53DPMW6/Lsn26Iu7cfvglcwluIM7uEuSuof78sbt865kKlzc07+AHMd2cAd3cJckdQ134/bh5/bgi3uP4/b4lQy4gzu4S5L6hrtx+yi2R17cjdtHsx3cwR3cJUn9wt0LyJFsPzr6dwzcl/sCct5x+x/9E9zBHdwlSV3C3bh9zLh93cVFDNzTj9vfTmH75VdwB3dwlyT1CHfj9vHn9ouLkIv79JVM2nH7mu1fwR3cwV2S1CHcc7yAPA9ZyVw8VB7u9V9AdjRuX7P96ztwB3dwlyR1B3fj9gkrmYeKX9yXO24/bGHcvmb7O3AHd3CXJPUG92Ln9ozj9j8qDPceX0COGrffjBu3P7od3MEd3CVJfcHduH3iSibi4m7cPnUl8w7cwR3cJUm99Rfj9slsv9jfLwz3uuP2j92N29+BO7iDuyQpF9yN27dk+/5RJNwXPm4/rjluv3zCdnAHd3CXJKWBu5XMNmx/cHvkxd24feS5HdzBHdwlSVngXontd2Fsr7WS2Q+9uA9k+6oY2xe+kgF3cAf3/7B396yRXmcch+s0DoEUrtIl2JVDXnEXJ5AuLxAC9vdwk05CIYURlom0rCQWoYnsBWlZg1YyeMkWcRdInY+TEGnGeDdajTTPy3nm3Oe+ri/x/Dj85x4AsoR7spXMsGwv9+Ju3H7SP9uFu3AX7gAkCPc/OQHZKdsLvbgnW8mMOG4X7sJduAOQJNyN2zt2e5EX9w0nIHeGPLcLd+Eu3AFoPtwrPQFZ57i93Iu7cfvQbBfuwl24A9B2uCc9ATko2wu8uAc/AbnucbtwF+7CHYDmw924vcMJyIIv7jlPQI43bhfuwl24A9B6uBu393puH//F3bh9+HO7cBfuwh2AdsO90nF7126fdNw+/Yt7ghOQI2W7cBfuwh2ARsM96bj9eIRsn/DF3bh99WwX7sJduAPQZrhbyfQat0/74t7quP1p33H73d0u3IW7cAegwXCfKNubOgH5ioODKcK9YLa3t5K5NhPuwl24A9BauBu3D8z2ScLduL1jts+Eu3AX7gA0Fu7G7YOzfYJwr33cvj3luP1opWwX7sJduAPQWLgbtw8Zt3/d7aXDPfu4vetz+2wm3IW7cAcgcbgbty/N9sLhftF3JZN23C7chbtwByBxuLewkimW7WXDPcG4/aREtgt34S7cAcgY7h9aydyV7Qf75cK9tZXMJON24S7chTsAWcO97Wwf/Ny+v18s3ANke1UrmdlMuAt34Q5A4nCf8gRkuHH7PNuLhbtxe9+VjHAX7sIdgHzh3tIJyALZvuj2MuFe+wnIesftcy9eCHfhLtwBSBTuxu0rPLeXCffsJyCPBq1krrJduAt34Q5ApnA3bl8p2wuEu3H7oOf262zf3RXuwl24A5Al3Kcct3ft9lrG7YXCPcEJyJ2iK5mrbBfuwl24A5Al3Fsatx8XG7cvbI4c7pWP22s+AfnNc7twF+7CHYAs4W7cvvJz+/7m6OFu3D5o3L67K9yFu3AHIEu4D8n2LCcgX2b76OFeJtszrGReyXbhLtyFOwAJwr3mcfuT9Wf7wc1sLxnu7Y3bT8qP24W7cBfuAOQI98wnIPtle7lwD76SWde4XbgLd+EOQIpwN27vtpIpGO4hTkB+vLaVzD3ZLtyFu3AHoO1wN27vke2Fwt24ve+4XbgLd+EOQPPh3sIJyGnH7eXCfU0nIOOO21/rduEu3IU7AM2G+4dWMv2yvUC4G7cPznbhLtyFOwDNhnvb2V5sJVMi3EOM2/fqHbcLd+Eu3AFoOdxrPgFZ8bi9SLj/s9tKJve4fbYs24W7cBfuADQZ7i2M2/+8jnH7xOF+OP1ze8Rxu3AX7sIdgFbD3bh99ef2zc01hnv94/auz+1HhVYywl24C3cAmgx34/YhK5npwt24/ZMu2S7chbtwB6C1cDduH5ztk4T7CCuZNON24S7chTsALYZ7Q+P24zWM26cK90MnIGfdntt3z86Eu3AX7gAI94zj9ru6vXi4tzdu3yk5bp9nu3AX7sIdAOE+z/avimV7sJXMtWdlw71TtmdYyayU7cJduAt3AIT7BOP2J+vP9oPVs/1Z0XCPOW4/Wee4/Uy4C3fhDoBwb2IlM2q2X3f7g4Lhbtw+6/XcLtyFu3AHQLg7AXkj2589KBfuTkD2znbhLtyFOwDJw924/fVsLxbuxu1dx+2vdrtwF+7CHYDU4V7LCchaxu3zbC8U7gVPQMYdt6/83H72+efCXbgLdwDyhnu2E5D3j9u/9p9/j+m/wU5AVjduX3S7cBfuwh2AtOFu3H77c/s3Nu50ceXhq7buYtz+ycBsF+7CXbgDkDbcS5+ADDluXznbN25m+8MVs/3QuL3LCciX2S7chbtwByBpuNcybq/iBGSvbL8Yku2ln9vbGrcLd+Eu3AHIG+7Zxu1du30j/Eqm17j9ad9x+/Oy43bhLtyFOwBZw73gCUjjduP28cftC4+Eu3AX7gBkC/cE4/aDisftnxm3d1/JXHe7cBfuwh2AZOFu3L7kBGQb4/btKcftRxON2+fZLtyFu3AHIFe4G7cbt0/43D4bayXzSLgLd+EOQK5wLzhuz3AC8qLvSuYzJyCHZ7twF+7CHYBE4V7LSsa4vdZsr+8E5CvdLtyFu3AHIEu4R1/JRBq3bxm3z0Z+bhfuwl24A5Al3ANk+1pXMhtOQNY7bhfuwl24A5Ao3I3b17KSMW4fdALy0SPhLtyFOwDJwr22E5Dxxu1Vn4Bsftwu3IW7cAcgSbhnOwFp3L7SCchA43bhLtyFOwApwt24fdwTkMbtk56AFO7CXbgDkCbcu47bu3a7cXv0E5A1jttv7XbhLtyFOwAth3tt4/Zj43bj9p7ZLtyFu3AHoOFwzzZuz3cCste4/WnfcfvzdY3bF86Fu3AX7gA0Gu5fOQFZ6bg9w0pm/Gw/F+7CXbgD0Gi4Jxi3Hxi35xi3L7pduAt34Q5Ak+Fu3D7dCcjD+lcyTys+Ablqtgt34S7cAWgx3I3bWx+3/73kuH2ntnH7uXAX7sIdgDbD3bh93HH7Q+P2Mcftuz2zXbgLd+EOQHPhXstKJu64vYqVzLYTkDe6/bFwF+7CHYCmwr3VlUyN4/Yt4/apVjJX2f5YuAt34Q5AW+FefbYnPQFZcNy+1/y4fZ7twl24C3cAGgv3XicgjdsHnYA0bi9yAvL8RrcLd+Eu3AFoyrcrOgFp3D7qc3vicftj4S7chTsAecM9/gnIzXQnIPdKnoA8qnslI9yFu3AHIGm4G7cbt096AnKMbBfuwl24A5Av3HusZIzbR13JGLf36XbhLtyFOwDJwv2L+lYyfwl0AvLQCcjpx+3CXbgLdwAyhnv8cfu+cfuY4/adAON24S7chTsA+cK9U7ZnWMlcOAFZ6bj99W4X7sJduAOQJ9wLrmSOw56AbH3cftLAuH3h9F/CXbgH9b5vEwAdw924vfGVTM3j9rPB2X4q3IW7cAcgSbgbtzdxAjLluH2e7cJduMf1e98mADqEu3G7cfuk4/bdMcfti24X7sJduAOQINyN22s9ARl33P5iwnH7qXAX7rG949sEwKrhHmclY9xu3L4s24W7cBfuADQf7mvJ9lArmRDj9r3E43bhLtyDe9e3CYBVwr3HSqbtcXuGE5A7gU5Anq/c7cJduIf1tm8TAPeH+xeNn4CMO27/yLi923O7cBfugf3atwmAe8M9/gnIzXQnIPdKnoA8irqSEe7CPbQ/+jYBcE+4G7cbt096AvJszBOQp6fCXbg34z3fJgDuDPeY4/YD4/Ys4/aOz+2nX34p3IV7VG/5NgFwR7i3Pm7fbG7c3tIJyALZftXtwl24h/XLb/k4AbA03OOP2/eN28cct++EHrfPs124C/e4fubbBMCycO+U7RlOQF70Xcncn+0ZVjLTjtsfL8l24S7c4/qBbxMAt4d7wZWMcXut2X7S9Lh94W/CXbhH9SPfJgBuDXfj9sZXMjWP24utZK67XbgL97De8G0C4BbfT3cCcsMJyObH7fNsF+7CPaw3/TYVgFvD3bjduH26cfvuNOP2ebYLd+Ee1vd8mgC4K9yN22s6ARl33L72E5Avs124C/ewfuvTBMDycA96AtK4fdQTkO2M24W7cI/tA58mAJaFe5Jx+wPj9pgnIHtmu3AX7mG979MEwJJwN25PcgJyJ9AJyGHjduEu3GN716cJgFvDvcUTkHHH7R8Zt4/13C7chXtcP/FpAqBXuFc5bs93AnLacfvz4ON24S7cY3vLpwmAHuH+JOMJyK2SJyCN28uegBTuwr0BP/ZpAqB7uNeS7QfG7VnG7Y9Gy3bhLtzD+rlPEwBdwz3euH2zuXH79pTj9qNWxu3CXbiH/t/U7/rjVAA6hrtxe/vj9p1Gx+3CXbiH9htfJgC6hXvGcfvDkuP2vxq3TzZuF+7CPbRf+TIB0CXcOz23xx23V7GS2XYCcuxxu3AX7qG948sEwOrhvtaVTI3j9i3j9mArmSuXl8JduDvjDkDj4T5Wtq91JRM/26taycTL9qtuF+7CPahf+DIBsGK4Jxi3bxi3V3UC8nz8lczlpXAX7s64A9B4uPd6bjduH/W53bh9+EpGuAv3wL7jywTACuFe5QlI4/ZRT0BmGLcLd+Ee2Q+dcQfg/nBvYtz+wLg95gnIMcftwl24R/Y7HyYA7g134/bxVzLG7VOfgLy8FO7C3TVIABoP90lWMsbtxu3TrGSu/UO4C/eQ3vNhAuDOcK9y3J7vBOS04/bnzY7bF90u3IW7ozIANBjuCVYyF05AVjpuL7KSucp24S7cY3rzDR8mAJaHe6fn9uOwJyBbH7efGLf/X7YLd+Ee0099lwBYGu7xxu1OQA7K9qPmx+2Lbv/0U+Eu3CP6g+8SAMvC3bi90hOQH69tJRN/3L7oduEu3EN623eJ/7F3f69V33ccx1sCGWFgJ3ghvXAbTBthoEtdOg2bbQQZlNbRMmg5F/bSXfTKe6nH0UIpc6hgLSUMtBeTrDDphS1iRxkIDrx10NgN2qhFi80a0t1t+aHrmuSc8z3n++vz+Xwfjz/Cz9Mvr7wPQJdwN243bh983H4ywHH7crYLd+Eepye9SwB0Dvfkx+1BnIB8wwnI6sbt584Jd+EerT3eJQA6hXtNKxnj9uTG7efDGbcLd+Eer53D3iUAMoT7b5NfyUQxbj9l3F7E53bhLtzjdMCzBECGcE8t218xbg/qBOSfq1zJCHfh7m9TAUg33Ht/bjduL/Rzu3F7oSuZtdku3IV7lCY9SwD0CPf6T0AebdwJyFNlnoCcauIJyHPnhLtwj/53Uzd6lgDoHu7G7XlWMh807gTk+SJPQP6xjJWMcBfukXrGqwRA13A3bs/5ud24PZwTkMJduMftV14lALqEe/ErmVcjOgH5lhOQCY7bhXuQ7qjyDPZ6lQDoHO61j9vfNG4vctx+3LhduAt3P78EQLPCPZFxuxOQ4Y7by1zJCHfhHqctI14lAPoN9z9EewIy9XH7WeP2jNku3IV7hJ73KAHQb7g3YNx+zLg95ZWMcBfucdrlUQKgv3Dv63O7cXukK5n4sr2/z+3CXbjH6HGPEgD9hLtxu3F79pVMmON24S7cTdwBaEC4xztuD+IEZLzj9iBOQBaa7cJduLviDkDS4V7wCUjj9lwnII3bBxy3r/hQuPsBptiMepMAyBruiaxkjNubPm5f6XbhLtxjs3mjNwmAbOEeZ7Y34QTk8YhOQAYxbl/OduEu3KPznCcJgGzhHsIJyHjH7a8bt1exkukn24W7cI/Ofk8SAFnCveBx+6uDjtsvGLf38bl9KvmVzEDj9vvdLtyFu2OQACQY7sbtvbv9g8adgDwf4wnIb7L9wyvCPSz3hLljkADkDvd4T0Aat4czbn87tGy/ItyFe2Re8CIB0CvcQxi3H01u3P5GleP2KeP2tdl+ZVq4C3fHIAFIKtwrGre/adxe5Lj9uHF7r26fnhbugbmpzLvb5BgkAJnCPfJx++kyx+0njNtjG7cvZ7twF+6R2edBAiBDuBu3h5btZ43b861khLtwj89eDxIA3T2S9rj9mHF7Q1Yya7NduAt3SxkAUgv3wFYy8Wd7UCuZ+LK9mJXMsqvCPShfaPOunvceAdDDjjMxjdtfMW4PaiUT6rhduAt3N2UASND2yMbtQZ+ADH/cHsQJyPLH7SvOLQh34R6PnRu8RwD0sOtMeScgjdsLPQFp3N6121dn+6KFGeEekk/FuaUMALmMRnsC0rg9kBOQAY7bV3zoi7twt5QBICXjiY/bIzoBadxeaLYvmhfuQflcnHe7KTPkOQKgh5Ex43bj9qrG7RcrGrc/cFu4C/dofMdzBEBPw2WM25t3ArLacfv7xu29P7dPT1+7IdyDIs67mfQaAdBbq8Hj9iasZErM9pBXMkvmhHtQrovzLp4e9hgB0NvW8FcyqY/bz0Y0bn87vGzv1O3TV4V7UG6p8y62e4sAyGB/hdnuBGSubJ9Kftz+XoHZPn1tQbgH5Y4672zzmLcIgAwmjNuDHbcfN24fcCWzclRGuAv3WOzzFAGQxYZ4xu2njduN2zNn+/S1WeEelI/keWdPeooAyKTlBGSi4/ZLTR233//b1LZwD8o9ed7RFn+aCkA2u/tbyRi3JzduP5/YuP2+BeEelpv63J+mApDXRLNOQBaV7UGtZOLL9nJXMisTd+Eu3GOxZ8RLBEAmQ4dCy/ZXjNuDOgEZ27j9/sS9LdzD8oU+7+SAdwiArLY2fNzeb7cbtxe6kvlLCSuZ5Svuwj0wnwr0TkY9QwAoU4B3AAAdPElEQVRkNZHvBORRJyCLPAE55QRkAZ/bp6evzQv3wHwu0P1qKgC5jRw0bncCMqFx+7LLbeEu3COxyysEQHbbox+3R3QCMqZx+9tRjtvv/2yqcA+NQO9g5waPEADZbStl3H40uXF7SicgEx63r7gh3ANzS6F3sNsbBEA/WpV8bjduN26vYNy+8sF9ri3cA3NHoa9v05gnCIB+TAY4bncCMpBxe3QrmcVsv7b0p6nCPSwfSfT1veAFAqAvI60ATkCmPm4/a9xezUpmMdtXPrgL96Dck+jre9wLBEB/RiMatx8zbm/ISmawcftitl++PC/c/XBqJF70/gDQp+GWcXufn9t/V9tKJolsL3Els9jtKx/chbsfTo3AhPcHgH7tNW5PdNx+smHj9sVsf/DBXbj74dTwPTPi+QGgb636xu1BnICMd9x+ybh9VbY/+OAu3P3+Uvie9PgA0L9txu0FnoA0bq9r3L7shnD3+0uReNYHdwAGsSOAlUwU4/ZTxu0hr2QWLbSFu99f8sEdgJRtPFhxtuc+AdnscXvhJyCTGLcvD2VmhbvfX4rlg7uXB4DBjDZz3P66cXsVK5lqxu1LpufbmcN9Rrj7/aVaTXp4ABjQ1m6f24827gTkqTJPQE418QTkuQo+t1++fLUt3J1xj8RzFu4ADGqolcC4/bUUx+2/ryzbI1/JfGsoI9ydcQ/duGcHgIFtOxTHuP0d4/bET0AOnO3fXJRZcrtXuH8m3J1xr9EBjw4AOTwV3AnIt8Jfyfwp4BOQ7zbnBOR9823h7oy7D+4ANMIjF3J/bjdub/gJyNrG7cuXIGe/Fe4zPcL9K+FelesyfY0XvTgA5DL8cMXj9tNljttPGLc3aNy+6g9Tl3x5WLi7Bhmszdu8OADkMjLUOmPcHvAJyNTH7VfyZPvluXaf4f61cHcNsjY7nJQBIK+NrTDG7ceM2xuykilo3L7qoMyynr+/9Ilwdw2yLjuf8NwAkNvYwcaO24NaycSX7fWuZBa7/caqbp/tGe53hbtrkHX5tccGgCLKvRXSSsa4PddKpinj9vW+t2c4435EuLsGWZOfDntrACjCxtaZErI9iBOQ8Y7bgzgBGey4fd1uz3ANUrhXRqmvMumlAaAYQ48atxd5AtK4vWu35x+3L92TWdvtGY7KCPeq3FLqTkECUFa5b71Q4glI4/ZATkCmMm5fc78989+mCndHZeqxySlIAAo0esgJyKjH7e82Z9y++vdSM0/cD98V7lW5p9W/Zbc3BoAi7WklNW4P4gRkvOP2iwGP25fOyaz3vT3LxF24OypTiy0bPTEAFGlkaGsjTkBWO25/37i9+M/tV9fN9kwTd+HuqEwtRr0wABRt9GCw4/bXjNvzZHtKK5m5+XYHGSbuwt1RmVr+MtVvpgJQvA27jdvrXMmcrHMlczGCE5BdPrdnuuIu3B2VqeU3U8c8LgCUYVvrQhUnIFMft08lP25/r8xsn+6Y7Wt+LPX/J+4zvZcywt1RmTp+M9UHdwBKMtoybi9/JWPcXuxKJutSRrhX5KZa/8azfjMVgLKMDE+2co/bT5c5bj9h3N7Qcftst27PtJQR7o7KOOEOQGImWlGuZOIdt18ybs/3tT3jTRnhXpXP9fr/bPeiAFCyPS8dPNrQlUzI4/bzDR23zy3c6JHt7dkMv74k3P1tavWeGfKeAFC+8a2H6j0BeSLFE5DxZXv9K5mF7huZjL++tPzBXbj729SKbR73lgBQiZHx7a13yjkBadye6wRkc8btcwvz7SxmZzJ9cBfu/ja1YrtdlAGgqnJ/6KGhiZcebl2I9ASkcXuhK5mKx+1zVzN9au/rg7tw97ephjIAJN7vI2Pjoy/t/82ORx8O0qMF+W6d/vP3v5XpajwWFs1nT/Z+Fu7C3d+mVvzTSy7KAECC/zd67F9tBtbrg/vMZ0eEe3WuK/YHP73k3zYASNAP/iq/B9bzg/vMXeHub1Ort8/AHQBS9P3r+ntgX2ZcuAt3f5tapS1P+IcNAFL085e/FOADyvajqcK9Mp9q9mWT/l0DgCRt+N7XCrykoczhT4S7v02t3g7/rAFAon70bwlezl+mHv7siHCv0h3N7hIkACTth/+U4CUNZe4K90rdE+0uQQJA0n7y8m0RXvJQRrj7+aXKjPo3DQCS9YuXv1LhpV6UyRTu13W3v00twm7/pAFAuoYfM3IveeAu3P38UlUODPsnDQAS9rOPZXi5A/cs4a67/fxSAZ52wR0AkvZjI/cSfzI1Y7j/Q3f7+aX8No379wwAUjbySyP3vru918B95pMj/YX7x7rbxD2/p/x7BgBp+y97d9MTVZqGAdgEU6SSjgGjhETFzyBIEJqPQmgRhIim/YCA2rqdfSX+gtrxs9gM/AQSFtAN9GhPd5ymJ7jQ5aij6bYF6pw6n3Cua2FcsDz15M6b573fUs+yKB4yt2/UCe5va4K7FffUPTPNAOCou2DJPeZCma9ye93gviV4e34pqkdeXgKAI++8JfdY92T2yO01Ne5W3JPWMVA2zADgqLtryT3W/fY9cntNG6QV96RfTB00ygDg6LPkHud++1f3UoMEd6UyVtwjap9y3g4ARXBhUyBPqL89YHB3N1WLu0IZACAATe7xvZe6d26vuZtqxT1RfcYYABRC+Vb1rUweS25/U6s1FNzdTbXiHsmCPRkAKEpyb9sWyhNbbw8Q3K24R/bvQuf2+SbBHQCK4vjSK7k86nH7xn5rMvWDuxV3K+5RDI+YYQBQGN9WNwTzOrdSG2qBDBjcrbhH9nuRC9zHjDAAKI7r1ZpofuCWTN3j9je1WuPBXYt7ZL8pcAcAiuGKQsgDt2TqbbcftCVTP7jblLHiHiG3V8wvACiUkwohD4rtEZbbgwR3nTKR/VHY3H7qO+MLAIplXCFkwxWQP9eP7QcHd50yyiAbz+2TphcAFExTj0LIBnfbg8T2g4O7q6mRrRU1t7fL7QBQPE8VQu6R2uvtyLz5qRaQq6nKIJPI7RP62wGgeBRC/r3+sV5qfxk8tR8c3F1NVQbZqCcmFwAU0OUWhZCBQ/tGuNBeJ7i7mqoMskFDBhcAFNIdhZCvXv3446+//nff0L6x8fLlz2/e/vSfWngO3JP0uph7Ms7bAaCgzleXayTGgXuSfilkn8yEqQUABXWruipeZxDcHbgrg2wst3cZWgBQVOXT6+J1BsFdpYxnUxvK7VP6ZACguE5Wd+Xr1IO7DnfPpjai33upAFBkd6vb8nXawd2jqTZlGtEx6LwdAIqs3LYpX6cd3N1MtSkjtwMAoV1ck69TDu5uptqUacDwmNwOAAX3uLooYKca3C3K2JRpwKMRwwoAiq7UtiNgJ2R3z9yuUSYOawXL7dNNZhUAYFcm3eCuUcamTHh9JZMKADg2blcmKcsW3G3KxFLfPmROAQDHjpVLV+3KpBfc5XabMuHr26fMKQDgI7sySVm04G5TJrr7g4YUAPB/emWSsi2325SJXiczYEYBAJ/olUnKqtzu9aWonqmTAQD+dNKuTDJ25HabMq6lAgAxumdXJo33l+R2mzJhdVSMJwDgC1deCNmJl8rI7TZlwpr1WioA8Dfn13bF7IRLZdbl9vj84tUlAKCgLlW3xexk76bqb4/Tb4VYb+8ymQCAr91ZF7OTvJu6uSVsx+h1EXL7w05zCQDYQ2/VrkyCK+7W2+P1ewFy+5wWSABgTyd6VgXtxFbcHbfHa+3ob8p0TBlKAMA+jm8J2nFb+XTcviRqx+ufRz63T2uTAQD29bi6LGnHa9d2uxL3hvQPlU0kAGBf5dM7onYCmzJKIJW4u5UKAMRLlXvsmzKbYrsS99DaR91KBQAOdr1FlXvMnTLrltuVuIc1XDGLAIB6Lqhyj/fA3Wm7EvfQby45bgcAAnjgemqMF1OXF+V2Je5hPRo0hwCAAEptKwJ3TKn93eLiCwnb1VRlMgBAMs4tydzRQ/vu8uJHDtxdTQ3nH2NmEAAQkOupESP77vKn0P7ejoTtamqop1K7TCAAILgb68s05t27xS85cPdqapgOyLlW8wcACGG8ur1ILGy4u5oawnNPLgEA4ZRPb4rcsdh24O5qavCXUifNHgAgrPNrMncsNiVsV1ODdsnMqG4HAMK73LMjdMdgVcB2NTXocvuIuQMANOLiktQdgyUBOyF/WG4HAPjoVnVF7HYzNb/+daRi+2zFyAEAGnZtS+6OfDNVvk7K66MU2+enzBsAIIKzGiEtyuiCTMGjybJxAwBEUb6yLnlHsy5f64Ks3wAptgMAUYN7ryP3aHbka12QYjsAkIKmqx5h0gSZTz3DR+NKqtgOAMTjpEeYPJmaT+fKU/OHvrd9YdCMAQBicvkbjzA1nttdTE3ON9fff56DC+2H+ZXU0QETBgCIzw+O3BXK5NHFD19n+djYaP8hje33Z1qNFwAgTpdaPMIkt+dPy6XPX+jIzGFcdp/tKhkuAEDMbiyJ4PZkcufpXz7RUqX51KFK7R19nQYLABC/m1VH7nJ77tz78isdGXp4aC6kzk40GSsAQCKuOXKX2/Pmwlefabmz7zBsu9/vdiEVAEjMeHVVEA9pRQ9ksh5//Z2Wj7U+yXk/ZH/zlM12ACBB5TNbkrj3UnPlzn6PFg3cns1rQWT/QtcJ0wQASNYDR+7h1mS2JOuEnT3gc32f3fOX2k/N3m71QioAkDhH7qGsWpNJ2pk6GXggX1dVP6R2YwQASIUj9xDW5epMD9w/6Rx6no+KyI5nXVI7AJCa8hVH7kFvpWqTyf7A/ZOmymjGTzO1z3dX3EYFAFL1oLotkwfabm8Rq3Nx4P7ZwMRCViWRHc0TI0YHAJA2R+6BYrstmTwduH/+dpumumfTDu8dC0OD7qICAJmw5V4/tm+K1Lk7cP+s1PmkuSOlnsj7zbc7hXYAIDOO3J22H84D978Y65p7mGx475/tnmr98BQUAEB2HLkflNp3NLfn+sD9T02dXaPTSZy9358e7epsktkBgOyV7zhy369IRmrPxaOpAT/kD/+MVG7PzcfVFtk/P/ekovERAMiPcUfue521v5DaU/Y4tk+6tXNyqG96uNEAf2p4um9mojLgkB0AyJtrjty/zOwrm1veSE3dtdg/7NJYZWKmb2H2YaDqmfaOR8+fjQ51DY58DOxSOwCQQzerOyu8t/Nic33LO0sZuZfgJ15qHRv8bnLi9tBM92hfX9+z5g/m3v9vtHtoaKJrstI5cOLz30rsAECO3ZAaydrTlD72smQOABxi33sVlIy1fO93CABQ33HBkWxd9CsEAAjgeo/kSJZ6rvsVAgAEcVJ0JEvn/AYBAAI50SY7kp22E36DAACBlHuFR7LzrZ8gAEBApSvSI1k5U1LRCAAQ1FnxkayM+/0BAAR3TX4kGxf8+gAAQrjlFSYy0XLLrw8AIIyLIiRZ8PYSAEA4l6/KkKSvrdVvDwAgnF4hkvT1+uUBAIRUOiNFkrYzJb88AICw7oqRpH0z9abfHQBAeMcFSdL1P/buZbVxLIoCaIOMQGCMY4gnjvETDPEDPPMgyczYhAxNAvmH+v9pUzRNVXUnVY4syfdKa33D2bARR+e+SR0AQA6zpSZJlRYzqQMAyGOkSlKllcwBAOTi/1T8mQoAEIHswfupVPdn6lHkAADy8n4qlellAgcAkFPW6euTVKPfETgAgPzeFUqq8SJtAAAXyMYaJVUYW5QBALjI1DF3KtCeyhoAwGUcc6cCTrgDAFwq3WuVlG2f2pQBALjUc1uvpORFmSc5AwC43FCxpFwjKQMAKEA60Cwp0yCVMgCAIhwty1DqoowFdwCAQmSWZSjRUMQAAAqSzLVLyjK3KAMAUBjLMpS2KHOULwCA4liWwUUZAIAIeIaJcuwtygAAFGq61DEp3nIqWwAAhcrWSibFW4sWAEDRzX2sZVK0sWABABRu1tczKdZiJlcAAMV7UTQp1p0nUwEAyjDRNCnSRKYAAErhAVWKNE9kCgCgHE9uQlKY9rNEAQCUZaVuUhSXIAEAypO96psUY+fHVACAEt24CUkhbm+kCQCgTIeuzkkBC+4PsgQAUK6R0snlVhZlAABKlu60Tiy4AwCEr3Ord2LBHQAgfEfX3Llswf0oRQAAVVirnlxia1EGAKAaLd2T/FoSBABQkWSgfZLXvCNBAABVmS70T/JZTOUHAKA6j95hIpfuo/QAAFTJO0zkMpIdAIBKZX5QJYdX0QEAqJgfVPm6gR9TAQAqt/GDKl/U38gNAED1Tm1NlC/9mHry8hIAwDWsVFG+Yi0zAADX0dNFOd9EYgAAriQda6Oca2xPBgDgajpzfRQHZQAAwrfpa6Scd1DGB3cAgGt6cFqGM7QPsgIAcF3vSil/PgT5IikAANc2Ukv5k5GcAABcXTbRS3EIEgAgfOlOM+V3dv5LBQAIQnKvm/K5fSIjAABhuHHOnU/NZxICABAK59z5TH8qHwAA4TguNVQ+sjxKBwBASA4eYuKj3n6SDQCAsNxp7vxP+04yAABC897VU/lVdysXAADhWSmq/GolFQAAIRpqqvxsKBMAAEHKeroqP0xEAgAgUOmbtsq/3jKJAADQ3AldK5UHAICAm/urxsp3r3o7AEDYzX2ns/Lt205vBwDQ3Am/tyeSAAAQumSstzbdWG8HAIihud9rrno7AADhS31z19sBAIhAYs/dfjsAABFwFdI9GQAANHdC7u0eTAUAiEnmDdVG8l4qAEB0zX2ixTbPm94OAKC5E7yeNRkAgBgNNdlmGertAABxWnWV2eborkw8AECstpp7Y7S35h0AIFrZXVujbYblnXEHAIjZYanTNqK3n8w6AEDcjn2ttv76R5MOABC7zVyvrbvbqTkHAIjfbK/Z1tv+xpQDANRBstNt62ycmHEAgHrwiGqdTVITDgBQGyP9tq48lwoAUCtbB93reQby3WwDANSLs5C1PAN5MNkAADWTbQZ6bt3MnYEEAKihzljTrZd7ZyABAOooS3u6rnMyAABEYNVVd+uivTbPAAD1dVpovPWweHQGEgCgzvyi6rdUAAAikCWvWm/8dh2jDABQ++pu0T12Xa+lAgA0wqNF96gt78wwAEAzPM+1X+vtAACEL2npv7F6td4OANAk26UKHOX19pX1dgCARsmebrXg+NwejS4AQNPc7PTg2Ixn5hYAoHnchXQFEgCAKJz62nA8+gcTCwDQVNZlrMkAABCDbO26TBzXZEaGFQCg2c39yWNMrskAABCB5E0vDl3Lo0sAAPz11/tCNQ7Z4sWMAgDw3WasHYfrfmNCAQD4R7ZuK8hhWq4cbwcA4IfpXkcO0eDZbAIA8LN05KN7cLq91GQCAPAfDw5DBmbuCCQAAB9Ihj66B/W5PTGTAAB86DjQl4P53P7gr1QAAD6RpT66h6E9tN0OAMDvPDsvE8IxmSeTCADA7yWjpeJ85c/tI5/bAQD4o2zqIdXrPpU6NYQAAJxV3V/66vO19LcGEACAc3V6GvR1tG5MHwAAZ8uyB5chr3ED8mT2AAD4WnX3k2rlln5KBQAgh9lEl67SbmPmAADI5WBfxpYMAAARSNcLldqWDAAA4ZtNump12bqtmUkDAOBCT/eadckvLj2YMuBv9u6mRW0uDANwoUEISPANxI0JiR8gOFHIzoVxJ4rMcmjh/Q/9/9vOYrpoSzudmaiJua6fkHMWN4c7zwMADagXwvXlJI+hKwYAQCNU3S+3KLVUbgcAoDlRNhSymzeMldsBAGjWLPCXauP/pJrcDgBA886BrN2kYu9OAQBwEScDZpobJXN0nwAAuJjjQeRuwiQ1SgYAgEsK/zcb8sMWJkACAHD56J6K7h8b3F6ZAAkAgOje9tf2yms7AADXi+4TEfx9sd1rOwAAV43uj6L7239J1W0HAOD60b02HPJNDmI7AAC3sdvapvrPc9tr9wUAgJs5T4cy+etGW1tSAQC4rU38IJj/3UO8cU8AALi5aJ0I538Z215G7ggAAK0Q1oWA7o9UAAA6YB8ru//ekQlObgYAAC0zzzVmfu7I5HO3AgCAFgqPgWf3H3NkitSOVAAAWmuej4X2b9/GmTkyAAC02+BxNfTY7h4AANB+87LHbfck23wySAYAgG4Ij9NermUaBrXQDgBAp0TVqncz29dWLQEA0EGzfNGniszMiQMA0NnsnvViysw43qnIAADQbaf4zrP7cloPxHYAALpvUE/vNruPn1O7EwYA4F6EuziR2gEAoP0Gd5bdE712AADu1axcje5iOeoh2zlNAADu2X/pdNnt1P6wrebOEQCA+zd4iiddTe2T7EmtHQCA/pin3Wu8j4Nq80mvHQCAfgnDTRV0pjXzUJR7mR0AgL4a7Mvtsv2hPdePAQCg98L9OmjtgqZlUe6EdgAAeAnv52o6admkyNFkWp3VYwAA4Befd615el8WeR0J7QAA8CebNNveMr2Pxtss3TgHAAB43fypDBZXb86MFkH5ZLcSAAC8RTiYpXkwGV4lsydFXO0+++gAAPBOg/Nj/nW1vNTz+3j1NU/3A3V2AAD4kJdIHe3TfLpKGnt/Hyar6XNij2xCBQCAC8T4+Sldx8G7E/xzXg/idXrSZAcAgKuIZrt0ncdfikPyyurVZXIovsR5le5mke8GAAA38KNIszkf67SqyjyL4yCI4ywvqyqtj+fNS1YPVWIAAKBlWV5IBwAAAAAAAAAAAAAAAAAAAAAAAAAAAAAAAAAAAAAAAAAAAAAAAAAAAAAAAAAAAAAAAAAAAAAAAAAAAAAAAAAAAAAAAAAAAAAAAAAAAAAAAAAAAAAAAAAAAAAAAAAAAAAAAAAAAAAAAAAAAAAAAAAAAAAAAAAAAAAAAAAAAAAAAAAAAAAAAAAAAAAAAAAAAAAAAAAAAAAAAAAAAAAAAAAAAAAAAAAAAAAAAAAAAAAAAAAAAAAAAAAAAAAAAAAAAAAAAAAAAAAAAAAAAAAAAAAAAAAAAAAAAAAAAAAAAAAAAAAAAAAAAAAAAAAAAAAAAAAAAAAAAAAAAAAAAAAAAAAAAAAAAAAAAAAAAAAAAAAAAAAAAAAAAPjOHhwIAAAAAAD5vzaCqqqqqqqqqqqqqqqqqqqqqqqqqqqqqqqqqqqqqqqqqqqqqqqqqqqqqqqqqqqqqqqqqqqqqqqqqqqqqqqqqqqqqqqqqqqqqqqqqqqqqqqqqqqqqqqqqqqqqqqqqqqqqqqqqqqqqqqqqqqqqqqqqqqqqqqqqqqqqqqqqqqqqqqqqqqqqqqqqqqqqqqqqqqqqqqqqqqqqqqqqqqqqqqqqqqqqqqqqqqqqqqqqqqqqqqqqqqqqqqqqqqqqqqqqqqqqqqqqqqqqqqqqqqqqqqqqqqqqqqqqqqqqqqqqqqqqqqqqqqqqqqqqqqqqqqqqqqqqqqqqqqqqqqqqqqqqqqqqqqqqqqqqqqqqqqqqqqqqqqqqqqqqqqqqqqqqqqqqqqqqqqqqqqqqqqqqqqqqqqqqqqqqqqqqqqqqqqqqqqqqqqqqqqqqqqqqqqqqqqqqqqqqqqqqqqqqqqqqqqqqqqqqqqqqqqqqqqqqqqqqqqqqqqqqqqqqqqqqqqqqqqqqqqqqqqqqqqqqqqqqqqqqqqqqqqqqqqqqqqqqqqqqqqqqqqqqqqqqqqqqqqqqqqqqqqqqqqqqqqqqqqqqqqqqqqqqqqqqqqqqqqqqqqqqqqqqqqqqqqqqqqqqqqqqqqqqqqqqqqqqqqqqqqqqqqqqqqqqqqqqqqqqqqqqqqqqqqqqqqqqkp7cEgAAAAAIOj/a1fYAAAAAAAAAAAAAAAAAAAAAAAAAAAAAAAAAAAAAAAAAAAAAAAAAAAAAAAAAAAAAAAAAAAAAAAAAAAAAAAAAAAAAAAAAAAAAAAAAAAAAAAAAAAAAAAAAAAAAAAAAAAAAAAAAAAAAAAAAAAAAAAAAAAAAAAAAAAAAAAAAAAAAAAAAAAAAAAAAAAAAAAAAAAAAAAAAAAAAAAAAAAAAAAAAAAAAAAAAAAAAAAAAAAAAAAAAAAAAGAWval0hmyTDWIAAAAASUVORK5CYII=;base64,iVBORw0KGgoAAAANSUhEUgAAAL8AAAC+CAIAAADr1En0AAAAA3NCSVQICAjb4U/gAAAAX3pUWHRSYXcgcHJvZmlsZSB0eXBlIEFQUDEAAAiZ40pPzUstykxWKCjKT8vMSeVSAANjEy4TSxNLo0QDAwMLAwgwNDAwNgSSRkC2OVQo0QAFmJibpQGhuVmymSmIzwUAT7oVaBst2IwAACAASURBVHic7X13fBTl9v55p2xP7z200Kt0kN47qDQBBZV79YqFi4qCCuJV7GBDUZGiIipIUUB66L230EIo6WV7nZnz+2NDMhtSdjfb+P7yfO4fF5Pszs4+c95Tn0MQEepQB7dA+fsC6vAAo449dXAfdeypg/uoY08d3Ecde+rgPurYUwf3UceeOriPOvbUwX3UsacO7qOOPXVwH3XsqYP7qGNPHdxHHXvq4D4Yf1+AU/j/pw2A+PsCXMIDwJ47Ot7C+fsifAI5A7EqmnpwGPQAsGdHpnXNRTP/f7cPiRBQMGRYQ+n4ZrIHiDoAQAKwO8zKI0MRQkrNuM6K/96iydULAXehtQNFIERKtY1lOsSxD8WyYXKKAiAPFHsCzvYICBsuaptEy5pFS2kCAKBiSZ8Uya8Xzfz/CfoQAhSAgiWPNpENbyQNklAUVYm7gwCAgU6mgGOPhRc+2VckY2Dz1FQFSwEAIdA9SbLhqkVvfeDpEyajOsWznRLYh2IZlaTKgNfK48lbhtRwaWwI68vLcxWBxR4e8dsjxcfvmgBgb6ZhQKMgux/QMJx5KJbde9saeMesU6AJhMioSS1kQxpIaYqQKk4oAYHj8Z+L6i925BVquYWPJcYEhway+Qks9twosn66r0gQEABWnVT3qKe0mx+KwDNt5CdzbfoHhz8EgCIQraQ6xLEd49lW0ayCLXfmxBAQjFb+WKb+wFX9gWv6HLWNRyQAuRobBnYMH0DsERDWnNPm6Dg7P7Zc0RcZeHkoRQAIQIyK7pbIbssMdPrY7YqdN483k/VMkcqYykmDCAKi0Sr8fVb9XXpBkZ7jURTDEMjV2hARSan1wcBzgwKIPXc0tu+OFvP3Qiu1mX97e+53jyRSFLE/x71TpHuybJbAjt3jg+guCWzHeLZFFCNjqvy2tWb+8HX93gzdoev6fK2t0k+Ur+HsvjMQQIALhbbG4QxLBxCDAoU9AsLLf+Vka7my+4gIP53Rvtjd0jJWZn9228Yy8UHUTU3A0YcAMBTEB9HPtJF3jJfYo6pKjxxeQINF+PVo0apDRVpTqa2p/NMg5OjM4n9mFPFKlkoJCaB0YkCwBxEOZhl3XTdU4AUv4IoTJR8MjiU0IQA0RWa0V8zerbcERuxOAGgKUkOYzglM+zi2SQQjTlOJISCWGPn9V3UHruiO3TQUG3gBa0i0IUC+WkCR4yNn4OcLplc7KyUBY34Cgj084vfHS7T3nUmIsPGSbk6f6DA5bf9WWkazrWOY4zk2P6YO7Z4NQ5G0cHpSS1mbaJahyP32AAEQgRdQZ+ZXHipcfbjIbENBcMFuFug5XkDG/tIEwuTU/tu2Pilc5wQ2QMyP/9mDAAduGn8/q7n/viLAjRLrshPql7uFU4QAAEWgZ7LkdJ7NyvvhUu0X0CCM6Z7EdohjG4YxTNU9Cnla2/6r2n0Z+qOZBr1bmU5EKNBZE8JkdqooWIqhYO1lU4soOlgaEM0R/mePwSLM2JRj4iq3Jojw9va8KW1Do5W0PeLolsh+f5pYfXt4EQISijSLZJ5pI28YzlAEKs3ZIADHY67Wtnx/wV9n1GYbIiKimz0CiJiv4xPCSk8vCQ0MBRcK+UtFXMc4SSDEX35mDyJsuqy7UVxdHG7hhFWnSl7qFsEQAgBBEmpqa/nio0Yf8IcQYChoHsl2SWDaxrCpoQxFoJJDCkFAzNFYd13SHbquP33LaLQKLh1SVSFPaytzfeQMkdJEbxWWnjI1jWCCJJTfCeRn9tgEXHSg0GQTqvkdAWHtee0zHcJCZDQAEAKD6sv+zLB4L/giABQFUpo8FMs+2UqWGMwwpHJLgwg2XsjX2L7anb/tgoYXwCOkKUOhjiu7JAVLJDRBgCwNv+GKZWJzud+9Z3+yBwG+OVx0Ottcowt8Ktu0+4ZhZNNg+1dIEehfT/LDaZM3nB8JTVpFM10S2PZxbEIQVdUDLiDcLLbsuajdf1V35rbJwlX3ALgHBMjRWsrujYwGCQ0EQEDYedM6sL40SuFn8+M39iDArRLbh3uLqnB4HGDlcObfuQMbqWQMRUhp3fTn82Yj57EGE5qAjCE9kiUTmsvilLT9XSpNEFs44Vq+5Zs9eQev6XkBBLf9GidQqCsnpYwhZbHWbS2/86blsabyqvORvoDf2CMg/nxGXWDgnPn6EeC22rbuvHZCm1B74SJBRQ9qIF1/pbZtG4SAnCHtYtguiWzraCZGSVOVHlIIPGJGrik9Q3fomv5yrtliE3yQNSgxlAftLE1UktIrQ4A1l8xdEiUpwbQfzY9/2IMAegv/2b5CzmkvgUdcfVYzpkVwmfl5prV8102ruuZzrxIQAgwBGUP6pkomtpCHSim6CtIIiBYOM/LMX+7MO3nTwAvou1QTgskqWGwoYcD+zITJCAVgN0c6C66+YJrVSenH2oV/2GPjccbG3CKTC24vIqTfMGQUWFvGSWkgAMAypE8quz7D5cyzSkI6xLGdE9h2MWyEosrECS/g+bumHRc1R64bLuea/JKfNFkFCycEof0TQ7SCBlJa2kCAEzlcloZvEO6348s/7Dl227Q5Q+eqy2KwCq9uzd00JYVmAAAIQI8k6eZrVhPn1AsxFIRIqUENpGPSpMEyqqomG15Ak004mWX8aldeRq7ZHkP5pbKGACabYBF9uhiVA9dLzMLPF8xzuilpP3nPfmAPj/DD8RK12eUgBQF2XzccyDL0qq+yu4+NI+m2seyhu9WliygCKgnpliix171DZRRVtTt86o4x/ZL2aKbhZqGF4314SFUBs02wckJZsStW5ZBsQoADd6zHc6Qd41m/0MfX7EGA49mW1WfUvFvfDC/gL2e03VKUUoYAAEuR59rJz+bbrDxwIiNhtyssReQMPNZMNjpNxtKkKtLYjc2RTP3Xu/JvFFgEX3o2NcFsQ7HtiZQRQu4dXQAAwAvw2yVTiyhG6Y/ks6/ZozHzMzfdtbkbKSHA5gxdviE6KYQBAAIQp6IX9AwqNglZGm7PLdttDQ8AUQqqSyLbKZ5tHc3Kqn4sbTweuqHbdVF7NNNwu9p8t79gtAr2cof9lI1RVvSQEeBSIX+uwNYx3g+ld5+yR0DYc93gTHqwGuTrbZ/sK/h0aFxp7ZlAq2gGEBAkk1rA2gyTiqV6pkjkDKlqwIXjUWfhd17SfrM7v0DHlTbZBB51AIAXUG2wAcjt/5SxRM6CxTFJauHxqxPG1jGsnPG1+fEpe6yc8On+QrMz+cGqES6nH05ViG8TAQBS2kc8tokcofJEn4CgM/OHr+vTM7QnbhrztDa+piabQEC2przzkACEyyjNfUmuHL2w6Yr50SZy2reld9+xR0BYdkJ98JapNl8YIfDvThHD75UsKv2FCj8REDhe0JqFrefVKw8U5T8gpClDrsYmvtpIOZWp4StktxFhe6a1b6o0QuHTzh/fseeW2rpof6F7znIZIhXMvzqGOZkfQwCzld9xWZd+SXMyy1Sgq7x9OMBRoCsf4icAdn7c/0GyNPy2G5bxzeW+PL18xB5E+POC9maJrTYvQgg81zksWuVUcsxoEVYcKvhxf6Gldk02fkeO1sGdD5dXfjgJCCvPm/rUk0YrKJ/ZH1+ckwiQq7MtPlDkVE2rahCAMc2Dnbw1F3OMS/cUmKyCvbbwgFIHAHLVXPnlE4iQVW5cEMAmwC/nTTaPtohUD1+whxfwta152bpakgckNIkPZolzprlhlIz1ZwHRYyjUlzdxE4AIeZU3ABH237Hl6n1HH6+zBxFOZ5u3XNHXLtICACCkskpmFQhWMK8NiYsNCZQGcrfB8VBsKM8YylmKqfojqc3Cz+dNPuva9Tp7eMTvjhSVGGtreCgCbeJkMqdTGhSB0e3CN7zQaFDLUHnVegOBD0Qs0NnKzi45QyR0db+/K8t6Otfqm3S5d28rIhy6ZVx9TlvLxjuGImOah6wam6hgXagHUgTkLD1/VMKHjyW1SlTQlJOHXsChQCu2PaT6pDIirMuwGH0SX3qXPQabMOeffL21VicxQ5FJbUN+fDShfoTEjWNIzlK9GgcvfbLeYx3DgmQBNIjpJBAgV1Meq8oYkFZrexDgVJ7tWkltjb0z8CJ7EGDHNcPpnFqlB6UMmd0r+pMhsSqps987ImSXmMSEJQRUUmrOkIQvJqY83DjIX/0MbqPQYCvLb8oZUuMzZOXhqxMm0R95C15kj5XDz/YXGqzun1pylprXN/rNPpFh8vK8lNXGZxfqOb7yl+V4YfvZnLavbnnnj/OFOov49hEC7VKUi8envDIoNkzJUA+IL4QIeZryhKGMIWy1tseOm2puy3WLt70fet68ed54XQT4/rj6+6PFbs8axKiYz4bHPt0hXMKU+ys8L3yy6tjLn+4SBGzVKJqmSNnPBESzlf9gw8WZq07qzNz+ywV7LuQrZUxaXBB179cIAYoiLRIV3dOCrBxey7c8EHmgmBB2YItQ+6FLEbIny5pnqPm2FpuFHskSGe1Fb88r7EGAu1pu+rrsYqNzbX+OIABhcvqrkfHjWoVI7uVsEEFvsr7+5d6l607rjNa9p+6s3ZnR66GkyFCF/TfO39Z0fXPbltM5VpuAWHp+bTp+526xqUPDCBlbzjRCIELF9EgLahovP3/XpLd4fpjGs4gKYge1CJHcG3s+mcdlamoeRioxY4ySahReTYBfW3jFfCPCn+dK7mjciRsJgcZR0vWTkx9pGSz+3EazbeYnu37afMHGCYggCHgrV5tTaCjLw+aqTUV6K+/ooHMCLt9zo/e8Hd/uuMY5DurRFOnZOPj7J+s91SMyWB7QiUWTVTDfewwJQLTTpdCV50zZei9mfzzPHgQoMXHvpxe50QJGEUgJk6yZmNQtVSl2be/m68bM+nPd7iu8o7vD8eVJfGkVqWUEuJGv/+/Kk33m7zx3W8OJrooAxIVKnu8T89XjKWkxMol/h6OqhskqWETjtjHKquSBKkJrwT8zzJzX+ON59nA8vrktP8/13DJFoG9D1fZpqS1iZPS9RgtEvHGn+Jl3t568nHf/kC/nnFdlbz89fK1oxId73lh9OkdtLnslAkAR0jpJuWxavZkDYsKVXrTzbsOhN55ApMJZQ4kAB27bcg3e8p49zB4EOJNr3nBJ69L1EgCWJr3qq34em1g/vDwgFQQ8dSV/yAvrjp7PqSTIQrBy5ce/tBo1FPuvI94pMi7akjHyw/RTmSVG0SlHCITImcc7R/3+n0ZdG6pkruQkfQD7XE7ZP2NdGUAuMgurzpudn5tzCZ5mD8IPx0ry9K4NmBMCU9qF/vF4UqTo0UfEXceypi/Yml9irKoryIFSzt1RQcCTmcW95+94ecWJ3BKHKS1CICaI+XR88rujE+pFSgOHQGabYLnXImZv8Sn9f04AEdKzLKdyvJI89DB7TmabV5x0bV5CzlIvd49cMjI+VFbuuAgCbki/NnX+lht3NdXkvMQ/cslgGK38j7tvtH51yx+HswwWhzurkNADW4SueLr+0JahQbKA8KZtPGqMXJmHp5RQ1ehp3g9egPVXzBYv8MeT7NFZhNlbc13SZWJp8k7/6Hf6RzP30hIIYLXxX6w58cqi3UZTdelSBLBVlG5x4Z4KiGqj9Zlvj07+8tDxG0WcaK6VEAhVMAvGJH48Lql9qpIJgHMsW1sulE8AolzpQBUAzuRzGcW173KoCI+xR0A4kGU8dtvopDgAIRCuoFeNTXyxa4T8XhsFIlgs3JdrTrz/4+EijbnGw9omsnJSZ1KwjkAEg4XbdPzOsIXp3+64Wqy3ljnmdlesa8OgryenTn04MlTJ+LG+gQC5ak489xFZRYdhVTBx+Pkxo9nT5sdj7OEEfH9Pgd65FA8BiFQyP4xJGNM8WBxoq3Xm2V/s+XDlUYuVd6ZII2YqcVdWHQGK9JaZK0+O+WTvtnO5vNgIAchZakbfmK8npfRpWrWYj/dR4NhbFypz+UKytPy2GxbP0scz7BEQVpxUH8gyOHlxDSMk26bVG9EsmBE1G6h1ljlf7/15yyWLs5KWaBNFIjXGXNWDF/BgRsGYj/fO/fVMrmORlSKkRYLi47HJ80clxIf6Y2YTIU9nRSjvho+Uu5xYQIR/blg0Hk2se4Y9d7W2Lw8WCULN7cOEQLt42erxSS1iJJQoqZN5Vz11/ubft2fwVZQ/KwVfIeaq3feKCFZO+Gzz5WEf7Plp302bKDlNCNAUGd46dMmU1Mc7R6ikvus8B7uImNomvrmRVUt/VIMban5nptWDXd4eYI+AsCVDd7mg5oojRaB7ivKvJ1PaJMjLQnNBwDv5+mff37b35G3OxYEdG+9gezzyhfICns1SP/PtkQmfH7yaY18eUfojmiL1o6SvDIp7f2xCaqRU4s0CZAXkacpT93YhHzfemhPgx7Om/Iqi6u7DA+wpMPIfpBfWWJegCDzWMmTVuMRYVfk8FiIcPZ899rUNRy/kuKzFhcALXilwIgAv4IZjt4d9sGfhhotak8M8Hk2R3mmhy6bV+3fvaJd6HWsDTgB1Wb8ggSBpdd3N1cDM49rLHgvea8seXsB3d+bdUtfQCMlSZFLb0KWjE5JDykUJeF44cj576vwtV7KK3fg4WFrnKv1LN2KuGl//Zr5+wdpzoz/ee/a22mJz8MYiVOzTPaJXP9vwoVSFDwpkCJCnFXX50ISl3TmoESH9lrXI2ci4BtSKPYhwqcCy7oK2mtCaAChYak6f6EXD4oKk5U8qL+DaXVemvPV3fonR7TQ6xzl8ox7/Du1GaN/l/AHv7np99ZlCnbXsaLWPzdeLlC4anzJneEJCWLkb5w0QwAJtucanWAHTVRSZhOVnPTN3Ubs4BfH7YyXVFETtLaGze0W91jNSnEo2WbjV/1x86eOdhWpTbZ4CTtQ+JGMoL+2vQoQineXLrVc6z9m641yuwcKLi6yhCmZ027Afn6r3cFqQwmveNCIU6G1lb6pgQUK5+bggwK6b1vP5Htj14T57EOHEXdPyEyXVXESkgvl6ZNzsnpEyUX+gIOBnPx+b/Xm6yVJbwVy+QsLHmxAQbxYYxi86MH3p0Wu5ekF06RSB+BDJZ+NT3n8ksUGsO637zqBQV6E/1f1nhUfYcNVS+1VD7rPHaBPe2pavtVR57ESrmK9Hxk1oHVrmJCOA1mB98eMdn/183Giu1Uy7HeIQTeoT7VCd2fbboaw+7+xcfSBL4zj2ImFI7yYhK6c1HNcxIlTh4QIZ3ls0aYeMIWztXNaj2bbMWs9duHkJCHDwlvHoncrnJSgCjSMlv09MGtU8uGwEBhF1esvLH+/8bXsG7yE9fu/1PVUDRMzTmKYvPTph8YEDGQWcqJ2REFDJ6FcHx302PqVzfZVnC2RFhnIPQUYTOVur17ZwuPi40VQ76+8meywcfpReqLVUkhSmKdIoUrpmYnK31PJ+C0S8nacb/8bGDelXbTaP5RsEx0bUEIWP9k8jgsXG7ziXM3Thnk/+vpKvNfOOBbIO9ZRfT06d0S8mOpj1lDdttPJluXVCIEJWqxMSAa6X8Dtv1mrq1B32IMDPp9V7b1bSskYI9Kyv3DglpVWcTJzUuXpb/fSCrUfP5/AebVPivJPvcRKIYDBzb605PfrjvX+fzBYEh+eYpcmT3SKXTEkd0ipUPBbi7puVKmCWvUVErZdUIMLf12q1rcFl9iBAvp5bfKCStmWGIgMbqdZMSGoYISn7XALiiUu5j726/sSl3FpKP90Pxy3CECSrnTV3C7yAx64XjV20/9/fH7tZYBD78TRFGsXI3h2dOHdEfFK4pJZzrEaLYBXFmHHK2ubqEOBKMX/wjvves+vsQdh4UXu1sGK1lqZgWvvQVWMTw+Xld4kX8O99159ZsPVOvs4bax0qFsX8VAFHBI4XVqbfGP7hnq+3XdWLOiEIAEOTkW3Cv51Sb0rXCBnrZkiPAEabYBHlRqKUnontlp4y5+jd9CVcYw8CFBv59/YUWB3bGJQS6qVukV+OiI9QlCfQOV7YkH71xY93ZuVqvLQRhHP81OFKib8IBAC8gJfvamf9dHLq14cuZ2stIhkmikBSuOTlAXFLJqc0T5C7VyAzWx1sT4yCeKTMpjYLm69b3Jm7c5U9goALduXfVjskmhiavNsvan6/aFZ0U2wc//Vvp175bHeJ1uy9aWrembK+b8HxuP7Ynf7v7np//QWjzaFLiSLQoZ7qi8dTZw6MDVW4LI9rstonK0pfMFrpmcoMAuzOsmrM7uw6c409Fwss6y9qxcXeCAW94rHE57tFKkQaOUYzt/jXkwuXHy4RbxT3AnjHE1su9f+aVShtBTS99+eFnm9v33upwOqYio9UMRM7Ry5/ql6HeiqZK+UGK4/iMzFERlUv5OM8CgzC8rPuzF24wB4B4YdjJdn3anWEQJSKWTE2cUzzYHHXZonWPPuLPZ+sPGK2el0ExMY7NKswfl+1KIKAeCarZNyi/TOWHb9T5DAWQhGoHyn7fELy2yPjkyJc8KZztA75ybDaBe1lQIAdNy3n8l3+vlxgz/lc03dHS+x3gSLQMEKycXLy4LQgyT0bjAgFJca5X+/79Z9LZqu3loaKwfPlJxcBCJKxfvOcKwMiFOosy/Zc7//urr9O3NWKFCntecVhrcKWT6s/qEVIsNwpCuWqOfHnjZBTnvq4Nh42XLW4molzlj1GG87dXmDhEQEIQNt42W8TkzokKUT9gXA7T/v0gq1rtl2yeWFJZ6WokLJ2u7XZq0CEa7m6SV8enPLloWs5Ol6UFiIEooPZBaMTPhqb2DhWVmNe8a7aKv68EZ4TZ0aAY9m2TLVrcxdOsUdAOHrbuO+mQRCQIvBwPeW6SSmtYst7awXEa3fUU+dt3n/6jseTOtWgwoBpqEris7d2FSYr//epu93f3v7dzmtFeod8h4ShujYIXvF0g6d6RIVXq0ZdumAbAMpsjwevkMPPjpnMrkjWOcceAd/dXaA18zRFJrQK/mlcYqJIi1RAPH4xZ/LcTaev5PtiV6cInGdT114GIhTrrTNXnhy3aP+By3kVCmQKCfVc75ivJqX0aRrMVhHS54q78AiEe1oY/noJt+eWCwN5NbNHQFhzRp1+w8DSZGKb0M9HJIipY+OEvafuTJ235eqtEh9TBwAQReOkBIICI+aqHlZO2Hspf/DC9HfWnr9TbBTzn6VJ8wTFB48lzegbkxgmub/3tEBXPh5JAMJkHvN77BAQ/rlhMTltfmpmT76e++JwMUPBG72jPx8RF64oD2wEATfsuTJ9wdacQoNfjEBV+nMBDkQwWfkPNlwc9sGeNQezbKJYmQDIWGpq96glk1NHtQuroPNqsqHGVN7lEyShPL5U6XIRt/eWs5J1NepOwPZr+hvF1td7Rb3aIzJYlNQxWbhlG8/N+HBnodrkr50zDpUKhBAFG4hucxXgBbx4R/PM0iPPfX/sWq7OQViIQEqk9K0RCZ+OT0qLKRd6RYACXXlc5KSGoUvgBFhyylTg3NxFDaZebRa+PFS0eHjcIy1CWNFzwPHCx6uOLl13xmLzhbJrVXDo7yGlW7oeICCCxSas3JuZfin/uQGNnh3QSMKUDqwSAEKgd5OQZvGKDSeLVh0qjlAxXdOUEcrybngFCxKaVLYxp1Yw2fCva9YnWslrbPavjj084i+n1XN6Rw1pHCTu1FHrLO/+cHDV3xc4z8/VuwabWDwMIEjuo/4ez0JAzMzXz/7l9JZT2f+b0Lp1ShhLl9awKAJxIez0XjEDW4XFh7AMRcRHmUpCVCwpMXt4saGAsPOmZWSaNFxeQ023upOL42FEs6BhTYJF1AGt3vLCRzt+2nzR5m/qgN3vcbQ+Dy54AXddyBv10d65v54pMVgd+6ZJvQiplKEquEHRCnpGe0WQxPNDibkGYdnZmlfQV8ceKUOSHLeEZOVoHn/zr837b1ht7hTVPA4UWR4CRCl7AGKu6pGnMX+2OaP/u7t3ns8z1TTPz1DQNpZ9qYPSGzJD229YLhfVYCGcTTchwqXMwife3nzkXE7g5FgqxFx27/KBtkAAgIhnb5VMWHRg+rdHCnU1bGqmCHROYJtE0AwFnv0fIbD5uqV659mph1UQ8NjF3Ofe/ycrR+vLVHKNqNAMGvTg2x47EEFttG49k2M3r9UHAzKGvNZFmWvwfLpNRtegLFHz7RYQtxzMfO3zPdkF+kDbBlup7fm/AUKgZ7PoUAXrTBwZraQ91e7jEmpmz7VbJXO+Ss8u0AUYcwAAbJwgijdQIXNdFClQQYA0SwghtZaV8Spq9nuS44LfeqZbqEoWAOp9FeFY5iIMEQL5XruKwF9KV7PtkUmYUb0axUQoZ3666/rtkoDye9DR71E+CHUuJ4GAeRqLs7+M4KzonyuQS6hgaXW1EKduN0WRrq0Sfn532KxFu/eduuP7amhVsDloh0Eg6ry7BQJACCnQmAEAsOYwMldrHbn0nBurHaq/hhd6JU7pFFPN2ensw0oINEgM+27uoDe+2rsx/VqA5HsqeM0KuQTA85l73yMuTD6xe+prI5s5o7OJAN8dzDmfbfCAKIYIUUq2V6Ow6hORNbDHYuUk95pNCIHIUMUnL/dp2TDqwxVHjObaKmDUHjwvlHGFANCB7ifUAAJAUWRI24Q3H2nRIimEdSKGRIAbhaafjuY6xA+euJJPRjdICJVUfwE1sOf4uRuI0KFVfamEAQBCIEgpefaxtsFK6YcrjuQVeyHJ4AoqdKaqqt/3GtigKNI4LviFwWlP9KzP0MSZGAURdBb+w+13bpVULWXiOgiBzqnBw1pG1sjeGp7W9i3r/7zpyE8bDvH32nEJAEtTTwxr/v2bg1LjQvy7ZtjmWOcq1dx90BhECCik9MyhTTa91nNa7wZlZXYAQARBwEuZRSazTcCKtr7QYHvml4yVR3M8G8pQhDzVJU4uqXnstQb2SCTMlFHdPln2z7wvNpZoy/t4CCFdWsWv/XBE19bxbO2EkmsFdHCctrfRhgAAHYJJREFUFbIHr8YuYaiODSN/f/nhd8e1SolUih93RMjIKn5u4bZe01ePe33jX3uvXcosFHucV/NN6VfVnEenVwhAq3jVo22jnSmd1XByEYDWTRLbt0hd8eeBa7fyP3t9XHREsJ2ThJCU+NBlbw2Z9+3+P3Zm+KtbwyxSgXmwcs0EICpY9tajLR7plByhkojPKkQwmK1Lfju1avOFnEIDL+D+03eOXsiJDJH/s2RcQqTK/mt6C2fyrKsMoJLS345vpJA4ld2r2WzIZezMaQMkLJN+JGPSrO/OXL5Vpt1ECIkOVyx+pd9/J3cMVvlnJZHNUfhS4kdD6DQIgSA5O6pj0q63+jzVp0FUsLTsrEIEs5U/cj77ibf+/mjV0Tt5Oo4XEBERLFa+UG0KUZTPjegsgs2jvbkEYFjLyCaxzgos1HyvCSEtGydOGtkZAM5fzZ76+vIt6efF4l8sQ704of0Xs3oHK6W+z0ebHMWHA9/8UIQ0jAla9Z8uy5/t3Dg+hBUFioio1plmf75n4pxNu4/fvr+DKipcwdx7PBAgX+dhy0NRZHrXWOd1bJx6UilCJo3sEhsVDAC5BeqZ7//608YjRnN5JlQmoYf2TPvlvRFpKWE+1eC3l7rKgbXcVuFtRKikMwalHVgwYEi7eKXMIY2rN1o3pF/r9+xvqzZfUOvMlWZDEqODynN3CDkas2ePrSkdYzrVC3beBDh1rwkh9RIih/VuTVMEETQ609uL/3xr0XqNzigSGSGdW8atfm9k7/bJtA8TL2ZL+YxBIFcUaYr0bxW7ZU7v/01oHap0kJgXEDNulTw5b/PzH2y/ma2p0HYiRnyUipSTB/L1HmsqJwBJYdK3Bqe61Gfm7NdM09SLU/rFx4TaQ3Szxbb676OzPvj95t2CspQPRUhKXPBXswc80idNJvHFVj10TDcjgMTjQwa1Bk2RhrFB/xvf+teXurdNCbVvhrf/SEDMLzZ+/dupoS/8vvv4LYNo0L1SJMYElaVIEDBPY/NUYp0QGNc2OibINXUqF4xEeKhy5tSBEqb06+F5YdOuM9NeX56RmVdGIEIgJlzx6X/7vDGts1zK+iAbZLRwjunmADI/9s06T/Ssv+nVnjOHNgmRl98QROAF3HEk69FX1y/4/mCRc6rnCVFBooAesnUeO7lCZMyzPRIYF2+fC0VpQkjvTmlN6seeybhj/y+IeOl69mMvfP3x7HF9OjeWsKWvppSxz41tF6ySfbzy6F0vNwaJlw0gAX8mnxxBU6Rd/fDZI5sNa5dAOcp8CQJmZqu/X3925V8XXJI8T4hSlrs9CPnaGvpWnYSEJvOH1UsKc3n1mGv3Ojoi5KlxPWiRXA8iFJboX3z3l+XrDnCibUQ0RU0e0vz7NwelxIV4NRAziFTDCUAgmB5CIFjOLny87Z//7TGsXUKFQQiOF37cdO6x1zZ8/+dZk6W6xasVQNMkOkJZ9lpmG19k9IBiOgC0TQoa3y7KDSE719hDUWRM/3Zd2zYQvxEiarTGeV9snPfFhmJN+fYViiIdWsT9+fHoHg8lsYy33CDO0XGU+LVSSggoJPTQtglb3+g9Y2BaTIhoDBSB44Uj57Mfn7Pp9S/Sb2ZrXJVwUEhZuWgbz60Sm0f0hilCnugUE1zz6F9lf+vqH9A09eIT/VUKh9wgAvC88OPag9Pnrsgr0pfdFYqQlLiQ798cNG5AY9o7Wz3FMZf9HT3/Hs6BIiQxXLn8uS4rn+/SoWEEI9LBQESdwfL2N/snzf1rxxGHwXXnoZSzEpHWXLajlo/baBmvHNcu2j1/0WX2UIS0b5HSoVU9ilT8W47nD5y8NnnW0lMXskQVMQgPln/2376vPtEpSOF5fR0b51Ao9ZffE6GSTOtdf+/8fqM6JgY5LgEwW7l/DmUOe2ntN2tPF2lM7hXDCYBcxsgkTJnfk1XsATlRpYT+cmyaSupmb4I791ouk7z+ryGSyraKIOKFq3envv7jhh2nyiwzIcDQ1Izx7Za8MTAiVO5J84DgsC0F/SBdSFOkTUrYulk9Fj35UEK4XOzkCALezNFMnbd5+v/+uXCjsJpETs0goJRJpOKTS22u5YJRQqBfk7BWCe6Lzrv5pDZvmPD4iE5UZU6GgJhfpHvto7Ur1x/SmyzlC8kkzKAu9Va9M7Rp/QgPxtXi5ZL2CNlnLRoUISlRyrcebZk+v1+XtEhxIscu4bjir/PDXly77fBNvcFa+0YohYyRsnTZp8vW1Nb2sBR5rnuirBa7WNxkD0WRx0d0jo0MqvSniKjWGed9vv7txev1xnICURTp3DJhzcKRvdone4pAFkepK8+upakKhABLU491Sd42p8+rI5oqpUyFjpxTV/InvfnX7C/S7+brPLQPCJRyVpyDzSyqVbKHEJjYPubhRi7UJe6H+15CWmrc0F6tq3lvi5VbvenIi++uzrxTKNYKjY9SLXljwGP9m0g9oTfsWOciPvB7KEJaJYd9O73jsn93rh+tYh0N8K087TvfHRw64/djF3I92v1NQlRS5t57WXkHGSg3kBQqfXNwSlUSd07C/REWmqZmThuwadeZ3EJtVee5gLhl77kbtwuWzJ+clhpjr38RgMgQxScv92nRKPq97w/WZkMgApgcYy6v5poJASlLzxredHrfhjEhMnEQiQA2jv9j++UPVx7NLtB7XFCRAMRGlKcKDRa+NosVCYFH2kTFBtfQtlwj3H9SCYEQleKlJ/tX6j6XQRDw8o2ccS9+s3XvOYu1XClcIWP+Nbr1Ry/1So4Nqk1Z3mrjHWIur+V75BK6b4vYv2f3mju6RVyoXCxwbuOE0xn5z3+w/b+f7bmdq3MvIK8BBGIjVWXvqLfwZk5wu8gVoWSnd4urfW6sVn9PCBnSs1VyfASp9utHhLwi7cvvr/nhtz2cSK6YocmEgc2+e3NQUkyQ26ev3mQFUaHLG/0hFCGhCvaraR1+fbFbj6bRFRI5Fiv30coj41/f8MeODLPVG8QpRXyUyr62FwEMVt7qbjMnAVgwpH6qJ8Sea8keiApXPTexD0PX7MFodKYFSza/8ek6tUN/NLRvGvfX4kf7dkxm3HkUUDyUAwge7+9RyZgJ3VJOfjB4Uo/UEKWDqbfY+F3Hbo2Yue7Tn44VFBu9RhsAAAIQF6ks/QeW2R53XqdtompMW8+EvbW914SQMQPadW5dz5mHHgX8ZePhx2d9l5OvFpflE6JU37wxaOyAJqzrIZNZJJFECHiwqk8R0joldPPrvb9+ukNihEKcyEHEIo3p+YXbps3fcvxirm9Uo2MjFOKTy8K5sx+IImRa54QQmWfGbj3wpEol9L8n9lEppDX+pt21PHkh68nZy05euMmXpxNJeIhs8ay+s5/sHKyUusQAzvER9EhfM0VIUoTipSGN/57du1PDiAoBuVZv+WXrpb7//vXP3Ve1BotvJtooiooOc/Ca3dghQwg0j1dM7BDpqfPdA/eaENK5Tb12zVKc/NYR8WzGnSde+2HDztO8IHaDqOfHtVsxf3BEiAt6HWarw2KyWjqC9nxjr+Yx61/p+f7ENjGhDmVOQcCzV/PHvLL+lUW7b/lWCCsiRCaXlSaaESBP684WGRlDfTk2LchDhgc8wh4AUMgk/31qoFLurP4iIhSVGF776I9lf+w3mMr7oyUs3aNd8qoFQ5vUC3fy+SjN95S16NeCPgQgLS7486ntN8/u2So5lHak8N0C3Werj4+Z9efJy3kmN3fpuX9hcZEqcQ49V8e5cWwNaBreIk7pwXSqZ9hDCGnXPGXckPbO2wwE0OpNC77aNOezP3UGs3jOsFOL+LUfje7fObVmPxrBaPZAvocASBjqhcGNt8/t81Tv+uJ2AATgBdx2+OZjr2344MfDJVX0q3sXBGIjlfdknAEAc3UWVy+CpshzDyeopJ6MKjz2WjRFHh/RJSJM6ZLXYrVxv285/sI7P2XczCurWBFCYiKUn7/Sb8LAJgoZW83roWNvIQCUNc46CQLA0tTDTaP/mPnw+xPbxIXKGZHNEQS8cL3w5U92Tpq76crNYq8kcpy7zJTYYHFX6121s9I+ZZjYPqZ7g1rVJe6Hx+SSCCFN6scN6t7il7+OcK4IyfC8sGXfxatZBcsWPtUgOZKiSuuc0WGKj17q3ax+5PzvDlqsfFVPvNlaob/HhWu2J3IWjGs1tktKqJKt0PJm44Rv157+6rdTBWqjf8UeCEB8lJIAlF1gros9qXEhkrkDkz2ub+RJO0bT1KynB8ZFhbjKb0S8lpU/4l+LN+06w4lqQ1IJ88yYNl++2i8lLriq17TaHAJX2onMkx1KKTOqQ+L2N/s+069hqMrBY+N4Yd/pO2Nnb5z/3cF8f+uEAAAQiIsMEt+Bu2qL84lmisCYVlEJYVKPl3E8nFuLjgh+7vE+jIvHBwAggFpn/O/7a5b8vN3m0B9NRvdO+/HtwQlRqkr9aKNoHRkpk9GoFoRAXKj8lxe7LX+uc8vkEMdEDhRpTC9/smvKm3/vO3VbCAydPUIgLkpZ5jVzAhbqXeholrHUzL6J3lCn8TB7CCEDujevlxDpxvGKCHqjZeH32+d8uq7EsT+6dVr0tq/G9euUen86kXNs7mXp6lZWUYREBUtfGNT41IdDBrWOUzgkclCrt6zfc3Xky+t+/eeSRm/xVGdF7aGQsnJp+fqfu+qqD/L7wNJk/pB6iaGuZdGchOdrivHRodPH9aScki+qBDwv/LTx8ISZS3MKxPloEhupWjp34ISBTSv0R4s1NIBUaXsIAE2RHk2jdr3d/72JbSKDHDYRCwLmFhmfXrDluYXbLmYWBtraL4WMlUnLkz231C4EXC3iVRPaR9PeaXvyPHsoiowd0qFj63puk53nhTOXbz3x2g9Hz94QV8RClNLPZvWd+3QXlVzUH40g9ksqPTQJgQaxQe9NaLPuvw83iQuqUAsr1pi+XHOy69RVO45mmS3+XBhVFRQyRlbWC4Vwu8SM6JTbQ1PwePvoSJW3ZI280s/AsvTzk/rIZS5Pl5UBEc5fyX7itWV//HNS3CtDEfLso21/fW94TISy9HEi5QJQBIChCOM4P8XS1Phuqdvn9H5pSOMgucMl8QLuPn6r/3O/vbfskEbvmck6b0AhZ2WS0ugYAXLVzjo9jaIU07rEeW8m3CsCxxQhnVrXb9s0+dCp6zy6eQogokZnmvPp2qIS/YThHYOVMjspJCzduVXCj28Pnv1FerHWPLp3I2mZpgAh0/s1TI1S/rjnRvrFfABoVz/85SGNR7ZPZBxtNy/gtdslKzad/3nLBb2xhulxv8N+ct37F2aVmO4ToavsryT0Z2Oc1XFyD8R7mdMzl28Nm/6F1VarBkoAYBj60YEPvT/rEfFgPCKUaE1qnTk5LuT+lLTWZHvvzwuhSsn0vg0rCFYgIi/Ar/9cWrj8UE5hAETjTqDXQ0k//2+4XVdPQBz57YWtl4qq/94Igf6Nw9ZMa66SelGOwovi6i3TksYN6fDLpiN87WYeOY5fs/lYfpF23gsjG6XGUPfkf8ND5OEh8kr/JFjOvj+xDSBUuHE8Lxy/lPfFrye2HLyBzjy/gYFglbQsh87xWGS01ej0sBSZ0TPRq4YHvOT3lL40RSYO7xweqqz5V2sCIu45kjHt9R+vZxXyzgVE4swsACCC1ca/9e2B8a9v2HrwRq1Gq3wLQiAqTFH2WfRWwVKTYhhF4NG2UX0bh3l7wMS7Ewgt0xIGdGvmkW4SAfH6rfwRzy7esPOUS6chItg4fmP61UHP/7507WmN3hIYKUDnQRKigsoeBYMTXYWxwdLXB9R2XsIZeHctCMPSc58f8c/+C0VqQ+0fdkQoVhtmLfzNYLJOGtHZmXuDADkF2mcXbj9+Mc9ksT0o9kYMAhAVJi/7qEYrb7FVxx5CYEjz8PqRMh8MtnnX9hCAUJX8P5P6MJ5rNzZZbHqDs03EPC88OW/r/tN3jeYHkjoA9iKXqizRrLMIpmrZE65gX+iV5BstEa+/ByFkZL+HYiNDPTjtEBEW7OS0MSL4d2N87WGf5CqTZDRYuepPrrcG1WsU5QvDAz5hD8RHBf17fE+3RiYqA0KxWu9kgZkiEBmqYO6tN38QQShyrzUMoHQOsHL2EIAWcUpPzUs4A1/YN0LIlNFd2jVP8UgIgAAHT16/f2lDpaAo6vu3Bn3+Sr/U+GCGpijqwWNRsEKiFG1QKDZwVbVPEUImd4qJVLI+E1DzkdqNhGWeGdtTLvOAfg8i7jtxNbdA40ylhxAIC5KNG9B073cTv3ljwLDuDYKVNc9+BBTio4LEOdIcja3Sj00AWsYrnuoc68sVd77TSurVqXFavViPPPtmi+23LcecTxMTAiqFZHSftG/nDjy4fNL0Ma2lEtpLZWePIzmuvC8MAXJ0lfekSlnqw1ENg+XVLYL0OHzHHqVcMm/GMIXM2bmLaoAIv2w6UlhS5YZvROAFgeMd2mAoQmQSJi5C9d7zPQ+vmPzGtC4dW8TJpUyAn2ZxESpRiIA5Guv9n5oA9GwY2i5J5eMnwnfsIYS0b1l/VP+2nviyUBBQKmUq5Y6AaLXZZr37wyv/W15Youd48dBY6cRWalzIS4+3/+OjUb+8N7xN42iGCVyXKC5KVRZwIUKutpLmHooiz/dMCpb5Wuncp0uEaYpMHtl5c/pZ8Si7GyCEDOvdSiWXijoDS5Ox+YWa4+euLFuzfc/hc4jC6g27RvTvPKJ/p27tm4eGKMX0oAhRySW9Hkp+uG3SwTN3/9x1ZcfRm3fyA27tfFK0w3aBPJ31fn/v0TbRfdKCfa907lP2EEJaNUnq27nZ+h0nXZq7qACaoiYOL9e94wVhxLR3dAaj3mjWaA0ms9Vqs6GACGC1ceu2Hvhr55HYqPD/PDl67NAuCpmkwhoNmiLd2yR0bhmvM1p/33550S/HC9UmPmDKGbEi2yMgZmsqSqVGqtg5XpiXcAb0vHnzfPl+FCFtmyVv3HlGb3R5Iqn0FSgyfWyP0f3b2Wd3EHHP4XNfrfgrr6CkRKM3W6wc7zCkaxdK1mgNOw+c3Lj9iFprlEjY6MhQAuVJIEIITRG5lGnXJGb8wCYpcSEAkF9sdLIi6z3IpcyTw1vGRpa2wuVoLJ+n3xVLr1AExraLmdA+WuIP+vhBnzYuKuTJMV3dNrPx0aEzJvel7v29IOBvf+2zcTUM6tkVpa/dzP7om9/HTH939PR3z1zM5DhecKy2UxSJClM+Obzl8vlD0r+bMKJnI4amaMpvyUa5jJGKhiHullgqfEqGJm8MSKx2ZNKL8AN7CCEj+rZJjA13629hVL92wUGlVUNEyMi8u2XPCeedFQHRaDIfPH5xyJNvjfn3h6vW7c4pUFdwwggBmYSplxD6w1uD9/3w+MxJHZo3iPRYrtwVKKSsWKM5s8TBZWYo8vagBskRcn+R2z/a2MlxEU8/2sWNlAtNUeOHdWLKPR7+pbe/1Rvc8cEtVtuBY2defW/Zw4/MmrfoZ43OdL/YICGQlhz+2hOdNn/+6PL5Q9KSw9xQGHIbxN6TKrY9xZx463qjaPmE9hF+DBb9wx6KIpNH92jX3FnRFjsIIc9P6peaEF72V3sOnbtw9Zb7opmINo4r0ei/WvF3+6EzXvnfDzsPnNHojBU1oGkqSCEZ3K1++ncTf5w3ZPzAZnGRSl9kGwnIZbRUUq7RfFdrKvuoFIHJHWLiQqR+zDP4bSeIREL/a3xPCetsbpQQSIoN+9f4HjRVes2CIPy6Md1q9cCeGEEQitS6FX/smPzSR8Omztu044jFxvG8UDHZKGWGdm/w+St99yyd+OL4h4KVUpr2bp5IIZPIpOVOjXi7QGq47LkeCb7XxhfDb+yhCOnRvlGzBvFO3nxCyLDerYNVMnunByKcy7i1fd+pWjZNV4DFartwJevpVxf3GTd70bJNF6/dud8ZZ2gqOlwx9+muB36c9N5/Hn64baIbk9fOgQQrJWXbDnkBc3Wl4bqcpT4c3UDmu3po5fDnPqJgleKdl8Y4o5gJ9oVfo7rQohzPjLe/Fm/W9SAEAS9fv7Pw618HTpoz6cWPrmRmi1eP2WGXLX96VOtfF47Ys3RCz4eSJCztccXWqDB52UuarILFJthb/dsnB/dqFOqL5Z3VwqfZwgogBNo1TxzVv+3arSeqNyEURV6Y0jclIaJUchZx96Ez1zJzvDdPg4g8j0aTZVv6yf3HLvTq3GZo3/a9urSKDA2i7gXwBIBQRCZhmtYL/+PDUScu5f6978Y/hzMz76o53gMTGwQgIbp8l4PByps5AQFoQl7qnRDkzVEbJ+HnPYw0RT0+vFOQSlb9ryXHhT/12MNlj7Yg4G+b9lltLizWcxsCot5g/mvn4RlvLek+ZtaSn7ZYbRzPC2LiEkIYmurUIn7ev7rtWDLu05l9YiOVHmgnIuXsQQCjVbBwAiEwonn0kOYRgdAi4P8tnu2ap/Tv2qSa20wIDO/TJlhVOrqFCOcysramu5Dj8Qg4ji8q0b79ycq2g2fM+XjV/uMXzZaKDjtFkSCFZNKQ5sdWTVk6d9CoXo1CVLVqJ4oKVZTdGZ2FN9mESCX7yoAExvvzEs7Ai7OkTgIRNDpjt/ELi9SVd1wwNHVgzesp8RH2G2axcgMmzTmfkeXHK6coimXoZo2S33xhQtf2TRm6Eo9HQOR4LCwxfPrT8TXbL5vMNldLZzRF0peOa1o/mqIIIhy+qR357bmhLSKWjE+TBcbyXl/Xue4HIcCytNXGHTlz434/hhAyc+qAgd2b2/1lBNi279TKP3bYaj3gXBsgIs8LeYXqP7ce3HP4gs5gCg0JClHJCalYO1MppP06po7o2TAuUmUycwVqEwI4SXuKIq8+2UUhK52/zsgzbrlY/PmjjeJCpIFgeCAQbA8AIMLtnKKh0xcXlugd/QlIig3/Z9nM0GCF/eEWBGHaK1/8tfOw4NFAvZagKErCMhNG9pr5zJiYiGCKIuQ++SJEtHLC8Yu5c7/aa98TWGNrdpBCcm3DdIahKEIQ4Y/ThbdLTM/39IoKmHvwv+0B+wpqlYKiqH3Hr4rZQ1HkiTHd+3RpWmp4EI6fu/7Bkt8snsgQehCIyPH86QvXf9mw++KVWxRFxcdGSFiH0qXds06ODZ40uFnX1okKOVNQbNIZrdW8bL34kGkjW5XVaG8Wmfo1Dgvxbe9p9QgI22MHx/GDn150/srdsgSdTMoeWDMnIbpUbNZq4/pOfOPytdt+b5yoBhQhNE1FRYTOfm7cY0O7MgxdlhwvAyIKAurN3E+bL3y66qjWYL2/nYgQ6N0+ec3CkWVaaWoTHyLzf5QuRkDYHjsIIXKZZNeRy3YJZpqiZj09uG+XxhRFAYCAuGP/2RW/b7dxHly453kggCCgzmDatu/Euq0H8wrVcpk0IixYHL4TQiiKyCR0+6axk4Y0a5QcjgB5xQZeVKYlhHRplTCka/0yV0rGBkKQ7oCAcN3tIIQM6tEyITbUfrdSEyMnjegkrmr9vH6PxeqLHI9HwPPC9aycxcs2jHhq/qSXPjl/NdtWocUagKJIZKhi4uBmq94Zlr50wuBuDUqHPQghBBLsC7kCjDFiBJDtAQAJSzeuF7th52lewCmju/bp3MTOHkQ8curah0t+4wLb8FQKXhAyb+f+sn7noZOXTBYuLiZCpXBQMCUAFEXCgmUjezUa1r1hZJhCrTUXacxj+qS1aRwdcAZHhADye+zgeWHGgl+2pJ/bt/qNhJhSj8dssfWd8Prl63cC7Wpdgv3AkkrYaeMGvTB1eFiwkrqvaxHRrm6Gu45lJUWrmtaPCmDyBB57EPHI2cxrN/MmDOtUFmpt3n38X69/bjR5pSbqe1AUFRcd1qdr68G9O3bv0FQuk1TmWQMCBrLhgQBkD5Qm07BszZ8g4JOzFm/dfTSgcjy1BQEAoCkqOSH6/dlTe3VqQVUQon4QEIjsqYDCYt2cj5abzNWlRh5sEGieljK0T8dmjZIeLAI9AOxBtKdlA/063QYBAgQoUtEHCnw8AOypQ8AigPI9dXjgUMeeOriPOvbUwX3UsacO7qOOPXVwH3XsqYP7qGNPHdxHHXvq4D7q2FMH91HHnjq4jzr21MF9/D+3wZH1OZvePQAAAABJRU5ErkJggg==;base64,iVBORw0KGgoAAAANSUhEUgAAAMgAAADICAMAAACahl6sAAAAVFBMVEX///9ZtNlgt9vM6POs2uxmutz7/f603e7y+fyc0uh4wuBrvN1huNvr9vr3+/1atdm84fDY7faHyeOY0Ofi8vjJ5vORzeak1uqAxuLd8PfT6/Xm8/nDWGQYAAAHi0lEQVR4nO2dZ4ODKBCGvdhLFFuM+v//55nNlhkUGRExx/l+3Y36yDSQ4jiXLl26dOnSpUuXLl269FKQR2PpstDr4m91Xsjccozy4OxnoyqImjaMqyTNbv9wumVpUsVh20SfThNEQ1hPCDwB1oRTh8PnwuQ9qxMJA6BJatbnZz/zXHnpVWlBpXirSCuv/CiWoAkrfxvEj/wqHD/FxiK33toWuF1qNzqbYdKdPcl+IVL2ZPezMcJkL8VbSXgmyoSxw6awivNQIo0Y3yhn+ErePuXPlmV++i0/I7jSszUejft6VoAgAj95xB5rh765f6nph5Z58SPxV3ludW8UIwpT8cP4UwHiNovV4VRLNu5UxKwkndSgfQVlJWyJJGa9rIoKop7F4mKmKg1lSGFzZE/PpZaCQeR6ogRkqFGax/Ltk27YeP9o6ARZ6NEc8+xAQbt4b79idwWDCO5suUhL2oPNK/eW7pvWg3LYzId6yVJ979BAfK8XUqAf7/POoIwX3k5RH5jom4Vo5df7g0xQ1gso1WGOUs7d41apGxVUPlTzBJuUOi49lzu35YRps+SczV9T6uq6OlDQzjiyeNR5hzGe5ZVUf/AK2MyKE90VXj4P7T7TTDLnyGqtzfHWWPONopuk5TlSfd4BlTPegP1W5/Vnfv4cdF4eauC7OTo9vuQ4iscBZvWj8cEl3VRbFG44H7x1h1anUcellERTZrxz+TwLD+6P5iHn8pWWaiWvOe/THRHnmsXIWsOrC7zCNMecpPD235QLvEY45iT7gzDn6IY45iR7HT7C/drMFMeLBHv8Y1+kDNHFbqHBLwBBiKNwuOdiOBMWndFxwLxDYWZPXoxwBiG0buTu1+9dOLuu1I0LG9aTUJe4/m2v/L/aasR1l7Jx9ciwUkqd6K6OCJN0A0XigJ9AcVwYp/SMUX6jGcTBoUsxwbe37RfRDYJf5k0pLUbIQBNa4a4bxBlRQn6q+Dvy9Iz4LrSDOC0yLgV/v6NXERMzoX6QIIZ/TLYX9CHMRkTDOgIEG1exuUlQg9xIEesLZP/nUR7EYfDlbG4S1CD0nDp6qnoKQXJYX2xtEtQg/mFDJkCeEGQqF9SbhMHGrk3UvCsgAUomZDN/CeUQ/6BBcawVEKeETbIpl7gweFND7z6tgaAQnG0YsENtqW98bFVrILhftMHSR8Xf7dEqCH6z9GFOGHuNhCxHAuIMwEvoERgF7spQ93YdRO2RUJDYFO12aB0E5QNyGPXAjxSqNDVJQFCG9miXRM3YmRoAkoAE3Xbbgl31zJCrS0GcAaQ2YuedgZil1CVTkgwEFhsFyXFRzCZaowbJQJDnknJbBNxKVA78jcNp+wYnBYFlU0IxlIHwg99xuEJbk0lB0AumuC4cdIgF//PXozUH4sDKkZDckYuInOoUEJgTCU4CW9AXhblTQHpQcBCcpEkJ/34KCHzFqfwDFhwQEzbgKSDQ6AkDhtDXhS51Cgjt0X4Ee5XiTuU5IDCTSPvfsGL0hYZ4DkgDvF1aN0KPEoeGc0Boz/Yt2F1/CKnPAcnBN0Vpx72Edij8r3NAYG7PZL1EOJwufsh1kCBfNeB8cbkuBQQUwCv/9RasA8RV/wpI0IeP6tGJpgPnQzf9OexnLBQQ2sO9BWL1StIRg9y7d2jJHovlTf94m67f8WMBFBCYrGWJBLTeSq0sBBn/ovfSPGowl7vivJUCAnsYMucEfXxhySgGgXFl4TMX+vjExUQKCCwbOwkICAwrhZkIBH/R5kdg0EgI/62ZAgILWnFInYOIh7QEIDmePMJf4I4nq+ImoYDcTYFwT8o72YBnYOHrfxRIz82p5EIkw3/FPniBHAFijWl9qrP/p8OvNQnRmhLFmqLRmjLemo6VNV1dawYfrBkOsmaAzpohU2sGse35rGDNhx5rPr1Z8zHUms/TtAkDB4AU8xU9SJsnDFCmcBwAMs7XWHH33DqFgzKp5gAQqTZPqqFMczoBZPs0J8rEsxNAFCaeEaYCmgdRmQpImJxpHkRlciZhuqx5EKXpsvLZwsZBFOdUS6eUGwdRm1KOKuDFmG0aRHWSv3TZhWkQ1WUX0oUwhkGUF8JIlyYZBlFfmiRbLGYWZMdiMdnyPbMgw47le5IFlX8gT+UVlOTYE+1ZUClZ4qphSW5B9tl9S1zXFx0fsLZYqJ2LjteXgRsE2b0MfHVhvkGQ3QvzV7dKMAeiYauEtc0rjIHo2LxibTsRYyBathNZ2eDFFIieDV5WttzRu7OOULq23BFvgqR1ryPx7bVtgmTNtlT2bBRmz9Zt1mymZ8/2hvZsOGnNFqD2bMpqzza59mxcbM9W0vZs7m3PduvWbIBvz5EEjjWHRDjHHtvhGjy2w56DVOw52saew4bsOf7JseZALseeI9LsObTOseYYwZcsOdjRseeoTceaw09fsuQ42m8UPRznYnyh2HFk80uWHKL9UjBacaz5l+w4aP6tvGe1uPDglSU16z+Q4q0gGqYCJJXQZOlUxAzU8vI0BVHThnE14cyKmNuEUMVh23w8xK+m6nAsXRZ6XfytzguZW46LteSlS5cuXbp06dKlS5f+l/oXnPyENfqaf4oAAAAASUVORK5CYII=;" vertex="1" parent="1">
          <mxGeometry x="710.89" y="200" width="38" height="40" as="geometry" />
        </mxCell>
        <mxCell id="hEISInPQRgZ5dUjzCxsK-2" value="" style="shape=image;imageAspect=0;aspect=fixed;verticalLabelPosition=bottom;verticalAlign=top;image=data:image/png,iVBORw0KGgoAAAANSUhEUgAAAMgAAADICAMAAACahl6sAAAAVFBMVEX///9ZtNlgt9vM6POs2uxmutz7/f603e7y+fyc0uh4wuBrvN1huNvr9vr3+/1atdm84fDY7faHyeOY0Ofi8vjJ5vORzeak1uqAxuLd8PfT6/Xm8/nDWGQYAAAHi0lEQVR4nO2dZ4ODKBCGvdhLFFuM+v//55nNlhkUGRExx/l+3Y36yDSQ4jiXLl26dOnSpUuXLl269FKQR2PpstDr4m91Xsjccozy4OxnoyqImjaMqyTNbv9wumVpUsVh20SfThNEQ1hPCDwB1oRTh8PnwuQ9qxMJA6BJatbnZz/zXHnpVWlBpXirSCuv/CiWoAkrfxvEj/wqHD/FxiK33toWuF1qNzqbYdKdPcl+IVL2ZPezMcJkL8VbSXgmyoSxw6awivNQIo0Y3yhn+ErePuXPlmV++i0/I7jSszUejft6VoAgAj95xB5rh765f6nph5Z58SPxV3ludW8UIwpT8cP4UwHiNovV4VRLNu5UxKwkndSgfQVlJWyJJGa9rIoKop7F4mKmKg1lSGFzZE/PpZaCQeR6ogRkqFGax/Ltk27YeP9o6ARZ6NEc8+xAQbt4b79idwWDCO5suUhL2oPNK/eW7pvWg3LYzId6yVJ979BAfK8XUqAf7/POoIwX3k5RH5jom4Vo5df7g0xQ1gso1WGOUs7d41apGxVUPlTzBJuUOi49lzu35YRps+SczV9T6uq6OlDQzjiyeNR5hzGe5ZVUf/AK2MyKE90VXj4P7T7TTDLnyGqtzfHWWPONopuk5TlSfd4BlTPegP1W5/Vnfv4cdF4eauC7OTo9vuQ4iscBZvWj8cEl3VRbFG44H7x1h1anUcellERTZrxz+TwLD+6P5iHn8pWWaiWvOe/THRHnmsXIWsOrC7zCNMecpPD235QLvEY45iT7gzDn6IY45iR7HT7C/drMFMeLBHv8Y1+kDNHFbqHBLwBBiKNwuOdiOBMWndFxwLxDYWZPXoxwBiG0buTu1+9dOLuu1I0LG9aTUJe4/m2v/L/aasR1l7Jx9ciwUkqd6K6OCJN0A0XigJ9AcVwYp/SMUX6jGcTBoUsxwbe37RfRDYJf5k0pLUbIQBNa4a4bxBlRQn6q+Dvy9Iz4LrSDOC0yLgV/v6NXERMzoX6QIIZ/TLYX9CHMRkTDOgIEG1exuUlQg9xIEesLZP/nUR7EYfDlbG4S1CD0nDp6qnoKQXJYX2xtEtQg/mFDJkCeEGQqF9SbhMHGrk3UvCsgAUomZDN/CeUQ/6BBcawVEKeETbIpl7gweFND7z6tgaAQnG0YsENtqW98bFVrILhftMHSR8Xf7dEqCH6z9GFOGHuNhCxHAuIMwEvoERgF7spQ93YdRO2RUJDYFO12aB0E5QNyGPXAjxSqNDVJQFCG9miXRM3YmRoAkoAE3Xbbgl31zJCrS0GcAaQ2YuedgZil1CVTkgwEFhsFyXFRzCZaowbJQJDnknJbBNxKVA78jcNp+wYnBYFlU0IxlIHwg99xuEJbk0lB0AumuC4cdIgF//PXozUH4sDKkZDckYuInOoUEJgTCU4CW9AXhblTQHpQcBCcpEkJ/34KCHzFqfwDFhwQEzbgKSDQ6AkDhtDXhS51Cgjt0X4Ee5XiTuU5IDCTSPvfsGL0hYZ4DkgDvF1aN0KPEoeGc0Boz/Yt2F1/CKnPAcnBN0Vpx72Edij8r3NAYG7PZL1EOJwufsh1kCBfNeB8cbkuBQQUwCv/9RasA8RV/wpI0IeP6tGJpgPnQzf9OexnLBQQ2sO9BWL1StIRg9y7d2jJHovlTf94m67f8WMBFBCYrGWJBLTeSq0sBBn/ovfSPGowl7vivJUCAnsYMucEfXxhySgGgXFl4TMX+vjExUQKCCwbOwkICAwrhZkIBH/R5kdg0EgI/62ZAgILWnFInYOIh7QEIDmePMJf4I4nq+ImoYDcTYFwT8o72YBnYOHrfxRIz82p5EIkw3/FPniBHAFijWl9qrP/p8OvNQnRmhLFmqLRmjLemo6VNV1dawYfrBkOsmaAzpohU2sGse35rGDNhx5rPr1Z8zHUms/TtAkDB4AU8xU9SJsnDFCmcBwAMs7XWHH33DqFgzKp5gAQqTZPqqFMczoBZPs0J8rEsxNAFCaeEaYCmgdRmQpImJxpHkRlciZhuqx5EKXpsvLZwsZBFOdUS6eUGwdRm1KOKuDFmG0aRHWSv3TZhWkQ1WUX0oUwhkGUF8JIlyYZBlFfmiRbLGYWZMdiMdnyPbMgw47le5IFlX8gT+UVlOTYE+1ZUClZ4qphSW5B9tl9S1zXFx0fsLZYqJ2LjteXgRsE2b0MfHVhvkGQ3QvzV7dKMAeiYauEtc0rjIHo2LxibTsRYyBathNZ2eDFFIieDV5WttzRu7OOULq23BFvgqR1ryPx7bVtgmTNtlT2bBRmz9Zt1mymZ8/2hvZsOGnNFqD2bMpqzza59mxcbM9W0vZs7m3PduvWbIBvz5EEjjWHRDjHHtvhGjy2w56DVOw52saew4bsOf7JseZALseeI9LsObTOseYYwZcsOdjRseeoTceaw09fsuQ42m8UPRznYnyh2HFk80uWHKL9UjBacaz5l+w4aP6tvGe1uPDglSU16z+Q4q0gGqYCJJXQZOlUxAzU8vI0BVHThnE14cyKmNuEUMVh23w8xK+m6nAsXRZ6XfytzguZW46LteSlS5cuXbp06dKlS5f+l/oXnPyENfqaf4oAAAAASUVORK5CYII=;" vertex="1" parent="1">
          <mxGeometry x="212.62" y="195" width="50" height="50" as="geometry" />
        </mxCell>
        <mxCell id="hEISInPQRgZ5dUjzCxsK-3" value="" style="shape=image;imageAspect=0;aspect=fixed;verticalLabelPosition=bottom;verticalAlign=top;image=data:image/png,iVBORw0KGgoAAAANSUhEUgAAAL8AAAC+CAIAAADr1En0AAAAA3NCSVQICAjb4U/gAAAAX3pUWHRSYXcgcHJvZmlsZSB0eXBlIEFQUDEAAAiZ40pPzUstykxWKCjKT8vMSeVSAANjEy4TSxNLo0QDAwMLAwgwNDAwNgSSRkC2OVQo0QAFmJibpQGhuVmymSmIzwUAT7oVaBst2IwAACAASURBVHic7X13fBTl9v55p2xP7z200Kt0kN47qDQBBZV79YqFi4qCCuJV7GBDUZGiIipIUUB66L230EIo6WV7nZnz+2NDMhtSdjfb+P7yfO4fF5Pszs4+c95Tn0MQEepQB7dA+fsC6vAAo449dXAfdeypg/uoY08d3Ecde+rgPurYUwf3UceeOriPOvbUwX3UsacO7qOOPXVwH3XsqYP7qGNPHdxHHXvq4D4Yf1+AU/j/pw2A+PsCXMIDwJ47Ot7C+fsifAI5A7EqmnpwGPQAsGdHpnXNRTP/f7cPiRBQMGRYQ+n4ZrIHiDoAQAKwO8zKI0MRQkrNuM6K/96iydULAXehtQNFIERKtY1lOsSxD8WyYXKKAiAPFHsCzvYICBsuaptEy5pFS2kCAKBiSZ8Uya8Xzfz/CfoQAhSAgiWPNpENbyQNklAUVYm7gwCAgU6mgGOPhRc+2VckY2Dz1FQFSwEAIdA9SbLhqkVvfeDpEyajOsWznRLYh2IZlaTKgNfK48lbhtRwaWwI68vLcxWBxR4e8dsjxcfvmgBgb6ZhQKMgux/QMJx5KJbde9saeMesU6AJhMioSS1kQxpIaYqQKk4oAYHj8Z+L6i925BVquYWPJcYEhway+Qks9twosn66r0gQEABWnVT3qKe0mx+KwDNt5CdzbfoHhz8EgCIQraQ6xLEd49lW0ayCLXfmxBAQjFb+WKb+wFX9gWv6HLWNRyQAuRobBnYMH0DsERDWnNPm6Dg7P7Zc0RcZeHkoRQAIQIyK7pbIbssMdPrY7YqdN483k/VMkcqYykmDCAKi0Sr8fVb9XXpBkZ7jURTDEMjV2hARSan1wcBzgwKIPXc0tu+OFvP3Qiu1mX97e+53jyRSFLE/x71TpHuybJbAjt3jg+guCWzHeLZFFCNjqvy2tWb+8HX93gzdoev6fK2t0k+Ur+HsvjMQQIALhbbG4QxLBxCDAoU9AsLLf+Vka7my+4gIP53Rvtjd0jJWZn9228Yy8UHUTU3A0YcAMBTEB9HPtJF3jJfYo6pKjxxeQINF+PVo0apDRVpTqa2p/NMg5OjM4n9mFPFKlkoJCaB0YkCwBxEOZhl3XTdU4AUv4IoTJR8MjiU0IQA0RWa0V8zerbcERuxOAGgKUkOYzglM+zi2SQQjTlOJISCWGPn9V3UHruiO3TQUG3gBa0i0IUC+WkCR4yNn4OcLplc7KyUBY34Cgj084vfHS7T3nUmIsPGSbk6f6DA5bf9WWkazrWOY4zk2P6YO7Z4NQ5G0cHpSS1mbaJahyP32AAEQgRdQZ+ZXHipcfbjIbENBcMFuFug5XkDG/tIEwuTU/tu2Pilc5wQ2QMyP/9mDAAduGn8/q7n/viLAjRLrshPql7uFU4QAAEWgZ7LkdJ7NyvvhUu0X0CCM6Z7EdohjG4YxTNU9Cnla2/6r2n0Z+qOZBr1bmU5EKNBZE8JkdqooWIqhYO1lU4soOlgaEM0R/mePwSLM2JRj4iq3Jojw9va8KW1Do5W0PeLolsh+f5pYfXt4EQISijSLZJ5pI28YzlAEKs3ZIADHY67Wtnx/wV9n1GYbIiKimz0CiJiv4xPCSk8vCQ0MBRcK+UtFXMc4SSDEX35mDyJsuqy7UVxdHG7hhFWnSl7qFsEQAgBBEmpqa/nio0Yf8IcQYChoHsl2SWDaxrCpoQxFoJJDCkFAzNFYd13SHbquP33LaLQKLh1SVSFPaytzfeQMkdJEbxWWnjI1jWCCJJTfCeRn9tgEXHSg0GQTqvkdAWHtee0zHcJCZDQAEAKD6sv+zLB4L/giABQFUpo8FMs+2UqWGMwwpHJLgwg2XsjX2L7anb/tgoYXwCOkKUOhjiu7JAVLJDRBgCwNv+GKZWJzud+9Z3+yBwG+OVx0Ottcowt8Ktu0+4ZhZNNg+1dIEehfT/LDaZM3nB8JTVpFM10S2PZxbEIQVdUDLiDcLLbsuajdf1V35rbJwlX3ALgHBMjRWsrujYwGCQ0EQEDYedM6sL40SuFn8+M39iDArRLbh3uLqnB4HGDlcObfuQMbqWQMRUhp3fTn82Yj57EGE5qAjCE9kiUTmsvilLT9XSpNEFs44Vq+5Zs9eQev6XkBBLf9GidQqCsnpYwhZbHWbS2/86blsabyqvORvoDf2CMg/nxGXWDgnPn6EeC22rbuvHZCm1B74SJBRQ9qIF1/pbZtG4SAnCHtYtguiWzraCZGSVOVHlIIPGJGrik9Q3fomv5yrtliE3yQNSgxlAftLE1UktIrQ4A1l8xdEiUpwbQfzY9/2IMAegv/2b5CzmkvgUdcfVYzpkVwmfl5prV8102ruuZzrxIQAgwBGUP6pkomtpCHSim6CtIIiBYOM/LMX+7MO3nTwAvou1QTgskqWGwoYcD+zITJCAVgN0c6C66+YJrVSenH2oV/2GPjccbG3CKTC24vIqTfMGQUWFvGSWkgAMAypE8quz7D5cyzSkI6xLGdE9h2MWyEosrECS/g+bumHRc1R64bLuea/JKfNFkFCycEof0TQ7SCBlJa2kCAEzlcloZvEO6348s/7Dl227Q5Q+eqy2KwCq9uzd00JYVmAAAIQI8k6eZrVhPn1AsxFIRIqUENpGPSpMEyqqomG15Ak004mWX8aldeRq7ZHkP5pbKGACabYBF9uhiVA9dLzMLPF8xzuilpP3nPfmAPj/DD8RK12eUgBQF2XzccyDL0qq+yu4+NI+m2seyhu9WliygCKgnpliix171DZRRVtTt86o4x/ZL2aKbhZqGF4314SFUBs02wckJZsStW5ZBsQoADd6zHc6Qd41m/0MfX7EGA49mW1WfUvFvfDC/gL2e03VKUUoYAAEuR59rJz+bbrDxwIiNhtyssReQMPNZMNjpNxtKkKtLYjc2RTP3Xu/JvFFgEX3o2NcFsQ7HtiZQRQu4dXQAAwAvw2yVTiyhG6Y/ks6/ZozHzMzfdtbkbKSHA5gxdviE6KYQBAAIQp6IX9AwqNglZGm7PLdttDQ8AUQqqSyLbKZ5tHc3Kqn4sbTweuqHbdVF7NNNwu9p8t79gtAr2cof9lI1RVvSQEeBSIX+uwNYx3g+ld5+yR0DYc93gTHqwGuTrbZ/sK/h0aFxp7ZlAq2gGEBAkk1rA2gyTiqV6pkjkDKlqwIXjUWfhd17SfrM7v0DHlTbZBB51AIAXUG2wAcjt/5SxRM6CxTFJauHxqxPG1jGsnPG1+fEpe6yc8On+QrMz+cGqES6nH05ViG8TAQBS2kc8tokcofJEn4CgM/OHr+vTM7QnbhrztDa+piabQEC2przzkACEyyjNfUmuHL2w6Yr50SZy2reld9+xR0BYdkJ98JapNl8YIfDvThHD75UsKv2FCj8REDhe0JqFrefVKw8U5T8gpClDrsYmvtpIOZWp4StktxFhe6a1b6o0QuHTzh/fseeW2rpof6F7znIZIhXMvzqGOZkfQwCzld9xWZd+SXMyy1Sgq7x9OMBRoCsf4icAdn7c/0GyNPy2G5bxzeW+PL18xB5E+POC9maJrTYvQgg81zksWuVUcsxoEVYcKvhxf6Gldk02fkeO1sGdD5dXfjgJCCvPm/rUk0YrKJ/ZH1+ckwiQq7MtPlDkVE2rahCAMc2Dnbw1F3OMS/cUmKyCvbbwgFIHAHLVXPnlE4iQVW5cEMAmwC/nTTaPtohUD1+whxfwta152bpakgckNIkPZolzprlhlIz1ZwHRYyjUlzdxE4AIeZU3ABH237Hl6n1HH6+zBxFOZ5u3XNHXLtICACCkskpmFQhWMK8NiYsNCZQGcrfB8VBsKM8YylmKqfojqc3Cz+dNPuva9Tp7eMTvjhSVGGtreCgCbeJkMqdTGhSB0e3CN7zQaFDLUHnVegOBD0Qs0NnKzi45QyR0db+/K8t6Otfqm3S5d28rIhy6ZVx9TlvLxjuGImOah6wam6hgXagHUgTkLD1/VMKHjyW1SlTQlJOHXsChQCu2PaT6pDIirMuwGH0SX3qXPQabMOeffL21VicxQ5FJbUN+fDShfoTEjWNIzlK9GgcvfbLeYx3DgmQBNIjpJBAgV1Meq8oYkFZrexDgVJ7tWkltjb0z8CJ7EGDHNcPpnFqlB6UMmd0r+pMhsSqps987ImSXmMSEJQRUUmrOkIQvJqY83DjIX/0MbqPQYCvLb8oZUuMzZOXhqxMm0R95C15kj5XDz/YXGqzun1pylprXN/rNPpFh8vK8lNXGZxfqOb7yl+V4YfvZnLavbnnnj/OFOov49hEC7VKUi8envDIoNkzJUA+IL4QIeZryhKGMIWy1tseOm2puy3WLt70fet68ed54XQT4/rj6+6PFbs8axKiYz4bHPt0hXMKU+ys8L3yy6tjLn+4SBGzVKJqmSNnPBESzlf9gw8WZq07qzNz+ywV7LuQrZUxaXBB179cIAYoiLRIV3dOCrBxey7c8EHmgmBB2YItQ+6FLEbIny5pnqPm2FpuFHskSGe1Fb88r7EGAu1pu+rrsYqNzbX+OIABhcvqrkfHjWoVI7uVsEEFvsr7+5d6l607rjNa9p+6s3ZnR66GkyFCF/TfO39Z0fXPbltM5VpuAWHp+bTp+526xqUPDCBlbzjRCIELF9EgLahovP3/XpLd4fpjGs4gKYge1CJHcG3s+mcdlamoeRioxY4ySahReTYBfW3jFfCPCn+dK7mjciRsJgcZR0vWTkx9pGSz+3EazbeYnu37afMHGCYggCHgrV5tTaCjLw+aqTUV6K+/ooHMCLt9zo/e8Hd/uuMY5DurRFOnZOPj7J+s91SMyWB7QiUWTVTDfewwJQLTTpdCV50zZei9mfzzPHgQoMXHvpxe50QJGEUgJk6yZmNQtVSl2be/m68bM+nPd7iu8o7vD8eVJfGkVqWUEuJGv/+/Kk33m7zx3W8OJrooAxIVKnu8T89XjKWkxMol/h6OqhskqWETjtjHKquSBKkJrwT8zzJzX+ON59nA8vrktP8/13DJFoG9D1fZpqS1iZPS9RgtEvHGn+Jl3t568nHf/kC/nnFdlbz89fK1oxId73lh9OkdtLnslAkAR0jpJuWxavZkDYsKVXrTzbsOhN55ApMJZQ4kAB27bcg3e8p49zB4EOJNr3nBJ69L1EgCWJr3qq34em1g/vDwgFQQ8dSV/yAvrjp7PqSTIQrBy5ce/tBo1FPuvI94pMi7akjHyw/RTmSVG0SlHCITImcc7R/3+n0ZdG6pkruQkfQD7XE7ZP2NdGUAuMgurzpudn5tzCZ5mD8IPx0ry9K4NmBMCU9qF/vF4UqTo0UfEXceypi/Yml9irKoryIFSzt1RQcCTmcW95+94ecWJ3BKHKS1CICaI+XR88rujE+pFSgOHQGabYLnXImZv8Sn9f04AEdKzLKdyvJI89DB7TmabV5x0bV5CzlIvd49cMjI+VFbuuAgCbki/NnX+lht3NdXkvMQ/cslgGK38j7tvtH51yx+HswwWhzurkNADW4SueLr+0JahQbKA8KZtPGqMXJmHp5RQ1ehp3g9egPVXzBYv8MeT7NFZhNlbc13SZWJp8k7/6Hf6RzP30hIIYLXxX6w58cqi3UZTdelSBLBVlG5x4Z4KiGqj9Zlvj07+8tDxG0WcaK6VEAhVMAvGJH48Lql9qpIJgHMsW1sulE8AolzpQBUAzuRzGcW173KoCI+xR0A4kGU8dtvopDgAIRCuoFeNTXyxa4T8XhsFIlgs3JdrTrz/4+EijbnGw9omsnJSZ1KwjkAEg4XbdPzOsIXp3+64Wqy3ljnmdlesa8OgryenTn04MlTJ+LG+gQC5ak489xFZRYdhVTBx+Pkxo9nT5sdj7OEEfH9Pgd65FA8BiFQyP4xJGNM8WBxoq3Xm2V/s+XDlUYuVd6ZII2YqcVdWHQGK9JaZK0+O+WTvtnO5vNgIAchZakbfmK8npfRpWrWYj/dR4NhbFypz+UKytPy2GxbP0scz7BEQVpxUH8gyOHlxDSMk26bVG9EsmBE1G6h1ljlf7/15yyWLs5KWaBNFIjXGXNWDF/BgRsGYj/fO/fVMrmORlSKkRYLi47HJ80clxIf6Y2YTIU9nRSjvho+Uu5xYQIR/blg0Hk2se4Y9d7W2Lw8WCULN7cOEQLt42erxSS1iJJQoqZN5Vz11/ubft2fwVZQ/KwVfIeaq3feKCFZO+Gzz5WEf7Plp302bKDlNCNAUGd46dMmU1Mc7R6ikvus8B7uImNomvrmRVUt/VIMban5nptWDXd4eYI+AsCVDd7mg5oojRaB7ivKvJ1PaJMjLQnNBwDv5+mff37b35G3OxYEdG+9gezzyhfICns1SP/PtkQmfH7yaY18eUfojmiL1o6SvDIp7f2xCaqRU4s0CZAXkacpT93YhHzfemhPgx7Om/Iqi6u7DA+wpMPIfpBfWWJegCDzWMmTVuMRYVfk8FiIcPZ899rUNRy/kuKzFhcALXilwIgAv4IZjt4d9sGfhhotak8M8Hk2R3mmhy6bV+3fvaJd6HWsDTgB1Wb8ggSBpdd3N1cDM49rLHgvea8seXsB3d+bdUtfQCMlSZFLb0KWjE5JDykUJeF44cj576vwtV7KK3fg4WFrnKv1LN2KuGl//Zr5+wdpzoz/ee/a22mJz8MYiVOzTPaJXP9vwoVSFDwpkCJCnFXX50ISl3TmoESH9lrXI2ci4BtSKPYhwqcCy7oK2mtCaAChYak6f6EXD4oKk5U8qL+DaXVemvPV3fonR7TQ6xzl8ox7/Du1GaN/l/AHv7np99ZlCnbXsaLWPzdeLlC4anzJneEJCWLkb5w0QwAJtucanWAHTVRSZhOVnPTN3Ubs4BfH7YyXVFETtLaGze0W91jNSnEo2WbjV/1x86eOdhWpTbZ4CTtQ+JGMoL+2vQoQineXLrVc6z9m641yuwcKLi6yhCmZ027Afn6r3cFqQwmveNCIU6G1lb6pgQUK5+bggwK6b1vP5Htj14T57EOHEXdPyEyXVXESkgvl6ZNzsnpEyUX+gIOBnPx+b/Xm6yVJbwVy+QsLHmxAQbxYYxi86MH3p0Wu5ekF06RSB+BDJZ+NT3n8ksUGsO637zqBQV6E/1f1nhUfYcNVS+1VD7rPHaBPe2pavtVR57ESrmK9Hxk1oHVrmJCOA1mB98eMdn/183Giu1Uy7HeIQTeoT7VCd2fbboaw+7+xcfSBL4zj2ImFI7yYhK6c1HNcxIlTh4QIZ3ls0aYeMIWztXNaj2bbMWs9duHkJCHDwlvHoncrnJSgCjSMlv09MGtU8uGwEBhF1esvLH+/8bXsG7yE9fu/1PVUDRMzTmKYvPTph8YEDGQWcqJ2REFDJ6FcHx302PqVzfZVnC2RFhnIPQUYTOVur17ZwuPi40VQ76+8meywcfpReqLVUkhSmKdIoUrpmYnK31PJ+C0S8nacb/8bGDelXbTaP5RsEx0bUEIWP9k8jgsXG7ziXM3Thnk/+vpKvNfOOBbIO9ZRfT06d0S8mOpj1lDdttPJluXVCIEJWqxMSAa6X8Dtv1mrq1B32IMDPp9V7b1bSskYI9Kyv3DglpVWcTJzUuXpb/fSCrUfP5/AebVPivJPvcRKIYDBzb605PfrjvX+fzBYEh+eYpcmT3SKXTEkd0ipUPBbi7puVKmCWvUVErZdUIMLf12q1rcFl9iBAvp5bfKCStmWGIgMbqdZMSGoYISn7XALiiUu5j726/sSl3FpKP90Pxy3CECSrnTV3C7yAx64XjV20/9/fH7tZYBD78TRFGsXI3h2dOHdEfFK4pJZzrEaLYBXFmHHK2ubqEOBKMX/wjvves+vsQdh4UXu1sGK1lqZgWvvQVWMTw+Xld4kX8O99159ZsPVOvs4bax0qFsX8VAFHBI4XVqbfGP7hnq+3XdWLOiEIAEOTkW3Cv51Sb0rXCBnrZkiPAEabYBHlRqKUnontlp4y5+jd9CVcYw8CFBv59/YUWB3bGJQS6qVukV+OiI9QlCfQOV7YkH71xY93ZuVqvLQRhHP81OFKib8IBAC8gJfvamf9dHLq14cuZ2stIhkmikBSuOTlAXFLJqc0T5C7VyAzWx1sT4yCeKTMpjYLm69b3Jm7c5U9goALduXfVjskmhiavNsvan6/aFZ0U2wc//Vvp175bHeJ1uy9aWrembK+b8HxuP7Ynf7v7np//QWjzaFLiSLQoZ7qi8dTZw6MDVW4LI9rstonK0pfMFrpmcoMAuzOsmrM7uw6c409Fwss6y9qxcXeCAW94rHE57tFKkQaOUYzt/jXkwuXHy4RbxT3AnjHE1su9f+aVShtBTS99+eFnm9v33upwOqYio9UMRM7Ry5/ql6HeiqZK+UGK4/iMzFERlUv5OM8CgzC8rPuzF24wB4B4YdjJdn3anWEQJSKWTE2cUzzYHHXZonWPPuLPZ+sPGK2el0ExMY7NKswfl+1KIKAeCarZNyi/TOWHb9T5DAWQhGoHyn7fELy2yPjkyJc8KZztA75ybDaBe1lQIAdNy3n8l3+vlxgz/lc03dHS+x3gSLQMEKycXLy4LQgyT0bjAgFJca5X+/79Z9LZqu3loaKwfPlJxcBCJKxfvOcKwMiFOosy/Zc7//urr9O3NWKFCntecVhrcKWT6s/qEVIsNwpCuWqOfHnjZBTnvq4Nh42XLW4molzlj1GG87dXmDhEQEIQNt42W8TkzokKUT9gXA7T/v0gq1rtl2yeWFJZ6WokLJ2u7XZq0CEa7m6SV8enPLloWs5Ol6UFiIEooPZBaMTPhqb2DhWVmNe8a7aKv68EZ4TZ0aAY9m2TLVrcxdOsUdAOHrbuO+mQRCQIvBwPeW6SSmtYst7awXEa3fUU+dt3n/6jseTOtWgwoBpqEris7d2FSYr//epu93f3v7dzmtFeod8h4ShujYIXvF0g6d6RIVXq0ZdumAbAMpsjwevkMPPjpnMrkjWOcceAd/dXaA18zRFJrQK/mlcYqJIi1RAPH4xZ/LcTaev5PtiV6cInGdT114GIhTrrTNXnhy3aP+By3kVCmQKCfVc75ivJqX0aRrMVhHS54q78AiEe1oY/noJt+eWCwN5NbNHQFhzRp1+w8DSZGKb0M9HJIipY+OEvafuTJ235eqtEh9TBwAQReOkBIICI+aqHlZO2Hspf/DC9HfWnr9TbBTzn6VJ8wTFB48lzegbkxgmub/3tEBXPh5JAMJkHvN77BAQ/rlhMTltfmpmT76e++JwMUPBG72jPx8RF64oD2wEATfsuTJ9wdacQoNfjEBV+nMBDkQwWfkPNlwc9sGeNQezbKJYmQDIWGpq96glk1NHtQuroPNqsqHGVN7lEyShPL5U6XIRt/eWs5J1NepOwPZr+hvF1td7Rb3aIzJYlNQxWbhlG8/N+HBnodrkr50zDpUKhBAFG4hucxXgBbx4R/PM0iPPfX/sWq7OQViIQEqk9K0RCZ+OT0qLKRd6RYACXXlc5KSGoUvgBFhyylTg3NxFDaZebRa+PFS0eHjcIy1CWNFzwPHCx6uOLl13xmLzhbJrVXDo7yGlW7oeICCCxSas3JuZfin/uQGNnh3QSMKUDqwSAEKgd5OQZvGKDSeLVh0qjlAxXdOUEcrybngFCxKaVLYxp1Yw2fCva9YnWslrbPavjj084i+n1XN6Rw1pHCTu1FHrLO/+cHDV3xc4z8/VuwabWDwMIEjuo/4ez0JAzMzXz/7l9JZT2f+b0Lp1ShhLl9awKAJxIez0XjEDW4XFh7AMRcRHmUpCVCwpMXt4saGAsPOmZWSaNFxeQ023upOL42FEs6BhTYJF1AGt3vLCRzt+2nzR5m/qgN3vcbQ+Dy54AXddyBv10d65v54pMVgd+6ZJvQiplKEquEHRCnpGe0WQxPNDibkGYdnZmlfQV8ceKUOSHLeEZOVoHn/zr837b1ht7hTVPA4UWR4CRCl7AGKu6pGnMX+2OaP/u7t3ns8z1TTPz1DQNpZ9qYPSGzJD229YLhfVYCGcTTchwqXMwife3nzkXE7g5FgqxFx27/KBtkAAgIhnb5VMWHRg+rdHCnU1bGqmCHROYJtE0AwFnv0fIbD5uqV659mph1UQ8NjF3Ofe/ycrR+vLVHKNqNAMGvTg2x47EEFttG49k2M3r9UHAzKGvNZFmWvwfLpNRtegLFHz7RYQtxzMfO3zPdkF+kDbBlup7fm/AUKgZ7PoUAXrTBwZraQ91e7jEmpmz7VbJXO+Ss8u0AUYcwAAbJwgijdQIXNdFClQQYA0SwghtZaV8Spq9nuS44LfeqZbqEoWAOp9FeFY5iIMEQL5XruKwF9KV7PtkUmYUb0axUQoZ3666/rtkoDye9DR71E+CHUuJ4GAeRqLs7+M4KzonyuQS6hgaXW1EKduN0WRrq0Sfn532KxFu/eduuP7amhVsDloh0Eg6ry7BQJACCnQmAEAsOYwMldrHbn0nBurHaq/hhd6JU7pFFPN2ensw0oINEgM+27uoDe+2rsx/VqA5HsqeM0KuQTA85l73yMuTD6xe+prI5s5o7OJAN8dzDmfbfCAKIYIUUq2V6Ow6hORNbDHYuUk95pNCIHIUMUnL/dp2TDqwxVHjObaKmDUHjwvlHGFANCB7ifUAAJAUWRI24Q3H2nRIimEdSKGRIAbhaafjuY6xA+euJJPRjdICJVUfwE1sOf4uRuI0KFVfamEAQBCIEgpefaxtsFK6YcrjuQVeyHJ4AoqdKaqqt/3GtigKNI4LviFwWlP9KzP0MSZGAURdBb+w+13bpVULWXiOgiBzqnBw1pG1sjeGp7W9i3r/7zpyE8bDvH32nEJAEtTTwxr/v2bg1LjQvy7ZtjmWOcq1dx90BhECCik9MyhTTa91nNa7wZlZXYAQARBwEuZRSazTcCKtr7QYHvml4yVR3M8G8pQhDzVJU4uqXnstQb2SCTMlFHdPln2z7wvNpZoy/t4CCFdWsWv/XBE19bxbO2EkmsFdHCctrfRhgAAHYJJREFUFbIHr8YuYaiODSN/f/nhd8e1SolUih93RMjIKn5u4bZe01ePe33jX3uvXcosFHucV/NN6VfVnEenVwhAq3jVo22jnSmd1XByEYDWTRLbt0hd8eeBa7fyP3t9XHREsJ2ThJCU+NBlbw2Z9+3+P3Zm+KtbwyxSgXmwcs0EICpY9tajLR7plByhkojPKkQwmK1Lfju1avOFnEIDL+D+03eOXsiJDJH/s2RcQqTK/mt6C2fyrKsMoJLS345vpJA4ld2r2WzIZezMaQMkLJN+JGPSrO/OXL5Vpt1ECIkOVyx+pd9/J3cMVvlnJZHNUfhS4kdD6DQIgSA5O6pj0q63+jzVp0FUsLTsrEIEs5U/cj77ibf+/mjV0Tt5Oo4XEBERLFa+UG0KUZTPjegsgs2jvbkEYFjLyCaxzgos1HyvCSEtGydOGtkZAM5fzZ76+vIt6efF4l8sQ704of0Xs3oHK6W+z0ebHMWHA9/8UIQ0jAla9Z8uy5/t3Dg+hBUFioio1plmf75n4pxNu4/fvr+DKipcwdx7PBAgX+dhy0NRZHrXWOd1bJx6UilCJo3sEhsVDAC5BeqZ7//608YjRnN5JlQmoYf2TPvlvRFpKWE+1eC3l7rKgbXcVuFtRKikMwalHVgwYEi7eKXMIY2rN1o3pF/r9+xvqzZfUOvMlWZDEqODynN3CDkas2ePrSkdYzrVC3beBDh1rwkh9RIih/VuTVMEETQ609uL/3xr0XqNzigSGSGdW8atfm9k7/bJtA8TL2ZL+YxBIFcUaYr0bxW7ZU7v/01oHap0kJgXEDNulTw5b/PzH2y/ma2p0HYiRnyUipSTB/L1HmsqJwBJYdK3Bqe61Gfm7NdM09SLU/rFx4TaQ3Szxbb676OzPvj95t2CspQPRUhKXPBXswc80idNJvHFVj10TDcjgMTjQwa1Bk2RhrFB/xvf+teXurdNCbVvhrf/SEDMLzZ+/dupoS/8vvv4LYNo0L1SJMYElaVIEDBPY/NUYp0QGNc2OibINXUqF4xEeKhy5tSBEqb06+F5YdOuM9NeX56RmVdGIEIgJlzx6X/7vDGts1zK+iAbZLRwjunmADI/9s06T/Ssv+nVnjOHNgmRl98QROAF3HEk69FX1y/4/mCRc6rnCVFBooAesnUeO7lCZMyzPRIYF2+fC0VpQkjvTmlN6seeybhj/y+IeOl69mMvfP3x7HF9OjeWsKWvppSxz41tF6ySfbzy6F0vNwaJlw0gAX8mnxxBU6Rd/fDZI5sNa5dAOcp8CQJmZqu/X3925V8XXJI8T4hSlrs9CPnaGvpWnYSEJvOH1UsKc3n1mGv3Ojoi5KlxPWiRXA8iFJboX3z3l+XrDnCibUQ0RU0e0vz7NwelxIV4NRAziFTDCUAgmB5CIFjOLny87Z//7TGsXUKFQQiOF37cdO6x1zZ8/+dZk6W6xasVQNMkOkJZ9lpmG19k9IBiOgC0TQoa3y7KDSE719hDUWRM/3Zd2zYQvxEiarTGeV9snPfFhmJN+fYViiIdWsT9+fHoHg8lsYy33CDO0XGU+LVSSggoJPTQtglb3+g9Y2BaTIhoDBSB44Uj57Mfn7Pp9S/Sb2ZrXJVwUEhZuWgbz60Sm0f0hilCnugUE1zz6F9lf+vqH9A09eIT/VUKh9wgAvC88OPag9Pnrsgr0pfdFYqQlLiQ798cNG5AY9o7Wz3FMZf9HT3/Hs6BIiQxXLn8uS4rn+/SoWEEI9LBQESdwfL2N/snzf1rxxGHwXXnoZSzEpHWXLajlo/baBmvHNcu2j1/0WX2UIS0b5HSoVU9ilT8W47nD5y8NnnW0lMXskQVMQgPln/2376vPtEpSOF5fR0b51Ao9ZffE6GSTOtdf+/8fqM6JgY5LgEwW7l/DmUOe2ntN2tPF2lM7hXDCYBcxsgkTJnfk1XsATlRpYT+cmyaSupmb4I791ouk7z+ryGSyraKIOKFq3envv7jhh2nyiwzIcDQ1Izx7Za8MTAiVO5J84DgsC0F/SBdSFOkTUrYulk9Fj35UEK4XOzkCALezNFMnbd5+v/+uXCjsJpETs0goJRJpOKTS22u5YJRQqBfk7BWCe6Lzrv5pDZvmPD4iE5UZU6GgJhfpHvto7Ur1x/SmyzlC8kkzKAu9Va9M7Rp/QgPxtXi5ZL2CNlnLRoUISlRyrcebZk+v1+XtEhxIscu4bjir/PDXly77fBNvcFa+0YohYyRsnTZp8vW1Nb2sBR5rnuirBa7WNxkD0WRx0d0jo0MqvSniKjWGed9vv7txev1xnICURTp3DJhzcKRvdone4pAFkepK8+upakKhABLU491Sd42p8+rI5oqpUyFjpxTV/InvfnX7C/S7+brPLQPCJRyVpyDzSyqVbKHEJjYPubhRi7UJe6H+15CWmrc0F6tq3lvi5VbvenIi++uzrxTKNYKjY9SLXljwGP9m0g9oTfsWOciPvB7KEJaJYd9O73jsn93rh+tYh0N8K087TvfHRw64/djF3I92v1NQlRS5t57WXkHGSg3kBQqfXNwSlUSd07C/REWmqZmThuwadeZ3EJtVee5gLhl77kbtwuWzJ+clhpjr38RgMgQxScv92nRKPq97w/WZkMgApgcYy6v5poJASlLzxredHrfhjEhMnEQiQA2jv9j++UPVx7NLtB7XFCRAMRGlKcKDRa+NosVCYFH2kTFBtfQtlwj3H9SCYEQleKlJ/tX6j6XQRDw8o2ccS9+s3XvOYu1XClcIWP+Nbr1Ry/1So4Nqk1Z3mrjHWIur+V75BK6b4vYv2f3mju6RVyoXCxwbuOE0xn5z3+w/b+f7bmdq3MvIK8BBGIjVWXvqLfwZk5wu8gVoWSnd4urfW6sVn9PCBnSs1VyfASp9utHhLwi7cvvr/nhtz2cSK6YocmEgc2+e3NQUkyQ26ev3mQFUaHLG/0hFCGhCvaraR1+fbFbj6bRFRI5Fiv30coj41/f8MeODLPVG8QpRXyUyr62FwEMVt7qbjMnAVgwpH6qJ8Sea8keiApXPTexD0PX7MFodKYFSza/8ek6tUN/NLRvGvfX4kf7dkxm3HkUUDyUAwge7+9RyZgJ3VJOfjB4Uo/UEKWDqbfY+F3Hbo2Yue7Tn44VFBu9RhsAAAIQF6ks/QeW2R53XqdtompMW8+EvbW914SQMQPadW5dz5mHHgX8ZePhx2d9l5OvFpflE6JU37wxaOyAJqzrIZNZJJFECHiwqk8R0joldPPrvb9+ukNihEKcyEHEIo3p+YXbps3fcvxirm9Uo2MjFOKTy8K5sx+IImRa54QQmWfGbj3wpEol9L8n9lEppDX+pt21PHkh68nZy05euMmXpxNJeIhs8ay+s5/sHKyUusQAzvER9EhfM0VIUoTipSGN/57du1PDiAoBuVZv+WXrpb7//vXP3Ve1BotvJtooiooOc/Ca3dghQwg0j1dM7BDpqfPdA/eaENK5Tb12zVKc/NYR8WzGnSde+2HDztO8IHaDqOfHtVsxf3BEiAt6HWarw2KyWjqC9nxjr+Yx61/p+f7ENjGhDmVOQcCzV/PHvLL+lUW7b/lWCCsiRCaXlSaaESBP684WGRlDfTk2LchDhgc8wh4AUMgk/31qoFLurP4iIhSVGF776I9lf+w3mMr7oyUs3aNd8qoFQ5vUC3fy+SjN95S16NeCPgQgLS7486ntN8/u2So5lHak8N0C3Werj4+Z9efJy3kmN3fpuX9hcZEqcQ49V8e5cWwNaBreIk7pwXSqZ9hDCGnXPGXckPbO2wwE0OpNC77aNOezP3UGs3jOsFOL+LUfje7fObVmPxrBaPZAvocASBjqhcGNt8/t81Tv+uJ2AATgBdx2+OZjr2344MfDJVX0q3sXBGIjlfdknAEAc3UWVy+CpshzDyeopJ6MKjz2WjRFHh/RJSJM6ZLXYrVxv285/sI7P2XczCurWBFCYiKUn7/Sb8LAJgoZW83roWNvIQCUNc46CQLA0tTDTaP/mPnw+xPbxIXKGZHNEQS8cL3w5U92Tpq76crNYq8kcpy7zJTYYHFX6121s9I+ZZjYPqZ7g1rVJe6Hx+SSCCFN6scN6t7il7+OcK4IyfC8sGXfxatZBcsWPtUgOZKiSuuc0WGKj17q3ax+5PzvDlqsfFVPvNlaob/HhWu2J3IWjGs1tktKqJKt0PJm44Rv157+6rdTBWqjf8UeCEB8lJIAlF1gros9qXEhkrkDkz2ub+RJO0bT1KynB8ZFhbjKb0S8lpU/4l+LN+06w4lqQ1IJ88yYNl++2i8lLriq17TaHAJX2onMkx1KKTOqQ+L2N/s+069hqMrBY+N4Yd/pO2Nnb5z/3cF8f+uEAAAQiIsMEt+Bu2qL84lmisCYVlEJYVKPl3E8nFuLjgh+7vE+jIvHBwAggFpn/O/7a5b8vN3m0B9NRvdO+/HtwQlRqkr9aKNoHRkpk9GoFoRAXKj8lxe7LX+uc8vkEMdEDhRpTC9/smvKm3/vO3VbCAydPUIgLkpZ5jVzAhbqXeholrHUzL6J3lCn8TB7CCEDujevlxDpxvGKCHqjZeH32+d8uq7EsT+6dVr0tq/G9euUen86kXNs7mXp6lZWUYREBUtfGNT41IdDBrWOUzgkclCrt6zfc3Xky+t+/eeSRm/xVGdF7aGQsnJp+fqfu+qqD/L7wNJk/pB6iaGuZdGchOdrivHRodPH9aScki+qBDwv/LTx8ISZS3MKxPloEhupWjp34ISBTSv0R4s1NIBUaXsIAE2RHk2jdr3d/72JbSKDHDYRCwLmFhmfXrDluYXbLmYWBtraL4WMlUnLkz231C4EXC3iVRPaR9PeaXvyPHsoiowd0qFj63puk53nhTOXbz3x2g9Hz94QV8RClNLPZvWd+3QXlVzUH40g9ksqPTQJgQaxQe9NaLPuvw83iQuqUAsr1pi+XHOy69RVO45mmS3+XBhVFRQyRlbWC4Vwu8SM6JTbQ1PwePvoSJW3ZI280s/AsvTzk/rIZS5Pl5UBEc5fyX7itWV//HNS3CtDEfLso21/fW94TISy9HEi5QJQBIChCOM4P8XS1Phuqdvn9H5pSOMgucMl8QLuPn6r/3O/vbfskEbvmck6b0AhZ2WS0ugYAXLVzjo9jaIU07rEeW8m3CsCxxQhnVrXb9s0+dCp6zy6eQogokZnmvPp2qIS/YThHYOVMjspJCzduVXCj28Pnv1FerHWPLp3I2mZpgAh0/s1TI1S/rjnRvrFfABoVz/85SGNR7ZPZBxtNy/gtdslKzad/3nLBb2xhulxv8N+ct37F2aVmO4ToavsryT0Z2Oc1XFyD8R7mdMzl28Nm/6F1VarBkoAYBj60YEPvT/rEfFgPCKUaE1qnTk5LuT+lLTWZHvvzwuhSsn0vg0rCFYgIi/Ar/9cWrj8UE5hAETjTqDXQ0k//2+4XVdPQBz57YWtl4qq/94Igf6Nw9ZMa66SelGOwovi6i3TksYN6fDLpiN87WYeOY5fs/lYfpF23gsjG6XGUPfkf8ND5OEh8kr/JFjOvj+xDSBUuHE8Lxy/lPfFrye2HLyBzjy/gYFglbQsh87xWGS01ej0sBSZ0TPRq4YHvOT3lL40RSYO7xweqqz5V2sCIu45kjHt9R+vZxXyzgVE4swsACCC1ca/9e2B8a9v2HrwRq1Gq3wLQiAqTFH2WfRWwVKTYhhF4NG2UX0bh3l7wMS7Ewgt0xIGdGvmkW4SAfH6rfwRzy7esPOUS6chItg4fmP61UHP/7507WmN3hIYKUDnQRKigsoeBYMTXYWxwdLXB9R2XsIZeHctCMPSc58f8c/+C0VqQ+0fdkQoVhtmLfzNYLJOGtHZmXuDADkF2mcXbj9+Mc9ksT0o9kYMAhAVJi/7qEYrb7FVxx5CYEjz8PqRMh8MtnnX9hCAUJX8P5P6MJ5rNzZZbHqDs03EPC88OW/r/tN3jeYHkjoA9iKXqizRrLMIpmrZE65gX+iV5BstEa+/ByFkZL+HYiNDPTjtEBEW7OS0MSL4d2N87WGf5CqTZDRYuepPrrcG1WsU5QvDAz5hD8RHBf17fE+3RiYqA0KxWu9kgZkiEBmqYO6tN38QQShyrzUMoHQOsHL2EIAWcUpPzUs4A1/YN0LIlNFd2jVP8UgIgAAHT16/f2lDpaAo6vu3Bn3+Sr/U+GCGpijqwWNRsEKiFG1QKDZwVbVPEUImd4qJVLI+E1DzkdqNhGWeGdtTLvOAfg8i7jtxNbdA40ylhxAIC5KNG9B073cTv3ljwLDuDYKVNc9+BBTio4LEOdIcja3Sj00AWsYrnuoc68sVd77TSurVqXFavViPPPtmi+23LcecTxMTAiqFZHSftG/nDjy4fNL0Ma2lEtpLZWePIzmuvC8MAXJ0lfekSlnqw1ENg+XVLYL0OHzHHqVcMm/GMIXM2bmLaoAIv2w6UlhS5YZvROAFgeMd2mAoQmQSJi5C9d7zPQ+vmPzGtC4dW8TJpUyAn2ZxESpRiIA5Guv9n5oA9GwY2i5J5eMnwnfsIYS0b1l/VP+2nviyUBBQKmUq5Y6AaLXZZr37wyv/W15Youd48dBY6cRWalzIS4+3/+OjUb+8N7xN42iGCVyXKC5KVRZwIUKutpLmHooiz/dMCpb5Wuncp0uEaYpMHtl5c/pZ8Si7GyCEDOvdSiWXijoDS5Ox+YWa4+euLFuzfc/hc4jC6g27RvTvPKJ/p27tm4eGKMX0oAhRySW9Hkp+uG3SwTN3/9x1ZcfRm3fyA27tfFK0w3aBPJ31fn/v0TbRfdKCfa907lP2EEJaNUnq27nZ+h0nXZq7qACaoiYOL9e94wVhxLR3dAaj3mjWaA0ms9Vqs6GACGC1ceu2Hvhr55HYqPD/PDl67NAuCpmkwhoNmiLd2yR0bhmvM1p/33550S/HC9UmPmDKGbEi2yMgZmsqSqVGqtg5XpiXcAb0vHnzfPl+FCFtmyVv3HlGb3R5Iqn0FSgyfWyP0f3b2Wd3EHHP4XNfrfgrr6CkRKM3W6wc7zCkaxdK1mgNOw+c3Lj9iFprlEjY6MhQAuVJIEIITRG5lGnXJGb8wCYpcSEAkF9sdLIi6z3IpcyTw1vGRpa2wuVoLJ+n3xVLr1AExraLmdA+WuIP+vhBnzYuKuTJMV3dNrPx0aEzJvel7v29IOBvf+2zcTUM6tkVpa/dzP7om9/HTH939PR3z1zM5DhecKy2UxSJClM+Obzl8vlD0r+bMKJnI4amaMpvyUa5jJGKhiHullgqfEqGJm8MSKx2ZNKL8AN7CCEj+rZJjA13629hVL92wUGlVUNEyMi8u2XPCeedFQHRaDIfPH5xyJNvjfn3h6vW7c4pUFdwwggBmYSplxD6w1uD9/3w+MxJHZo3iPRYrtwVKKSsWKM5s8TBZWYo8vagBskRcn+R2z/a2MlxEU8/2sWNlAtNUeOHdWLKPR7+pbe/1Rvc8cEtVtuBY2defW/Zw4/MmrfoZ43OdL/YICGQlhz+2hOdNn/+6PL5Q9KSw9xQGHIbxN6TKrY9xZx463qjaPmE9hF+DBb9wx6KIpNH92jX3FnRFjsIIc9P6peaEF72V3sOnbtw9Zb7opmINo4r0ei/WvF3+6EzXvnfDzsPnNHojBU1oGkqSCEZ3K1++ncTf5w3ZPzAZnGRSl9kGwnIZbRUUq7RfFdrKvuoFIHJHWLiQqR+zDP4bSeIREL/a3xPCetsbpQQSIoN+9f4HjRVes2CIPy6Md1q9cCeGEEQitS6FX/smPzSR8Omztu044jFxvG8UDHZKGWGdm/w+St99yyd+OL4h4KVUpr2bp5IIZPIpOVOjXi7QGq47LkeCb7XxhfDb+yhCOnRvlGzBvFO3nxCyLDerYNVMnunByKcy7i1fd+pWjZNV4DFartwJevpVxf3GTd70bJNF6/dud8ZZ2gqOlwx9+muB36c9N5/Hn64baIbk9fOgQQrJWXbDnkBc3Wl4bqcpT4c3UDmu3po5fDnPqJgleKdl8Y4o5gJ9oVfo7rQohzPjLe/Fm/W9SAEAS9fv7Pw618HTpoz6cWPrmRmi1eP2WGXLX96VOtfF47Ys3RCz4eSJCztccXWqDB52UuarILFJthb/dsnB/dqFOqL5Z3VwqfZwgogBNo1TxzVv+3arSeqNyEURV6Y0jclIaJUchZx96Ez1zJzvDdPg4g8j0aTZVv6yf3HLvTq3GZo3/a9urSKDA2i7gXwBIBQRCZhmtYL/+PDUScu5f6978Y/hzMz76o53gMTGwQgIbp8l4PByps5AQFoQl7qnRDkzVEbJ+HnPYw0RT0+vFOQSlb9ryXHhT/12MNlj7Yg4G+b9lltLizWcxsCot5g/mvn4RlvLek+ZtaSn7ZYbRzPC2LiEkIYmurUIn7ev7rtWDLu05l9YiOVHmgnIuXsQQCjVbBwAiEwonn0kOYRgdAi4P8tnu2ap/Tv2qSa20wIDO/TJlhVOrqFCOcysramu5Dj8Qg4ji8q0b79ycq2g2fM+XjV/uMXzZaKDjtFkSCFZNKQ5sdWTVk6d9CoXo1CVLVqJ4oKVZTdGZ2FN9mESCX7yoAExvvzEs7Ai7OkTgIRNDpjt/ELi9SVd1wwNHVgzesp8RH2G2axcgMmzTmfkeXHK6coimXoZo2S33xhQtf2TRm6Eo9HQOR4LCwxfPrT8TXbL5vMNldLZzRF0peOa1o/mqIIIhy+qR357bmhLSKWjE+TBcbyXl/Xue4HIcCytNXGHTlz434/hhAyc+qAgd2b2/1lBNi279TKP3bYaj3gXBsgIs8LeYXqP7ce3HP4gs5gCg0JClHJCalYO1MppP06po7o2TAuUmUycwVqEwI4SXuKIq8+2UUhK52/zsgzbrlY/PmjjeJCpIFgeCAQbA8AIMLtnKKh0xcXlugd/QlIig3/Z9nM0GCF/eEWBGHaK1/8tfOw4NFAvZagKErCMhNG9pr5zJiYiGCKIuQ++SJEtHLC8Yu5c7/aa98TWGNrdpBCcm3DdIahKEIQ4Y/ThbdLTM/39IoKmHvwv+0B+wpqlYKiqH3Hr4rZQ1HkiTHd+3RpWmp4EI6fu/7Bkt8snsgQehCIyPH86QvXf9mw++KVWxRFxcdGSFiH0qXds06ODZ40uFnX1okKOVNQbNIZrdW8bL34kGkjW5XVaG8Wmfo1Dgvxbe9p9QgI22MHx/GDn150/srdsgSdTMoeWDMnIbpUbNZq4/pOfOPytdt+b5yoBhQhNE1FRYTOfm7cY0O7MgxdlhwvAyIKAurN3E+bL3y66qjWYL2/nYgQ6N0+ec3CkWVaaWoTHyLzf5QuRkDYHjsIIXKZZNeRy3YJZpqiZj09uG+XxhRFAYCAuGP/2RW/b7dxHly453kggCCgzmDatu/Euq0H8wrVcpk0IixYHL4TQiiKyCR0+6axk4Y0a5QcjgB5xQZeVKYlhHRplTCka/0yV0rGBkKQ7oCAcN3tIIQM6tEyITbUfrdSEyMnjegkrmr9vH6PxeqLHI9HwPPC9aycxcs2jHhq/qSXPjl/NdtWocUagKJIZKhi4uBmq94Zlr50wuBuDUqHPQghBBLsC7kCjDFiBJDtAQAJSzeuF7th52lewCmju/bp3MTOHkQ8curah0t+4wLb8FQKXhAyb+f+sn7noZOXTBYuLiZCpXBQMCUAFEXCgmUjezUa1r1hZJhCrTUXacxj+qS1aRwdcAZHhADye+zgeWHGgl+2pJ/bt/qNhJhSj8dssfWd8Prl63cC7Wpdgv3AkkrYaeMGvTB1eFiwkrqvaxHRrm6Gu45lJUWrmtaPCmDyBB57EPHI2cxrN/MmDOtUFmpt3n38X69/bjR5pSbqe1AUFRcd1qdr68G9O3bv0FQuk1TmWQMCBrLhgQBkD5Qm07BszZ8g4JOzFm/dfTSgcjy1BQEAoCkqOSH6/dlTe3VqQVUQon4QEIjsqYDCYt2cj5abzNWlRh5sEGieljK0T8dmjZIeLAI9AOxBtKdlA/063QYBAgQoUtEHCnw8AOypQ8AigPI9dXjgUMeeOriPOvbUwX3UsacO7qOOPXVwH3XsqYP7qGNPHdxHHXvq4D7q2FMH91HHnjq4jzr21MF9/D+3wZH1OZvePQAAAABJRU5ErkJggg==;" vertex="1" parent="1">
          <mxGeometry x="501.10999999999996" y="200" width="40.21" height="40" as="geometry" />
        </mxCell>
        <mxCell id="hEISInPQRgZ5dUjzCxsK-4" value="" style="shape=image;imageAspect=0;aspect=fixed;verticalLabelPosition=bottom;verticalAlign=top;image=data:image/png,iVBORw0KGgoAAAANSUhEUgAAC7gAAAfQCAMAAABlzOIIAAAABGdBTUEAALGPC/xhBQAAAAFzUkdCAK7OHOkAAAMAUExURUdwTERMtVJbwF9s1XuC61VdwWp4409YyVdfwVKD509YvkBHsnuC61RbwHB240xUvHqD6ltjznuC61lhw09ZyXuD63uC601VvU9ZyXB44kJJs3qC63uD63uD609YyXuD63qC6nqC63qD63yB63uC60pRu1BYxnuC6k9YxlBYyHuC63qD63qC63uC63qB6U9YyE9YyXmB6U9Zx1BZyU9ZyE9YyU5Yxltk0XqD609ZyE9ZyFBYxnmB6XqD63uD61BZxlBZyVBZyE9ZyFBZyFVdxnqD609ZyHqC7HqC62911HqD6VFayHqC7E9YyU9YyU9YyE9ZyUtPj1FayE9YyXqC609YyHqD6nuD609ZyVBZyXuD6kdPuFlhw3B31m921khPtEtSp252109YyG921UpPjWt02Flhw01SlUdPuEtQpllhw3N62nZ+43uD61BZyf///2921FFZv09XvkdLiE1VvVNbwFRcwFJav1BYvk5WvVVdwUxUvFZewUtTu1leqk5WvkZOt0dPuDk8bUVNtkpSumJpvEhQuURMtVdfwlhgwkNLtElRuUNKtElRukJJs0FIskBHsVBYv0RLtT9GsEJKs0dOt0pSu0ZNtkhPuEhQuEVMtklQuT5Fr1dfwUBIsktTvEpRuj9HsTxDrkFJsjtCrUVMtT1Er1lhw1lhwj1Erj5GsEtSuzpBrEFJsz5FsFJawFVdwD1Fr0dPt0ZNtzxDrUxTvFpiw0xUvTxErkBIsURLtEJKtD9GsXd/5DlAqztCrDtDrU1UvW114F9mtmtyzPT1+77B5zpCrLq+5ry/5jpAlzxCmt3f8291yTpBq09VrT5EnXN5zEBGn3F3y2txx7a54klPpnmB6EVLo0JIoURKonJ52khMij1AdlNYn3B31nV832VswkpOlFli0UlOjzo9cWRt2nZ+50BEfFRdzUdNpHF541ZbpF5n1G100Wly3URIgzk/oVthr05Tljk9gU1VtDk+j1FWm2FnulBYvEhOnk5UpqWq3l1jv4yR0lNbw2h4JywAAABtdFJOUwCqqguqqgWqqgKqqvuqEKn+FJSq+uHrqv7jqtRVie2AvaApG9qqMPFeiMX1d24imPRnITd330IZtZEoSD1NM2VVbU65q81/QzmwL+dc19HFocXKskdysKWmvmHR2Y596IHfwZviz5qx9Z73VvOceTKDAAAgAElEQVR42uzBAQEAAACAkP6v7ggKAAAAAAAAAAAAAAAAAAAAAAAAAAAAAAAAAAAAAAAAAAAAAAAAAAAAAAAAAAAAAAAAAAAAAAAAAAAAAAAAAAAAAAAAAAAAAAAAAAAAAAAAAAAAAAAAAAAAAAAAAAAAAAAAAAAAAAAAAAAAAAAAAAAAAAAAAAAAAAAAAAAAAAAAAAAAAAAAAAAAAAAAAAAAAAAAAAAAAAAAAAAAAAAAAAAAAAAAAAAAAAAAAAAAAAAAAAAAAAAAAAAAAAAAAAAAAAAAAAAAAAAAAAAAAAAAAAAAAAAAAAAAAAAAAAAAAAAAAAAAAAAAAAAAAAAAAAAAAAAAAAAAAAAAAAAAAAAAAAAAAAAAAAAAAAAAAAAAAAAAAAAAAAAAAAAAAAAAAAAAAAAAAAAAAAAAAAAAAAAAAAAAAAAAAAAAAAAAAAAAAAAAAAAAAAAAAAAAAAAAAAAAAAAAAAAAAAAAAAAAAAAAAAAAAAAAAAAAAAAAAAAAAAAAAAAAAAAAAAAAAAAAAAAAAAAAAAAAAAAAAAAAAAAAAAAAAAAAAAAAAAAAAAAAAAAAAAAAAAAAAAAAAAAAAAAAAAAAAAAAAAAAAAAAAAAAAAAAAAAAAAAAAAAAAAAAAAAAAAAAAAAAAAAAAAAAAAAAAAAAAAAAAAAAAAAAAAAAAAAAAAAAAAAAAAAAAAAAAAAAgNm1e9WEwTAMw4NBCBSpH8TFfNikhUJ+CtkyqJsoxVEq9Bxy/muhc0FoE7tc1/AewD29wwMAAAAAAAAAAAAAAAAAAAAAAAAAAAAAAAAAAAAAAAAAAAAAAAAAAAAAAAAAAAAAAAAAAAAAAAAAAAAAAAAAAAAAAAAAAAAAAAAAAAAAAAAAAAAAAAAAAAAAAAAAAAAAAAAAAAAAAAAAAAAAAAAAAAAAAAAAAAAAAAAAAAAAAAAAAAAAAAAAAAAAAAAAAAAAAAAAAAAAAAAAAAAAAAAAAAAAAAAAAAAAAAAAAAAAAAAAAAAAAAAAAAAAAAAAAAAAAAAAAAAAAAAAAAAAAAAAAAAAAAAAAAAAAAAAAAAAAAAAAAAAAAAAAAAAAAAAAAAAAAAAAAAAAAAAAAAAAAAAAAAAAAAAAAAAAAAAAAAAAAAAAAAAAAAAAAAAAAAAAAAAAAAAAAAAAAAAAAAAAAAAAAAAAAAAAAAAAAAAAAAAAAAAAAAAAAAAAAAAAAAAAAAAAAAAAAAAAAAAAAAAAAAAAAAAAAAAAAAAAAAAAAAAAAAAAAAAAAAAAAAAAAAAAAAAAAAAAAAAAAAAAAAAAAAAAAAAAAAAAAAAAAAAAAAAAAAAAAAAAAAAAAAAAAAAAAAAAAAAAAAAAAAAAAAAAAAAAAAAAAAAAAAAAAAAAPcwX5bb3WfXNE2MsQjXJClCiHHTNF2XH9+f5xIBAMB/mZW7NhZ99bIabqmzQ38NTX5aygYAAPeRvl26mFS33/UfX/h1H9p8P5MRAAAms9h2oaqHEaw+4rlMFQUAgFGl5Tn22TCWx+/7WoXuZAAPAACjmO/bZDVM5eEQctN3AAD4k8Vx81QPk8uKdm84AwAAvzG7hPVwP1/s3dtqYkkUBuAGRRBEjKA3Kp5CC54g3ZCRmSQ0A8EQchkS6Heo978dpqdnoAeTeNiH2u7vewTrF342VWt1q9+nfnQAADjI+qo6C5nrDbbuvAMAwH4q20Ev5GWxufLhHQAAPtLsvyxCzubLtYMAAIA31W7Hubf2n5dmhro7AADsbu2vsxCP1nzlzgwAAPyqvo2qtf/s7qPvFUcDAAD/mi4vQ5xm463jAQCAT39/bK82WiFevWXTciYAAMpuuuyE2C2qW9UdAIAye960QiH0rtx2BwCgpGr9+1Acs7YhMwAAlFBz1QmtUCSL14ljAwCgXNaDWSig+a3L7gAAlMdd3HNk3nPfV90BACiHSbWorf2fd6pPqjsAACWo7eNC1/Yf1d1XdwAAzty63QjF1+r1HSUAAOdc21vhTMxvHScAAOfpor0IZ2R050gBADg/tatuOC+t6tqxAgBwZra9cH4Ww5qTBQDgjEw24Tx1zIYEAOBsNAeLcLZGjw4YAIBzUF91wzlrjJsOGQCAwnuch3PXvXLMAAAUW23ZCCWwMV8GAIAie+iFclgsPVIFAKCoKoNGKI35xIEDAFBIz51QJo2Boe4AABRP8zWUTe/OsQMAUDAPl6F8GkM33QEAKJLasBFKaTR1+AAAFMZ6Hspq9uT4AQAoiKdFKLFxRQIAACiAEr5K/VXnQQgAAIjeTSeUXcM2JgAAYnfVCISXpiQAABCx2lhp/+HyURgAAIjWuqey/7ToiwMAAJF6nins/2m1axIBAECE6suWum4ZEwAAkWtuVPX/z4W8EwsAACLjevuuuZAuugMAEJeHrnsyuy66D0UDAICI3C6U9N3NfeyJKgAA0Vj53P6mjV1MAADEod5Wz9/RM1wGAIAYVF6U8/eHy9iiCgBA/qb3qvkHZlsxAQAg797ec7/9QwtjIQEAyNf6Ui3fZ6D7k6gAAJCjSUcp36+5fxcWAADy6+1dlXxfK3EBACAnd3r7ASxRBQAgHzczbfwQA5EBACAHzwtd/DBtoQEAIHMPevvBL1Q1dwAAMu/t7sm45w4AQPQevUs9ylJ0AADIkDmQR2pdCQ8AAJlZ27t0NJuYAADIylRvP+GFal+AAADIxEVP/T6lud+KEAAAGWjq7adZPAgRAACpq41U7xN1J2IEAEDa2or3yS4v5AgAgHQN1e4EzCuSBABAmvotrTsJ1bosAQCQnpuGzp2MgTABAJCatYWpibFCFQCAtFxc6tvGuQMAELvaXN1O0MxQSAAAUmEQZMJDIZsyBQBA8p4MlEnYi9EyAAAk7nGhaSdtKVYAACSs6WFq8lrPggUAQKLqGzU7Bd21aAEAkKShkp2K+4psAQCQnFsPU1MyFi4AABJjY2p6vosXAAAJqY/0a3uYAACIngvuqV5zr0kYAABJuGto12kaihgAAAmomOCe8jT3rZABAHC6sWqdsk5TygAAOFVfsU5dVcwAADjR1CTIDDwJGgAAJzEJMpuZkGtRAwDgFCulOhOjuqwBAHC86UyntkAVAIDovWjUGelOpQ0AgGOZKJOdV3EDAOBITRNlMnQrcAAAHMfqJWuYAACI37alTWepLXIAAByhcqlLZ6p1I3QAABxuoEpnrFeTOgAADjVpaNJZW4kdAACH2ujRmZsZ5g4AwIGe1WjvUwEAiF6tp0Xn8T71TvQAADjESonOxUj0AAA4gJ2peekLHwAA+2tr0HntTzUSEgCAvRkFmZ+l+AEAsK9RS4E2EhIAgNht1WcjIQEAiN/cB/ccNXxyBwBgL3Yv+eQOAEABzHXnfD+5r2UQAICP3arOOa9PHQshAAAfqt+rznl/cp+IIQAAH+krzrl7FUMAAD5Q7+nN+V+WeRREAADe96Q2R6AqiAAAvMsH9zg+ubvlDgDAu4yUMVgGAIACGCnN1qcCABC9O5U5EkNhBADgba8acyS6FWkEAOAt04bGHIuVOAIA8JaBvhyNTl0eAQDYrTnTl+MZLNMXSAAAdluqyxG5F0gAAHaqdbTlmDyIJAAAu1i+FBdLmCpffv/89fr6+tu3P6//+Pr565ffav6mAACfPm105ags/mLv3najOrIwAF901KglZNlWO9qScQPG8oEwuH2OG4JPwiA8blsYE8xlHqDe/3IyMDMkHMIkwbtq7f19z/Dvpb9bVasmWhnD3vr28vHqjV/GJ/30q6pKvzXcGh+92b3c35jywQIArWUXZGnWWpbAqe3L1autfvpj75t8lYbji5W9RX/BAwAtdFtTLsxse8I3Wl45Okl/Qf/0zeahf98BgFbpzUyqyoV50obgdRcvbwyq9Ldsne+N7L0HANrilZ5cnOnG/1rcXjkbvjv48vcNLg7WfcYAQBu81pPLu57aaXLipvbPB9W3qOwfzr5vre53fMoAQMO5mlqit43N2+LK+Nt19t+tnTnac+QdAGg0r6aW6H4zwzY6Pq2q6+nt7y6snh3o7gBAcy1oySWab17S1o/H6dr1j5admQEAmumJjlyk2w3LWXf/KNWkf2Pbdw0ANNCcjlykhUalbLQySLWpUjrddGQGAGia3oyObJX79erun32bvY9/6qrq+aKvGwBolOcacpkm5xqSsM7BVsrjbN/TTABAgzgpU6qZRrTOneNByuf00kVVAKApnJRxVuYajc77Ka+TTdUdAGgGJ2XKFf6szPpq7tr+bwPVHQBohGn92FmZa6rtu8NUhEp1BwAawEmZkj0PnKyd3X4qRZW29ro+dgAgtsfasbMy16B7MExlOT30tQMAodkp4w2ma3C4lcpzNPK9AwCBzWrHJXsYMlSjo1Sk/u6ELx4AiOrepHJcsrWAmZpY7adSDZZ98wBAUG9146K9jhepIk/JfLil+ovzMgBATN/pxkX7IdoulJ3zVLjhZs93DwDE013Sjcv2LFag9gepfONFXz4AEI5lkBZCfkM7RymE/rGl7gBANJZBlm42UJpC/N3+3st1Hz8AEMtTzdhCyG+ks5sCGe75+gGASCyDtBDyW9k4TbHcmDIAAIA4bunFxfs5RJJ6m/0UzdaGCQAAhDGtFxdvJkKQOjdSQP1NIwAAiMIR9wDulZ+j0WmK6U3HEAAAQujcVIvLd6v4HB0Ogvb2VI1tlwEAQnimFQcwXXiKuispsMEjcwAACOC2VhzA07JD1LlIofUPDAIAoHw/asUB3JwoOUM74yoFt9szCgCAwvWWtOIIXhWcocWt8L09VReuqAIAhXuhE4dwu9wIbQ9SE7zcMQ0AgKKt6cQh3Ck2QXv9RvT2VG2NjAMAoGR3deIQlko9g31QpaYYLJoHAEDBPL8UxMMy87OZGmSwYSAAAMXqen4piJ+KzM9xapThtpEAAJTK3VS3U/+63m5qmOGhmQAAFOqfGnEQ3xXY28+rpLkDANRjTiMOYqG83r7avN6eUl9zBwDK5N3UKG4W90DQSmok59wBgDLNaMRRPCksOsepoYZ2ywAABZqYVIijeFtWdC5TYw3tcwcAyvNYHw5juqjkHFTNLe7VwBuqAEBx/qEPh3GnpOAc9lODVVs7ZgMAUJhpfTiMmYJyszFMzfayYzgAAGWxVCaOyW4xsVk/SU130TMdAICizOrDcTwsJTWdcWq+XdMBACjKkjocx6tCQtO9Sm1wYDwAAAWZ0oYDWSskNeet6O2p/8iAAADK8UQbDmSujNDspZYYrJsQAEAxbmnDgfxcRGYav1Dmg7HVMgBAMR5ow4HcLyEyUyepPd4YEQBAKaxxj+T7AhLTvapaVNwrF1QBgFJY4x5qkXsBJzdWUqv0NwwJAKAM1riHMp89MI/a1dtTdTJlSgAARbDGPZRnufPSqgPu75v7DVMCAChBd1IZjuRW5rz0LlL7LJsTAEAB7unCXmD6Ew5a2NvTcGRQAAD5zevCodzOG5fRsI3FPb3smhQAQHaPdeFQprOmpTtO7XRsUgAA2Xk4NdY6yLxPpx63tLen/qJRAQDktqYMh/JjzrC09KDMu8MyPbMCAMjsgS4cytOMWemdpfa6NCsAgMzmdOFQFjJm5aDFvT0N1w0LACCvu7pwKEv5orI+bHNxT1cOywAAeb3WhWPdTs23mPCoanVx9wwTAJDZHV04lolcSdlvd21P1WDCuAAAcrqvCscylSko3dPU9ua+YlwAADk9VYVjuZcpKJup9foj8wIAUNz5fz3Mk5OdoeKeLswLACCjWVU4lvk8OTlX23/1yMAAAPJZUIVjeZElJotVpbandNo1MQCAbGZU4VieZ4nJldL+zp6JAQBk870qHMvjHCnZVtnf2/KXOwCQzZIqHMuzHCn5RWX/jwMjAwDI5QdVOJZXGULySGH/r5OOmQEAZHJTFY7lVoaQvFTY//cK06WZAQAo7hRa3A/19Q8G/nIHADJxVMZRma/ojdX139g0NACAPFxOdTn1K5xw//0pd4tlAIA8rIO0DvIrjpR1u9wBgAJ4gMkDTH9s0ZupHz2f2jM2AIAcFlThWF7UnZBzVf0jj4wNACCHWVU4lvmaA7LT19Q/cmVsAAA5PFWFY3lYc0BWFPVPLJobAIDiztfcqzcfnYGe/olzcwMAyOC+KhzLVL35WFbTPzWcMjgAgPrdUYVjmag3H2dq+mccGBwAQP1eq8KhTNb7/M/ILsjPGRscAED97urCoSzVG49dxf2zNkwOAKB2c7pwKAu1pqPraurnrZocAEDtHujCodyvNR37KvoXrqd2jA4AoG5runAoP9aajiMV/QuWjQ4AoG4/6cKh3K0zHFN9R9y/4MLoAADq9lgXDmWuznDsKehf0rfKHQCo27wuHMqDXo3hcFLGWRkAoBxTunAoa3Vmo6+ff9GR2QEA1Kw3qQxHcqvGbDgp46wMAFCS75XhSJ7VGI0r9fwP7JkdAEDNZpXhSObrS4aTMvbKwL/Yu5vfKqs8DuBk6pS5CUNoC6QJCAqmtuLwLkgr77GiDUjqoGjKJGSiC2dzsXEkE8ediS77B8x62OGqO1awd0OYBY3VpqsJYYEhvqXJFBgZGOQ+B3nueZ5z7udDwo7dye98Ofne3wNArbwoDCdkRcQP//j6km8wAQC10isNJ2R1xJNxXDhvacTwAADiel4aTshz8Q5GY0w2b6V/j+EBAMS1VhpOyFvxDsaAbN7aUcMDAIhrnzSckIgfTt0pmhfYbnoAAFH5ApPvL/2i1yVzCyEBgHp5VhxOxx+jHYsuyyCLLDU8AIC4LHJPyOZox2KXYF5kzPAAAOJ6UxxOZ417d7RjMSqYK7kDADVjkXs6VsU7Fofl8kKDpgcAENU2eTgZT0U7FY11cnmhLaYHABDVS/KwbZAPsMXdJncAoHaWrxCIU/FOtFNxUCwP+Hhqj/EBAES1SiBOxb5oh+K4WB5gxPQAAKJ6USBOxLKuaIfimFQeYKfpAQBE9aREnIg10c5Et88vhThpegAAUa2ViBPxRLQz4bepQY6ZHgBAVBsk4kSsj3YmBoXyECu7jQ8AIKbuTSJxGvZGOxNDQnmQAeMDAIjqZZE4DZujHQnfTfXtVACgjp4WiZPwbCPakRiTyYMMmR4AQFTbZOIkPBXtRHT1y+RBlpoeAEBUr8nEfpt6n2GR3FoZAKCOGquF4hS8Eu1EjIjkYdaZHgBAXL6dmoKI3009KJIHWm56AABRrZeKE/ByvANhG6R9kABAPb0iFSegN96BWCqRBzpgegAAUXXNNpMwu+jq1a8vXPhXJwb3tfEOxLhEHuiE6QEAxPVuMzGzi/G909L7xnjnwRr3UHsMDwAgrlOzzQRd/bqTsvuqeMehsVIiD3TS8AAAomr8pZmo2c7J7m/FOw89Anmow6YHABDXxma6rl7ojOC+Ld5x2C6Qhxo3PACAyN5NOLk3Z7/uhOC+Od5p2CGQh3rB7AAAIjvVbKYd3bNvzKyJeBoOCeShtpodAEBkLzWbqUf3zIP7kxFPw6BAHqzb8AAA4mqcnk0+uufddX8l4mk4IY8H2214AACRg/urzfRdzbgvsynmy+6oPB5s2PAAACLblkFwz/nR/c2Yh2FIHhfcAYDa2tjMQraP7ttiHgbBPdyA2QEAxPZuHsl9NtPkvjnmWdgjjwfbYXQAALGdamYiy/Uya6KehS3yeLBdRgcAENtLuQT35tUcl0E2Yp6F4/0CeagRowMAiK1xOpfgPpthcj8S9Swcl8eDHTI6AIDo/tzM5809t6L7qqgP7kuWyuPBDpgcAEB0+XRl8kvuT8Y9CiflcS/uAECN5dOVyW+5zL64R0FVRscdAKi1U82c3txzyu3PRD4JtsrYKgMA1NqRpuSuKXOLPe6PsMe9YXIAAPGdltzr6bXIB8GXU32ACQCot6y6Mhl9iSl2U0ZwfwQD5gYAUIF9eQX35oVMgvv62AdhVB4PNmxuAABVyKsrk81qmQ2xz8FOeTzYdmMDAKjCnzJ7cs+j5v5c9HOwXx4P1mVsAABV2J1ZcM+j5v5O9HNwSB4PtdLUAACq8WpuyT2Dssym+G+6uwTyQP1jhgYAUI29TWWZuumNvyh8WCIPdczQAACq0TidW3JPf7PMvvjHoEcgD/W2oQEAVCS3n6emv1lmTQWnoLtfIg+01MwAAKrR2JhbcE/+96nbqjgH6yTyQFsMDQCgKq/O+n1qrX6aurxRwSk4KpEHGjUyAIime3jX4Imh997re1y/S81va+j3ZfnNYxj/so1++umnr1q4du2TGxe/v3zd71P/5+lKBsMbEnmgQbcIADEsHxntmzg3vbD455f9M9y5lj4vzWe/zj8e9HFZ/laCL277a2k+fAz3/fPzt31UgjO3nL3119TU1M0rP87NTLYw/90n31/y5H7bkUqmwxaJPNCOhrsEgDbrGhmamH5oYi83tp+rOrZ/1sbY/nFmsX3RR/8X28+XFdvvN3WzILxPzl8rK7yn3HJ/rpoJsVMiD7TbdQJAWzVG+t5faJ3a6xjbPxfbI8T2D9vw3H7mYX64Mtcyuk/OfHfxeoc/ua+tZkgckMjDbPXgDkA7DQ+NTRfSkkm0JVPD2P7w3H7LzX/PF2T3rz7t5Cf3ZyrKhTtE8jBHXSkAtO+x/dD4wsJCtNh+TmxP9Lk9Umy/7cuCZ/fJ+RuP++w+m+4uyIqCuy8wBTrsVgGgXbH9wMT0wnTnxHYtmceK7eejxPZbv1a92fbonurnU1d3VTUsLHK3xh2ASmP7/kRje9bl9i86stz+YGOmKLrPfHK9EzdCrq9sXLwukwc56GYBoB0GxqenlduV22vVkrl3yUzrrvvM5PzFx+nKpPnz1GUbK5sX9kGG2eVqAaB8y/cUV9uV25XbK4rtt6P7lZmCV/fvLndaV6a3uolxUCYP0b/c5QJA6QbHpqe1ZJTb69iSuevsD23syyTZlVmxobqRYa1MkBdcLgCUrauv3Od2sV25vfTYflvho/vc5U7aK/NElUOjXyoP8IbrBYCSDUwot2vJ1Lklc9f5gqb75OTMxc7pyizbUOXYeEEqDzDkfgGgXPvfn7YCUkumXisgH/4x1R8Lkvvkteud8g2mpyudG29I5QEOuGAAKFN3n3K72J5AS+ZnHxXWZb691Bkl92of3JeMSuUBtrtiAChR1+GFjm7JfGwFZCItmXu+pFqU3Ocvd0TJvdoH9yW7pPJiY64YAErU87pyu3J7UrH9zJmp4uT+za9I7qltcl+2ueL/86+UywstdccAUJ7tEwvK7VoySZTb7/sYU1Fyn/k0/1+n9lY9Pcbl8kInXDIAlJjbldutgEyl3H5PcJ/6exuSe2K/Tt20serxsUcuL7TDLQNAWXomtGSU25NqydyJ7YuK39y/yfzXqZU/uC85IJcX2drtmgGgJF3jndKSUW7PLLYvKuy5zzziL1Rn0/p16rOVP7gv2S2YF3nbNQNASbpb75NRbrcCspYtmbvJvWif+/ylnNfKPF+DEXJUMi8w6p4BoByNvpJyu3K7cnv82D419cGVouQ+94hfYkoptz9Thw6GkruKOwCRHFRuV25PsyXzs8JvqH6V7z7IvY0azJARyby1dQ0XDQClGHhfuV25PaXY/kBun/phvii538g1uD9ViyHStVU2b+mkiwaAcq7cCSsgldtTbcnccfZsyatl0lnkvuy1eoyRw7J5S4NuGgBK0afcriWTdGxfzO1nzxbV3Gfmr2cZ3HtrMkYOyuat9O920wBQhkHldi2ZdMvt/43ti+aKyjLXcgzuq3tqMkeGhfNWxt00AJShZ8wKSC2ZFrG9/i2ZO4q/wzT5aYbB/Q+1mSQWQloGCUDbvbeg3C62J1xuv6t4s8xcfsF9TX0+xzkqnbcw7KoBoAQ7znVaS0a5Pb+WzB0flLhZJpHgvuJIfUbJgHT+cMdcNQCUoDG+oNyu3J5DbF9U+AHVmUuZBffeOg0TXRlNGQDaa79yu5ZM4uX2e57c50r7DFMawX1VV52Gia6MpgwA7X1wn1Burza2WwFZWmxfdLMouE9eziq4763VNLFXRlMGgLYa1JJRbs+iJVP2SsgkgvtbNRsnxyT0h9jprgGg/Af3fFoyyu3/Ye9edqu67jiOI53okC1Zru0Y1xLGXAXYxsH4inHAxhYkwoAdHJOLIjWKokatqki4E6giMeogw7xFZ2XEC7SPEGWEWjXKqMqoUaVmEKnEhGucHIP3OWf91/58BnmAOFr7q53fWTufbL+x7Wzfxiv3e1/kE+7JXOH+0KRC/5mvL4172ACwc4vG7cbtmaxktrty/yafcL+c2nky06vRt7TkWQNACZ66Usa43bg9eLaXeLFMgHA/UCR3oOzW6Fta8KwBYOeOGrcbt2cybn/odkl3uacf7sdeTe5AKeY0+lYG6x42AOzckJWMlUwm4/ZHGn4+9dtMwv1ygidKMaXStzBUeNgAsGP1ZVdAyvZ8VjKbPm98I+S/sgj3g0meKa5yd4k7AE0y933+K5lPrWQqs5LZ9o2Q/8wg3Pd0Jnmm+HnqFj70rAGgBK8Yt7sCMrdsv3nzy0bh/nUGb9w73kjzTCn8PNVPUwFoitrvjdutZB5mewYrmR9913Ar8+f44b4/1VNlQqc/a8pPUwEowZxxu2zPZ9z+WKN7Ze59Ez7cL6TbgitK/RnnPWsAKMHs91Yyxu1ZrWS2ea/MV9HDfeTVdI+VBaX+zF2QNc8aAErwfjYrGeN22f7EvTINv8H0x78HD/fLCR8rxRWt/vRdkB41AJSg87O/GLdbyeS1knkwcr/XKNz/Fjvce5I+WM5r9SeNzXjWAFCCOeP21mX7Hdneqmy/eXOj8YWQocN9OO0fO9YG1foTVj1qACjDxbvG7cbtea1kSvx4arrh3nc48e9wTqr1x3p9fAmAUrxs3G7cnt/r9h/euDe8yf1e4HDveC31k8Ur9yec9KQBoBTv3wjH/AwAACAASURBVDVuN27PMNs3Nv7b8NepX8QN99Ei+aNlXa8/euE+7kkDQBnqnxm3G7enm+076PaNjYbh/r+w4X49/W4v6suK3Qt3AEo1btxuJZPbuP1Btm9sNLxW5j9Rw31vZ4TDxcUyD1+4u1IGgHJMW8lUcSXz18xXMptul/Dt1DTD/dihGP87b0qzb5r1oAGgHMfvWskYt+eY7fc1vA/yHzHDveOtKKeLZt/8aGq3Bw0A5ZjMaSXzqSsgrWQeu1XCfZBJhvupKKdLcU2137fuOQNASYbuGrcbt+eY7fc1DPevQob7/iLM8TLRL9s/map7zgBQkt8atxu3Z7iS2V64fx0x3F8qAp0v7+j2TxY9ZgBobrgbtxu3h8v2n3T7xr93/gWm9MJ9ONT725mxynf7u54yAJTmFSsZ4/YMVzLZhvuRWD90LC5W/irIo54yADQz3BNfyRi3y/ZtZfvGxpcNv8AULtz7Xi1iHTC1ql8J6SpIAJoZ7sbtVjLhx+3ZhvvIG+FOmLmK/zK15iEDQNPC3bi9hGy/I9vbPG7PNdxH3gp4xKz6ZSoANCXcjduN2/NYyWQZ7h0DRcAjpnuwwt3+jkcMAM0Kd+N24/ZcVjI5hnvX5ZhnTIW/n+qbqQA0K9ytZIzbs8r23MK961TUQ2atsuF+3BMGgKaEu2w3bm9ftjen2zML9xNhD5nxql7mvuQBA0BTwt243Uomo3F7juG+P/ApU9GxzOCMBwwATQh3V0DmnO2VXMlkF+49oY+Zd9woAwDlhLuVjHF7PldAZhru+2IfM51V/AzTSY8XAMoPd9nuCsj8VjKZhfu+6OfMRG/luv2KTy8BULqXXQFp3J5ntucT7l0n4h80Q1Xr9t4JTxcAWhvuxu3G7SHH7XmFe9doBgdNfaVi4b7u4QJAS8PdSsYVkEHH7VmFe8d7WZw0M8uV6vbdhYcLAC0Md1dAGrcHXsnkE+4jA5kcNZWauV/p9GwBoIXhLtuN2yOvZLIJ946z2Zw169Xp9rEzHi0AtC7cjdtdARk+27MI977XMjpsVqvS7f0LniwAtCzcjduN22OP27MJ9z2Hcjps6lcrEu5DHiwAtCrcjduN26OP23MJ9wvdeZ0244OV6PY1zxUAWhXust24PYOVTBbhfj27T/hMjFWg26/58hIALQp3Kxnj9lyyPXy492R43iz0Z9/tUzMeKwC0JNxlu5VMJiuZ+OHeMZrlgZP91TJjRz1VAGhFuBu3W8nklO2xw33kbKYnzmze3d477aECQCvC3RWQobPdSiarcN9zLtcTp1jL+iLI454pALQg3K1kjNuzuAIyj3A/0J3vkVNfyjjc1z1SAGh+uFvJGLfntZIJHe5d++o5nzm1D7Pt9klPFACaH+6y3bg9v2wPG+7HBjI/dGrXfHgJAF4w3I3bjdszG7eHDvcjh3I/dIruPD+hOut5AkCzw924fTvZfse4PdK4PXK4X++swLEzcyXDbj9ZeJ4AECXcrWSM25N63R4z3EdGq3HuzFzV7QDQrnCX7ZUft99ILdsjhvvec1Wpv+5r9u0A0JZwN263kkkv2zduhwv3g7XqnDy1Fd0OAG0Id+N22Z7WuH0z229HC/e+s5UaW9Qyus+93/3tAAQJdysZ4/YUX7eHC/cDhyt29tSz+YZq77wnCQAhwt1KxhWQiWZ7rHDvOFG93zYWs3l0+9iiBwkAIcJdtlvJpJrtocJ976Uqnj7F+f4Mun35qOcIABHCPc9st5KJvZK5fTtcuHfsq1f0/FkcC9/tV8c9RgAIEO7G7ZW/AvLzhF+3Bwr34UPVPYAmloN3+1KnpwgA6Ye7cbtxe9rZHiXcj41W+ss947E/xXSy7iECQPrhLtuN25O8AjJcuJ8+XO0TqKivBv5ZqutkAAgQ7lYyxu0pj9vjhHvfZWfQrvneoN0+NeGPB0Dy4S7bjdtTX8nECPeOHgPpH166Bx26vzvjbwdA6uFu3G4lEyLb0w/3A5ccQA/KfWYl4NdShwp/OQBSD/ecs/2ObM9j3B4i3I8MOH4eqV+MNpdZnvNXAyD1cLeSMW4P8ro98XAf2e86kqdMTIXq9rVufzIAEg932V75cfuNONmecrh3HTzs7HlGLdDtMmPn/b0ASDzcjdutZCJle8Lhbty+pYXBKB9LPeqPBUDi4W7cLtsDXAEZINyHX3fubG18LcTr9otWTgAkHu5WMq6AjPW6PdVwHz7r1Pmll+79qXf7yhl/JgDSDncrmXZku5XMjrL99q0Ew33vgDsEf1H3yf7E1+3+gAAkHu6y3UomyhWQj7P9VnrhLtu3YS7l62XWfHMJgMTDPc9sdwVkxuP2zWxPLtyHZfu21CbHEs32Kwv+OgCkHe7G7cbt4VYyt24lF+5dp1+X7ds1k+ReZnDSj1IBSDvcjduN2wOO25ML946Dh5w1z2NiJbVs71/1ySUAEg93V0Aat0cctycW7n37fG7peRXH05q6L7m6HYDEw91Kxrg95rg9qXDfe6rmnHkB9fnldK6AnPb3ACDtcJftxu1Rx+3phPvIS6bt4dN9ZdHfAoC0w9243Uom7rg9lXDfe6LTEbMTtcnBtmf7tTl/BwASD3fjdtkeeNyeRLgf6znnfNn5W/fjV9r8tt3/MQEg8XC3kjFuD76SaXe4dxx4r6b4SlEsLrWr2ntX/SQVgNTDXbZXftx+I4dsb1+4dw2PukamTBO7e9txb/uQz6QCkHy4G7dbyUQft7cz3FV7M8xMtvp2yGvzLgMCIPlwzzPb/2TcXpUrINsb7qq9aYrpFr52X561kQEg/XC3knEFZB4rmXaEe99Lp1R7M3WvX21FtY+tLdT9ywYg+XB3BWQ7st1Kpjmv21sb7l0X9r2u9ppv/PxKk3+PunK+279mAAKEu2y3kol/BWQbwr2r7+3LYq9lzlxs2gWRvUvz/pAAhAh343ZXQGYzbv/Rb75tfrgfefvUIfc+tlSxa3x+91h/6bv21QWfywIgRrgbtxu3ZzRuf+C7XxevffDxR/eaFe4dF3oGvKBtk/r0bIkv3nvfXfdrVACihLtxu3F7VuP2H/1q166iXr80/7s3f67eXzTcjw33nHrDpr3NZhaHVsZ2/lvUpYvTbn4EIE6455ztroCs4rj9cbj/oLhf793TW757f/5w7zpyev+AcUwyatOTa1MvOpsZu7o6f8bfEoBI4W4lY9ye27j96XDfjPfNfx49/sHHb370YuF+bO/1ntGzl+o6L8F6n5if/XDweZK9f2ptaOFM/dF/GQAQI9xle9XH7TeyG7dvEe5P6Zye/+Dj+wX/UeNw/8OeC6cP9pwYOOd3i2m739/dRxfXZ9eu/p+9+3mx8rrjOL5Im+lASSO4sBRctFCcbibqxNZYCLEgSIm02hS70BLEVWha02s1I5KN2yzcuNW9C2cjWXUxgZYu3HRl9wGlleA/kEXnh20mmDjPvfc8z/P9nvN6LUZmKSLnzeFzz31hwO/95emzS28eecPMCYCGwt243Uom8rh9l3DfYc8Pf/7ewYPnz58/d+7chQsnT568cOHCuXMbvx88+N5vfvyjl3eGIQnqffPnnjcOHz+wsrK0dHR5eWHh7PLy0tLSylsHjh0+9JJ/TACaC3fjdtkefSXTNdx3Vt/i4tbP7bDb/o2kBb/4NUEPAA2Gu3G7cXv8lcyGyeR7/n8DAC2Hu5WMJyATrGQ2sl24AwBNh7tst5LJkO1b3S7cAYB2wz14tlvJeAJyR7YLdwCg2XD3BKRsTzJuF+4AQNPhbiVj3J5l3C7cAYCGw122G7dnWskIdwCg0XD3BKSVTLpsF+4AQHvhbtwu23ON24U7ANBmuFvJGLfneQJSuAMAzYZ7imxfM243bp8IdwCg5XA3breSSbmSEe4AQFvhbtxeT7Zfai7bhTsA0E64G7dbyeQctwt3AKCpcDdurznbb1Y9bhfuAEBD4W4lY9yeeSUj3AGAVsLdSsYTkBlWMpOJcAcAmg532W7cnnwlI9wBgBbCPXi2ewLSuL1Ttgt3AKDycDdul+3px+3CHQBoINytZIzbUz8BKdwBgDbCXbYbt9exkhHuAEDV4d7YSsa4ve5sF+4AQK3hbtwu22sZtwt3AKDmcLeSsZKpZtwu3AGAesM9RbavyXbj9olwBwBaDnfjdiuZylYywh0AqDHcjdvryfZLsl24AwDVhrtxu5VMbeN24Q4A1BjusbN91bjdE5AzZrtwBwAqD3crGeP2ClYywh0AqD3crWS6Z7uVzFDX7ZOJcAcA+I5sN26vcCUj3AGAmsO9gnH7F/9gLl9UlO3CHQCoNdxrGLc/+CNzeVDHuH3bunAHAGoM9zpWMsI9RLiHuG5f/+QT4Q4A1BfuAbN9pnW7cA8Q7jGyfaPbrwl3AKC6cK/mCUjhPnq4fxRjJbOR7deEOwBQW7hX9HK7cB873KNk+2a3C3cAoK5wr+oJSOE+brhHGbdvZbtwBwDq8u06xu3CPUC4R1rJCHcAQLhHXckI97HDPdRKRrgDAMI9cLYL9xHDPV62C3cAQLgHHLcL93HDPdi4XbgDAMI98nW7cB8r3MON24U7ACDcQ2e7cB8n3COuZIQ7ACDco65khPtI4V7sur10tgt3AEC4R8124T58uMcYt69/XbYLdwBAuIdcyQj3EcI96rhduAMAwj10tv/lsnAfNNzDjtuFOwAg3OOuZDay/bJwHzLcYz4BKdwBAOHeS7avlcx24T5guIcetwt3AEC4R13JXL4s3AcN9+grGeEOAAj3mON24T5ouKfIduEOADQe7oGzXbgPE+7xx+3CHQAQ7lHH7cJ9sHAP/gSkcAcAhHvwlYxwHybck6xkhDsA0HS4R8924d57uBe7bh8g24U7ANBquMfPduHec7inGbcLdwCg4XCP+wSkcB8o3BON24U7ANBsuK9muG4X7r2Ge6Zx+7b7wh0AaC7ck2S7cO8v3LOtZDa7XbgDAK2Fe5psF+59hXuMbF+fLtvv3xbuAEBT4Z5j3C7cewz3fOP2zWy/f1u4AwAthftqout24d5PuCcct29lu3AHAFoK91zZLtx7CPeU4/atbL99/fe/3s3J3Xwru9/+7CcXf/D9gt599+LF351ZYDdnl5eX3jlw5NDLThkABgn3Ytm+Nky2C/fi4Z503P7Mf/68mz/t5q9/SO7V//8o47sbNv988vTRZ+/zYvv2bfzY+/bCieN7HDUA9Bvuqcbtwr2XcM+7ktm6cRfuPXsi3jsG/L5Ty8dfctwA0Fe4r2ZbyQj34uGeL9t3Xrdfvy7cB/D4qXbv6LVfHHjFiQNAH+GeMtuFe8lwTzxu38524T5Uuz/6tyrv2O4LxxYdOgAUDveMKxnhXjTc0z4B+WW2C/fhfPq5KO/o9RXX7gCUDPfVpNftwr1cuCcftwv3oT18LN272n/0pw4eAEqFe95sF+6Fwr3YdftktJWMcB/+k6rSvfNiZskrMwAUCffM2S7ci4R7BeN24T5Ouvucaud0X/G8OwBzh3vacbtwLxXuucftX+l24T64p5K8q1OHnT4AzBXuq7mv24V7gXCvY9wu3Ed7YcZeprNf2csAMEe4p8924d5zuCdayQj30R6Y8TZk50+pHnMAATBjuBfL9rXRsl249xruA2X7eqlsF+4jXbpbune2ZOkOwCzhnn3cLtz7DvdU43bhPqpHiryr04ecQQBMG+6rFaxkhHuf4f5hmicghbvPqCayb/9xhxAA04V7Ldku3PsK92zjduE+9sOQhu5d7X3TKQTAFOFexbhduPcY7vnG7cJ99KG7cu8+dHcMAdA53OsYtwv33sI92ROQwl25Z7O86CACYKhwD7KSEe69hHvOcbtw97hMJgselwFgmHCPlO3CvXi4Jx23C/cAHir3zs64cwdgiHCPs5IR7uXDPeMTkMI9Trlby3R+XGbZUQRA7+Ee67pduJcN98TjduFu557MCWcRAP2Ge7hsF+4lwz3zuH3L3bvCfexXIQV5Z285jADoMdwDZrtwLxfuucftW9ku3Mf3qSDv/J77MacRAL2Fe7Bxu3AvGu7Zx+3b3S7cx/dIkXe1/5DjCIB+wj3kdbtwLxTu+cftW9l+95ZwH5+nZTo77VFIAPoI96jZfvmecC8Q7lWsZDay/ZZwj/ABVUHuK1QBGDHc12KuZDa7XbjPH+4DZft6b9l+/X/ZLtxDeCrIOz8KedyBBEDhcA+c7cJ9/nCvZSUj3MP4XJF3Dff9e5xIAJQM97grmXvCfchwnwRfyQh338Pke5gAaDvcw2b7s26/ItwHCvcM2S7cjWXSlfthRxIAhcJ9LfRKZiPbrwj3YcJ9yCcgZxq3C/dQXLl3dmrRmQRAkXAPvpLZyPYrkwd/G0vZfh7tr/GgjnH7M/8S7r6GKdmVuy9QBaBEuCfI9g0fXL0yu0tz+GfRbv/71Wc+KOajF3qW5Ou3b12rYty+5cYN4e7zqem+hsnnUwGYO9zDj9vnd+lSuHAfKtsrerl9Z7YL9zCeCPLOTjiUAJgz3OOP20fu9l7Cva5sn3rcPm2333qu24W7K/eEV+6vOJUAmCfcc6xkxsz2PsJ94JXMh1WN22/cEO6u3JNacSoBMHu4B8/2exGyvXy4W8nMn+3CPZDPBHnnK/eXHEsAzBjuxu2jhHtl2T7kE5A7ul24e1gm48My7ziWAJgt3I3bU4d7s+N24e4t97xe95Y7ALOEu3F77nBvd9wu3MN5JMg7O+JcAmDqcLeSyR3uLY/bhXs4j/V4ZwvOJQCmDPe1+lcy5bL95s1w4d72uF24+3hqYq95ERKA6cLduH2abI8X7s2vZIR7NE8FeWcHHEwATBHuxu1TdnuwcM+X7dd6yHbhbiuT1BkHEwCdw924fdpsjxXuxu3C3VYmtb2ecgegY7gbt0+f7ZHCPecTkIXH7cLduzKpHXMyAdAp3K1kZsj2QOFu3C7cfQdTekedTAB0CPfg2R70uj1OuBe7bp9kX8lsuiPcI3moxzs75WQCYNdwN26fMduDhLtx+1ey/Y5wN3JPat8eRxMAu4S7JyBnzfYQ4Z5z3D5tt9/q2O137gj3YF41cjdyB6BUuBu3z57tEcLduP25bhfuRu5ZnXA0AfCCcDdun6vbr44d7lYyz2e7cA/miR7vbMHRBMA3hrtx+3zZfnXkcI+R7TGegPwy2z/+WLj7dGpSbzuaAPimcDdunyfbN7t91HBvY9x+97/s3U9qX1UYx2FwIgruw5ngQHAXTlxIQiZBShMKmZQM0+SXDtqJowyESBfQNTjSHTgQt2CaINU2Se89556/7/PZxH04fHnvaraDe2/9CeSLf8H0hW+TJOleuBu3Z7O9KdzHG7fXWMmcgruzMiP3rW+TJOk+uFvJZK5k2sLduP1BtoN7b/3F44v7zrdJkvQQ3LE9j+3N4G7c/gjbwb233INc3te+TZKk++Fu3J61kmkIdycgH2M7uIP7uP3o2yRJug/uxu3Zz+2N4G7c/gm3g3tn/c3jDrlLkrL6ykomn+0t4G7c/im2gzu4j9v3vk2SpHJwD8b2D91eHe4xTkC+SF/JgLtfpw7dN75NkqRicI87bm8Dd+P2e9x+egru4D5LP/g2SZIKwX1jtg+2kqkP982e2w/mXcm86zm4g/uofe7bJEkqAvfY4/b6cDduX8b20+fgDu7gLkkCdycgm8HduH0x28Ed3MFdkgTuxu3N4G7cvnAl8xzcwR3cJUngbtzeDO5WMmvYDu7gDu6SJHA3bm8C9z7Y/rYY2zddyYA7uIO7JAncjdvbwD3GuP1qQ7aDO7iDuyQJ3I3b68N9vHF725UMuIM7uEuSwN1KpgHcjdvXP7eDO7iDuyQJ3LG9MtyN25PYDu7gDu6SpOhwN26vDHcnINPYDu7gDu6SpOBwn5ntic/tReFu3J4wbr/rJbiDO7hLkgLD3UqmLtyN25Of25+/BHdwB3dJUly4W8nUhXuME5AvSqxkbtgO7uAO7pKkuHDH9rpwN25PX8m8BHdwB3dJUly4b8z2aVYypeBuJZPJdnAHd3CXJMWEu3F7XbjPfgKy7Lgd3MEd3CVJYeFu3F4X7sbtG7D95Qm4gzu4S5LCwR3be4K7cfsytp+AO7iDuyQpGtyN27uCu3H7Era/czu4gzu4S5Jiwd24vSu4Dz9ur7SSOQF3cAd3SVIwuBu3L2q/EtyDrWTy2A7u4A7ukqRIcJ+Z7ds9t+/v14F7j2z/qctxO7iDO7hLkoLB3UpmIdvrwN24faXbwR3cwV2SFATu2L7c7RXg3ukJyD7H7eAO7uAuSYoEd+P25WwvD/egJyCz2A7u4A7ukqQQcDduX8P24nA3bl98AhLcwR3cJUmh4G4ls47theFu3J7y3A7u4A7ukqT54e4E5Gq3l4R7p+P2tW6vOm4Hd3AHd0lSCLhj+2q2F4R70HH76w3YDu7gDu6SpLnhvjHbA6xkisLdSiZp3A7u4A7ukqTp4W7cnub2QnCvxPapTkD+px24gzu4S5JmhbtxeyLby8DduD2P7TtwB3dwlyTNCndsT2V7Cbgbt+eyHdzBHdwlSZPC3Uomne0F4G7cnjNuv3M7uIM7uEuSZoQ7tme5fWu4G7fnP7eDO7iDuyRpRrgbt+exvR3cZ1jJlGI7uIM7uEuS5oP7zGzfq8H2VnA/sJJ5hO273R/gDu7gLkmaCu5WMtlsbwT3udme+9y+u7gAd3AHd0nSTH2G7Ru4vQXcW5yAHGXcfst2cAd3cJckgbtxe3u4z3QCsgDbb90O7uAO7pIkcH+A7TFXMi3gbtz+6ed2cAd3cJckgbtxe2u4G7cvYTu4gzu4S5LA3UqmKdxbjNtfjTVuB3dwB3dJErhje2u4zzRuf11q3A7u4A7ukiRwN25vDHfj9qXP7RcXx+AO7uAuSQJ3JyDbwD2H7W+Lsb3HlcwN24/BHdzBXZIE7lYyTeDe87j9qj3bdx+wHdzBHdwlSeDeLdv3GrG9Ctwjn4BMYju4gzu4S5LA3QnIBnA3bl+1kgF3cAd3SRK4G7e3gLtx+3q2gzu4g7skCdyN2yvDfYYTkFXH7eAO7uAuSQJ34/b6cD+wkkliO7iDO7hLkqLD3bi9LtznZnuplQy4gzu4S5LCw91Kpi7cez4B2e+4HdzBHdwlSeHhju114T7DuL3yCUhwB3dwlySB+79st5KpBXfj9uXP7cfH4A7u4C5JAncnINvAvc8TkEOM28Ed3MFdkhQZ7lYydeFu3J61kgF3cAd3SVJUuGN7Xbgbt+ezHdzBHdwlSQHhbtxeGe7G7bkrGXAHd3CXJIWEu3H7MHAvOG4f5AQkuIM7uEuS4sLdSmYcuJcet18NMm6/7foa3MEd3CVJkeDeIdv3umP7/v5vPcB99JXMpmy/cTu4gzu4S5Iiwd24fUlPn3YA9wHYXnElc8P26zNwB3dwlySFgbtx+zK2dwB34/aP2H4G7uAO7pKkKHA3bl/s9uZw7+UEZCfj9lu2gzu4g7skKQjcjduXs7013KOdgPzkuP3sDNzBHdwlSWHgbty+gu1t4W7cfu9zO7iDO7hLkkLA3UpmFdubwr30CcgRx+3gDu7gLkkKAndsX+v2dnDvZdzexQnI/7Md3MEd3CVJs8P9FyuZtWxvBvdo4/Z1bgd3cAd3SdLccHcCcj3bG8G94AnIq9FXMuAO7uAuSZod7lYyKWxvA/cA4/ZdDtuPjsAd3MFdkjQt3LE90e0N4G7cfv8JyPdsB3dwB3dJ0rRwN25PZXt9uBu3P/7cfnQE7uAO7pKkeeFu3J7M9tpwLzhufzLFuP0I3MEd3CVJ88LdSibH7XXh3stKpt9xO7iDO7hLkqaFe4ds3xuI7VXhPutKZstxO7iDO7hLkmaFu3F7Htsrwn0AtjddyRwdgTu4g7skaV64G7fnsr0e3FNPQAYbt4M7uIO7JGlGuBu3b+D2wzpw7+0EZLfjdnAHd3CXJE0LdyuZHLY/PawC92gnIDPG7eAO7uAuSZoU7tieyfYacDduX/ncDu7gDu6SpOngbiWTzfYKcE8dt78KOW4Hd3AHd0nSjHDH9qxx+2EVuPc2bn/d+bgd3MEd3CVJ4G4lc6/by8I92rg96wQkuIM7uEuSwN0JyAfZXhTub98WY/vEKxlwB3dwlySBu3H7x2wvCffS4/ar9mzflWE7uIM7uEuSwN24/QO2l4O7cfvaE5DgDu7gLkkCd+P2h91eCO7G7Ynj9rt+/R3cwR3cJUngbtxeHu7G7RkrmRu2/wru4A7ukiRwt5KpAPdeVjIjjtvv3A7u4A7ukiRwj7ySOTysAvdZVzJ1xu23bD8/B3dwB3dJUnS4G7eXhvsAbO98JXPDdnAHd3CXJEWH+54TkMXhnngC0rj9X7efn4M7uIO7JCk83I3ba8C9pxOQA47bz8Ed3MFdkhQe7lYyVeAe6ATk8cYnIN+zHdzBHdwlSYHh7gRkX3DPZfuLWcft4A7u4C5JCg534/au4J6wkokybgd3cAd3SVJouBu3dwX3N/2tZE56OAH5n56BO7iDuyQpItyN2/uC+/jj9ouC4/Zbtj8Dd3AHd0lSQLgbt/cF91VsfxJv3H7ndnAHd3CXJMWDu3F7V3AvuJJ5PewJyI/ZDu7gDu6SpHBwD7ySOTzsEO7G7QtWMuAO7uAuSYoHd+P2vuDehO2ng43bwR3cwV2SFA/uxu2LOqgFd+P2ReN2cAd3cJckhYO7E5CL2H5QCe7G7Sue28Ed3MFdkhQI7sbtC9leCe7jnIBsPW4Hd3AHd0lSKLgbty93ew249zJu73cl8+wZuIM7uEuSIsLdCcjlbK8A94SVzNzj9qPHxu3gDu7gLkmKA3fj9jVsLw73N5OfgLzefCUD7uAO7pKkGHC3klnH9tJwH2fcfpI6br/enu3gDu7gLkmaHu5OQK52e1G457L9RbxxO7iDO7hLkkLA3bh9NdtLwn3Mcfuu7bgd3MEd3CVJAeBu3J7Asj+1XwAAIABJREFU9nJwn33cflxm3A7u4A7ukqTp4W7cnub2UnAff9x+0WTcDu7gDu6SpMnhbtyeyPZCcF/F9icRx+2Puv3yEtzBHdwlSZPC3bg9le1F4F5wJTP9uP2W7eAO7uAuSZoU7oFXMtlsLwF34/aslcwluIM7uEuSJoW7cXuW2zeHexO2N13JbM92cAd3cJckTQh34/Y8tm8O9/duN25PW8mAO7iDuyRpSrg7AZnJ9u3hbtye/Nx+eQnu4A7ukqRJ4W4lk832zeE+9gnI9uP2u34Gd3AHd0nSTH2J7Ru4vQjcg4zbz0qx/WdwB3dwlySBuxOQFeBu3J4+br9zO7iDO7hLksDduL043Gc8AVlv3H7LdnAHd3CXJIG7lUxpuA86bu/hBOR7toP7P+zcz0pdWRbH8cfoF3UmNQglCv5JBbG9qRY0UGQkThJCETNy2IOGpukHar1Wd+yKeu85Z6999tnr832KD4sfC9zBXZIE7l5ABsP971YyBdh+cADu4A7ukiRwN26fFe5JXkCuJqxkHtwO7uAO7pIkcDdunxPuyxu313wB+Z3t4A7u4C5JAnfj9hnhbty+LdvBHdzBXZIE7sbt88E947h9NY7t4A7u4C5JAncrmbngnmTc/nnquB3cwR3cJUngvuCVTCDbK8F91pXMosbt4A7u4C5JAnfj9tngXorts65karId3MEd3CVJ4O4F5AxwTzBun/wC8uAA3MEd3CVJ4G7cPivcR53b847bwR3cwV2SBO6dr2R2dpqEe5MvIFset4M7uIO7JAncvYCsD/cuxu1/rc92cAd3cJckZYa7cXt9uBu3j1nJgDu4g7skKTXcjdtf6O73f0TBvcpKZn9BLyC3Zzu4gzu4S5LSwt0LyJfY/nsU3Jsct7f9AhLcwR3cJUnp4W7c/gLb792+uxsD9wQrmc9jVzKb2X5wCu7gDu6SpIRwN25/+dy+uxsD90Hn9g+LfQG5ClnJ3LP9FNzBHdwlSfngbtz+ykpmNwbuxu2Tzu2np+AO7uAuSUoId+P2DWwvD/fAF5AZxu2np+AO7uAuSUoId+P218btMXA3bp82bgd3cAd3SVJCuFvJbD63x8C9+3H757hxO7iDO7hLkvLBHdu3YXsA3Gd6AdnJuB3cwR3cJUnZ4G7cvh3bi8M9ZNze7komhu3gDu7gLklKA3cvIF9/AVkJ7r2xffILyINt3Q7u4A7ukqQccDdu3/rcHgn3xl9ANjpuB3dwB3dJUiK497ySKc72MLjXG7fvjx23f2px3A7u4A7ukqQ0cPcCcosXkPFwN24f/gLye7e34A7u4C5J6h3uxu3bj9sD4W7cPuncfnt7+C9wB3dwlyR1DXfj9mErmSC4Nz5uf9P0uP2B7beH4A7u4C5J6hvuXkAOZ3t5uM8/bn+/5HH7mu3gDu7gLknqGu7G7QPH7TFw737cvooct58+sh3cwR3cJUkdw924ffC4vS7cA9n+a0/j9kNwB3dwlyT1DXfj9jErmYpwL7ySaXHcXmolA+7gDu6SpI7hbtw+mu114D7o3J573A7u4A7ukqSO4W7cPnYlUwnuxu2DVjLgDu7gLknqFO5eQE45t1eA+3LH7bVfQII7uIO7JKlruPe8kqnB9nC4V3oB2c24HdzBHdwlSX3C3bh9KtuD4d7JSqY228Ed3MFdktQZ3L2AnDRuj4f7Mtk+2wtIcAd3cJck5YG7cfvQc/vuly9xcB+5ksk9bgd3cAd3SVICuBu3D2b7vdvD4N7KuP3Tssbt4A7u4C5J6h7uXkCu2X43kO1XVzFwN27f7PaX2X54DO7gDu6SpG7hju2Dx+1f1m4PgftyX0DOPm5fs/0Y3MEd3CVJvcLduH3EuH3N9hC4tzBuf7PQcfuj28Ed3MFdktQn3L2AHDVuv7qKgXulcfv7Psfta7aDO7iDuySpS7gbt48ctz/2U2G4dzJuX0WO2083sR3cwR3cJUk9wt1KZvxK5sHtMXA/8QJyzLn9+BjcwR3cJUm9wh3bp6xk7tkeA/dCK5kWx+3xKxlwB3dwlyR1CHfj9slsj4B7YyuZBbId3MEd3CVJncHduH3sC8jvbC8P92WN2ye/gCw9bgd3cAd3SRK4W8n8adweA3fj9unndnAHd3CXJIF7iyuZnflWMjXgXvQFZIJxO7iDO7hLksC9wxeQBdgeDfclvYBsh+3gDu7gLklKDnfj9mfcHgr3nsftH2PG7eAO7uAuSQJ34/bn2B4Jd+P2ked2cAd3cJckZYa7F5DPsz0O7kXH7SleQD7pG7iDO7hLkrLCvTO23xVjexjcc47bS6xk7tn+DdzBHdwlSUnhbtz+sttj4N74Sqbhcfua7Wdn4A7u4C5Jygj3zOP2Tef2GLjXY3tXLyD/6/azM3AHd3CXJGWEu3H7q2yPgLtx+xS2r90O7uAO7pKkfHA3bn+d7eXhvqRx+6q9cfvZGbiDO7hLkjLC3QvIjW4vDXcvIDee2zezHdzBHdwlScngbty+me3hcN+8kjFufzpuB3dwB3dJUj64G7dvw/ZouBu3jzi3gzu4g7skKRXcvYDciu2xcG9l3D75BWS9cTu4gzu4S5KSwd24fVu3X8fB3bh9S7f/wHZwB3dwlyRlgXuDK5mdFlcy92y/DoP7+BeQqcft4A7u4C5JygR34/bt2R4G92ZfQDY+bgd3cAd3SVIeuBu3D3L7eQjcuxm3f6w9bl/39i24gzu4S5K6h7tx+yC2X59HwD1o3P6mu3H78QtsB3dwB3dJUvdw9wJyKNsD4H7hBeRUtoM7uIO7JKl3uHfG9rswtv/0P7aXh3uz4/ZVMbbHrmTAHdzBXZLUPdyN24ef28vDvaEXkIsct4M7uIO7JKl7uGcet++OZ3sU3Jc0bm9sJQPu4A7ukqSu4W7cPpLtQXA3bp9ybgd3cAd3SVK/cE++khk3bo+Du3H7RLaDO7iDuySpU7h7ATn63H5+vlcc7vOP25t4ATmF7eAO7uAuSeoS7sbtU9i+Vxzuxu2Txu3gDu7gLknqFe7G7dPYXhzuba1kljduB3dwB3dJUqdw9wJykNvPf3R7FbjXYfvSX0CCO7iDuySpX7gbt089t1eBe7Jx++F0toM7uIO7JKkzuLd3bt9Z1kqmDtzHjts/pRy3gzu4g7skCdwbH7dXfQH5xO3RcF/8uL36SgbcwR3cJUngbtz+I9uD4W7cPortNzfgDu7gLkkCd+P2vb1acG/xBeTfml/J3LMd3MEd3CVJ4O4F5N5eNbgXOrfnGrc/uh3cwR3cJUngbtxeC+4zjdtXCx+339yAO7iDuyQJ3K1k9vZqwb3eC8jOxu2P/Qbu4A7ukiRwXy7bdyPYHgP3FsftPy9j3L5m+2/gDu7gLkkCd+P2CnA3bp92bgd3cAd3SRK4L/oFZOlxexTcjdsnsx3cwR3cJUngbtz+5z4Uhnu9cXvTLyCnsR3cwR3cJUngXvLcvrP4lcyD2+Pgbtw+8AXkE7eDO7iDuyQJ3I3b/5/tYXCvuZLpadwO7uAO7pIkcF/uuH2o28+3Xcl8CIP7ey8gp7D9l1/AHdzBXZKUG+7G7T+6PQTuicftx9PZfu92cAd3cJckpYa7lcwzbP9wUh7uuV9AThy3r9kO7uAO7pKkzHBvg+2NvID8zvaT4nBf5ri9oZUMuIM7uEuSUsM9x7j9ejjbi8PduH3qSgbcwR3cJUmZ4W7c/qLb4+A+5wvI5Y7bwR3cwV2SlBnuxu0vsz0O7sbto8bt4A7u4C5Jygt34/bX2B4F9+Bx+6rbcTu4gzu4S5LSwt1K5lW2x8C90xeQNcbt4A7u4C5JSgr35bG95komCO5zjtt/Xvq4HdzBHdwlSSnhbty+ke0BcE83bi+8kgF3cAd3SVI6uC/7BWT8uD0G7o29gFzcuB3cwR3cJUn54G7c/ozbT05mhPun7l5AfotYyYA7uIO7JCkX3Iud23c6Xsncd/RrNbinH7dvfW4Hd3AHd0lSHrgbt2/H9pOjo6NKcJ/+AjLHuB3cwR3cJUmZ4L7scftVrXH7mu2VLu71x+0fFzpuB3dwB3dJUiK4G7dvuZJ5rALc+xu3H4eN2x+7BHdwB3dJUv9wt5IZxPYaF/ceX0CGjdvXbL8Ed3AHd0lS93Bvg+13YWwvupKpc3GfPm5fFWP7IlYyD24Hd3AHd0lS53DPMW6/Lsn26Iu7cfvglcwluIM7uEuSuof78sbt865kKlzc07+AHMd2cAd3cJckdQ134/bh5/bgi3uP4/b4lQy4gzu4S5L6hrtx+yi2R17cjdtHsx3cwR3cJUn9wt0LyJFsPzr6dwzcl/sCct5x+x/9E9zBHdwlSV3C3bh9zLh93cVFDNzTj9vfTmH75VdwB3dwlyT1CHfj9vHn9ouLkIv79JVM2nH7mu1fwR3cwV2S1CHcc7yAPA9ZyVw8VB7u9V9AdjRuX7P96ztwB3dwlyR1B3fj9gkrmYeKX9yXO24/bGHcvmb7O3AHd3CXJPUG92Ln9ozj9j8qDPceX0COGrffjBu3P7od3MEd3CVJfcHduH3iSibi4m7cPnUl8w7cwR3cJUm99Rfj9slsv9jfLwz3uuP2j92N29+BO7iDuyQpF9yN27dk+/5RJNwXPm4/rjluv3zCdnAHd3CXJKWBu5XMNmx/cHvkxd24feS5HdzBHdwlSVngXontd2Fsr7WS2Q+9uA9k+6oY2xe+kgF3cAf3/7B396yRXmcch+s0DoEUrtIl2JVDXnEXJ5AuLxAC9vdwk05CIYURlom0rCQWoYnsBWlZg1YyeMkWcRdInY+TEGnGeDdajTTPy3nm3Oe+ri/x/Dj85x4AsoR7spXMsGwv9+Ju3H7SP9uFu3AX7gAkCPc/OQHZKdsLvbgnW8mMOG4X7sJduAOQJNyN2zt2e5EX9w0nIHeGPLcLd+Eu3AFoPtwrPQFZ57i93Iu7cfvQbBfuwl24A9B2uCc9ATko2wu8uAc/AbnucbtwF+7CHYDmw924vcMJyIIv7jlPQI43bhfuwl24A9B6uBu393puH//F3bh9+HO7cBfuwh2AdsO90nF7126fdNw+/Yt7ghOQI2W7cBfuwh2ARsM96bj9eIRsn/DF3bh99WwX7sJduAPQZrhbyfQat0/74t7quP1p33H73d0u3IW7cAegwXCfKNubOgH5ioODKcK9YLa3t5K5NhPuwl24A9BauBu3D8z2ScLduL1jts+Eu3AX7gA0Fu7G7YOzfYJwr33cvj3luP1opWwX7sJduAPQWLgbtw8Zt3/d7aXDPfu4vetz+2wm3IW7cAcgcbgbty/N9sLhftF3JZN23C7chbtwByBxuLewkimW7WXDPcG4/aREtgt34S7cAcgY7h9aydyV7Qf75cK9tZXMJON24S7chTsAWcO97Wwf/Ny+v18s3ANke1UrmdlMuAt34Q5A4nCf8gRkuHH7PNuLhbtxe9+VjHAX7sIdgHzh3tIJyALZvuj2MuFe+wnIesftcy9eCHfhLtwBSBTuxu0rPLeXCffsJyCPBq1krrJduAt34Q5ApnA3bl8p2wuEu3H7oOf262zf3RXuwl24A5Al3Kcct3ft9lrG7YXCPcEJyJ2iK5mrbBfuwl24A5Al3Fsatx8XG7cvbI4c7pWP22s+AfnNc7twF+7CHYAs4W7cvvJz+/7m6OFu3D5o3L67K9yFu3AHIEu4D8n2LCcgX2b76OFeJtszrGReyXbhLtyFOwAJwr3mcfuT9Wf7wc1sLxnu7Y3bT8qP24W7cBfuAOQI98wnIPtle7lwD76SWde4XbgLd+EOQIpwN27vtpIpGO4hTkB+vLaVzD3ZLtyFu3AHoO1wN27vke2Fwt24ve+4XbgLd+EOQPPh3sIJyGnH7eXCfU0nIOOO21/rduEu3IU7AM2G+4dWMv2yvUC4G7cPznbhLtyFOwDNhnvb2V5sJVMi3EOM2/fqHbcLd+Eu3AFoOdxrPgFZ8bi9SLj/s9tKJve4fbYs24W7cBfuADQZ7i2M2/+8jnH7xOF+OP1ze8Rxu3AX7sIdgFbD3bh99ef2zc01hnv94/auz+1HhVYywl24C3cAmgx34/YhK5npwt24/ZMu2S7chbtwB6C1cDduH5ztk4T7CCuZNON24S7chTsALYZ7Q+P24zWM26cK90MnIGfdntt3z86Eu3AX7gAI94zj9ru6vXi4tzdu3yk5bp9nu3AX7sIdAOE+z/avimV7sJXMtWdlw71TtmdYyayU7cJduAt3AIT7BOP2J+vP9oPVs/1Z0XCPOW4/Wee4/Uy4C3fhDoBwb2IlM2q2X3f7g4Lhbtw+6/XcLtyFu3AHQLg7AXkj2589KBfuTkD2znbhLtyFOwDJw924/fVsLxbuxu1dx+2vdrtwF+7CHYDU4V7LCchaxu3zbC8U7gVPQMYdt6/83H72+efCXbgLdwDyhnu2E5D3j9u/9p9/j+m/wU5AVjduX3S7cBfuwh2AtOFu3H77c/s3Nu50ceXhq7buYtz+ycBsF+7CXbgDkDbcS5+ADDluXznbN25m+8MVs/3QuL3LCciX2S7chbtwByBpuNcybq/iBGSvbL8Yku2ln9vbGrcLd+Eu3AHIG+7Zxu1du30j/Eqm17j9ad9x+/Oy43bhLtyFOwBZw73gCUjjduP28cftC4+Eu3AX7gBkC/cE4/aDisftnxm3d1/JXHe7cBfuwh2AZOFu3L7kBGQb4/btKcftRxON2+fZLtyFu3AHIFe4G7cbt0/43D4bayXzSLgLd+EOQK5wLzhuz3AC8qLvSuYzJyCHZ7twF+7CHYBE4V7LSsa4vdZsr+8E5CvdLtyFu3AHIEu4R1/JRBq3bxm3z0Z+bhfuwl24A5Al3ANk+1pXMhtOQNY7bhfuwl24A5Ao3I3b17KSMW4fdALy0SPhLtyFOwDJwr22E5Dxxu1Vn4Bsftwu3IW7cAcgSbhnOwFp3L7SCchA43bhLtyFOwApwt24fdwTkMbtk56AFO7CXbgDkCbcu47bu3a7cXv0E5A1jttv7XbhLtyFOwAth3tt4/Zj43bj9p7ZLtyFu3AHoOFwzzZuz3cCste4/WnfcfvzdY3bF86Fu3AX7gA0Gu5fOQFZ6bg9w0pm/Gw/F+7CXbgD0Gi4Jxi3Hxi35xi3L7pduAt34Q5Ak+Fu3D7dCcjD+lcyTys+Ablqtgt34S7cAWgx3I3bWx+3/73kuH2ntnH7uXAX7sIdgDbD3bh93HH7Q+P2Mcftuz2zXbgLd+EOQHPhXstKJu64vYqVzLYTkDe6/bFwF+7CHYCmwr3VlUyN4/Yt4/apVjJX2f5YuAt34Q5AW+FefbYnPQFZcNy+1/y4fZ7twl24C3cAGgv3XicgjdsHnYA0bi9yAvL8RrcLd+Eu3AFoyrcrOgFp3D7qc3vicftj4S7chTsAecM9/gnIzXQnIPdKnoA8qnslI9yFu3AHIGm4G7cbt096AnKMbBfuwl24A5Av3HusZIzbR13JGLf36XbhLtyFOwDJwv2L+lYyfwl0AvLQCcjpx+3CXbgLdwAyhnv8cfu+cfuY4/adAON24S7chTsA+cK9U7ZnWMlcOAFZ6bj99W4X7sJduAOQJ9wLrmSOw56AbH3cftLAuH3h9F/CXbgH9b5vEwAdw924vfGVTM3j9rPB2X4q3IW7cAcgSbgbtzdxAjLluH2e7cJduMf1e98mADqEu3G7cfuk4/bdMcfti24X7sJduAOQINyN22s9ARl33P5iwnH7qXAX7rG949sEwKrhHmclY9xu3L4s24W7cBfuADQf7mvJ9lArmRDj9r3E43bhLtyDe9e3CYBVwr3HSqbtcXuGE5A7gU5Anq/c7cJduIf1tm8TAPeH+xeNn4CMO27/yLi923O7cBfugf3atwmAe8M9/gnIzXQnIPdKnoA8irqSEe7CPbQ/+jYBcE+4G7cbt096AvJszBOQp6fCXbg34z3fJgDuDPeY4/YD4/Ys4/aOz+2nX34p3IV7VG/5NgFwR7i3Pm7fbG7c3tIJyALZftXtwl24h/XLb/k4AbA03OOP2/eN28cct++EHrfPs124C/e4fubbBMCycO+U7RlOQF70Xcncn+0ZVjLTjtsfL8l24S7c4/qBbxMAt4d7wZWMcXut2X7S9Lh94W/CXbhH9SPfJgBuDXfj9sZXMjWP24utZK67XbgL97De8G0C4BbfT3cCcsMJyObH7fNsF+7CPaw3/TYVgFvD3bjduH26cfvuNOP2ebYLd+Ee1vd8mgC4K9yN22s6ARl33L72E5Avs124C/ewfuvTBMDycA96AtK4fdQTkO2M24W7cI/tA58mAJaFe5Jx+wPj9pgnIHtmu3AX7mG979MEwJJwN25PcgJyJ9AJyGHjduEu3GN716cJgFvDvcUTkHHH7R8Zt4/13C7chXtcP/FpAqBXuFc5bs93AnLacfvz4ON24S7cY3vLpwmAHuH+JOMJyK2SJyCN28uegBTuwr0BP/ZpAqB7uNeS7QfG7VnG7Y9Gy3bhLtzD+rlPEwBdwz3euH2zuXH79pTj9qNWxu3CXbiH/t/U7/rjVAA6hrtxe/vj9p1Gx+3CXbiH9htfJgC6hXvGcfvDkuP2vxq3TzZuF+7CPbRf+TIB0CXcOz23xx23V7GS2XYCcuxxu3AX7qG948sEwOrhvtaVTI3j9i3j9mArmSuXl8JduDvjDkDj4T5Wtq91JRM/26taycTL9qtuF+7CPahf+DIBsGK4Jxi3bxi3V3UC8nz8lczlpXAX7s64A9B4uPd6bjduH/W53bh9+EpGuAv3wL7jywTACuFe5QlI4/ZRT0BmGLcLd+Ee2Q+dcQfg/nBvYtz+wLg95gnIMcftwl24R/Y7HyYA7g134/bxVzLG7VOfgLy8FO7C3TVIABoP90lWMsbtxu3TrGSu/UO4C/eQ3vNhAuDOcK9y3J7vBOS04/bnzY7bF90u3IW7ozIANBjuCVYyF05AVjpuL7KSucp24S7cY3rzDR8mAJaHe6fn9uOwJyBbH7efGLf/X7YLd+Ee0099lwBYGu7xxu1OQA7K9qPmx+2Lbv/0U+Eu3CP6g+8SAMvC3bi90hOQH69tJRN/3L7oduEu3EN623eJ/7F3f69V33ccx1sCGWFgJ3ghvXAbTBthoEtdOg2bbQQZlNbRMmg5F/bSXfTKe6nH0UIpc6hgLSUMtBeTrDDphS1iRxkIDrx10NgN2qhFi80a0t1t+aHrmuSc8z3n++vz+Xwfjz/Cz9Mvr7wPQJdwN243bh983H4ywHH7crYLd+Eepye9SwB0Dvfkx+1BnIB8wwnI6sbt584Jd+EerT3eJQA6hXtNKxnj9uTG7efDGbcLd+Eer53D3iUAMoT7b5NfyUQxbj9l3F7E53bhLtzjdMCzBECGcE8t218xbg/qBOSfq1zJCHfh7m9TAUg33Ht/bjduL/Rzu3F7oSuZtdku3IV7lCY9SwD0CPf6T0AebdwJyFNlnoCcauIJyHPnhLtwj/53Uzd6lgDoHu7G7XlWMh807gTk+SJPQP6xjJWMcBfukXrGqwRA13A3bs/5ud24PZwTkMJduMftV14lALqEe/ErmVcjOgH5lhOQCY7bhXuQ7qjyDPZ6lQDoHO61j9vfNG4vctx+3LhduAt3P78EQLPCPZFxuxOQ4Y7by1zJCHfhHqctI14lAPoN9z9EewIy9XH7WeP2jNku3IV7hJ73KAHQb7g3YNx+zLg95ZWMcBfucdrlUQKgv3Dv63O7cXukK5n4sr2/z+3CXbjH6HGPEgD9hLtxu3F79pVMmON24S7cTdwBaEC4xztuD+IEZLzj9iBOQBaa7cJduLviDkDS4V7wCUjj9lwnII3bBxy3r/hQuPsBptiMepMAyBruiaxkjNubPm5f6XbhLtxjs3mjNwmAbOEeZ7Y34QTk8YhOQAYxbl/OduEu3KPznCcJgGzhHsIJyHjH7a8bt1exkukn24W7cI/Ofk8SAFnCveBx+6uDjtsvGLf38bl9KvmVzEDj9vvdLtyFu2OQACQY7sbtvbv9g8adgDwf4wnIb7L9wyvCPSz3hLljkADkDvd4T0Aat4czbn87tGy/ItyFe2Re8CIB0CvcQxi3H01u3P5GleP2KeP2tdl+ZVq4C3fHIAFIKtwrGre/adxe5Lj9uHF7r26fnhbugbmpzLvb5BgkAJnCPfJx++kyx+0njNtjG7cvZ7twF+6R2edBAiBDuBu3h5btZ43b861khLtwj89eDxIA3T2S9rj9mHF7Q1Yya7NduAt3SxkAUgv3wFYy8Wd7UCuZ+LK9mJXMsqvCPShfaPOunvceAdDDjjMxjdtfMW4PaiUT6rhduAt3N2UASND2yMbtQZ+ADH/cHsQJyPLH7SvOLQh34R6PnRu8RwD0sOtMeScgjdsLPQFp3N6121dn+6KFGeEekk/FuaUMALmMRnsC0rg9kBOQAY7bV3zoi7twt5QBICXjiY/bIzoBadxeaLYvmhfuQflcnHe7KTPkOQKgh5Ex43bj9qrG7RcrGrc/cFu4C/dofMdzBEBPw2WM25t3ArLacfv7xu29P7dPT1+7IdyDIs67mfQaAdBbq8Hj9iasZErM9pBXMkvmhHtQrovzLp4e9hgB0NvW8FcyqY/bz0Y0bn87vGzv1O3TV4V7UG6p8y62e4sAyGB/hdnuBGSubJ9Kftz+XoHZPn1tQbgH5Y4672zzmLcIgAwmjNuDHbcfN24fcCWzclRGuAv3WOzzFAGQxYZ4xu2njduN2zNn+/S1WeEelI/keWdPeooAyKTlBGSi4/ZLTR233//b1LZwD8o9ed7RFn+aCkA2u/tbyRi3JzduP5/YuP2+BeEelpv63J+mApDXRLNOQBaV7UGtZOLL9nJXMisTd+Eu3GOxZ8RLBEAmQ4dCy/ZXjNuDOgEZ27j9/sS9LdzD8oU+7+SAdwiArLY2fNzeb7cbtxe6kvlLCSuZ5Svuwj0wnwr0TkY9QwAoU4B3AAAdPElEQVRkNZHvBORRJyCLPAE55QRkAZ/bp6evzQv3wHwu0P1qKgC5jRw0bncCMqFx+7LLbeEu3COxyysEQHbbox+3R3QCMqZx+9tRjtvv/2yqcA+NQO9g5waPEADZbStl3H40uXF7SicgEx63r7gh3ANzS6F3sNsbBEA/WpV8bjduN26vYNy+8sF9ri3cA3NHoa9v05gnCIB+TAY4bncCMpBxe3QrmcVsv7b0p6nCPSwfSfT1veAFAqAvI60ATkCmPm4/a9xezUpmMdtXPrgL96Dck+jre9wLBEB/RiMatx8zbm/ISmawcftitl++PC/c/XBqJF70/gDQp+GWcXufn9t/V9tKJolsL3Els9jtKx/chbsfTo3AhPcHgH7tNW5PdNx+smHj9sVsf/DBXbj74dTwPTPi+QGgb636xu1BnICMd9x+ybh9VbY/+OAu3P3+Uvie9PgA0L9txu0FnoA0bq9r3L7shnD3+0uReNYHdwAGsSOAlUwU4/ZTxu0hr2QWLbSFu99f8sEdgJRtPFhxtuc+AdnscXvhJyCTGLcvD2VmhbvfX4rlg7uXB4DBjDZz3P66cXsVK5lqxu1LpufbmcN9Rrj7/aVaTXp4ABjQ1m6f24827gTkqTJPQE418QTkuQo+t1++fLUt3J1xj8RzFu4ADGqolcC4/bUUx+2/ryzbI1/JfGsoI9ydcQ/duGcHgIFtOxTHuP0d4/bET0AOnO3fXJRZcrtXuH8m3J1xr9EBjw4AOTwV3AnIt8Jfyfwp4BOQ7zbnBOR9823h7oy7D+4ANMIjF3J/bjdub/gJyNrG7cuXIGe/Fe4zPcL9K+FelesyfY0XvTgA5DL8cMXj9tNljttPGLc3aNy+6g9Tl3x5WLi7Bhmszdu8OADkMjLUOmPcHvAJyNTH7VfyZPvluXaf4f61cHcNsjY7nJQBIK+NrTDG7ceM2xuykilo3L7qoMyynr+/9Ilwdw2yLjuf8NwAkNvYwcaO24NaycSX7fWuZBa7/caqbp/tGe53hbtrkHX5tccGgCLKvRXSSsa4PddKpinj9vW+t2c4435EuLsGWZOfDntrACjCxtaZErI9iBOQ8Y7bgzgBGey4fd1uz3ANUrhXRqmvMumlAaAYQ48atxd5AtK4vWu35x+3L92TWdvtGY7KCPeq3FLqTkECUFa5b71Q4glI4/ZATkCmMm5fc78989+mCndHZeqxySlIAAo0esgJyKjH7e82Z9y++vdSM0/cD98V7lW5p9W/Zbc3BoAi7WklNW4P4gRkvOP2iwGP25fOyaz3vT3LxF24OypTiy0bPTEAFGlkaGsjTkBWO25/37i9+M/tV9fN9kwTd+HuqEwtRr0wABRt9GCw4/bXjNvzZHtKK5m5+XYHGSbuwt1RmVr+MtVvpgJQvA27jdvrXMmcrHMlczGCE5BdPrdnuuIu3B2VqeU3U8c8LgCUYVvrQhUnIFMft08lP25/r8xsn+6Y7Wt+LPX/J+4zvZcywt1RmTp+M9UHdwBKMtoybi9/JWPcXuxKJutSRrhX5KZa/8azfjMVgLKMDE+2co/bT5c5bj9h3N7Qcftst27PtJQR7o7KOOEOQGImWlGuZOIdt18ybs/3tT3jTRnhXpXP9fr/bPeiAFCyPS8dPNrQlUzI4/bzDR23zy3c6JHt7dkMv74k3P1tavWeGfKeAFC+8a2H6j0BeSLFE5DxZXv9K5mF7huZjL++tPzBXbj729SKbR73lgBQiZHx7a13yjkBadye6wRkc8btcwvz7SxmZzJ9cBfu/ja1YrtdlAGgqnJ/6KGhiZcebl2I9ASkcXuhK5mKx+1zVzN9au/rg7tw97ephjIAJN7vI2Pjoy/t/82ORx8O0qMF+W6d/vP3v5XpajwWFs1nT/Z+Fu7C3d+mVvzTSy7KAECC/zd67F9tBtbrg/vMZ0eEe3WuK/YHP73k3zYASNAP/iq/B9bzg/vMXeHub1Ort8/AHQBS9P3r+ntgX2ZcuAt3f5tapS1P+IcNAFL085e/FOADyvajqcK9Mp9q9mWT/l0DgCRt+N7XCrykoczhT4S7v02t3g7/rAFAon70bwlezl+mHv7siHCv0h3N7hIkACTth/+U4CUNZe4K90rdE+0uQQJA0n7y8m0RXvJQRrj7+aXKjPo3DQCS9YuXv1LhpV6UyRTu13W3v00twm7/pAFAuoYfM3IveeAu3P38UlUODPsnDQAS9rOPZXi5A/cs4a67/fxSAZ52wR0AkvZjI/cSfzI1Y7j/Q3f7+aX8No379wwAUjbySyP3vru918B95pMj/YX7x7rbxD2/p/x7BgBp+y97d9MTVZqGAdgEU6SSjgGjhETFzyBIEJqPQmgRhIim/YCA2rqdfSX+gtrxs9gM/AQSFtAN9GhPd5ymJ7jQ5aij6bYF6pw6n3Cua2FcsDz15M6b573fUs+yKB4yt2/UCe5va4K7FffUPTPNAOCou2DJPeZCma9ye93gviV4e34pqkdeXgKAI++8JfdY92T2yO01Ne5W3JPWMVA2zADgqLtryT3W/fY9cntNG6QV96RfTB00ygDg6LPkHud++1f3UoMEd6UyVtwjap9y3g4ARXBhUyBPqL89YHB3N1WLu0IZACAATe7xvZe6d26vuZtqxT1RfcYYABRC+Vb1rUweS25/U6s1FNzdTbXiHsmCPRkAKEpyb9sWyhNbbw8Q3K24R/bvQuf2+SbBHQCK4vjSK7k86nH7xn5rMvWDuxV3K+5RDI+YYQBQGN9WNwTzOrdSG2qBDBjcrbhH9nuRC9zHjDAAKI7r1ZpofuCWTN3j9je1WuPBXYt7ZL8pcAcAiuGKQsgDt2TqbbcftCVTP7jblLHiHiG3V8wvACiUkwohD4rtEZbbgwR3nTKR/VHY3H7qO+MLAIplXCFkwxWQP9eP7QcHd50yyiAbz+2TphcAFExTj0LIBnfbg8T2g4O7q6mRrRU1t7fL7QBQPE8VQu6R2uvtyLz5qRaQq6nKIJPI7RP62wGgeBRC/r3+sV5qfxk8tR8c3F1NVQbZqCcmFwAU0OUWhZCBQ/tGuNBeJ7i7mqoMskFDBhcAFNIdhZCvXv3446+//nff0L6x8fLlz2/e/vSfWngO3JP0uph7Ms7bAaCgzleXayTGgXuSfilkn8yEqQUABXWruipeZxDcHbgrg2wst3cZWgBQVOXT6+J1BsFdpYxnUxvK7VP6ZACguE5Wd+Xr1IO7DnfPpjai33upAFBkd6vb8nXawd2jqTZlGtEx6LwdAIqs3LYpX6cd3N1MtSkjtwMAoV1ck69TDu5uptqUacDwmNwOAAX3uLooYKca3C3K2JRpwKMRwwoAiq7UtiNgJ2R3z9yuUSYOawXL7dNNZhUAYFcm3eCuUcamTHh9JZMKADg2blcmKcsW3G3KxFLfPmROAQDHjpVLV+3KpBfc5XabMuHr26fMKQDgI7sySVm04G5TJrr7g4YUAPB/emWSsi2325SJXiczYEYBAJ/olUnKqtzu9aWonqmTAQD+dNKuTDJ25HabMq6lAgAxumdXJo33l+R2mzJhdVSMJwDgC1deCNmJl8rI7TZlwpr1WioA8Dfn13bF7IRLZdbl9vj84tUlAKCgLlW3xexk76bqb4/Tb4VYb+8ymQCAr91ZF7OTvJu6uSVsx+h1EXL7w05zCQDYQ2/VrkyCK+7W2+P1ewFy+5wWSABgTyd6VgXtxFbcHbfHa+3ob8p0TBlKAMA+jm8J2nFb+XTcviRqx+ufRz63T2uTAQD29bi6LGnHa9d2uxL3hvQPlU0kAGBf5dM7onYCmzJKIJW4u5UKAMRLlXvsmzKbYrsS99DaR91KBQAOdr1FlXvMnTLrltuVuIc1XDGLAIB6Lqhyj/fA3Wm7EvfQby45bgcAAnjgemqMF1OXF+V2Je5hPRo0hwCAAEptKwJ3TKn93eLiCwnb1VRlMgBAMs4tydzRQ/vu8uJHDtxdTQ3nH2NmEAAQkOupESP77vKn0P7ejoTtamqop1K7TCAAILgb68s05t27xS85cPdqapgOyLlW8wcACGG8ur1ILGy4u5oawnNPLgEA4ZRPb4rcsdh24O5qavCXUifNHgAgrPNrMncsNiVsV1ODdsnMqG4HAMK73LMjdMdgVcB2NTXocvuIuQMANOLiktQdgyUBOyF/WG4HAPjoVnVF7HYzNb/+daRi+2zFyAEAGnZtS+6OfDNVvk7K66MU2+enzBsAIIKzGiEtyuiCTMGjybJxAwBEUb6yLnlHsy5f64Ks3wAptgMAUYN7ryP3aHbka12QYjsAkIKmqx5h0gSZTz3DR+NKqtgOAMTjpEeYPJmaT+fKU/OHvrd9YdCMAQBicvkbjzA1nttdTE3ON9fff56DC+2H+ZXU0QETBgCIzw+O3BXK5NHFD19n+djYaP8hje33Z1qNFwAgTpdaPMIkt+dPy6XPX+jIzGFcdp/tKhkuAEDMbiyJ4PZkcufpXz7RUqX51KFK7R19nQYLABC/m1VH7nJ77tz78isdGXp4aC6kzk40GSsAQCKuOXKX2/Pmwlefabmz7zBsu9/vdiEVAEjMeHVVEA9pRQ9ksh5//Z2Wj7U+yXk/ZH/zlM12ACBB5TNbkrj3UnPlzn6PFg3cns1rQWT/QtcJ0wQASNYDR+7h1mS2JOuEnT3gc32f3fOX2k/N3m71QioAkDhH7qGsWpNJ2pk6GXggX1dVP6R2YwQASIUj9xDW5epMD9w/6Rx6no+KyI5nXVI7AJCa8hVH7kFvpWqTyf7A/ZOmymjGTzO1z3dX3EYFAFL1oLotkwfabm8Rq3Nx4P7ZwMRCViWRHc0TI0YHAJA2R+6BYrstmTwduH/+dpumumfTDu8dC0OD7qICAJmw5V4/tm+K1Lk7cP+s1PmkuSOlnsj7zbc7hXYAIDOO3J22H84D978Y65p7mGx475/tnmr98BQUAEB2HLkflNp3NLfn+sD9T02dXaPTSZy9358e7epsktkBgOyV7zhy369IRmrPxaOpAT/kD/+MVG7PzcfVFtk/P/ekovERAMiPcUfue521v5DaU/Y4tk+6tXNyqG96uNEAf2p4um9mojLgkB0AyJtrjty/zOwrm1veSE3dtdg/7NJYZWKmb2H2YaDqmfaOR8+fjQ51DY58DOxSOwCQQzerOyu8t/Nic33LO0sZuZfgJ15qHRv8bnLi9tBM92hfX9+z5g/m3v9vtHtoaKJrstI5cOLz30rsAECO3ZAaydrTlD72smQOABxi33sVlIy1fO93CABQ33HBkWxd9CsEAAjgeo/kSJZ6rvsVAgAEcVJ0JEvn/AYBAAI50SY7kp22E36DAACBlHuFR7LzrZ8gAEBApSvSI1k5U1LRCAAQ1FnxkayM+/0BAAR3TX4kGxf8+gAAQrjlFSYy0XLLrw8AIIyLIiRZ8PYSAEA4l6/KkKSvrdVvDwAgnF4hkvT1+uUBAIRUOiNFkrYzJb88AICw7oqRpH0z9abfHQBAeMcFSdL1P/buZbVxLIoCaIOMQGCMY4gnjvETDPEDPPMgyczYhAxNAvmH+v9pUzRNVXUnVY4syfdKa33D2bARR+e+SR0AQA6zpSZJlRYzqQMAyGOkSlKllcwBAOTi/1T8mQoAEIHswfupVPdn6lHkAADy8n4qlellAgcAkFPW6euTVKPfETgAgPzeFUqq8SJtAAAXyMYaJVUYW5QBALjI1DF3KtCeyhoAwGUcc6cCTrgDAFwq3WuVlG2f2pQBALjUc1uvpORFmSc5AwC43FCxpFwjKQMAKEA60Cwp0yCVMgCAIhwty1DqoowFdwCAQmSWZSjRUMQAAAqSzLVLyjK3KAMAUBjLMpS2KHOULwCA4liWwUUZAIAIeIaJcuwtygAAFGq61DEp3nIqWwAAhcrWSibFW4sWAEDRzX2sZVK0sWABABRu1tczKdZiJlcAAMV7UTQp1p0nUwEAyjDRNCnSRKYAAErhAVWKNE9kCgCgHE9uQlKY9rNEAQCUZaVuUhSXIAEAypO96psUY+fHVACAEt24CUkhbm+kCQCgTIeuzkkBC+4PsgQAUK6R0snlVhZlAABKlu60Tiy4AwCEr3Ord2LBHQAgfEfX3Llswf0oRQAAVVirnlxia1EGAKAaLd2T/FoSBABQkWSgfZLXvCNBAABVmS70T/JZTOUHAKA6j95hIpfuo/QAAFTJO0zkMpIdAIBKZX5QJYdX0QEAqJgfVPm6gR9TAQAqt/GDKl/U38gNAED1Tm1NlC/9mHry8hIAwDWsVFG+Yi0zAADX0dNFOd9EYgAAriQda6Oca2xPBgDgajpzfRQHZQAAwrfpa6Scd1DGB3cAgGt6cFqGM7QPsgIAcF3vSil/PgT5IikAANc2Ukv5k5GcAABcXTbRS3EIEgAgfOlOM+V3dv5LBQAIQnKvm/K5fSIjAABhuHHOnU/NZxICABAK59z5TH8qHwAA4TguNVQ+sjxKBwBASA4eYuKj3n6SDQCAsNxp7vxP+04yAABC897VU/lVdysXAADhWSmq/GolFQAAIRpqqvxsKBMAAEHKeroqP0xEAgAgUOmbtsq/3jKJAADQ3AldK5UHAICAm/urxsp3r3o7AEDYzX2ns/Lt205vBwDQ3Am/tyeSAAAQumSstzbdWG8HAIihud9rrno7AADhS31z19sBAIhAYs/dfjsAABFwFdI9GQAANHdC7u0eTAUAiEnmDdVG8l4qAEB0zX2ixTbPm94OAKC5E7yeNRkAgBgNNdlmGertAABxWnWV2eborkw8AECstpp7Y7S35h0AIFrZXVujbYblnXEHAIjZYanTNqK3n8w6AEDcjn2ttv76R5MOABC7zVyvrbvbqTkHAIjfbK/Z1tv+xpQDANRBstNt62ycmHEAgHrwiGqdTVITDgBQGyP9tq48lwoAUCtbB93reQby3WwDANSLs5C1PAN5MNkAADWTbQZ6bt3MnYEEAKihzljTrZd7ZyABAOooS3u6rnMyAABEYNVVd+uivTbPAAD1dVpovPWweHQGEgCgzvyi6rdUAAAikCWvWm/8dh2jDABQ++pu0T12Xa+lAgA0wqNF96gt78wwAEAzPM+1X+vtAACEL2npv7F6td4OANAk26UKHOX19pX1dgCARsmebrXg+NwejS4AQNPc7PTg2Ixn5hYAoHnchXQFEgCAKJz62nA8+gcTCwDQVNZlrMkAABCDbO26TBzXZEaGFQCg2c39yWNMrskAABCB5E0vDl3Lo0sAAPz11/tCNQ7Z4sWMAgDw3WasHYfrfmNCAQD4R7ZuK8hhWq4cbwcA4IfpXkcO0eDZbAIA8LN05KN7cLq91GQCAPAfDw5DBmbuCCQAAB9Ihj66B/W5PTGTAAB86DjQl4P53P7gr1QAAD6RpT66h6E9tN0OAMDvPDsvE8IxmSeTCADA7yWjpeJ85c/tI5/bAQD4o2zqIdXrPpU6NYQAAJxV3V/66vO19LcGEACAc3V6GvR1tG5MHwAAZ8uyB5chr3ED8mT2AAD4WnX3k2rlln5KBQAgh9lEl67SbmPmAADI5WBfxpYMAAARSNcLldqWDAAA4ZtNump12bqtmUkDAOBCT/eadckvLj2YMuBv9u6mRW0uDANwoUEISPANxI0JiR8gOFHIzoVxJ4rMcmjh/Q/9/9vOYrpoSzudmaiJua6fkHMWN4c7zwMADagXwvXlJI+hKwYAQCNU3S+3KLVUbgcAoDlRNhSymzeMldsBAGjWLPCXauP/pJrcDgBA886BrN2kYu9OAQBwEScDZpobJXN0nwAAuJjjQeRuwiQ1SgYAgEsK/zcb8sMWJkACAHD56J6K7h8b3F6ZAAkAgOje9tf2yms7AADXi+4TEfx9sd1rOwAAV43uj6L7239J1W0HAOD60b02HPJNDmI7AAC3sdvapvrPc9tr9wUAgJs5T4cy+etGW1tSAQC4rU38IJj/3UO8cU8AALi5aJ0I538Z215G7ggAAK0Q1oWA7o9UAAA6YB8ru//ekQlObgYAAC0zzzVmfu7I5HO3AgCAFgqPgWf3H3NkitSOVAAAWmuej4X2b9/GmTkyAAC02+BxNfTY7h4AANB+87LHbfck23wySAYAgG4Ij9NermUaBrXQDgBAp0TVqncz29dWLQEA0EGzfNGniszMiQMA0NnsnvViysw43qnIAADQbaf4zrP7cloPxHYAALpvUE/vNruPn1O7EwYA4F6EuziR2gEAoP0Gd5bdE712AADu1axcje5iOeoh2zlNAADu2X/pdNnt1P6wrebOEQCA+zd4iiddTe2T7EmtHQCA/pin3Wu8j4Nq80mvHQCAfgnDTRV0pjXzUJR7mR0AgL4a7Mvtsv2hPdePAQCg98L9OmjtgqZlUe6EdgAAeAnv52o6admkyNFkWp3VYwAA4Befd615el8WeR0J7QAA8CebNNveMr2Pxtss3TgHAAB43fypDBZXb86MFkH5ZLcSAAC8RTiYpXkwGV4lsydFXO0+++gAAPBOg/Nj/nW1vNTz+3j1NU/3A3V2AAD4kJdIHe3TfLpKGnt/Hyar6XNij2xCBQCAC8T4+Sldx8G7E/xzXg/idXrSZAcAgKuIZrt0ncdfikPyyurVZXIovsR5le5mke8GAAA38KNIszkf67SqyjyL4yCI4ywvqyqtj+fNS1YPVWIAAKBlWV5IBwAAAAAAAAAAAAAAAAAAAAAAAAAAAAAAAAAAAAAAAAAAAAAAAAAAAAAAAAAAAAAAAAAAAAAAAAAAAAAAAAAAAAAAAAAAAAAAAAAAAAAAAAAAAAAAAAAAAAAAAAAAAAAAAAAAAAAAAAAAAAAAAAAAAAAAAAAAAAAAAAAAAAAAAAAAAAAAAAAAAAAAAAAAAAAAAAAAAAAAAAAAAAAAAAAAAAAAAAAAAAAAAAAAAAAAAAAAAAAAAAAAAAAAAAAAAAAAAAAAAAAAAAAAAAAAAAAAAAAAAAAAAAAAAAAAAAAAAAAAAAAAAAAAAAAAAAAAAAAAAAAAAAAAAAAAAAAAAAAAAAAAAAAAAAAAAAAAAAAAAAAAAAAAAPjOHhwIAAAAAAD5vzaCqqqqqqqqqqqqqqqqqqqqqqqqqqqqqqqqqqqqqqqqqqqqqqqqqqqqqqqqqqqqqqqqqqqqqqqqqqqqqqqqqqqqqqqqqqqqqqqqqqqqqqqqqqqqqqqqqqqqqqqqqqqqqqqqqqqqqqqqqqqqqqqqqqqqqqqqqqqqqqqqqqqqqqqqqqqqqqqqqqqqqqqqqqqqqqqqqqqqqqqqqqqqqqqqqqqqqqqqqqqqqqqqqqqqqqqqqqqqqqqqqqqqqqqqqqqqqqqqqqqqqqqqqqqqqqqqqqqqqqqqqqqqqqqqqqqqqqqqqqqqqqqqqqqqqqqqqqqqqqqqqqqqqqqqqqqqqqqqqqqqqqqqqqqqqqqqqqqqqqqqqqqqqqqqqqqqqqqqqqqqqqqqqqqqqqqqqqqqqqqqqqqqqqqqqqqqqqqqqqqqqqqqqqqqqqqqqqqqqqqqqqqqqqqqqqqqqqqqqqqqqqqqqqqqqqqqqqqqqqqqqqqqqqqqqqqqqqqqqqqqqqqqqqqqqqqqqqqqqqqqqqqqqqqqqqqqqqqqqqqqqqqqqqqqqqqqqqqqqqqqqqqqqqqqqqqqqqqqqqqqqqqqqqqqqqqqqqqqqqqqqqqqqqqqqqqqqqqqqqqqqqqqqqqqqqqqqqqqqqqqqqqqqqqqqqqqqqqqqqqqqqqqqqqqqqqqqqqqqqqqqkp7cEgAAAAAIOj/a1fYAAAAAAAAAAAAAAAAAAAAAAAAAAAAAAAAAAAAAAAAAAAAAAAAAAAAAAAAAAAAAAAAAAAAAAAAAAAAAAAAAAAAAAAAAAAAAAAAAAAAAAAAAAAAAAAAAAAAAAAAAAAAAAAAAAAAAAAAAAAAAAAAAAAAAAAAAAAAAAAAAAAAAAAAAAAAAAAAAAAAAAAAAAAAAAAAAAAAAAAAAAAAAAAAAAAAAAAAAAAAAAAAAAAAAAAAAAAAAGAWval0hmyTDWIAAAAASUVORK5CYII=;sketch=0;perimeterSpacing=0;strokeWidth=1;labelBackgroundColor=none;labelBorderColor=none;" vertex="1" parent="1">
          <mxGeometry x="330" y="30" width="85.24" height="56.88" as="geometry" />
        </mxCell>
        <mxCell id="hEISInPQRgZ5dUjzCxsK-5" value="&lt;font color=&quot;#009999&quot;&gt;&lt;b&gt;Azure Active Directory&lt;/b&gt;&lt;/font&gt;" style="text;html=1;strokeColor=none;fillColor=none;align=center;verticalAlign=middle;whiteSpace=wrap;rounded=0;" vertex="1" parent="1">
          <mxGeometry x="660" y="175" width="128.89" height="20" as="geometry" />
        </mxCell>
        <mxCell id="hEISInPQRgZ5dUjzCxsK-6" value="&lt;b&gt;&lt;font color=&quot;#66b2ff&quot;&gt;Alora Bot&lt;/font&gt;&lt;/b&gt;" style="text;html=1;strokeColor=none;fillColor=none;align=center;verticalAlign=middle;whiteSpace=wrap;rounded=0;" vertex="1" parent="1">
          <mxGeometry x="150" y="210" width="62.62" height="20" as="geometry" />
        </mxCell>
        <mxCell id="hEISInPQRgZ5dUjzCxsK-7" value="&lt;b&gt;&lt;font color=&quot;#000033&quot;&gt;Microsoft Graph&lt;/font&gt;&lt;/b&gt;" style="text;html=1;strokeColor=none;fillColor=none;align=center;verticalAlign=middle;whiteSpace=wrap;rounded=0;" vertex="1" parent="1">
          <mxGeometry x="470.00000000000006" y="240" width="100" height="20" as="geometry" />
        </mxCell>
        <mxCell id="hEISInPQRgZ5dUjzCxsK-8" value="&lt;font color=&quot;#4c0099&quot;&gt;&lt;b&gt;Microsoft Teams&lt;/b&gt;&lt;/font&gt;" style="text;html=1;strokeColor=none;fillColor=none;align=center;verticalAlign=middle;whiteSpace=wrap;rounded=0;" vertex="1" parent="1">
          <mxGeometry x="317.62" y="20" width="110" height="20" as="geometry" />
        </mxCell>
        <mxCell id="hEISInPQRgZ5dUjzCxsK-14" value="" style="endArrow=classic;html=1;entryX=0;entryY=0.25;entryDx=0;entryDy=0;strokeColor=#CC6600;strokeWidth=2;" edge="1" parent="1" target="hEISInPQRgZ5dUjzCxsK-3">
          <mxGeometry relative="1" as="geometry">
            <mxPoint x="260" y="210" as="sourcePoint" />
            <mxPoint x="360" y="210" as="targetPoint" />
          </mxGeometry>
        </mxCell>
        <mxCell id="hEISInPQRgZ5dUjzCxsK-15" value="Install App Request" style="edgeLabel;resizable=0;html=1;align=center;verticalAlign=middle;fontStyle=1" connectable="0" vertex="1" parent="hEISInPQRgZ5dUjzCxsK-14">
          <mxGeometry relative="1" as="geometry" />
        </mxCell>
        <mxCell id="hEISInPQRgZ5dUjzCxsK-17" value="" style="endArrow=classic;html=1;startArrow=none;startFill=0;entryX=0.821;entryY=0.527;entryDx=0;entryDy=0;entryPerimeter=0;exitX=0.5;exitY=0;exitDx=0;exitDy=0;strokeColor=#CC6600;strokeWidth=2;" edge="1" parent="1" source="hEISInPQRgZ5dUjzCxsK-3" target="hEISInPQRgZ5dUjzCxsK-4">
          <mxGeometry relative="1" as="geometry">
            <mxPoint x="520" y="190" as="sourcePoint" />
            <mxPoint x="399.9999999999998" y="87.94" as="targetPoint" />
            <Array as="points">
              <mxPoint x="520" y="60" />
            </Array>
          </mxGeometry>
        </mxCell>
        <mxCell id="hEISInPQRgZ5dUjzCxsK-18" value="Install App in User Scope" style="edgeLabel;resizable=0;html=1;align=center;verticalAlign=middle;rotation=90;fontSize=11;fontStyle=1" connectable="0" vertex="1" parent="hEISInPQRgZ5dUjzCxsK-17">
          <mxGeometry relative="1" as="geometry">
            <mxPoint x="10" y="60" as="offset" />
          </mxGeometry>
        </mxCell>
        <mxCell id="hEISInPQRgZ5dUjzCxsK-20" value="" style="endArrow=classic;html=1;exitX=1;exitY=0.5;exitDx=0;exitDy=0;entryX=0;entryY=0.5;entryDx=0;entryDy=0;startArrow=classic;startFill=1;strokeColor=#66B2FF;strokeWidth=2;" edge="1" parent="1" source="hEISInPQRgZ5dUjzCxsK-3" target="hEISInPQRgZ5dUjzCxsK-1">
          <mxGeometry relative="1" as="geometry">
            <mxPoint x="580" y="220" as="sourcePoint" />
            <mxPoint x="680" y="220" as="targetPoint" />
            <Array as="points">
              <mxPoint x="640" y="220" />
            </Array>
          </mxGeometry>
        </mxCell>
        <mxCell id="hEISInPQRgZ5dUjzCxsK-21" value="Authorize and Provide User List" style="edgeLabel;resizable=0;html=1;align=center;verticalAlign=bottom;labelPosition=center;verticalLabelPosition=top;fontSize=10;fontStyle=1" connectable="0" vertex="1" parent="hEISInPQRgZ5dUjzCxsK-20">
          <mxGeometry relative="1" as="geometry">
            <mxPoint x="-1" y="-4" as="offset" />
          </mxGeometry>
        </mxCell>
        <mxCell id="hEISInPQRgZ5dUjzCxsK-22" value="" style="endArrow=classic;html=1;entryX=0.5;entryY=1;entryDx=0;entryDy=0;strokeColor=#66B2FF;strokeWidth=2;" edge="1" parent="1" target="hEISInPQRgZ5dUjzCxsK-1">
          <mxGeometry relative="1" as="geometry">
            <mxPoint x="240" y="240" as="sourcePoint" />
            <mxPoint x="730" y="270" as="targetPoint" />
            <Array as="points">
              <mxPoint x="240" y="280" />
              <mxPoint x="490" y="280" />
              <mxPoint x="730" y="280" />
            </Array>
          </mxGeometry>
        </mxCell>
        <mxCell id="hEISInPQRgZ5dUjzCxsK-23" value="Bot Registered In Active Directory&amp;nbsp;" style="edgeLabel;resizable=0;html=1;align=center;verticalAlign=top;labelPosition=center;verticalLabelPosition=bottom;fontStyle=1" connectable="0" vertex="1" parent="hEISInPQRgZ5dUjzCxsK-22">
          <mxGeometry relative="1" as="geometry" />
        </mxCell>
        <mxCell id="hEISInPQRgZ5dUjzCxsK-24" value="" style="endArrow=classic;html=1;entryX=0.5;entryY=0;entryDx=0;entryDy=0;strokeColor=#CC6600;strokeWidth=2;" edge="1" parent="1" source="hEISInPQRgZ5dUjzCxsK-4" target="hEISInPQRgZ5dUjzCxsK-2">
          <mxGeometry relative="1" as="geometry">
            <mxPoint x="300" y="88" as="sourcePoint" />
            <mxPoint x="280" y="170" as="targetPoint" />
            <Array as="points">
              <mxPoint x="238" y="58" />
            </Array>
          </mxGeometry>
        </mxCell>
        <mxCell id="hEISInPQRgZ5dUjzCxsK-25" value="Conversation Update Event" style="edgeLabel;resizable=0;html=1;align=center;verticalAlign=middle;rotation=90;fontSize=11;fontStyle=1" connectable="0" vertex="1" parent="hEISInPQRgZ5dUjzCxsK-24">
          <mxGeometry relative="1" as="geometry">
            <mxPoint x="-11" y="47" as="offset" />
          </mxGeometry>
        </mxCell>
        <mxCell id="hEISInPQRgZ5dUjzCxsK-34" value="" style="endArrow=classic;html=1;fontSize=11;strokeColor=#66B2FF;exitX=1;exitY=0.75;exitDx=0;exitDy=0;entryX=0;entryY=0.75;entryDx=0;entryDy=0;jumpSize=6;strokeWidth=2;startArrow=classic;startFill=1;" edge="1" parent="1" source="hEISInPQRgZ5dUjzCxsK-2" target="hEISInPQRgZ5dUjzCxsK-3">
          <mxGeometry relative="1" as="geometry">
            <mxPoint x="360" y="230" as="sourcePoint" />
            <mxPoint x="460" y="230" as="targetPoint" />
          </mxGeometry>
        </mxCell>
        <mxCell id="hEISInPQRgZ5dUjzCxsK-35" value="Get User List Request" style="edgeLabel;resizable=0;html=1;align=center;verticalAlign=middle;fontStyle=1" connectable="0" vertex="1" parent="hEISInPQRgZ5dUjzCxsK-34">
          <mxGeometry relative="1" as="geometry" />
        </mxCell>
        <mxCell id="hEISInPQRgZ5dUjzCxsK-58" value="1" style="rounded=1;align=center;strokeColor=none;html=1;fontSize=10;labelBackgroundColor=#66B2FF;sketch=0;arcSize=50;fillColor=#66B2FF;glass=0;perimeterSpacing=0;shadow=0;" vertex="1" parent="1">
          <mxGeometry x="274.62" y="216" width="14.76" height="14" as="geometry" />
        </mxCell>
        <mxCell id="hEISInPQRgZ5dUjzCxsK-59" value="1" style="rounded=1;align=center;strokeColor=none;html=1;fontSize=10;labelBackgroundColor=#66B2FF;sketch=0;arcSize=50;fillColor=#66B2FF;glass=0;perimeterSpacing=0;shadow=0;" vertex="1" parent="1">
          <mxGeometry x="244" y="245" width="14.76" height="14" as="geometry" />
        </mxCell>
        <mxCell id="hEISInPQRgZ5dUjzCxsK-60" value="1" style="rounded=1;align=center;strokeColor=none;html=1;fontSize=10;labelBackgroundColor=#66B2FF;sketch=0;arcSize=50;fillColor=#66B2FF;glass=0;perimeterSpacing=0;shadow=0;" vertex="1" parent="1">
          <mxGeometry x="555.24" y="222" width="14.76" height="14" as="geometry" />
        </mxCell>
        <mxCell id="hEISInPQRgZ5dUjzCxsK-62" value="2" style="rounded=1;align=center;strokeColor=none;html=1;fontSize=10;labelBackgroundColor=none;sketch=0;arcSize=50;glass=0;perimeterSpacing=0;shadow=0;fillColor=#CC6600;fontColor=#FFFFFF;" vertex="1" parent="1">
          <mxGeometry x="314" y="60" width="14.76" height="14" as="geometry" />
        </mxCell>
        <mxCell id="hEISInPQRgZ5dUjzCxsK-63" value="2" style="rounded=1;align=center;strokeColor=none;html=1;fontSize=10;labelBackgroundColor=none;sketch=0;arcSize=50;glass=0;perimeterSpacing=0;shadow=0;fillColor=#CC6600;fontColor=#FFFFFF;" vertex="1" parent="1">
          <mxGeometry x="262.62" y="195" width="14.76" height="14" as="geometry" />
        </mxCell>
        <mxCell id="hEISInPQRgZ5dUjzCxsK-65" value="2" style="rounded=1;align=center;strokeColor=none;html=1;fontSize=10;labelBackgroundColor=none;sketch=0;arcSize=50;glass=0;perimeterSpacing=0;shadow=0;fillColor=#CC6600;fontColor=#FFFFFF;" vertex="1" parent="1">
          <mxGeometry x="503.11" y="184" width="14.76" height="14" as="geometry" />
        </mxCell>
      </root>
    </mxGraphModel>
  </diagram>
</mxfile>
